<?xml version="1.0" standalone="no"?>
<!DOCTYPE svg PUBLIC "-//W3C//DTD SVG 1.1//EN" "http://www.w3.org/Graphics/SVG/1.1/DTD/svg11.dtd" >
<svg>
<metadata>
Created by FontForge 20090622 at Tue Oct 15 03:20:04 2019
 By deploy user
(c) Copyright 1999-2005 Bitstream/Galapagos Design Group. All rights reserved.
</metadata>
<defs>
<font id="FuturaMd" horiz-adv-x="1184" >
  <font-face 
    font-family="Futura Md"
    font-weight="400"
    font-stretch="normal"
    units-per-em="2048"
    panose-1="2 11 6 2 2 2 4 2 3 3"
    ascent="1556"
    descent="-492"
    x-height="958"
    cap-height="1544"
    bbox="-377 -553 2404 2142"
    underline-thickness="143"
    underline-position="-195"
    unicode-range="U+0020-U+FB02"
  />
<missing-glyph horiz-adv-x="1229" 
d="M102 -362v1806h1024v-1806h-1024zM217 -248h795v1577h-795v-1577z" />
    <glyph glyph-name=".notdef" horiz-adv-x="1229" 
d="M102 -362v1806h1024v-1806h-1024zM217 -248h795v1577h-795v-1577z" />
    <glyph glyph-name="NULL" horiz-adv-x="0" 
 />
    <glyph glyph-name="nonmarkingreturn" horiz-adv-x="592" 
 />
    <glyph glyph-name="space" unicode=" " horiz-adv-x="592" 
 />
    <glyph glyph-name="exclam" unicode="!" horiz-adv-x="657" 
d="M457 94q0 -53 -37 -90t-90 -37t-90 37t-37 90t37 90t90 37t90 -37t37 -90zM422 406h-184v1138h184v-1138z" />
    <glyph glyph-name="quotedbl" unicode="&#x22;" horiz-adv-x="899" 
d="M342 979h-137v565h137v-565zM696 979h-137v565h137v-565z" />
    <glyph glyph-name="numbersign" unicode="#" 
d="M793 940h-295l-92 -338h292zM1174 1061l-29 -121h-211l-94 -338h233l-26 -123h-234l-133 -479h-143l135 479h-291l-137 -479h-142l134 479h-224l29 123h221l94 338h-247l28 121h246l133 483h141l-131 -483h291l133 483h142l-131 -483h213z" />
    <glyph glyph-name="dollar" unicode="$" 
d="M854 422q0 84 -52 153t-155 119v-526q98 16 152.5 83t54.5 171zM549 936v444q-81 -10 -137 -71t-56 -135q0 -72 48 -131t145 -107zM1038 432q0 -176 -107.5 -296t-283.5 -136v-211h-98v211q-145 4 -255 70.5t-173 187.5l133 109q39 -90 117.5 -143t176.5 -56l1 569
q-197 90 -287 192.5t-90 239.5q0 147 105.5 254t271.5 121v146h98v-145q100 -4 179.5 -48t144.5 -131l-127 -109q-35 56 -83.5 86.5t-113.5 36.5v-485q203 -91 297 -202t94 -261z" />
    <glyph glyph-name="percent" unicode="%" horiz-adv-x="1450" 
d="M1264 322q0 88 -57 150.5t-138 62.5t-139 -63t-58 -150q0 -88 58 -150.5t139 -62.5t138 62t57 151zM590 1223q0 88 -57 150.5t-138 62.5t-138.5 -63t-57.5 -150q0 -88 57.5 -150.5t138.5 -62.5t138 62.5t57 150.5zM1401 322q0 -142 -97.5 -242t-234.5 -100t-235.5 100.5
t-98.5 241.5q0 140 98.5 240t235.5 100t234.5 -100t97.5 -240zM1245 1544l-909 -1544h-117l909 1544h117zM727 1223q0 -141 -97 -240.5t-235 -99.5q-137 0 -235.5 99.5t-98.5 240.5q0 140 98.5 241t235.5 101t234.5 -100.5t97.5 -241.5z" />
    <glyph glyph-name="ampersand" unicode="&#x26;" horiz-adv-x="1417" 
d="M895 317l-348 439q-158 -106 -215.5 -179t-57.5 -171q0 -116 78.5 -191.5t198.5 -75.5q84 0 170.5 45t173.5 133zM793 1245q0 76 -48.5 122t-126.5 46q-84 0 -131 -43.5t-47 -120.5q0 -44 25 -94.5t82 -120.5l49 -61q109 73 153 134t44 138zM1370 0h-221l-152 188
q-113 -110 -226.5 -165.5t-225.5 -55.5q-208 0 -335.5 121.5t-127.5 314.5q0 134 82.5 244t281.5 234l-49 63q-76 98 -104.5 164.5t-28.5 140.5q0 143 98.5 235.5t258.5 92.5q152 0 250 -92.5t98 -231.5q0 -115 -63.5 -209.5t-211.5 -193.5l322 -404q45 58 88 120.5
t82 127.5l137 -98q-47 -77 -98 -147.5t-105 -133.5z" />
    <glyph glyph-name="quotesingle" unicode="'" horiz-adv-x="567" 
d="M352 979h-137v565h137v-565z" />
    <glyph glyph-name="parenleft" unicode="(" horiz-adv-x="598" 
d="M516 -395l-143 -66q-124 217 -187 475t-63 547t63 546t187 474l143 -65q-108 -197 -163.5 -439t-55.5 -516t55.5 -516.5t163.5 -439.5z" />
    <glyph glyph-name="parenright" unicode=")" horiz-adv-x="598" 
d="M475 561q0 -289 -63 -547t-187 -475l-143 66q109 199 165 441.5t56 514.5q0 271 -56 513.5t-165 441.5l143 65q124 -217 187 -474t63 -546z" />
    <glyph glyph-name="asterisk" unicode="*" horiz-adv-x="885" 
d="M811 1008l-61 -103l-258 166l12 -307h-123l12 307l-258 -166l-61 103l272 147l-272 145l61 105l258 -168l-12 307h123l-12 -307l258 168l61 -105l-270 -145z" />
    <glyph glyph-name="plus" unicode="+" 
d="M1128 487h-462v-487h-146v487h-463v142h463v485h146v-485h462v-142z" />
    <glyph glyph-name="comma" unicode="," horiz-adv-x="592" 
d="M436 174l-266 -528l-113 43l193 563z" />
    <glyph glyph-name="hyphen" unicode="-" horiz-adv-x="680" 
d="M586 453h-492v172h492v-172z" />
    <glyph glyph-name="period" unicode="." horiz-adv-x="592" 
d="M424 94q0 -53 -37 -90t-90 -37t-90 37t-37 90t37 90t90 37t90 -37t37 -90z" />
    <glyph glyph-name="slash" unicode="/" horiz-adv-x="1128" 
d="M1098 1647l-1004 -1954l-121 65l1004 1954z" />
    <glyph glyph-name="zero" unicode="0" 
d="M950 774q0 287 -99.5 463t-260.5 176q-156 0 -255 -180.5t-99 -462.5q0 -280 99.5 -459.5t256.5 -179.5q163 0 260.5 175.5t97.5 467.5zM1133 772q0 -366 -149 -585.5t-394 -219.5q-242 0 -390.5 220.5t-148.5 584.5q0 365 149 585t392 220q245 0 393 -219t148 -586z" />
    <glyph glyph-name="one" unicode="1" 
d="M745 0h-184v1368h-293l84 176h393v-1544z" />
    <glyph glyph-name="two" unicode="2" 
d="M1077 0h-975l529 637q145 175 200.5 281t55.5 208q0 124 -83.5 205.5t-215.5 81.5q-127 0 -209 -92.5t-84 -232.5h-178q1 228 126.5 358.5t348.5 130.5q219 0 349 -123t130 -321q0 -145 -70 -281t-292 -391l-258 -297h626v-164z" />
    <glyph glyph-name="three" unicode="3" 
d="M1053 432q0 -213 -130.5 -339t-357.5 -126q-212 0 -332 112.5t-127 315.5h185q3 -125 77 -194.5t199 -69.5q144 0 222.5 80t78.5 225q0 141 -81.5 220t-231.5 79h-49v164h47q136 0 208.5 68.5t72.5 199.5q0 109 -69 177.5t-181 68.5q-108 0 -177.5 -55.5t-84.5 -155.5
h-175q19 178 135 276.5t308 98.5q198 0 313 -111t115 -297q0 -134 -69 -230t-185 -120q130 -23 209.5 -129t79.5 -258z" />
    <glyph glyph-name="four" unicode="4" 
d="M739 504v604l-454 -604h454zM1135 340h-211v-340h-185v340h-747l932 1249v-1085h211v-164z" />
    <glyph glyph-name="five" unicode="5" 
d="M1061 504q0 -244 -152.5 -390.5t-410.5 -146.5q-140 0 -246 48.5t-191 152.5l105 121q80 -91 152 -124.5t174 -33.5q170 0 277.5 104t107.5 269q0 160 -104.5 263t-268.5 103q-100 0 -195.5 -33t-163.5 -92l179 799h673v-164h-540l-88 -381q40 19 85 27t101 8
q228 0 367 -148t139 -382z" />
    <glyph glyph-name="six" unicode="6" 
d="M930 485q0 144 -98 243t-240 99q-144 0 -241 -97t-97 -245q0 -147 98 -250.5t240 -103.5q141 0 239.5 103.5t98.5 250.5zM1114 485q0 -216 -150.5 -367t-371.5 -151t-371.5 150t-150.5 368q0 125 56.5 256.5t199.5 335.5l323 467h203l-408 -590q23 16 69 26.5t87 10.5
q223 0 368.5 -143t145.5 -363z" />
    <glyph glyph-name="seven" unicode="7" 
d="M1157 1544l-819 -1589l-170 84l717 1341h-803v164h1075z" />
    <glyph glyph-name="eight" unicode="8" 
d="M897 434q0 125 -87.5 210t-215.5 85t-217.5 -85.5t-89.5 -209.5q0 -130 88 -216.5t219 -86.5q139 0 221 84.5t82 218.5zM850 1149q0 111 -74.5 187.5t-181.5 76.5q-108 0 -184 -76.5t-76 -185.5t74.5 -183.5t183.5 -74.5q110 0 184 73.5t74 182.5zM1081 426
q0 -198 -137 -328.5t-350 -130.5t-352.5 130t-139.5 325q0 139 74 245.5t201 151.5q-110 49 -168.5 137.5t-58.5 206.5q0 176 126.5 295t317.5 119t315.5 -119t124.5 -299q0 -114 -60 -204t-167 -136q127 -45 200.5 -150.5t73.5 -242.5z" />
    <glyph glyph-name="nine" unicode="9" 
d="M922 1059q0 147 -98.5 250.5t-239.5 103.5q-142 0 -240 -103.5t-98 -250.5q0 -144 97.5 -243t240.5 -99q144 0 241 97t97 245zM1106 1059q0 -122 -55.5 -251t-200.5 -341l-352 -512l-140 96l373 539q-22 -16 -68.5 -26.5t-87.5 -10.5q-223 0 -368.5 143.5t-145.5 362.5
q0 216 151 367t372 151t371.5 -149.5t150.5 -368.5z" />
    <glyph glyph-name="colon" unicode=":" horiz-adv-x="592" 
d="M424 94q0 -53 -37 -90t-90 -37t-90 37t-37 90t37 90t90 37t90 -37t37 -90zM424 864q0 -52 -37 -88.5t-90 -36.5q-54 0 -90.5 36.5t-36.5 88.5q0 53 37 90t90 37t90 -37t37 -90z" />
    <glyph glyph-name="semicolon" unicode=";" horiz-adv-x="592" 
d="M436 174l-266 -528l-113 43l193 563zM449 864q0 -52 -37 -88.5t-90 -36.5q-54 0 -90.5 36.5t-36.5 88.5q0 53 37 90t90 37q52 0 89.5 -37t37.5 -90z" />
    <glyph glyph-name="less" unicode="&#x3c;" 
d="M1116 25l-1046 469v127l1046 469v-156l-846 -377l846 -379v-153z" />
    <glyph glyph-name="equal" unicode="=" 
d="M1116 289h-1046v141h1046v-141zM1116 688h-1046v141h1046v-141z" />
    <glyph glyph-name="greater" unicode="&#x3e;" 
d="M1116 494l-1048 -469v153l845 379l-845 377v156l1048 -469v-127z" />
    <glyph glyph-name="question" unicode="?" horiz-adv-x="928" 
d="M821 1180q0 -88 -24 -160t-69.5 -126t-111 -87.5t-147.5 -44.5v-356h-176v512h72q133 0 195.5 65.5t62.5 196.5q0 51 -10.5 93.5t-32 73t-53.5 47.5t-76 17q-55 0 -89.5 -21.5t-53.5 -53.5t-26 -67.5t-8 -64.5h-180q0 69 20.5 136t65 119.5t114 85t167.5 32.5
q81 0 147.5 -28.5t114 -81t73 -125.5t25.5 -162zM508 94q0 -26 -9.5 -49t-27 -40.5t-40.5 -27.5t-50 -10t-50 10t-40.5 27.5t-27 40.5t-9.5 49q0 27 10 50t27.5 40.5t40.5 27t49 9.5t49.5 -9.5t40.5 -27t27 -40.5t10 -50z" />
    <glyph glyph-name="at" unicode="@" horiz-adv-x="1638" 
d="M1026 893q-15 85 -60.5 128.5t-119.5 43.5q-120 0 -200.5 -115.5t-80.5 -292.5q0 -94 41 -140t125 -46q88 0 160.5 70.5t97.5 183.5zM1597 915q0 -268 -114 -420.5t-324 -152.5q-90 0 -140 41t-50 115q-44 -75 -113 -114.5t-154 -39.5q-140 0 -214 82t-74 236
q0 222 124.5 376t301.5 154q76 0 133 -35.5t86 -101.5l49 102h125l-127 -543q-5 -21 -7.5 -39t-2.5 -32q0 -43 15.5 -58.5t59.5 -15.5q134 0 213.5 117.5t79.5 324.5q0 236 -163 389.5t-429 153.5q-329 0 -513.5 -196.5t-184.5 -538.5q0 -308 164.5 -468.5t478.5 -160.5
q157 0 325.5 50t278.5 132l66 -100q-119 -96 -300 -150.5t-368 -54.5q-370 0 -574 194.5t-204 555.5q0 393 223.5 626.5t612.5 233.5q317 0 518.5 -187.5t201.5 -474.5z" />
    <glyph glyph-name="A" unicode="A" horiz-adv-x="1440" 
d="M969 610l-248 561l-248 -561h496zM1450 0h-213l-197 446h-641l-196 -446h-213l731 1589z" />
    <glyph glyph-name="B" unicode="B" horiz-adv-x="1096" 
d="M821 442q0 138 -93.5 210.5t-272.5 72.5h-119v-549h137q185 0 266.5 64.5t81.5 201.5zM711 1128q0 125 -64.5 182.5t-200.5 57.5h-110v-479h88q142 0 214.5 60.5t72.5 178.5zM1014 440q0 -221 -136.5 -330.5t-412.5 -109.5h-322v1544h310q207 0 328.5 -108.5
t121.5 -290.5q0 -121 -61.5 -212.5t-157.5 -113.5q154 -18 242 -120.5t88 -258.5z" />
    <glyph glyph-name="C" unicode="C" horiz-adv-x="1354" 
d="M1296 96q-88 -57 -211 -93t-231 -36q-348 0 -562 223.5t-214 583.5q0 348 218 575.5t560 227.5q134 0 241.5 -31.5t198.5 -97.5v-215q-100 82 -203.5 123t-213.5 41q-269 0 -439 -175t-170 -448q0 -276 162.5 -451.5t419.5 -175.5q124 0 235 42t209 126v-219z" />
    <glyph glyph-name="D" unicode="D" horiz-adv-x="1362" 
d="M1108 772q0 288 -163 440t-474 152h-135v-1184h121q332 0 491.5 146.5t159.5 445.5zM1300 770q0 -379 -218 -574.5t-638 -195.5h-301v1544h306q411 0 631 -201t220 -573z" />
    <glyph glyph-name="E" unicode="E" horiz-adv-x="1067" 
d="M954 0h-811v1544h811v-180h-618v-451h618v-180h-618v-553h618v-180z" />
    <glyph glyph-name="F" unicode="F" horiz-adv-x="971" 
d="M864 733h-518v-733h-192v1544h710v-180h-518v-451h518v-180z" />
    <glyph glyph-name="G" unicode="G" horiz-adv-x="1597" 
d="M1546 764q0 -361 -197.5 -579t-527.5 -218q-332 0 -546 226.5t-214 578.5q0 348 213.5 576.5t540.5 228.5q205 0 358.5 -78t262.5 -237l-146 -113q-81 123 -199 185.5t-270 62.5q-250 0 -408.5 -178.5t-158.5 -454.5q0 -264 161 -440.5t406 -176.5q211 0 352 129.5
t162 333.5h-465v181h676v-27z" />
    <glyph glyph-name="H" unicode="H" horiz-adv-x="1382" 
d="M1239 0h-192v733h-711v-733h-193v1544h193v-631h711v631h192v-1544z" />
    <glyph glyph-name="I" unicode="I" horiz-adv-x="475" 
d="M334 0h-193v1544h193v-1544z" />
    <glyph glyph-name="J" unicode="J" horiz-adv-x="741" 
d="M588 410q0 -231 -90 -337t-287 -106q-58 0 -122 14.5t-128 41.5l57 172q65 -28 105.5 -38t77.5 -10q108 0 151 64.5t43 212.5v1120h193v-1134z" />
    <glyph glyph-name="K" unicode="K" horiz-adv-x="1229" 
d="M1237 0h-240l-651 801v-801h-192v1544h192v-719l637 719h227l-655 -723z" />
    <glyph glyph-name="L" unicode="L" horiz-adv-x="788" 
d="M766 0h-612v1544h192v-1368h420v-176z" />
    <glyph glyph-name="M" unicode="M" horiz-adv-x="1743" 
d="M1702 0h-193l-147 1001l-492 -1046l-487 1046l-147 -1001h-195l260 1589l573 -1227l574 1227z" />
    <glyph glyph-name="N" unicode="N" horiz-adv-x="1608" 
d="M1464 -45l-1128 1171v-1126h-193v1589l1129 -1169v1124h192v-1589z" />
    <glyph glyph-name="O" unicode="O" horiz-adv-x="1696" 
d="M1442 772q0 262 -172 443.5t-422 181.5q-270 0 -430 -183.5t-160 -441.5q0 -262 170 -443.5t420 -181.5t422 182t172 443zM1634 772q0 -338 -228.5 -571.5t-557.5 -233.5q-327 0 -557 234.5t-230 570.5q0 341 227.5 573t559.5 232t559 -232t227 -573z" />
    <glyph glyph-name="P" unicode="P" horiz-adv-x="1014" 
d="M760 1106q0 135 -82 196.5t-268 61.5h-74v-514h74q193 0 271.5 59t78.5 197zM952 1106q0 -212 -141 -324t-405 -112h-70v-670h-193v1544h263q273 0 409.5 -109.5t136.5 -328.5z" />
    <glyph glyph-name="Q" unicode="Q" horiz-adv-x="1696" 
d="M1442 772q0 262 -172 443.5t-422 181.5q-270 0 -430 -183.5t-160 -441.5q0 -262 170 -443.5t420 -181.5q72 0 141.5 17.5t130.5 50.5l-280 377h213l204 -277q89 89 137 207.5t48 249.5zM1634 772q0 -178 -69 -335.5t-197 -270.5l250 -336h-213l-176 236q-87 -49 -183 -74
t-198 -25q-327 0 -557 234.5t-230 570.5q0 341 227.5 573t559.5 232t559 -232t227 -573z" />
    <glyph glyph-name="R" unicode="R" horiz-adv-x="1112" 
d="M809 1116q0 129 -82 188.5t-258 59.5h-133v-481h133q178 0 259 55t81 178zM1079 0h-233l-455 721h-55v-721h-193v1544h349q248 0 378.5 -108t130.5 -310q0 -180 -108 -286t-295 -111z" />
    <glyph glyph-name="S" unicode="S" horiz-adv-x="1100" 
d="M993 412q0 -208 -128 -326.5t-353 -118.5q-156 0 -271.5 68t-168.5 192l133 121q35 -94 119 -147.5t194 -53.5q135 0 209 67t74 189q0 101 -73 177.5t-245 162.5q-200 101 -280 199t-80 246q0 175 118 282t314 107q121 0 211.5 -46t151.5 -138l-127 -125q-35 61 -99 95
t-143 34q-108 0 -171 -54t-63 -145q0 -85 50.5 -145.5t201.5 -141.5q265 -143 345.5 -248.5t80.5 -250.5z" />
    <glyph glyph-name="T" unicode="T" horiz-adv-x="934" 
d="M913 1372h-350v-1372h-192v1372h-351v172h893v-172z" />
    <glyph glyph-name="U" unicode="U" horiz-adv-x="1370" 
d="M1227 580q0 -309 -134 -461t-407 -152q-271 0 -407 154t-136 459v964h193v-1003q0 -198 87 -296t263 -98q177 0 262.5 97t85.5 297v1003h193v-964z" />
    <glyph glyph-name="V" unicode="V" horiz-adv-x="1311" 
d="M1321 1544l-668 -1589l-663 1589h207l456 -1130l461 1130h207z" />
    <glyph glyph-name="W" unicode="W" horiz-adv-x="2103" 
d="M2114 1544l-627 -1589l-434 1135l-441 -1135l-622 1589h203l423 -1118l435 1163l432 -1163l428 1118h203z" />
    <glyph glyph-name="X" unicode="X" horiz-adv-x="1176" 
d="M1169 0h-221l-362 641l-359 -641h-221l473 815l-446 729h221l338 -577l334 577h219l-447 -737z" />
    <glyph glyph-name="Y" unicode="Y" horiz-adv-x="1174" 
d="M1167 1544l-481 -839v-705h-192v705l-488 839h217l371 -665l358 665h215z" />
    <glyph glyph-name="Z" unicode="Z" horiz-adv-x="1130" 
d="M1102 1544l-797 -1364h754v-180h-1069l801 1364h-711v180h1022z" />
    <glyph glyph-name="bracketleft" unicode="[" horiz-adv-x="637" 
d="M539 -432h-371v1976h371v-155h-203v-1665h203v-156z" />
    <glyph glyph-name="backslash" unicode="\" horiz-adv-x="1128" 
d="M1157 -242l-123 -65l-1003 1954l121 65z" />
    <glyph glyph-name="bracketright" unicode="]" horiz-adv-x="637" 
d="M434 -432h-371v156h203v1665h-203v155h371v-1976z" />
    <glyph glyph-name="asciicircum" unicode="^" 
d="M1044 866h-153l-299 500l-299 -500h-152l379 678h144z" />
    <glyph glyph-name="underscore" unicode="_" horiz-adv-x="1024" 
d="M1024 -371h-1024v146h1024v-146z" />
    <glyph glyph-name="grave" unicode="`" horiz-adv-x="737" 
d="M494 1149l-66 -74l-307 260l90 109z" />
    <glyph glyph-name="a" unicode="a" horiz-adv-x="1139" 
d="M821 489q0 153 -78 239.5t-213 86.5q-134 0 -214 -89.5t-80 -242.5q0 -154 79 -247t209 -93q132 0 214.5 96t82.5 250zM1006 0h-185v150q-47 -91 -128 -137t-195 -46q-199 0 -323 144t-124 374q0 226 124.5 366t326.5 140q107 0 187 -42.5t132 -127.5v137h185v-958z" />
    <glyph glyph-name="b" unicode="b" horiz-adv-x="1139" 
d="M903 483q0 153 -80 242.5t-215 89.5t-213 -86.5t-78 -239.5q0 -154 83 -250t214 -96q130 0 209.5 93t79.5 247zM1087 485q0 -230 -123.5 -374t-322.5 -144q-114 0 -195.5 46t-128.5 137v-150h-184v1690h184v-869q53 85 132.5 127.5t187.5 42.5q202 0 326 -140t124 -366z
" />
    <glyph glyph-name="c" unicode="c" horiz-adv-x="903" 
d="M852 35q-64 -35 -132.5 -51.5t-152.5 -16.5q-230 0 -373 141.5t-143 368.5q0 230 146 372t385 142q74 0 135.5 -15.5t124.5 -49.5v-197q-56 41 -121.5 63.5t-130.5 22.5q-163 0 -258.5 -92.5t-95.5 -249.5q0 -150 96.5 -240t257.5 -90q74 0 141.5 23t120.5 65v-196z" />
    <glyph glyph-name="d" unicode="d" horiz-adv-x="1139" 
d="M821 489q0 153 -78 239.5t-213 86.5q-134 0 -214 -89.5t-80 -242.5q0 -154 79 -247t209 -93q132 0 214.5 96t82.5 250zM1006 0h-185v150q-47 -91 -128 -137t-195 -46q-199 0 -323 144t-124 374q0 226 124.5 366t326.5 140q107 0 187 -42.5t132 -127.5v869h185v-1690z" />
    <glyph glyph-name="e" unicode="e" horiz-adv-x="999" 
d="M776 571q-12 119 -81 181.5t-187 62.5q-113 0 -186.5 -64.5t-88.5 -179.5h543zM958 444h-729q11 -147 83.5 -224t201.5 -77q98 0 162 38t104 118l154 -82q-66 -126 -170 -188t-252 -62q-215 0 -341 141t-126 377q0 219 132.5 362.5t330.5 143.5q202 0 326 -131.5
t124 -347.5v-68z" />
    <glyph glyph-name="f" unicode="f" horiz-adv-x="563" 
d="M532 795h-186v-795h-184v795h-131v163h131v367q0 210 63.5 300.5t210.5 90.5q27 0 50 -3.5t46 -10.5v-166q-18 9 -35.5 12.5t-37.5 3.5q-70 0 -91.5 -49t-21.5 -184v-361h186v-163z" />
    <glyph glyph-name="g" unicode="g" horiz-adv-x="1137" 
d="M819 489q0 153 -77 239.5t-212 86.5q-134 0 -214 -89.5t-80 -242.5q0 -154 79 -247t209 -93q131 0 213 95.5t82 250.5zM1004 -51q0 -263 -111 -382.5t-352 -119.5q-198 0 -316 87t-137 243h188q14 -76 81.5 -115t185.5 -39q154 0 215 71t61 240v216
q-47 -92 -127.5 -137.5t-193.5 -45.5q-199 0 -323 144t-124 374q0 226 124.5 366t326.5 140q107 0 186 -42t131 -128v137h185v-1009z" />
    <glyph glyph-name="h" unicode="h" horiz-adv-x="1071" 
d="M944 0h-184v567q0 134 -48 197t-151 63q-117 0 -180.5 -94t-63.5 -272v-461h-184v1690h184v-867q43 83 120.5 125.5t187.5 42.5q149 0 234 -99t85 -278v-614z" />
    <glyph glyph-name="i" unicode="i" horiz-adv-x="520" 
d="M352 0h-184v958h184v-958zM381 1346q0 -51 -35 -86t-86 -35t-86 35t-35 86q0 50 35 85t86 35t86 -35t35 -85z" />
    <glyph glyph-name="j" unicode="j" horiz-adv-x="520" 
d="M352 -532h-184v1490h184v-1490zM381 1346q0 -51 -35 -86t-86 -35t-86 35t-35 86q0 50 35 85t86 35t86 -35t35 -85z" />
    <glyph glyph-name="k" unicode="k" horiz-adv-x="946" 
d="M944 0h-221l-395 506v-506h-185v1690h185v-1158l366 426h217l-391 -430z" />
    <glyph glyph-name="l" unicode="l" horiz-adv-x="455" 
d="M315 0h-184v1690h184v-1690z" />
    <glyph glyph-name="m" unicode="m" horiz-adv-x="1571" 
d="M1444 0h-184v569q0 133 -42.5 195.5t-134.5 62.5q-107 0 -154.5 -83t-47.5 -271v-473h-185v569q0 139 -38 198.5t-130 59.5q-107 0 -159 -89.5t-52 -274.5v-463h-184v958h184v-122q37 78 105 116.5t170 38.5q95 0 163 -44t97 -126q40 82 116 126t179 44
q142 0 219.5 -93.5t77.5 -268.5v-629z" />
    <glyph glyph-name="n" unicode="n" horiz-adv-x="1071" 
d="M944 0h-184v567q0 134 -48 197t-151 63q-117 0 -180.5 -94t-63.5 -272v-461h-184v958h184v-135q43 83 120.5 125.5t187.5 42.5q149 0 234 -99t85 -278v-614z" />
    <glyph glyph-name="o" unicode="o" horiz-adv-x="1106" 
d="M877 483q0 145 -92.5 238.5t-231.5 93.5q-141 0 -232.5 -93t-91.5 -239q0 -148 92.5 -244t231.5 -96q141 0 232.5 96t91.5 244zM1061 483q0 -216 -147.5 -366t-362.5 -150q-214 0 -360 149.5t-146 366.5t145 362.5t361 145.5q217 0 363.5 -146.5t146.5 -361.5z" />
    <glyph glyph-name="p" unicode="p" horiz-adv-x="1139" 
d="M903 483q0 153 -80 242.5t-215 89.5t-213 -86.5t-78 -239.5q0 -154 83 -250t214 -96q130 0 209.5 93t79.5 247zM1087 485q0 -230 -123.5 -374t-322.5 -144q-114 0 -195.5 46t-128.5 137v-682h-184v1490h184v-137q53 85 132.5 127.5t187.5 42.5q202 0 326 -140t124 -366z
" />
    <glyph glyph-name="q" unicode="q" horiz-adv-x="1139" 
d="M821 489q0 153 -78 239.5t-213 86.5q-134 0 -214 -89.5t-80 -242.5q0 -154 79 -247t209 -93q132 0 214.5 96t82.5 250zM1006 -532h-185v682q-47 -91 -128 -137t-195 -46q-199 0 -323 144t-124 374q0 226 124.5 366t326.5 140q107 0 187 -42.5t132 -127.5v137h185v-1490z
" />
    <glyph glyph-name="r" unicode="r" horiz-adv-x="719" 
d="M702 973l-38 -185q-20 13 -42.5 19t-46.5 6q-122 0 -184.5 -100.5t-62.5 -298.5v-414h-185v958h185v-172q33 106 102.5 155.5t183.5 49.5q26 0 49.5 -5t38.5 -13z" />
    <glyph glyph-name="s" unicode="s" horiz-adv-x="786" 
d="M735 260q0 -135 -97.5 -214t-266.5 -79q-129 0 -217.5 51.5t-128.5 149.5l155 98q26 -67 75.5 -101t123.5 -34q80 0 126 31.5t46 87.5q0 62 -45 96t-170 80q-133 48 -197.5 119.5t-64.5 171.5q0 128 86 201t239 73q111 0 185.5 -45.5t117.5 -140.5l-149 -92
q-26 60 -64.5 87t-95.5 27q-67 0 -103 -27t-36 -77q0 -54 39.5 -88.5t148.5 -71.5q155 -50 224 -121.5t69 -181.5z" />
    <glyph glyph-name="t" unicode="t" horiz-adv-x="492" 
d="M492 795h-164v-795h-185v795h-102v163h102v383h185v-383h164v-163z" />
    <glyph glyph-name="u" unicode="u" horiz-adv-x="1049" 
d="M920 418q0 -230 -97 -340.5t-299 -110.5q-205 0 -300 108.5t-95 342.5v540h184v-540q0 -145 48 -210t163 -65q114 0 162.5 65t48.5 210v540h185v-540z" />
    <glyph glyph-name="v" unicode="v" horiz-adv-x="911" 
d="M922 958l-465 -1003l-467 1003h209l258 -608l254 608h211z" />
    <glyph glyph-name="w" unicode="w" horiz-adv-x="1470" 
d="M1481 958l-465 -1003l-279 647l-280 -647l-467 1003h209l258 -608l276 656l283 -656l254 608h211z" />
    <glyph glyph-name="x" unicode="x" horiz-adv-x="1001" 
d="M995 0h-223l-274 371l-271 -371h-221l385 500l-352 458h219l248 -337l237 337h222l-357 -458z" />
    <glyph glyph-name="y" unicode="y" horiz-adv-x="991" 
d="M983 958l-612 -1490h-203l244 573l-404 917h201l297 -706l274 706h203z" />
    <glyph glyph-name="z" unicode="z" horiz-adv-x="1014" 
d="M926 0h-893l559 795h-508v163h838l-557 -794h561v-164z" />
    <glyph glyph-name="braceleft" unicode="{" horiz-adv-x="684" 
d="M606 -432q-211 0 -275.5 60.5t-64.5 250.5v432q0 109 -32 138.5t-142 29.5v156q110 0 142 29.5t32 138.5v430q0 190 64.5 250.5t275.5 60.5v-155q-113 0 -142.5 -24t-29.5 -134v-402q0 -130 -27.5 -189.5t-99.5 -82.5q72 -23 99.5 -83t27.5 -191v-402q0 -110 29.5 -133.5
t142.5 -23.5v-156z" />
    <glyph glyph-name="bar" unicode="|" horiz-adv-x="1167" 
d="M657 -504h-147v2048h147v-2048z" />
    <glyph glyph-name="braceright" unicode="}" horiz-adv-x="684" 
d="M606 479q-109 0 -141.5 -29.5t-32.5 -138.5v-432q0 -190 -64.5 -250.5t-275.5 -60.5v156q114 0 143 23.5t29 133.5v402q0 131 27.5 191t99.5 83q-72 23 -99.5 82.5t-27.5 189.5v402q0 110 -29 134t-143 24v155q211 0 275.5 -60.5t64.5 -250.5v-430q0 -109 32.5 -138.5
t141.5 -29.5v-156z" />
    <glyph glyph-name="asciitilde" unicode="~" 
d="M1053 575q-62 -75 -130.5 -113t-142.5 -38q-43 0 -88.5 15.5t-99.5 49.5q-70 45 -112.5 61.5t-82.5 16.5q-64 0 -124 -39t-142 -133v172q61 75 130.5 113.5t144.5 38.5q43 0 88 -16t98 -50q74 -46 116.5 -63t79.5 -17q63 0 122 39t143 136v-173z" />
    <glyph glyph-name="Adieresis" unicode="&#xc4;" horiz-adv-x="1440" 
d="M969 610l-248 561l-248 -561h496zM1450 0h-213l-197 446h-641l-196 -446h-213l731 1589zM629 1825q0 -44 -29.5 -73t-72.5 -29q-44 0 -74.5 29.5t-30.5 72.5q0 41 31.5 71.5t73.5 30.5q43 0 72.5 -29.5t29.5 -72.5zM1020 1825q0 -44 -29 -73t-73 -29t-74.5 29.5
t-30.5 72.5q0 41 31.5 71.5t73.5 30.5q43 0 72.5 -29.5t29.5 -72.5z" />
    <glyph glyph-name="Aring" unicode="&#xc5;" horiz-adv-x="1440" 
d="M969 610l-248 561l-248 -561h496zM1450 0h-213l-197 446h-641l-196 -446h-213l731 1589zM866 1880q0 61 -43 104.5t-102 43.5q-61 0 -103.5 -43.5t-42.5 -104.5q0 -60 42.5 -102.5t103.5 -42.5q60 0 102.5 42.5t42.5 102.5zM958 1880q0 -98 -69.5 -167.5t-167.5 -69.5
t-167 69.5t-69 167.5q0 99 69 168.5t167 69.5t167.5 -69.5t69.5 -168.5z" />
    <glyph glyph-name="Ccedilla" unicode="&#xc7;" horiz-adv-x="1354" 
d="M1296 96q-88 -57 -211 -93t-231 -36q-348 0 -562 223.5t-214 583.5q0 348 218 575.5t560 227.5q134 0 241.5 -31.5t198.5 -97.5v-215q-100 82 -203.5 123t-213.5 41q-269 0 -439 -175t-170 -448q0 -276 162.5 -451.5t419.5 -175.5q124 0 235 42t209 126v-219zM961 -113
l-238 -319l-81 57l200 342z" />
    <glyph glyph-name="Eacute" unicode="&#xc9;" horiz-adv-x="1067" 
d="M954 0h-811v1544h811v-180h-618v-451h618v-180h-618v-553h618v-180zM794 1921l-307 -260l-65 74l282 295z" />
    <glyph glyph-name="Ntilde" unicode="&#xd1;" horiz-adv-x="1608" 
d="M1464 -45l-1128 1171v-1126h-193v1589l1129 -1169v1124h192v-1589zM1120 1868q-32 -81 -83.5 -122.5t-117.5 -41.5q-33 0 -69 13t-81 41l-11 7q-80 50 -113 50q-39 0 -64.5 -19t-50.5 -71l-80 49q34 81 83.5 121.5t115.5 40.5q33 0 69 -13t81 -41v0q88 -57 125 -57
q39 0 64 18t52 72z" />
    <glyph glyph-name="Odieresis" unicode="&#xd6;" horiz-adv-x="1696" 
d="M1442 772q0 262 -172 443.5t-422 181.5q-270 0 -430 -183.5t-160 -441.5q0 -262 170 -443.5t420 -181.5t422 182t172 443zM1634 772q0 -338 -228.5 -571.5t-557.5 -233.5q-327 0 -557 234.5t-230 570.5q0 341 227.5 573t559.5 232t559 -232t227 -573zM756 1825
q0 -44 -29.5 -73t-72.5 -29q-44 0 -74.5 29.5t-30.5 72.5q0 41 31.5 71.5t73.5 30.5q43 0 72.5 -29.5t29.5 -72.5zM1147 1825q0 -44 -29 -73t-73 -29t-74.5 29.5t-30.5 72.5q0 41 31.5 71.5t73.5 30.5q43 0 72.5 -29.5t29.5 -72.5z" />
    <glyph glyph-name="Udieresis" unicode="&#xdc;" horiz-adv-x="1370" 
d="M1227 580q0 -309 -134 -461t-407 -152q-271 0 -407 154t-136 459v964h193v-1003q0 -198 87 -296t263 -98q177 0 262.5 97t85.5 297v1003h193v-964zM594 1825q0 -44 -29.5 -73t-72.5 -29q-44 0 -74.5 29.5t-30.5 72.5q0 41 31.5 71.5t73.5 30.5q43 0 72.5 -29.5
t29.5 -72.5zM985 1825q0 -44 -29 -73t-73 -29t-74.5 29.5t-30.5 72.5q0 41 31.5 71.5t73.5 30.5q43 0 72.5 -29.5t29.5 -72.5z" />
    <glyph glyph-name="aacute" unicode="&#xe1;" horiz-adv-x="1139" 
d="M821 489q0 153 -78 239.5t-213 86.5q-134 0 -214 -89.5t-80 -242.5q0 -154 79 -247t209 -93q132 0 214.5 96t82.5 250zM1006 0h-185v150q-47 -91 -128 -137t-195 -46q-199 0 -323 144t-124 374q0 226 124.5 366t326.5 140q107 0 187 -42.5t132 -127.5v137h185v-958z
M794 1335l-307 -260l-65 74l282 295z" />
    <glyph glyph-name="agrave" unicode="&#xe0;" horiz-adv-x="1139" 
d="M821 489q0 153 -78 239.5t-213 86.5q-134 0 -214 -89.5t-80 -242.5q0 -154 79 -247t209 -93q132 0 214.5 96t82.5 250zM1006 0h-185v150q-47 -91 -128 -137t-195 -46q-199 0 -323 144t-124 374q0 226 124.5 366t326.5 140q107 0 187 -42.5t132 -127.5v137h185v-958z
M672 1149l-66 -74l-307 260l90 109z" />
    <glyph glyph-name="acircumflex" unicode="&#xe2;" horiz-adv-x="1139" 
d="M821 489q0 153 -78 239.5t-213 86.5q-134 0 -214 -89.5t-80 -242.5q0 -154 79 -247t209 -93q132 0 214.5 96t82.5 250zM1006 0h-185v150q-47 -91 -128 -137t-195 -46q-199 0 -323 144t-124 374q0 226 124.5 366t326.5 140q107 0 187 -42.5t132 -127.5v137h185v-958z
M838 1151l-59 -76l-232 191l-231 -191l-60 76l291 289z" />
    <glyph glyph-name="adieresis" unicode="&#xe4;" horiz-adv-x="1139" 
d="M821 489q0 153 -78 239.5t-213 86.5q-134 0 -214 -89.5t-80 -242.5q0 -154 79 -247t209 -93q132 0 214.5 96t82.5 250zM1006 0h-185v150q-47 -91 -128 -137t-195 -46q-199 0 -323 144t-124 374q0 226 124.5 366t326.5 140q107 0 187 -42.5t132 -127.5v137h185v-958z
M455 1239q0 -44 -29.5 -73t-72.5 -29q-44 0 -74.5 29.5t-30.5 72.5q0 41 31.5 71.5t73.5 30.5q43 0 72.5 -29.5t29.5 -72.5zM846 1239q0 -44 -29 -73t-73 -29t-74.5 29.5t-30.5 72.5q0 41 31.5 71.5t73.5 30.5q43 0 72.5 -29.5t29.5 -72.5z" />
    <glyph glyph-name="atilde" unicode="&#xe3;" horiz-adv-x="1139" 
d="M821 489q0 153 -78 239.5t-213 86.5q-134 0 -214 -89.5t-80 -242.5q0 -154 79 -247t209 -93q132 0 214.5 96t82.5 250zM1006 0h-185v150q-47 -91 -128 -137t-195 -46q-199 0 -323 144t-124 374q0 226 124.5 366t326.5 140q107 0 187 -42.5t132 -127.5v137h185v-958z
M883 1282q-32 -81 -83.5 -122.5t-117.5 -41.5q-33 0 -69 13t-81 41l-11 7q-80 50 -113 50q-39 0 -64.5 -19t-50.5 -71l-80 49q34 81 83.5 121.5t115.5 40.5q33 0 69 -13t81 -41v0q88 -57 125 -57q39 0 64 18t52 72z" />
    <glyph glyph-name="aring" unicode="&#xe5;" horiz-adv-x="1139" 
d="M821 489q0 153 -78 239.5t-213 86.5q-134 0 -214 -89.5t-80 -242.5q0 -154 79 -247t209 -93q132 0 214.5 96t82.5 250zM1006 0h-185v150q-47 -91 -128 -137t-195 -46q-199 0 -323 144t-124 374q0 226 124.5 366t326.5 140q107 0 187 -42.5t132 -127.5v137h185v-958z
M692 1294q0 61 -43 104.5t-102 43.5q-61 0 -103.5 -43.5t-42.5 -104.5q0 -60 42.5 -102.5t103.5 -42.5q60 0 102.5 42.5t42.5 102.5zM784 1294q0 -98 -69.5 -167.5t-167.5 -69.5t-167 69.5t-69 167.5q0 99 69 168.5t167 69.5t167.5 -69.5t69.5 -168.5z" />
    <glyph glyph-name="ccedilla" unicode="&#xe7;" horiz-adv-x="903" 
d="M852 35q-64 -35 -132.5 -51.5t-152.5 -16.5q-230 0 -373 141.5t-143 368.5q0 230 146 372t385 142q74 0 135.5 -15.5t124.5 -49.5v-197q-56 41 -121.5 63.5t-130.5 22.5q-163 0 -258.5 -92.5t-95.5 -249.5q0 -150 96.5 -240t257.5 -90q74 0 141.5 23t120.5 65v-196z
M700 -113l-238 -319l-81 57l200 342z" />
    <glyph glyph-name="eacute" unicode="&#xe9;" horiz-adv-x="999" 
d="M776 571q-12 119 -81 181.5t-187 62.5q-113 0 -186.5 -64.5t-88.5 -179.5h543zM958 444h-729q11 -147 83.5 -224t201.5 -77q98 0 162 38t104 118l154 -82q-66 -126 -170 -188t-252 -62q-215 0 -341 141t-126 377q0 219 132.5 362.5t330.5 143.5q202 0 326 -131.5
t124 -347.5v-68zM747 1335l-307 -260l-65 74l282 295z" />
    <glyph glyph-name="egrave" unicode="&#xe8;" horiz-adv-x="999" 
d="M776 571q-12 119 -81 181.5t-187 62.5q-113 0 -186.5 -64.5t-88.5 -179.5h543zM958 444h-729q11 -147 83.5 -224t201.5 -77q98 0 162 38t104 118l154 -82q-66 -126 -170 -188t-252 -62q-215 0 -341 141t-126 377q0 219 132.5 362.5t330.5 143.5q202 0 326 -131.5
t124 -347.5v-68zM625 1149l-66 -74l-307 260l90 109z" />
    <glyph glyph-name="ecircumflex" unicode="&#xea;" horiz-adv-x="999" 
d="M776 571q-12 119 -81 181.5t-187 62.5q-113 0 -186.5 -64.5t-88.5 -179.5h543zM958 444h-729q11 -147 83.5 -224t201.5 -77q98 0 162 38t104 118l154 -82q-66 -126 -170 -188t-252 -62q-215 0 -341 141t-126 377q0 219 132.5 362.5t330.5 143.5q202 0 326 -131.5
t124 -347.5v-68zM790 1151l-59 -76l-232 191l-231 -191l-60 76l291 289z" />
    <glyph glyph-name="edieresis" unicode="&#xeb;" horiz-adv-x="999" 
d="M776 571q-12 119 -81 181.5t-187 62.5q-113 0 -186.5 -64.5t-88.5 -179.5h543zM958 444h-729q11 -147 83.5 -224t201.5 -77q98 0 162 38t104 118l154 -82q-66 -126 -170 -188t-252 -62q-215 0 -341 141t-126 377q0 219 132.5 362.5t330.5 143.5q202 0 326 -131.5
t124 -347.5v-68zM407 1239q0 -44 -29.5 -73t-72.5 -29q-44 0 -74.5 29.5t-30.5 72.5q0 41 31.5 71.5t73.5 30.5q43 0 72.5 -29.5t29.5 -72.5zM798 1239q0 -44 -29 -73t-73 -29t-74.5 29.5t-30.5 72.5q0 41 31.5 71.5t73.5 30.5q43 0 72.5 -29.5t29.5 -72.5z" />
    <glyph glyph-name="iacute" unicode="&#xed;" horiz-adv-x="520" 
d="M352 0h-184v958h184v-958zM508 1335l-307 -260l-65 74l282 295z" />
    <glyph glyph-name="igrave" unicode="&#xec;" horiz-adv-x="520" 
d="M352 0h-184v958h184v-958zM386 1149l-66 -74l-307 260l90 109z" />
    <glyph glyph-name="icircumflex" unicode="&#xee;" horiz-adv-x="520" 
d="M352 0h-184v958h184v-958zM552 1151l-59 -76l-232 191l-231 -191l-60 76l291 289z" />
    <glyph glyph-name="idieresis" unicode="&#xef;" horiz-adv-x="520" 
d="M352 0h-184v958h184v-958zM169 1239q0 -44 -29.5 -73t-72.5 -29q-44 0 -74.5 29.5t-30.5 72.5q0 41 31.5 71.5t73.5 30.5q43 0 72.5 -29.5t29.5 -72.5zM560 1239q0 -44 -29 -73t-73 -29t-74.5 29.5t-30.5 72.5q0 41 31.5 71.5t73.5 30.5q43 0 72.5 -29.5t29.5 -72.5z" />
    <glyph glyph-name="ntilde" unicode="&#xf1;" horiz-adv-x="1071" 
d="M944 0h-184v567q0 134 -48 197t-151 63q-117 0 -180.5 -94t-63.5 -272v-461h-184v958h184v-135q43 83 120.5 125.5t187.5 42.5q149 0 234 -99t85 -278v-614zM872 1282q-32 -81 -83.5 -122.5t-117.5 -41.5q-33 0 -69 13t-81 41l-11 7q-80 50 -113 50q-39 0 -64.5 -19
t-50.5 -71l-80 49q34 81 83.5 121.5t115.5 40.5q33 0 69 -13t81 -41v0q88 -57 125 -57q39 0 64 18t52 72z" />
    <glyph glyph-name="oacute" unicode="&#xf3;" horiz-adv-x="1106" 
d="M877 483q0 145 -92.5 238.5t-231.5 93.5q-141 0 -232.5 -93t-91.5 -239q0 -148 92.5 -244t231.5 -96q141 0 232.5 96t91.5 244zM1061 483q0 -216 -147.5 -366t-362.5 -150q-214 0 -360 149.5t-146 366.5t145 362.5t361 145.5q217 0 363.5 -146.5t146.5 -361.5zM800 1335
l-307 -260l-65 74l282 295z" />
    <glyph glyph-name="ograve" unicode="&#xf2;" horiz-adv-x="1106" 
d="M877 483q0 145 -92.5 238.5t-231.5 93.5q-141 0 -232.5 -93t-91.5 -239q0 -148 92.5 -244t231.5 -96q141 0 232.5 96t91.5 244zM1061 483q0 -216 -147.5 -366t-362.5 -150q-214 0 -360 149.5t-146 366.5t145 362.5t361 145.5q217 0 363.5 -146.5t146.5 -361.5zM678 1149
l-66 -74l-307 260l90 109z" />
    <glyph glyph-name="ocircumflex" unicode="&#xf4;" horiz-adv-x="1106" 
d="M877 483q0 145 -92.5 238.5t-231.5 93.5q-141 0 -232.5 -93t-91.5 -239q0 -148 92.5 -244t231.5 -96q141 0 232.5 96t91.5 244zM1061 483q0 -216 -147.5 -366t-362.5 -150q-214 0 -360 149.5t-146 366.5t145 362.5t361 145.5q217 0 363.5 -146.5t146.5 -361.5zM844 1151
l-59 -76l-232 191l-231 -191l-60 76l291 289z" />
    <glyph glyph-name="odieresis" unicode="&#xf6;" horiz-adv-x="1106" 
d="M877 483q0 145 -92.5 238.5t-231.5 93.5q-141 0 -232.5 -93t-91.5 -239q0 -148 92.5 -244t231.5 -96q141 0 232.5 96t91.5 244zM1061 483q0 -216 -147.5 -366t-362.5 -150q-214 0 -360 149.5t-146 366.5t145 362.5t361 145.5q217 0 363.5 -146.5t146.5 -361.5zM461 1239
q0 -44 -29.5 -73t-72.5 -29q-44 0 -74.5 29.5t-30.5 72.5q0 41 31.5 71.5t73.5 30.5q43 0 72.5 -29.5t29.5 -72.5zM852 1239q0 -44 -29 -73t-73 -29t-74.5 29.5t-30.5 72.5q0 41 31.5 71.5t73.5 30.5q43 0 72.5 -29.5t29.5 -72.5z" />
    <glyph glyph-name="otilde" unicode="&#xf5;" horiz-adv-x="1106" 
d="M877 483q0 145 -92.5 238.5t-231.5 93.5q-141 0 -232.5 -93t-91.5 -239q0 -148 92.5 -244t231.5 -96q141 0 232.5 96t91.5 244zM1061 483q0 -216 -147.5 -366t-362.5 -150q-214 0 -360 149.5t-146 366.5t145 362.5t361 145.5q217 0 363.5 -146.5t146.5 -361.5zM889 1282
q-32 -81 -83.5 -122.5t-117.5 -41.5q-33 0 -69 13t-81 41l-11 7q-80 50 -113 50q-39 0 -64.5 -19t-50.5 -71l-80 49q34 81 83.5 121.5t115.5 40.5q33 0 69 -13t81 -41v0q88 -57 125 -57q39 0 64 18t52 72z" />
    <glyph glyph-name="uacute" unicode="&#xfa;" horiz-adv-x="1049" 
d="M920 418q0 -230 -97 -340.5t-299 -110.5q-205 0 -300 108.5t-95 342.5v540h184v-540q0 -145 48 -210t163 -65q114 0 162.5 65t48.5 210v540h185v-540zM772 1335l-307 -260l-65 74l282 295z" />
    <glyph glyph-name="ugrave" unicode="&#xf9;" horiz-adv-x="1049" 
d="M920 418q0 -230 -97 -340.5t-299 -110.5q-205 0 -300 108.5t-95 342.5v540h184v-540q0 -145 48 -210t163 -65q114 0 162.5 65t48.5 210v540h185v-540zM650 1149l-66 -74l-307 260l90 109z" />
    <glyph glyph-name="ucircumflex" unicode="&#xfb;" horiz-adv-x="1049" 
d="M920 418q0 -230 -97 -340.5t-299 -110.5q-205 0 -300 108.5t-95 342.5v540h184v-540q0 -145 48 -210t163 -65q114 0 162.5 65t48.5 210v540h185v-540zM815 1151l-59 -76l-232 191l-231 -191l-60 76l291 289z" />
    <glyph glyph-name="udieresis" unicode="&#xfc;" horiz-adv-x="1049" 
d="M920 418q0 -230 -97 -340.5t-299 -110.5q-205 0 -300 108.5t-95 342.5v540h184v-540q0 -145 48 -210t163 -65q114 0 162.5 65t48.5 210v540h185v-540zM432 1239q0 -44 -29.5 -73t-72.5 -29q-44 0 -74.5 29.5t-30.5 72.5q0 41 31.5 71.5t73.5 30.5q43 0 72.5 -29.5
t29.5 -72.5zM823 1239q0 -44 -29 -73t-73 -29t-74.5 29.5t-30.5 72.5q0 41 31.5 71.5t73.5 30.5q43 0 72.5 -29.5t29.5 -72.5z" />
    <glyph glyph-name="dagger" unicode="&#x2020;" 
d="M1079 807h-397v-1237h-180v1237h-398v166h398v571h180v-571h397v-166z" />
    <glyph glyph-name="degree" unicode="&#xb0;" horiz-adv-x="819" 
d="M608 1278q0 81 -58.5 140t-139.5 59q-83 0 -141 -58t-58 -141t58 -142t141 -59q82 0 140 59.5t58 141.5zM702 1276q0 -120 -86 -205.5t-208 -85.5q-123 0 -207 84.5t-84 206.5q0 123 85.5 209t207.5 86q120 0 206 -87t86 -208z" />
    <glyph glyph-name="cent" unicode="&#xa2;" 
d="M643 449v659q-127 -22 -199.5 -111t-72.5 -225q0 -129 72.5 -215.5t199.5 -107.5zM987 334q-55 -31 -113.5 -47t-125.5 -19v-198h-105v198q-206 19 -331.5 158t-125.5 350q0 210 124.5 348.5t332.5 161.5v178h105v-174q65 -3 120 -19t109 -46v-197q-50 37 -109.5 59.5
t-119.5 26.5v-672q69 4 130 26.5t109 61.5v-196z" />
    <glyph glyph-name="sterling" unicode="&#xa3;" 
d="M1137 150q-53 -90 -129 -136.5t-168 -46.5q-57 0 -116 14t-131 46q-5 2 -20 9q-130 58 -198 58q-63 0 -122 -32.5t-106 -94.5l-79 131q41 54 97 90.5t124 53.5q38 52 55.5 101t17.5 103q0 42 -8.5 85t-25.5 83h-258v107h206q-4 9 -14.5 27t-13.5 24q-49 90 -72.5 177.5
t-23.5 176.5q0 195 135.5 323t357.5 128q197 0 319 -99.5t148 -281.5l-176 -69q-10 136 -86.5 211t-206.5 75q-135 0 -221 -83t-86 -208q0 -73 25.5 -164t72.5 -186l12.5 -25.5l12.5 -25.5h395v-107h-350q9 -26 14.5 -57.5t5.5 -56.5q0 -75 -26.5 -137.5t-79.5 -114.5
q44 0 86.5 -11.5t122.5 -50.5q55 -27 103 -41t89 -14q61 0 110 31t93 98z" />
    <glyph glyph-name="section" unicode="&#xa7;" 
d="M854 580q0 113 -75.5 187.5t-186.5 74.5q-114 0 -188 -76.5t-74 -190.5q0 -112 75 -184t187 -72q109 0 185.5 76t76.5 185zM1028 580q0 -114 -60 -210t-153 -137q76 -40 123 -127.5t47 -189.5q0 -151 -116 -259t-277 -108q-176 0 -283.5 102.5t-107.5 274.5h174
q0 -91 63 -152t154 -61q90 0 153.5 63t63.5 150q0 95 -64 159.5t-161 64.5q-183 0 -305.5 121t-122.5 304q0 118 60 216t155 137q-70 45 -108 123.5t-38 175.5q0 145 108 247.5t259 102.5q163 0 261.5 -99.5t98.5 -265.5h-174q0 86 -53 143.5t-133 57.5t-135.5 -58
t-55.5 -138q0 -87 58.5 -146t140.5 -59q187 0 307.5 -122.5t120.5 -309.5z" />
    <glyph glyph-name="bullet" unicode="&#x2022;" 
d="M897 807q0 -127 -89 -216t-216 -89t-216 89t-89 216t88.5 216t216.5 89q126 0 215.5 -89t89.5 -216z" />
    <glyph glyph-name="paragraph" unicode="&#xb6;" 
d="M1063 1427h-129v-1427h-123v1427h-174v-1427h-123v846q-191 4 -301.5 99t-110.5 251t112 252t296 96h553v-117z" />
    <glyph glyph-name="germandbls" unicode="&#xdf;" horiz-adv-x="1188" 
d="M1122 514q0 -246 -146.5 -396.5t-395.5 -150.5q-11 0 -40 2.5t-38 4.5v161q9 -1 36 -2.5t40 -1.5q170 0 265 101.5t95 279.5q0 171 -118 273t-318 102v155q128 0 209.5 72t81.5 189q0 110 -66.5 179.5t-165.5 69.5q-112 0 -167.5 -64t-55.5 -194v-1294h-184v795h-113v163
h113v342q0 196 105.5 306t289.5 110q186 0 307 -117t121 -296q0 -115 -55.5 -200t-155.5 -120q161 -32 258.5 -161t97.5 -308z" />
    <glyph glyph-name="registered" unicode="&#xae;" horiz-adv-x="1638" 
d="M969 1001q0 76 -45 112t-140 36h-59v-281h59q95 0 140 32.5t45 100.5zM1174 303h-160l-275 449h-14v-449h-135v963h198q152 0 237 -72t85 -195q0 -96 -61 -159t-170 -76zM1520 772q0 290 -205 495.5t-496 205.5q-290 0 -495 -205.5t-205 -495.5t205 -495t495 -205
q291 0 496 205t205 495zM1624 772q0 -333 -235.5 -569t-569.5 -236q-333 0 -569 236t-236 569t236 569t569 236q334 0 569.5 -236t235.5 -569z" />
    <glyph glyph-name="copyright" unicode="&#xa9;" horiz-adv-x="1638" 
d="M1163 381q-66 -45 -149 -70.5t-162 -25.5q-219 0 -356.5 139t-137.5 362q0 219 138.5 358.5t355.5 139.5q88 0 169 -26.5t142 -75.5v-166q-69 62 -147 95.5t-154 33.5q-168 0 -263 -96t-95 -263q0 -163 95.5 -262.5t250.5 -99.5q87 0 163.5 29t149.5 90v-162zM1520 772
q0 290 -205 495.5t-496 205.5q-290 0 -495 -205.5t-205 -495.5t205 -495t495 -205q291 0 496 205t205 495zM1624 772q0 -333 -235.5 -569t-569.5 -236q-333 0 -569 236t-236 569t236 569t569 236q334 0 569.5 -236t235.5 -569z" />
    <glyph glyph-name="trademark" unicode="&#x2122;" horiz-adv-x="1925" 
d="M737 1409h-272v-715h-152v715h-274v135h698v-135zM1790 694h-145v666l-281 -666h-78l-282 664v-664h-146v850h211l256 -598l254 598h211v-850z" />
    <glyph glyph-name="acute" unicode="&#xb4;" horiz-adv-x="737" 
d="M616 1335l-307 -260l-65 74l282 295z" />
    <glyph glyph-name="dieresis" unicode="&#xa8;" horiz-adv-x="963" 
d="M389 1239q0 -44 -29.5 -73t-72.5 -29q-44 0 -74.5 29.5t-30.5 72.5q0 41 31.5 71.5t73.5 30.5q43 0 72.5 -29.5t29.5 -72.5zM780 1239q0 -44 -29 -73t-73 -29t-74.5 29.5t-30.5 72.5q0 41 31.5 71.5t73.5 30.5q43 0 72.5 -29.5t29.5 -72.5z" />
    <glyph glyph-name="notequal" unicode="&#x2260;" horiz-adv-x="1706" 
d="M1204 1212l123 -100l-170 -215h295v-162h-403l-197 -250h600v-161h-707l-249 -314l-123 99l170 215h-289v161h393l199 250h-592v162h700z" />
    <glyph glyph-name="AE" unicode="&#xc6;" horiz-adv-x="2042" 
d="M975 610l-254 564l-248 -564h502zM1249 0l-200 446h-650l-196 -446h-213l710 1544h666l82 -180h-623l207 -451h619l80 -180h-619l256 -553h610l82 -180h-811z" />
    <glyph glyph-name="Oslash" unicode="&#xd8;" horiz-adv-x="1696" 
d="M1442 772q0 106 -31.5 204.5t-91.5 180.5l-858 -860q79 -73 178 -111.5t209 -38.5q250 0 422 182t172 443zM1237 1247q-81 73 -181 111.5t-208 38.5q-270 0 -430 -183.5t-160 -441.5q0 -104 31 -202t90 -181zM1651 1491l-197 -199q88 -109 134 -241.5t46 -278.5
q0 -338 -228.5 -571.5t-557.5 -233.5q-143 0 -277 51.5t-243 147.5l-197 -199l-86 86l199 201q-89 109 -136 242t-47 276q0 341 227.5 573t559.5 232q146 0 280 -50.5t240 -146.5l197 197z" />
    <glyph glyph-name="infinity" unicode="&#x221e;" horiz-adv-x="1706" 
d="M928 559q45 -81 109.5 -122.5t146.5 -41.5q97 0 159 61.5t62 157.5q0 95 -57 158.5t-142 63.5q-78 0 -142 -63.5t-136 -213.5zM780 662q-46 81 -111 123t-145 42q-98 0 -159.5 -62t-61.5 -159q0 -94 56.5 -156.5t140.5 -62.5q80 0 144.5 62.5t135.5 212.5zM862 471
q-71 -135 -148.5 -197.5t-172.5 -62.5q-137 0 -232.5 114.5t-95.5 284.5q0 179 85 289.5t220 110.5q93 0 168.5 -60t157.5 -200q71 139 149.5 200.5t184.5 61.5q127 0 222 -116t95 -284q0 -178 -84.5 -288.5t-220.5 -110.5q-92 0 -166.5 57.5t-161.5 200.5z" />
    <glyph glyph-name="plusminus" unicode="&#xb1;" 
d="M1128 0h-1071v141h1071v-141zM1128 612h-462v-360h-146v360h-463v142h463v360h146v-360h462v-142z" />
    <glyph glyph-name="lessequal" unicode="&#x2264;" horiz-adv-x="1706" 
d="M260 178h1186v-166h-1186v166zM1446 1223v-176l-889 -287l889 -287v-176l-1186 389v145z" />
    <glyph glyph-name="greaterequal" unicode="&#x2265;" horiz-adv-x="1706" 
d="M260 178h1188v-166h-1188v166zM260 1223l1186 -392v-145l-1186 -389v176l891 287l-891 287v176z" />
    <glyph glyph-name="yen" unicode="&#xa5;" 
d="M1167 1544l-290 -514h290v-100h-346l-114 -201h460v-98h-479v-631h-184v631h-486v98h465l-116 201h-349v100h295l-295 514h205l375 -678l367 678h202z" />
    <glyph glyph-name="uni00B5" unicode="&#xb5;" horiz-adv-x="1049" 
d="M956 958l-104 -524q-20 -100 -26.5 -142.5t-6.5 -68.5q0 -46 15 -67t51 -21q15 0 31 3.5t34 11.5v-168q-14 -5 -40.5 -10t-39.5 -5q-102 0 -151 41t-62 137q-47 -92 -108 -135t-146 -43q-70 0 -116.5 35.5t-59.5 95.5l-125 -630h-188l293 1490h188l-84 -419
q-13 -67 -19.5 -125.5t-6.5 -104.5q0 -90 31 -132t100 -42q93 0 159 93.5t103 277.5l92 452h186z" />
    <glyph glyph-name="partialdiff" unicode="&#x2202;" horiz-adv-x="1075" 
d="M758 639q17 103 26 186.5t9 147.5q0 120 -29 174.5t-92 54.5q-62 0 -147 -58.5t-122 -58.5t-64.5 26t-27.5 60q0 66 79 115t200 49q176 0 287.5 -159t111.5 -422q0 -338 -150 -558.5t-376 -220.5q-161 0 -266 112t-105 286q0 193 113 322.5t278 129.5q101 0 167.5 -45
t107.5 -141zM705 504q0 116 -41 178.5t-117 62.5q-105 0 -174.5 -131.5t-69.5 -337.5q0 -116 40.5 -177.5t117.5 -61.5q105 0 174.5 132.5t69.5 334.5z" />
    <glyph glyph-name="summation" unicode="&#x2211;" horiz-adv-x="1421" 
d="M61 1473h1280v-226h-921l647 -684l-661 -729h974v-227h-1347v160l712 786l-684 719v201z" />
    <glyph glyph-name="product" unicode="&#x220f;" horiz-adv-x="1579" 
d="M154 1473h1267v-1866h-286v1622h-695v-1622h-286v1866z" />
    <glyph glyph-name="glyph155" horiz-adv-x="1368" 
d="M360 889h-45q-54 0 -83.5 -31.5t-39.5 -99.5h-174q28 187 100 255t242 68h953l-39 -192h-193l-84 -437q-2 -13 -8 -41q-22 -113 -22 -147q0 -58 23 -82t77 -24q18 0 42.5 2.5t59.5 7.5l-34 -168q-29 -8 -61 -12t-75 -4q-139 0 -202.5 48t-63.5 154q0 77 52 344l1 6
l70 353h-268l-174 -889h-226z" />
    <glyph glyph-name="integral" unicode="&#x222b;" horiz-adv-x="1120" 
d="M324 -258q106 0 122 692l3 123q13 538 113 766.5t312 228.5q87 0 143 -45.5t56 -111.5q0 -61 -34 -95t-95 -34q-45 0 -74.5 22.5t-40.5 65.5q-4 17 -6 45q-3 40 -26 41q-101 0 -119 -615q-5 -161 -8 -249q-10 -280 -30.5 -427t-59.5 -245q-55 -136 -139.5 -205.5
t-194.5 -69.5q-87 0 -142 44t-55 112q0 63 35.5 97t99.5 34q39 0 66 -18t41 -54q6 -16 9 -59t24 -43z" />
    <glyph glyph-name="ordfeminine" unicode="&#xaa;" horiz-adv-x="684" 
d="M489 1262q0 74 -47.5 125t-115.5 51q-69 0 -115.5 -51t-46.5 -125q0 -75 46.5 -125t115.5 -50t116 50.5t47 124.5zM623 977h-134v76q-29 -44 -74.5 -68t-101.5 -24q-126 0 -205 84t-79 217q0 132 81 217.5t203 85.5q55 0 101.5 -25t74.5 -70v74h134v-567z" />
    <glyph glyph-name="ordmasculine" unicode="&#xba;" horiz-adv-x="664" 
d="M500 1264q0 75 -50 127.5t-120 52.5q-71 0 -119.5 -52t-48.5 -128q0 -77 48.5 -130t119.5 -53q72 0 121 53t49 130zM635 1264q0 -126 -88.5 -214.5t-214.5 -88.5q-127 0 -215 88t-88 215q0 126 87.5 213.5t215.5 87.5q126 0 214.5 -88t88.5 -213z" />
    <glyph glyph-name="uni2126" unicode="&#x2126;" horiz-adv-x="1569" 
d="M1194 213h305v-213h-602v229q160 94 242 244.5t82 351.5q0 210 -121 341.5t-316 131.5q-197 0 -316.5 -132.5t-119.5 -352.5q0 -191 84 -342t240 -242v-229h-602v213h305q-144 130 -211.5 274t-67.5 322q0 314 190.5 508t497.5 194q303 0 496 -192.5t193 -493.5
q0 -190 -65.5 -333t-213.5 -279z" />
    <glyph glyph-name="ae" unicode="&#xe6;" horiz-adv-x="1653" 
d="M729 305q-3 20 -13 59l-3 12q-28 44 -98 72.5t-148 28.5q-111 0 -176.5 -48.5t-65.5 -129.5q0 -69 62 -112.5t172 -43.5q109 0 172.5 38t97.5 124zM1427 571q-7 117 -75.5 180.5t-186.5 63.5q-112 0 -182 -64t-80 -180h524zM1612 444h-713q6 -148 76 -224.5t199 -76.5
q95 0 156 37t102 119l149 -82q-67 -129 -167 -189.5t-245 -60.5q-127 0 -217 46t-143 139q-62 -94 -154.5 -139.5t-222.5 -45.5q-192 0 -291.5 82.5t-99.5 241.5q0 134 106.5 223.5t270.5 89.5q88 0 165.5 -25t131.5 -71v61q0 117 -76.5 181.5t-218.5 64.5q-82 0 -157 -22.5
t-142 -67.5v190q62 40 137 58t176 18q150 0 242.5 -44t138.5 -136q52 91 139 135.5t213 44.5q202 0 323.5 -130.5t121.5 -348.5v-68z" />
    <glyph glyph-name="oslash" unicode="&#xf8;" horiz-adv-x="1106" 
d="M877 483q0 56 -15.5 106.5t-44.5 92.5l-467 -469q42 -34 94 -52t109 -18q141 0 232.5 96t91.5 244zM756 748q-43 33 -94.5 50t-108.5 17q-141 0 -232.5 -93t-91.5 -239q0 -56 15 -107t45 -95zM1065 928l-119 -119q56 -69 85.5 -152t29.5 -174q0 -216 -147.5 -366
t-362.5 -150q-91 0 -174.5 30.5t-153.5 88.5l-117 -119l-63 66l117 119q-56 70 -85.5 155t-29.5 176q0 217 145 362.5t361 145.5q94 0 179 -30t153 -87l118 117z" />
    <glyph glyph-name="questiondown" unicode="&#xbf;" horiz-adv-x="928" 
d="M109 365q0 87 24 159.5t69.5 126t111 87.5t147.5 44v357h176v-512h-72q-133 0 -195.5 -65.5t-62.5 -196.5q0 -52 10.5 -94.5t31.5 -73t53.5 -47.5t76.5 -17q56 0 90 21.5t53 53.5t25.5 68t7.5 64h181q0 -69 -20.5 -136t-64.5 -119.5t-114 -85t-168 -32.5
q-81 0 -147.5 28.5t-114 81t-73 126t-25.5 162.5zM422 1450q0 26 9.5 49.5t27 40.5t40.5 27t50 10t50 -10t40.5 -27t27 -40.5t9.5 -49.5q0 -27 -10 -50t-27.5 -40.5t-40.5 -27t-49 -9.5t-49 9.5t-40.5 27t-27.5 40.5t-10 50z" />
    <glyph glyph-name="exclamdown" unicode="&#xa1;" horiz-adv-x="657" 
d="M422 0h-184v1139h184v-1139zM457 1450q0 -53 -37 -90t-90 -37t-90 37t-37 90t37 90t90 37t90 -37t37 -90z" />
    <glyph glyph-name="logicalnot" unicode="&#xac;" 
d="M1067 242h-145v487h-844v141h989v-628z" />
    <glyph glyph-name="radical" unicode="&#x221a;" horiz-adv-x="1323" 
d="M1128 1675h197v-110h-108l-594 -1606h-82l-316 872l-131 -49l-28 95l305 108l247 -688z" />
    <glyph glyph-name="florin" unicode="&#x192;" 
d="M1018 1544l-29 -174q-34 16 -62 23.5t-48 7.5q-82 0 -117.5 -51.5t-50.5 -180.5l-25 -211h221l-20 -163h-221l-78 -695q-22 -200 -100 -292.5t-226 -92.5q-39 0 -83 9t-81 24l27 174q35 -15 62.5 -23t48.5 -8q82 0 118 52.5t49 179.5l76 672h-211l21 163h211l26 234
q22 196 102 290.5t226 94.5q39 0 83.5 -9t80.5 -24z" />
    <glyph glyph-name="approxequal" unicode="&#x2248;" horiz-adv-x="1706" 
d="M1530 592v-186q-107 -73 -200 -106.5t-189 -33.5q-89 0 -279.5 66.5t-298.5 66.5q-84 0 -173.5 -36t-211.5 -121v184q112 75 206.5 110t180.5 35q118 0 309 -67.5t277 -67.5q83 0 172 36.5t207 119.5zM1530 979v-184q-109 -75 -201.5 -108.5t-187.5 -33.5
q-88 0 -278.5 67.5t-299.5 67.5q-82 0 -170 -35t-215 -122v184q109 73 205 109.5t182 36.5q120 0 310 -68t268 -68q92 0 181 35t206 119z" />
    <glyph glyph-name="uni2206" unicode="&#x2206;" horiz-adv-x="1395" 
d="M698 1196l-379 -983h756zM569 1473h256l574 -1473h-1403z" />
    <glyph glyph-name="guillemotleft" unicode="&#xab;" horiz-adv-x="1071" 
d="M535 88l-119 -74l-291 465l291 467l119 -72l-254 -395zM918 88l-119 -74l-291 465l291 467l119 -72l-252 -395z" />
    <glyph glyph-name="guillemotright" unicode="&#xbb;" horiz-adv-x="1071" 
d="M563 479l-289 -465l-120 74l254 391l-254 395l120 72zM946 479l-291 -465l-120 74l253 391l-253 395l120 72z" />
    <glyph glyph-name="ellipsis" unicode="&#x2026;" horiz-adv-x="2048" 
d="M469 94q0 -53 -37 -90t-90 -37t-90 37t-37 90t37 90t90 37t90 -37t37 -90zM1151 94q0 -53 -37 -90t-90 -37t-90 37t-37 90t37 90t90 37t90 -37t37 -90zM1833 94q0 -53 -37 -90t-90 -37t-90 37t-37 90t37 90t90 37t90 -37t37 -90z" />
    <glyph glyph-name="figspace" unicode="&#xa0;" 
 />
    <glyph glyph-name="figspace" unicode="&#x2007;" 
 />
    <glyph glyph-name="Agrave" unicode="&#xc0;" horiz-adv-x="1440" 
d="M969 610l-248 561l-248 -561h496zM1450 0h-213l-197 446h-641l-196 -446h-213l731 1589zM846 1735l-66 -74l-307 260l90 109z" />
    <glyph glyph-name="Atilde" unicode="&#xc3;" horiz-adv-x="1440" 
d="M969 610l-248 561l-248 -561h496zM1450 0h-213l-197 446h-641l-196 -446h-213l731 1589zM1057 1868q-32 -81 -83.5 -122.5t-117.5 -41.5q-33 0 -69 13t-81 41l-11 7q-80 50 -113 50q-39 0 -64.5 -19t-50.5 -71l-80 49q34 81 83.5 121.5t115.5 40.5q33 0 69 -13t81 -41v0
q88 -57 125 -57q39 0 64 18t52 72z" />
    <glyph glyph-name="Otilde" unicode="&#xd5;" horiz-adv-x="1696" 
d="M1442 772q0 262 -172 443.5t-422 181.5q-270 0 -430 -183.5t-160 -441.5q0 -262 170 -443.5t420 -181.5t422 182t172 443zM1634 772q0 -338 -228.5 -571.5t-557.5 -233.5q-327 0 -557 234.5t-230 570.5q0 341 227.5 573t559.5 232t559 -232t227 -573zM1184 1868
q-32 -81 -83.5 -122.5t-117.5 -41.5q-33 0 -69 13t-81 41l-11 7q-80 50 -113 50q-39 0 -64.5 -19t-50.5 -71l-80 49q34 81 83.5 121.5t115.5 40.5q33 0 69 -13t81 -41v0q88 -57 125 -57q39 0 64 18t52 72z" />
    <glyph glyph-name="OE" unicode="&#x152;" horiz-adv-x="2341" 
d="M1442 772q0 262 -172 443.5t-422 181.5q-270 0 -430 -183.5t-160 -441.5q0 -262 170 -443.5t420 -181.5t422 182t172 443zM2228 0h-786v272q-105 -146 -259 -225.5t-335 -79.5q-327 0 -557 234.5t-230 570.5q0 341 227.5 573t559.5 232q183 0 337.5 -78.5t256.5 -222.5
v268h786v-180h-594v-451h594v-180h-594v-553h594v-180z" />
    <glyph glyph-name="oe" unicode="&#x153;" horiz-adv-x="1837" 
d="M877 483q0 145 -92.5 238.5t-231.5 93.5q-141 0 -232.5 -93t-91.5 -239q0 -148 92.5 -244t231.5 -96q141 0 232.5 96t91.5 244zM1614 571q-12 119 -81 181.5t-187 62.5q-115 0 -191 -65t-90 -179h549zM1796 444h-735q10 -145 85.5 -223t205.5 -78q98 0 162 38t104 118
l154 -82q-66 -126 -170.5 -188t-251.5 -62q-138 0 -237 60.5t-152 177.5q-64 -114 -170.5 -176t-239.5 -62q-214 0 -360 149.5t-146 366.5t145 362.5t361 145.5q137 0 244.5 -62.5t169.5 -176.5q57 114 156.5 176.5t224.5 62.5q202 0 326 -131.5t124 -347.5v-68z" />
    <glyph glyph-name="endash" unicode="&#x2013;" horiz-adv-x="1024" 
d="M1024 467h-1024v143h1024v-143z" />
    <glyph glyph-name="emdash" unicode="&#x2014;" horiz-adv-x="2048" 
d="M1843 467h-1638v143h1638v-143z" />
    <glyph glyph-name="quotedblleft" unicode="&#x201c;" horiz-adv-x="899" 
d="M475 1534l-192 -563l-187 78l266 528zM807 1534l-193 -563l-186 78l266 528z" />
    <glyph glyph-name="quotedblright" unicode="&#x201d;" horiz-adv-x="899" 
d="M471 1499l-266 -528l-113 43l193 563zM803 1499l-266 -528l-113 43l192 563z" />
    <glyph glyph-name="quoteleft" unicode="&#x2018;" horiz-adv-x="567" 
d="M475 1534l-192 -563l-187 78l266 528z" />
    <glyph glyph-name="quoteright" unicode="&#x2019;" horiz-adv-x="567" 
d="M471 1499l-266 -528l-113 43l193 563z" />
    <glyph glyph-name="divide" unicode="&#xf7;" 
d="M711 203q0 -48 -35 -82.5t-84 -34.5t-83 34t-34 83t34.5 84t82.5 35t83.5 -35.5t35.5 -83.5zM1128 487h-1071v142h1071v-142zM711 911q0 -48 -35 -82t-84 -34t-83 33.5t-34 82.5t34.5 84t82.5 35t83.5 -35t35.5 -84z" />
    <glyph glyph-name="lozenge" unicode="&#x25ca;" horiz-adv-x="1012" 
d="M506 1409l-385 -817l385 -825l385 825zM506 1653l500 -1061l-500 -1069l-500 1069z" />
    <glyph glyph-name="ydieresis" unicode="&#xff;" horiz-adv-x="991" 
d="M983 958l-612 -1490h-203l244 573l-404 917h201l297 -706l274 706h203zM403 1239q0 -44 -29.5 -73t-72.5 -29q-44 0 -74.5 29.5t-30.5 72.5q0 41 31.5 71.5t73.5 30.5q43 0 72.5 -29.5t29.5 -72.5zM794 1239q0 -44 -29 -73t-73 -29t-74.5 29.5t-30.5 72.5q0 41 31.5 71.5
t73.5 30.5q43 0 72.5 -29.5t29.5 -72.5z" />
    <glyph glyph-name="Ydieresis" unicode="&#x178;" horiz-adv-x="1174" 
d="M1167 1544l-481 -839v-705h-192v705l-488 839h217l371 -665l358 665h215zM495 1825q0 -44 -29.5 -73t-72.5 -29q-44 0 -74.5 29.5t-30.5 72.5q0 41 31.5 71.5t73.5 30.5q43 0 72.5 -29.5t29.5 -72.5zM886 1825q0 -44 -29 -73t-73 -29t-74.5 29.5t-30.5 72.5
q0 41 31.5 71.5t73.5 30.5q43 0 72.5 -29.5t29.5 -72.5z" />
    <glyph glyph-name="fraction" unicode="&#x2044;" horiz-adv-x="338" 
d="M690 1544l-944 -1544h-123l942 1544h125z" />
    <glyph glyph-name="currency" unicode="&#xa4;" 
d="M944 1034q0 146 -103 249t-249 103t-249 -103t-103 -249t103 -250t249 -104t249 104t103 250zM1135 567l-76 -78l-170 170q-63 -48 -139.5 -74t-157.5 -26t-156.5 26t-138.5 74l-170 -170l-78 78l170 170q-49 64 -75.5 140.5t-26.5 156.5t26 155.5t76 139.5l-170 170
l78 78l170 -170q63 49 138.5 74.5t156.5 25.5t157.5 -25.5t139.5 -74.5l170 170l76 -78l-170 -170q49 -64 75.5 -139.5t26.5 -155.5t-26.5 -156.5t-75.5 -140.5z" />
    <glyph glyph-name="guilsinglleft" unicode="&#x2039;" horiz-adv-x="688" 
d="M535 88l-119 -74l-291 465l291 467l119 -72l-254 -395z" />
    <glyph glyph-name="guilsinglright" unicode="&#x203a;" horiz-adv-x="688" 
d="M563 479l-289 -465l-120 74l254 391l-254 395l120 72z" />
    <glyph glyph-name="fi" unicode="&#xfb01;" horiz-adv-x="1049" 
d="M532 795h-186v-795h-184v795h-131v163h131v367q0 210 63.5 300.5t210.5 90.5q27 0 50 -3.5t46 -10.5v-166q-18 9 -35.5 12.5t-37.5 3.5q-70 0 -91.5 -49t-21.5 -184v-361h186v-163zM881 0h-185v958h185v-958zM909 1346q0 -51 -35 -86t-86 -35q-50 0 -85 35t-35 86
q0 50 35 85t85 35q51 0 86 -35t35 -85z" />
    <glyph glyph-name="fl" unicode="&#xfb02;" horiz-adv-x="1018" 
d="M532 795h-186v-795h-184v795h-131v163h131v367q0 210 63.5 300.5t210.5 90.5q27 0 50 -3.5t46 -10.5v-166q-18 9 -35.5 12.5t-37.5 3.5q-70 0 -91.5 -49t-21.5 -184v-361h186v-163zM879 0h-185v1690h185v-1690z" />
    <glyph glyph-name="daggerdbl" unicode="&#x2021;" 
d="M1079 76h-395v-506h-184v506h-396v164h396v663h-396v164h396v477h184v-477h395v-164h-395v-663h395v-164z" />
    <glyph glyph-name="periodcentered" unicode="&#xb7;" horiz-adv-x="592" 
d="M424 788q0 -52 -37 -89t-90 -37t-90 37t-37 89q0 54 37 90.5t90 36.5t90 -36.5t37 -90.5z" />
    <glyph glyph-name="quotesinglbase" unicode="&#x201a;" horiz-adv-x="567" 
d="M412 174l-267 -528l-112 43l192 563z" />
    <glyph glyph-name="quotedblbase" unicode="&#x201e;" horiz-adv-x="899" 
d="M412 174l-267 -528l-112 43l192 563zM743 174l-266 -528l-112 43l192 563z" />
    <glyph glyph-name="perthousand" unicode="&#x2030;" horiz-adv-x="2273" 
d="M1264 322q0 88 -57 150.5t-138 62.5t-139 -63t-58 -150q0 -88 58 -150.5t139 -62.5t138 62t57 151zM590 1223q0 88 -57 150.5t-138 62.5t-138.5 -63t-57.5 -150q0 -88 57.5 -150.5t138.5 -62.5t138 62.5t57 150.5zM2052 322q0 88 -57 150.5t-137 62.5q-82 0 -139.5 -63
t-57.5 -150q0 -88 57.5 -150.5t139.5 -62.5q80 0 137 62t57 151zM1401 322q0 -142 -97.5 -242t-234.5 -100t-235.5 100.5t-98.5 241.5q0 140 98.5 240t235.5 100t234.5 -100t97.5 -240zM1245 1544l-909 -1544h-117l909 1544h117zM727 1223q0 -141 -97 -240.5t-235 -99.5
q-137 0 -235.5 99.5t-98.5 240.5q0 140 98.5 241t235.5 101t234.5 -100.5t97.5 -241.5zM2189 322q0 -142 -97.5 -242t-233.5 -100q-138 0 -236 100.5t-98 241.5q0 140 98 240t236 100q137 0 234 -100t97 -240z" />
    <glyph glyph-name="Acircumflex" unicode="&#xc2;" horiz-adv-x="1440" 
d="M969 610l-248 561l-248 -561h496zM1450 0h-213l-197 446h-641l-196 -446h-213l731 1589zM1012 1737l-59 -76l-232 191l-231 -191l-60 76l291 289z" />
    <glyph glyph-name="Ecircumflex" unicode="&#xca;" horiz-adv-x="1067" 
d="M954 0h-811v1544h811v-180h-618v-451h618v-180h-618v-553h618v-180zM838 1737l-59 -76l-232 191l-231 -191l-60 76l291 289z" />
    <glyph glyph-name="Aacute" unicode="&#xc1;" horiz-adv-x="1440" 
d="M969 610l-248 561l-248 -561h496zM1450 0h-213l-197 446h-641l-196 -446h-213l731 1589zM968 1921l-307 -260l-65 74l282 295z" />
    <glyph glyph-name="Edieresis" unicode="&#xcb;" horiz-adv-x="1067" 
d="M954 0h-811v1544h811v-180h-618v-451h618v-180h-618v-553h618v-180zM455 1825q0 -44 -29.5 -73t-72.5 -29q-44 0 -74.5 29.5t-30.5 72.5q0 41 31.5 71.5t73.5 30.5q43 0 72.5 -29.5t29.5 -72.5zM846 1825q0 -44 -29 -73t-73 -29t-74.5 29.5t-30.5 72.5q0 41 31.5 71.5
t73.5 30.5q43 0 72.5 -29.5t29.5 -72.5z" />
    <glyph glyph-name="Egrave" unicode="&#xc8;" horiz-adv-x="1067" 
d="M954 0h-811v1544h811v-180h-618v-451h618v-180h-618v-553h618v-180zM672 1735l-66 -74l-307 260l90 109z" />
    <glyph glyph-name="Iacute" unicode="&#xcd;" horiz-adv-x="475" 
d="M334 0h-193v1544h193v-1544zM486 1921l-307 -260l-65 74l282 295z" />
    <glyph glyph-name="Icircumflex" unicode="&#xce;" horiz-adv-x="475" 
d="M334 0h-193v1544h193v-1544zM529 1737l-59 -76l-232 191l-231 -191l-60 76l291 289z" />
    <glyph glyph-name="Idieresis" unicode="&#xcf;" horiz-adv-x="475" 
d="M334 0h-193v1544h193v-1544zM146 1825q0 -44 -29.5 -73t-72.5 -29q-44 0 -74.5 29.5t-30.5 72.5q0 41 31.5 71.5t73.5 30.5q43 0 72.5 -29.5t29.5 -72.5zM537 1825q0 -44 -29 -73t-73 -29t-74.5 29.5t-30.5 72.5q0 41 31.5 71.5t73.5 30.5q43 0 72.5 -29.5t29.5 -72.5z
" />
    <glyph glyph-name="Igrave" unicode="&#xcc;" horiz-adv-x="475" 
d="M334 0h-193v1544h193v-1544zM364 1735l-66 -74l-307 260l90 109z" />
    <glyph glyph-name="Oacute" unicode="&#xd3;" horiz-adv-x="1696" 
d="M1442 772q0 262 -172 443.5t-422 181.5q-270 0 -430 -183.5t-160 -441.5q0 -262 170 -443.5t420 -181.5t422 182t172 443zM1634 772q0 -338 -228.5 -571.5t-557.5 -233.5q-327 0 -557 234.5t-230 570.5q0 341 227.5 573t559.5 232t559 -232t227 -573zM1095 1921
l-307 -260l-65 74l282 295z" />
    <glyph glyph-name="Ocircumflex" unicode="&#xd4;" horiz-adv-x="1696" 
d="M1442 772q0 262 -172 443.5t-422 181.5q-270 0 -430 -183.5t-160 -441.5q0 -262 170 -443.5t420 -181.5t422 182t172 443zM1634 772q0 -338 -228.5 -571.5t-557.5 -233.5q-327 0 -557 234.5t-230 570.5q0 341 227.5 573t559.5 232t559 -232t227 -573zM1139 1737l-59 -76
l-232 191l-231 -191l-60 76l291 289z" />
    <glyph glyph-name="Ograve" unicode="&#xd2;" horiz-adv-x="1696" 
d="M1442 772q0 262 -172 443.5t-422 181.5q-270 0 -430 -183.5t-160 -441.5q0 -262 170 -443.5t420 -181.5t422 182t172 443zM1634 772q0 -338 -228.5 -571.5t-557.5 -233.5q-327 0 -557 234.5t-230 570.5q0 341 227.5 573t559.5 232t559 -232t227 -573zM973 1735l-66 -74
l-307 260l90 109z" />
    <glyph glyph-name="Uacute" unicode="&#xda;" horiz-adv-x="1370" 
d="M1227 580q0 -309 -134 -461t-407 -152q-271 0 -407 154t-136 459v964h193v-1003q0 -198 87 -296t263 -98q177 0 262.5 97t85.5 297v1003h193v-964zM933 1921l-307 -260l-65 74l282 295z" />
    <glyph glyph-name="Ucircumflex" unicode="&#xdb;" horiz-adv-x="1370" 
d="M1227 580q0 -309 -134 -461t-407 -152q-271 0 -407 154t-136 459v964h193v-1003q0 -198 87 -296t263 -98q177 0 262.5 97t85.5 297v1003h193v-964zM977 1737l-59 -76l-232 191l-231 -191l-60 76l291 289z" />
    <glyph glyph-name="Ugrave" unicode="&#xd9;" horiz-adv-x="1370" 
d="M1227 580q0 -309 -134 -461t-407 -152q-271 0 -407 154t-136 459v964h193v-1003q0 -198 87 -296t263 -98q177 0 262.5 97t85.5 297v1003h193v-964zM811 1735l-66 -74l-307 260l90 109z" />
    <glyph glyph-name="dotlessi" unicode="&#x131;" horiz-adv-x="520" 
d="M352 0h-184v958h184v-958z" />
    <glyph glyph-name="circumflex" unicode="&#x2c6;" horiz-adv-x="963" 
d="M772 1151l-59 -76l-232 191l-231 -191l-60 76l291 289z" />
    <glyph glyph-name="tilde" unicode="&#x2dc;" horiz-adv-x="1044" 
d="M858 1282q-32 -81 -83.5 -122.5t-117.5 -41.5q-33 0 -69 13t-81 41l-11 7q-80 50 -113 50q-39 0 -64.5 -19t-50.5 -71l-80 49q34 81 83.5 121.5t115.5 40.5q33 0 69 -13t81 -41v0q88 -57 125 -57q39 0 64 18t52 72z" />
    <glyph glyph-name="uni02C9" unicode="&#x2c9;" horiz-adv-x="1024" 
d="M788 1169h-552v125h552v-125z" />
    <glyph glyph-name="breve" unicode="&#x2d8;" horiz-adv-x="1004" 
d="M797 1356q-28 -129 -100 -190.5t-193 -61.5q-124 0 -199.5 64.5t-95.5 187.5l88 30q19 -77 72 -117t135 -40q81 0 132 39.5t71 117.5z" />
    <glyph glyph-name="dotaccent" unicode="&#x2d9;" horiz-adv-x="737" 
d="M475 1241q0 -46 -30 -76t-76 -30q-45 0 -76 31t-31 75q0 43 32 75t75 32q44 0 75 -31t31 -76z" />
    <glyph glyph-name="ring" unicode="&#x2da;" horiz-adv-x="737" 
d="M514 1294q0 61 -43 104.5t-102 43.5q-61 0 -103.5 -43.5t-42.5 -104.5q0 -60 42.5 -102.5t103.5 -42.5q60 0 102.5 42.5t42.5 102.5zM606 1294q0 -98 -69.5 -167.5t-167.5 -69.5t-167 69.5t-69 167.5q0 99 69 168.5t167 69.5t167.5 -69.5t69.5 -168.5z" />
    <glyph glyph-name="cedilla" unicode="&#xb8;" horiz-adv-x="676" 
d="M469 -113l-238 -319l-81 57l200 342z" />
    <glyph glyph-name="hungarumlaut" unicode="&#x2dd;" horiz-adv-x="963" 
d="M530 1374l-213 -299l-81 51l176 318zM791 1356l-244 -281l-74 64l211 305z" />
    <glyph glyph-name="ogonek" unicode="&#x2db;" horiz-adv-x="696" 
d="M467 -465q-158 0 -224.5 44.5t-66.5 150.5q0 65 41 137.5t113 132.5h100q-56 -52 -88.5 -114t-32.5 -115q0 -60 36.5 -85.5t121.5 -25.5v-125z" />
    <glyph glyph-name="caron" unicode="&#x2c7;" horiz-adv-x="967" 
d="M774 1356l-291 -291l-290 291l59 74l231 -191l232 191z" />
    <glyph glyph-name="thinspace" unicode="&#x2009;" horiz-adv-x="592" 
 />
    <glyph glyph-name="enspace" unicode="&#x2002;" horiz-adv-x="1024" 
 />
    <glyph glyph-name="emspace" unicode="&#x2003;" horiz-adv-x="2048" 
 />
    <glyph glyph-name="sfthyphen" unicode="&#xad;" horiz-adv-x="680" 
d="M586 453h-492v172h492v-172z" />
    <glyph glyph-name="franc" unicode="&#x20a3;" horiz-adv-x="1690" 
d="M864 733h-518v-733h-192v1544h710v-180h-518v-451h518v-180zM1673 973l-38 -185q-20 13 -42.5 19t-46.5 6q-122 0 -184.5 -100.5t-62.5 -298.5v-414h-185v958h185v-172q33 106 102.5 155.5t183.5 49.5q26 0 49.5 -5t38.5 -13z" />
    <glyph glyph-name="macron" unicode="&#xaf;" horiz-adv-x="1024" 
d="M0 1565h1024v-172h-1024v172z" />
    <glyph glyph-name="brokenbar" unicode="&#xa6;" horiz-adv-x="1167" 
d="M657 -371h-147v758h147v-758zM657 653h-147v758h147v-758z" />
    <glyph glyph-name="minus" unicode="&#x2212;" 
d="M1128 487h-1071v142h1071v-142z" />
    <glyph glyph-name="multiply" unicode="&#xd7;" 
d="M1100 154l-103 -103l-407 406l-387 -389l-101 100l390 389l-406 404l102 102l406 -404l389 390l100 -101l-391 -389z" />
    <glyph glyph-name="onequarter" unicode="&#xbc;" horiz-adv-x="1776" 
d="M1444 315v299l-256 -299h256zM473 643h-141v768h-180l69 133h252v-901zM1436 1544l-940 -1544h-125l942 1544h123zM1714 201h-131v-201h-141v201h-494l635 745v-631h131v-114z" />
    <glyph glyph-name="onehalf" unicode="&#xbd;" horiz-adv-x="1776" 
d="M465 643h-141v768h-183l70 133h254v-901zM1427 1544l-942 -1544h-125l943 1544h124zM1769 0h-641q58 61 334 371q90 100 126 160t36 116q0 68 -45 107t-123 39t-123 -48t-45 -129h-137q0 141 83.5 223.5t225.5 82.5q139 0 222 -73.5t83 -193.5q0 -89 -48.5 -174
t-174.5 -213l-137 -139h364v-129z" />
    <glyph glyph-name="threequarters" unicode="&#xbe;" horiz-adv-x="1776" 
d="M1444 315v299l-256 -299h256zM666 897q0 -125 -85 -199.5t-229 -74.5q-134 0 -212.5 75.5t-78.5 200.5h146q0 -66 39.5 -106.5t107.5 -40.5q75 0 120.5 42t45.5 107q0 69 -43.5 112.5t-114.5 43.5h-34v119h39q66 0 103.5 33t37.5 91q0 62 -39 99t-107 37t-109.5 -34
t-41.5 -87h-131q3 110 80.5 180t201.5 70q132 0 208.5 -67.5t76.5 -180.5q0 -80 -37 -131t-104 -66q76 -19 118 -78t42 -145zM1456 1544l-942 -1544h-125l942 1544h125zM1714 201h-131v-201h-141v201h-494l635 745v-631h131v-114z" />
    <glyph glyph-name="onesuperior" unicode="&#xb9;" horiz-adv-x="709" 
d="M473 643h-141v768h-180l69 133h252v-901z" />
    <glyph glyph-name="twosuperior" unicode="&#xb2;" horiz-adv-x="709" 
d="M678 643h-641l332 371q93 104 128 163.5t35 112.5q0 68 -44.5 107t-122.5 39q-79 0 -124.5 -48t-45.5 -128h-136q0 140 83.5 222.5t226.5 82.5q138 0 220.5 -73t82.5 -194q0 -88 -48 -172t-175 -215l-136 -139h365v-129z" />
    <glyph glyph-name="threesuperior" unicode="&#xb3;" horiz-adv-x="709" 
d="M666 897q0 -125 -85 -199.5t-229 -74.5q-134 0 -212.5 75.5t-78.5 200.5h146q0 -66 39.5 -106.5t107.5 -40.5q75 0 120.5 42t45.5 107q0 69 -43.5 112.5t-114.5 43.5h-34v119h39q66 0 103.5 33t37.5 91q0 62 -39 99t-107 37t-109.5 -34t-41.5 -87h-131q3 110 80.5 180
t201.5 70q132 0 208.5 -67.5t76.5 -180.5q0 -80 -37 -131t-104 -66q76 -19 118 -78t42 -145z" />
    <glyph glyph-name="periodcenter" unicode="&#x2219;" horiz-adv-x="592" 
d="M424 788q0 -52 -37 -89t-90 -37t-90 37t-37 89q0 54 37 90.5t90 36.5t90 -36.5t37 -90.5z" />
    <glyph glyph-name="commaaccent" unicode="&#xf004;" horiz-adv-x="676" 
d="M469 -113l-238 -319l-81 57l200 342z" />
    <glyph glyph-name="Aogonek" unicode="&#x104;" horiz-adv-x="1440" 
d="M969 610l-248 561l-248 -561h496zM1450 -465q-158 0 -224.5 44.5t-66.5 150.5q0 65 41 137.5t113 132.5h-76l-197 446h-641l-196 -446h-213l731 1589l729 -1589h-37q-56 -52 -88.5 -114t-32.5 -115q0 -60 37 -85.5t121 -25.5v-125z" />
    <glyph glyph-name="Amacron" unicode="&#x100;" horiz-adv-x="1440" 
d="M969 610l-248 561l-248 -561h496zM1450 0h-213l-197 446h-641l-196 -446h-213l731 1589zM997 1755h-552v125h552v-125z" />
    <glyph glyph-name="Abreve" unicode="&#x102;" horiz-adv-x="1440" 
d="M969 610l-248 561l-248 -561h496zM1450 0h-213l-197 446h-641l-196 -446h-213l731 1589zM1016 1942q-28 -129 -100 -190.5t-193 -61.5q-124 0 -199.5 64.5t-95.5 187.5l88 30q19 -77 72 -117t135 -40q81 0 132 39.5t71 117.5z" />
    <glyph glyph-name="Cacute" unicode="&#x106;" horiz-adv-x="1354" 
d="M1296 96q-88 -57 -211 -93t-231 -36q-348 0 -562 223.5t-214 583.5q0 348 218 575.5t560 227.5q134 0 241.5 -31.5t198.5 -97.5v-215q-100 82 -203.5 123t-213.5 41q-269 0 -439 -175t-170 -448q0 -276 162.5 -451.5t419.5 -175.5q124 0 235 42t209 126v-219zM1083 1921
l-307 -260l-65 74l282 295z" />
    <glyph glyph-name="Ccircumflex" unicode="&#x108;" horiz-adv-x="1354" 
d="M1296 96q-88 -57 -211 -93t-231 -36q-348 0 -562 223.5t-214 583.5q0 348 218 575.5t560 227.5q134 0 241.5 -31.5t198.5 -97.5v-215q-100 82 -203.5 123t-213.5 41q-269 0 -439 -175t-170 -448q0 -276 162.5 -451.5t419.5 -175.5q124 0 235 42t209 126v-219zM1126 1737
l-59 -76l-232 191l-231 -191l-60 76l291 289z" />
    <glyph glyph-name="Ccaron" unicode="&#x10c;" horiz-adv-x="1354" 
d="M1296 96q-88 -57 -211 -93t-231 -36q-348 0 -562 223.5t-214 583.5q0 348 218 575.5t560 227.5q134 0 241.5 -31.5t198.5 -97.5v-215q-100 82 -203.5 123t-213.5 41q-269 0 -439 -175t-170 -448q0 -276 162.5 -451.5t419.5 -175.5q124 0 235 42t209 126v-219zM1126 1942
l-291 -291l-290 291l59 74l231 -191l232 191z" />
    <glyph glyph-name="Cdot" unicode="&#x10a;" horiz-adv-x="1354" 
d="M1296 96q-88 -57 -211 -93t-231 -36q-348 0 -562 223.5t-214 583.5q0 348 218 575.5t560 227.5q134 0 241.5 -31.5t198.5 -97.5v-215q-100 82 -203.5 123t-213.5 41q-269 0 -439 -175t-170 -448q0 -276 162.5 -451.5t419.5 -175.5q124 0 235 42t209 126v-219zM942 1827
q0 -46 -30 -76t-76 -30q-45 0 -76 31t-31 75q0 43 32 75t75 32q44 0 75 -31t31 -76z" />
    <glyph glyph-name="Dcaron" unicode="&#x10e;" horiz-adv-x="1362" 
d="M1108 772q0 288 -163 440t-474 152h-135v-1184h121q332 0 491.5 146.5t159.5 445.5zM1300 770q0 -379 -218 -574.5t-638 -195.5h-301v1544h306q411 0 631 -201t220 -573zM895 1942l-291 -291l-290 291l59 74l231 -191l232 191z" />
    <glyph glyph-name="Eth" unicode="&#xd0;" horiz-adv-x="1362" 
d="M1108 772q0 288 -163 440t-474 152h-135v-508h375v-154h-375v-522h121q332 0 491.5 146.5t159.5 445.5zM1300 770q0 -379 -218 -574.5t-638 -195.5h-301v702h-143v154h143v688h306q411 0 631 -201t220 -573z" />
    <glyph glyph-name="Dslash" unicode="&#x110;" horiz-adv-x="1362" 
d="M1108 772q0 288 -163 440t-474 152h-135v-508h375v-154h-375v-522h121q332 0 491.5 146.5t159.5 445.5zM1300 770q0 -379 -218 -574.5t-638 -195.5h-301v702h-143v154h143v688h306q411 0 631 -201t220 -573z" />
    <glyph glyph-name="Eogonek" unicode="&#x118;" horiz-adv-x="1067" 
d="M954 -465q-157 0 -223.5 44.5t-66.5 150.5q0 65 41 137.5t112 132.5h-674v1544h811v-180h-618v-451h618v-180h-618v-553h618v-180h-36q-56 -52 -88.5 -114t-32.5 -115q0 -60 36.5 -85.5t120.5 -25.5v-125z" />
    <glyph glyph-name="Ecaron" unicode="&#x11a;" horiz-adv-x="1067" 
d="M954 0h-811v1544h811v-180h-618v-451h618v-180h-618v-553h618v-180zM837 1942l-291 -291l-290 291l59 74l231 -191l232 191z" />
    <glyph glyph-name="Emacron" unicode="&#x112;" horiz-adv-x="1067" 
d="M954 0h-811v1544h811v-180h-618v-451h618v-180h-618v-553h618v-180zM823 1755h-552v125h552v-125z" />
    <glyph glyph-name="Ebreve" unicode="&#x114;" horiz-adv-x="1067" 
d="M954 0h-811v1544h811v-180h-618v-451h618v-180h-618v-553h618v-180zM842 1942q-28 -129 -100 -190.5t-193 -61.5q-124 0 -199.5 64.5t-95.5 187.5l88 30q19 -77 72 -117t135 -40q81 0 132 39.5t71 117.5z" />
    <glyph glyph-name="Edot" unicode="&#x116;" horiz-adv-x="1067" 
d="M954 0h-811v1544h811v-180h-618v-451h618v-180h-618v-553h618v-180zM653 1827q0 -46 -30 -76t-76 -30q-45 0 -76 31t-31 75q0 43 32 75t75 32q44 0 75 -31t31 -76z" />
    <glyph glyph-name="Gcircumflex" unicode="&#x11c;" horiz-adv-x="1597" 
d="M1546 764q0 -361 -197.5 -579t-527.5 -218q-332 0 -546 226.5t-214 578.5q0 348 213.5 576.5t540.5 228.5q205 0 358.5 -78t262.5 -237l-146 -113q-81 123 -199 185.5t-270 62.5q-250 0 -408.5 -178.5t-158.5 -454.5q0 -264 161 -440.5t406 -176.5q211 0 352 129.5
t162 333.5h-465v181h676v-27zM1089 1737l-59 -76l-232 191l-231 -191l-60 76l291 289z" />
    <glyph glyph-name="Gcedilla" unicode="&#x122;" horiz-adv-x="1597" 
d="M1546 764q0 -361 -197.5 -579t-527.5 -218q-332 0 -546 226.5t-214 578.5q0 348 213.5 576.5t540.5 228.5q205 0 358.5 -78t262.5 -237l-146 -113q-81 123 -199 185.5t-270 62.5q-250 0 -408.5 -178.5t-158.5 -454.5q0 -264 161 -440.5t406 -176.5q211 0 352 129.5
t162 333.5h-465v181h676v-27zM930 -113l-238 -319l-81 57l200 342z" />
    <glyph glyph-name="Gbreve" unicode="&#x11e;" horiz-adv-x="1597" 
d="M1546 764q0 -361 -197.5 -579t-527.5 -218q-332 0 -546 226.5t-214 578.5q0 348 213.5 576.5t540.5 228.5q205 0 358.5 -78t262.5 -237l-146 -113q-81 123 -199 185.5t-270 62.5q-250 0 -408.5 -178.5t-158.5 -454.5q0 -264 161 -440.5t406 -176.5q211 0 352 129.5
t162 333.5h-465v181h676v-27zM1094 1942q-28 -129 -100 -190.5t-193 -61.5q-124 0 -199.5 64.5t-95.5 187.5l88 30q19 -77 72 -117t135 -40q81 0 132 39.5t71 117.5z" />
    <glyph glyph-name="Gdot" unicode="&#x120;" horiz-adv-x="1597" 
d="M1546 764q0 -361 -197.5 -579t-527.5 -218q-332 0 -546 226.5t-214 578.5q0 348 213.5 576.5t540.5 228.5q205 0 358.5 -78t262.5 -237l-146 -113q-81 123 -199 185.5t-270 62.5q-250 0 -408.5 -178.5t-158.5 -454.5q0 -264 161 -440.5t406 -176.5q211 0 352 129.5
t162 333.5h-465v181h676v-27zM905 1827q0 -46 -30 -76t-76 -30q-45 0 -76 31t-31 75q0 43 32 75t75 32q44 0 75 -31t31 -76z" />
    <glyph glyph-name="Hcircumflex" unicode="&#x124;" horiz-adv-x="1382" 
d="M1239 0h-192v733h-711v-733h-193v1544h193v-631h711v631h192v-1544zM983 1737l-59 -76l-232 191l-231 -191l-60 76l291 289z" />
    <glyph glyph-name="Itilde" unicode="&#x128;" horiz-adv-x="475" 
d="M334 0h-193v1544h193v-1544zM574 1868q-32 -81 -83.5 -122.5t-117.5 -41.5q-33 0 -69 13t-81 41l-11 7q-80 50 -113 50q-39 0 -64.5 -19t-50.5 -71l-80 49q34 81 83.5 121.5t115.5 40.5q33 0 69 -13t81 -41v0q88 -57 125 -57q39 0 64 18t52 72z" />
    <glyph glyph-name="Imacron" unicode="&#x12a;" horiz-adv-x="475" 
d="M334 0h-193v1544h193v-1544zM515 1755h-552v125h552v-125z" />
    <glyph glyph-name="Ibreve" unicode="&#x12c;" horiz-adv-x="475" 
d="M334 0h-193v1544h193v-1544zM534 1942q-28 -129 -100 -190.5t-193 -61.5q-124 0 -199.5 64.5t-95.5 187.5l88 30q19 -77 72 -117t135 -40q81 0 132 39.5t71 117.5z" />
    <glyph glyph-name="Idotaccent" unicode="&#x130;" horiz-adv-x="475" 
d="M334 0h-193v1544h193v-1544zM345 1827q0 -46 -30 -76t-76 -30q-45 0 -76 31t-31 75q0 43 32 75t75 32q44 0 75 -31t31 -76z" />
    <glyph glyph-name="Iogonek" unicode="&#x12e;" horiz-adv-x="475" 
d="M371 -465q-158 0 -224.5 44.5t-66.5 150.5q0 65 41 137.5t112 132.5h-92v1544h193v-1544q-56 -52 -88.5 -114t-32.5 -115q0 -60 36.5 -85.5t121.5 -25.5v-125z" />
    <glyph glyph-name="Kcedilla" unicode="&#x136;" horiz-adv-x="1229" 
d="M1237 0h-240l-651 801v-801h-192v1544h192v-719l637 719h227l-655 -723zM745 -113l-238 -319l-81 57l200 342z" />
    <glyph glyph-name="Ldot" unicode="&#x13f;" horiz-adv-x="1380" 
d="M766 0h-612v1544h192v-1368h420v-176zM1212 788q0 -52 -37 -89t-90 -37t-90 37t-37 89q0 54 37 90.5t90 36.5t90 -36.5t37 -90.5z" />
    <glyph glyph-name="Lcaron" unicode="&#x13d;" horiz-adv-x="788" 
d="M766 0h-612v1544h192v-1368h420v-176zM829 1499l-266 -528l-112 43l192 563z" />
    <glyph glyph-name="Lacute" unicode="&#x139;" horiz-adv-x="788" 
d="M766 0h-612v1544h192v-1368h420v-176zM511 1921l-307 -260l-65 74l282 295z" />
    <glyph glyph-name="Lcedilla" unicode="&#x13b;" horiz-adv-x="788" 
d="M766 0h-612v1544h192v-1368h420v-176zM526 -113l-238 -319l-81 57l200 342z" />
    <glyph glyph-name="Lslash" unicode="&#x141;" horiz-adv-x="788" 
d="M766 0h-612v621l-99 -74l-84 121l183 133v743h192v-637l217 160l86 -121l-303 -219v-551h420v-176z" />
    <glyph glyph-name="Nacute" unicode="&#x143;" horiz-adv-x="1608" 
d="M1464 -45l-1128 1171v-1126h-193v1589l1129 -1169v1124h192v-1589zM1032 1921l-307 -260l-65 74l282 295z" />
    <glyph glyph-name="Ncaron" unicode="&#x147;" horiz-adv-x="1608" 
d="M1464 -45l-1128 1171v-1126h-193v1589l1129 -1169v1124h192v-1589zM1075 1942l-291 -291l-290 291l59 74l231 -191l232 191z" />
    <glyph glyph-name="Ncedilla" unicode="&#x145;" horiz-adv-x="1608" 
d="M1464 -45l-1128 1171v-1126h-193v1589l1129 -1169v1124h192v-1589zM936 -113l-238 -319l-81 57l200 342z" />
    <glyph glyph-name="Omacron" unicode="&#x14c;" horiz-adv-x="1696" 
d="M1442 772q0 262 -172 443.5t-422 181.5q-270 0 -430 -183.5t-160 -441.5q0 -262 170 -443.5t420 -181.5t422 182t172 443zM1634 772q0 -338 -228.5 -571.5t-557.5 -233.5q-327 0 -557 234.5t-230 570.5q0 341 227.5 573t559.5 232t559 -232t227 -573zM1124 1755h-552v125
h552v-125z" />
    <glyph glyph-name="Obreve" unicode="&#x14e;" horiz-adv-x="1696" 
d="M1442 772q0 262 -172 443.5t-422 181.5q-270 0 -430 -183.5t-160 -441.5q0 -262 170 -443.5t420 -181.5t422 182t172 443zM1634 772q0 -338 -228.5 -571.5t-557.5 -233.5q-327 0 -557 234.5t-230 570.5q0 341 227.5 573t559.5 232t559 -232t227 -573zM1143 1942
q-28 -129 -100 -190.5t-193 -61.5q-124 0 -199.5 64.5t-95.5 187.5l88 30q19 -77 72 -117t135 -40q81 0 132 39.5t71 117.5z" />
    <glyph glyph-name="Odblacute" unicode="&#x150;" horiz-adv-x="1696" 
d="M1442 772q0 262 -172 443.5t-422 181.5q-270 0 -430 -183.5t-160 -441.5q0 -262 170 -443.5t420 -181.5t422 182t172 443zM1634 772q0 -338 -228.5 -571.5t-557.5 -233.5q-327 0 -557 234.5t-230 570.5q0 341 227.5 573t559.5 232t559 -232t227 -573zM897 1960l-213 -299
l-81 51l176 318zM1158 1942l-244 -281l-74 64l211 305z" />
    <glyph glyph-name="Thorn" unicode="&#xde;" horiz-adv-x="1014" 
d="M760 788q0 136 -82 197.5t-268 61.5h-74v-515h74q193 0 271.5 59.5t78.5 196.5zM952 788q0 -211 -141 -323.5t-405 -112.5h-70v-352h-193v1544h193v-317h70q273 0 409.5 -110t136.5 -329z" />
    <glyph glyph-name="Racute" unicode="&#x154;" horiz-adv-x="1112" 
d="M809 1116q0 129 -82 188.5t-258 59.5h-133v-481h133q178 0 259 55t81 178zM1079 0h-233l-455 721h-55v-721h-193v1544h349q248 0 378.5 -108t130.5 -310q0 -180 -108 -286t-295 -111zM804 1921l-307 -260l-65 74l282 295z" />
    <glyph glyph-name="Rcaron" unicode="&#x158;" horiz-adv-x="1112" 
d="M809 1116q0 129 -82 188.5t-258 59.5h-133v-481h133q178 0 259 55t81 178zM1079 0h-233l-455 721h-55v-721h-193v1544h349q248 0 378.5 -108t130.5 -310q0 -180 -108 -286t-295 -111zM848 1942l-291 -291l-290 291l59 74l231 -191l232 191z" />
    <glyph glyph-name="Rcedilla" unicode="&#x156;" horiz-adv-x="1112" 
d="M809 1116q0 129 -82 188.5t-258 59.5h-133v-481h133q178 0 259 55t81 178zM1079 0h-233l-455 721h-55v-721h-193v1544h349q248 0 378.5 -108t130.5 -310q0 -180 -108 -286t-295 -111zM688 -113l-238 -319l-81 57l200 342z" />
    <glyph glyph-name="Sacute" unicode="&#x15a;" horiz-adv-x="1100" 
d="M993 412q0 -208 -128 -326.5t-353 -118.5q-156 0 -271.5 68t-168.5 192l133 121q35 -94 119 -147.5t194 -53.5q135 0 209 67t74 189q0 101 -73 177.5t-245 162.5q-200 101 -280 199t-80 246q0 175 118 282t314 107q121 0 211.5 -46t151.5 -138l-127 -125q-35 61 -99 95
t-143 34q-108 0 -171 -54t-63 -145q0 -85 50.5 -145.5t201.5 -141.5q265 -143 345.5 -248.5t80.5 -250.5zM798 1921l-307 -260l-65 74l282 295z" />
    <glyph glyph-name="Scircumflex" unicode="&#x15c;" horiz-adv-x="1100" 
d="M993 412q0 -208 -128 -326.5t-353 -118.5q-156 0 -271.5 68t-168.5 192l133 121q35 -94 119 -147.5t194 -53.5q135 0 209 67t74 189q0 101 -73 177.5t-245 162.5q-200 101 -280 199t-80 246q0 175 118 282t314 107q121 0 211.5 -46t151.5 -138l-127 -125q-35 61 -99 95
t-143 34q-108 0 -171 -54t-63 -145q0 -85 50.5 -145.5t201.5 -141.5q265 -143 345.5 -248.5t80.5 -250.5zM842 1737l-59 -76l-232 191l-231 -191l-60 76l291 289z" />
    <glyph glyph-name="Scaron" unicode="&#x160;" horiz-adv-x="1100" 
d="M993 412q0 -208 -128 -326.5t-353 -118.5q-156 0 -271.5 68t-168.5 192l133 121q35 -94 119 -147.5t194 -53.5q135 0 209 67t74 189q0 101 -73 177.5t-245 162.5q-200 101 -280 199t-80 246q0 175 118 282t314 107q121 0 211.5 -46t151.5 -138l-127 -125q-35 61 -99 95
t-143 34q-108 0 -171 -54t-63 -145q0 -85 50.5 -145.5t201.5 -141.5q265 -143 345.5 -248.5t80.5 -250.5zM842 1942l-291 -291l-290 291l59 74l231 -191l232 191z" />
    <glyph glyph-name="Scedilla" unicode="&#x15e;" horiz-adv-x="1100" 
d="M993 412q0 -208 -128 -326.5t-353 -118.5q-156 0 -271.5 68t-168.5 192l133 121q35 -94 119 -147.5t194 -53.5q135 0 209 67t74 189q0 101 -73 177.5t-245 162.5q-200 101 -280 199t-80 246q0 175 118 282t314 107q121 0 211.5 -46t151.5 -138l-127 -125q-35 61 -99 95
t-143 34q-108 0 -171 -54t-63 -145q0 -85 50.5 -145.5t201.5 -141.5q265 -143 345.5 -248.5t80.5 -250.5zM682 -113l-238 -319l-81 57l200 342z" />
    <glyph glyph-name="Tcaron" unicode="&#x164;" horiz-adv-x="934" 
d="M913 1372h-350v-1372h-192v1372h-351v172h893v-172zM759 1942l-291 -291l-290 291l59 74l231 -191l232 191z" />
    <glyph glyph-name="Tcedilla" unicode="&#x162;" horiz-adv-x="934" 
d="M913 1372h-350v-1372h-192v1372h-351v172h893v-172zM598 -113l-238 -319l-81 57l200 342z" />
    <glyph glyph-name="Utilde" unicode="&#x168;" horiz-adv-x="1370" 
d="M1227 580q0 -309 -134 -461t-407 -152q-271 0 -407 154t-136 459v964h193v-1003q0 -198 87 -296t263 -98q177 0 262.5 97t85.5 297v1003h193v-964zM1022 1868q-32 -81 -83.5 -122.5t-117.5 -41.5q-33 0 -69 13t-81 41l-11 7q-80 50 -113 50q-39 0 -64.5 -19t-50.5 -71
l-80 49q34 81 83.5 121.5t115.5 40.5q33 0 69 -13t81 -41v0q88 -57 125 -57q39 0 64 18t52 72z" />
    <glyph glyph-name="Umacron" unicode="&#x16a;" horiz-adv-x="1370" 
d="M1227 580q0 -309 -134 -461t-407 -152q-271 0 -407 154t-136 459v964h193v-1003q0 -198 87 -296t263 -98q177 0 262.5 97t85.5 297v1003h193v-964zM962 1755h-552v125h552v-125z" />
    <glyph glyph-name="Ubreve" unicode="&#x16c;" horiz-adv-x="1370" 
d="M1227 580q0 -309 -134 -461t-407 -152q-271 0 -407 154t-136 459v964h193v-1003q0 -198 87 -296t263 -98q177 0 262.5 97t85.5 297v1003h193v-964zM981 1942q-28 -129 -100 -190.5t-193 -61.5q-124 0 -199.5 64.5t-95.5 187.5l88 30q19 -77 72 -117t135 -40
q81 0 132 39.5t71 117.5z" />
    <glyph glyph-name="Uring" unicode="&#x16e;" horiz-adv-x="1370" 
d="M1227 580q0 -309 -134 -461t-407 -152q-271 0 -407 154t-136 459v964h193v-1003q0 -198 87 -296t263 -98q177 0 262.5 97t85.5 297v1003h193v-964zM831 1880q0 61 -43 104.5t-102 43.5q-61 0 -103.5 -43.5t-42.5 -104.5q0 -60 42.5 -102.5t103.5 -42.5q60 0 102.5 42.5
t42.5 102.5zM923 1880q0 -98 -69.5 -167.5t-167.5 -69.5t-167 69.5t-69 167.5q0 99 69 168.5t167 69.5t167.5 -69.5t69.5 -168.5z" />
    <glyph glyph-name="Udblacute" unicode="&#x170;" horiz-adv-x="1370" 
d="M1227 580q0 -309 -134 -461t-407 -152q-271 0 -407 154t-136 459v964h193v-1003q0 -198 87 -296t263 -98q177 0 262.5 97t85.5 297v1003h193v-964zM735 1960l-213 -299l-81 51l176 318zM996 1942l-244 -281l-74 64l211 305z" />
    <glyph glyph-name="Uogonek" unicode="&#x172;" horiz-adv-x="1370" 
d="M1227 580q0 -284 -113.5 -435.5t-343.5 -173.5q-44 -50 -68 -102.5t-24 -97.5q0 -60 36.5 -85.5t121.5 -25.5v-125q-158 0 -224.5 44.5t-66.5 150.5q0 56 31.5 118.5t87.5 118.5q-259 6 -390 160t-131 453v964h193v-1003q0 -198 87 -296t263 -98q177 0 262.5 97t85.5 297
v1003h193v-964z" />
    <glyph glyph-name="Wcircumflex" unicode="&#x174;" horiz-adv-x="2103" 
d="M2114 1544l-627 -1589l-434 1135l-441 -1135l-622 1589h203l423 -1118l435 1163l432 -1163l428 1118h203zM1343 1737l-59 -76l-232 191l-231 -191l-60 76l291 289z" />
    <glyph glyph-name="Wdieresis" unicode="&#x1e84;" horiz-adv-x="2103" 
d="M2114 1544l-627 -1589l-434 1135l-441 -1135l-622 1589h203l423 -1118l435 1163l432 -1163l428 1118h203zM960 1825q0 -44 -29.5 -73t-72.5 -29q-44 0 -74.5 29.5t-30.5 72.5q0 41 31.5 71.5t73.5 30.5q43 0 72.5 -29.5t29.5 -72.5zM1351 1825q0 -44 -29 -73t-73 -29
t-74.5 29.5t-30.5 72.5q0 41 31.5 71.5t73.5 30.5q43 0 72.5 -29.5t29.5 -72.5z" />
    <glyph glyph-name="Yacute" unicode="&#xdd;" horiz-adv-x="1174" 
d="M1167 1544l-481 -839v-705h-192v705l-488 839h217l371 -665l358 665h215zM835 1921l-307 -260l-65 74l282 295z" />
    <glyph glyph-name="Ygrave" unicode="&#x1ef2;" horiz-adv-x="1174" 
d="M1167 1544l-481 -839v-705h-192v705l-488 839h217l371 -665l358 665h215zM713 1735l-66 -74l-307 260l90 109z" />
    <glyph glyph-name="Ycircumflex" unicode="&#x176;" horiz-adv-x="1174" 
d="M1167 1544l-481 -839v-705h-192v705l-488 839h217l371 -665l358 665h215zM878 1737l-59 -76l-232 191l-231 -191l-60 76l291 289z" />
    <glyph glyph-name="Zacute" unicode="&#x179;" horiz-adv-x="1130" 
d="M1102 1544l-797 -1364h754v-180h-1069l801 1364h-711v180h1022zM813 1921l-307 -260l-65 74l282 295z" />
    <glyph glyph-name="Zcaron" horiz-adv-x="1130" 
d="M1102 1544l-797 -1364h754v-180h-1069l801 1364h-711v180h1022zM856 1942l-291 -291l-290 291l59 74l231 -191l232 191z" />
    <glyph glyph-name="Zcaron" unicode="&#x17d;" horiz-adv-x="1130" 
d="M1102 1544l-797 -1364h754v-180h-1069l801 1364h-711v180h1022zM856 1942l-291 -291l-290 291l59 74l231 -191l232 191z" />
    <glyph glyph-name="Zdot" unicode="&#x17b;" horiz-adv-x="1130" 
d="M1102 1544l-797 -1364h754v-180h-1069l801 1364h-711v180h1022zM672 1827q0 -46 -30 -76t-76 -30q-45 0 -76 31t-31 75q0 43 32 75t75 32q44 0 75 -31t31 -76z" />
    <glyph glyph-name="amacron" unicode="&#x101;" horiz-adv-x="1139" 
d="M821 489q0 153 -78 239.5t-213 86.5q-134 0 -214 -89.5t-80 -242.5q0 -154 79 -247t209 -93q132 0 214.5 96t82.5 250zM1006 0h-185v150q-47 -91 -128 -137t-195 -46q-199 0 -323 144t-124 374q0 226 124.5 366t326.5 140q107 0 187 -42.5t132 -127.5v137h185v-958z
M823 1169h-552v125h552v-125z" />
    <glyph glyph-name="abreve" unicode="&#x103;" horiz-adv-x="1139" 
d="M821 489q0 153 -78 239.5t-213 86.5q-134 0 -214 -89.5t-80 -242.5q0 -154 79 -247t209 -93q132 0 214.5 96t82.5 250zM1006 0h-185v150q-47 -91 -128 -137t-195 -46q-199 0 -323 144t-124 374q0 226 124.5 366t326.5 140q107 0 187 -42.5t132 -127.5v137h185v-958z
M842 1356q-28 -129 -100 -190.5t-193 -61.5q-124 0 -199.5 64.5t-95.5 187.5l88 30q19 -77 72 -117t135 -40q81 0 132 39.5t71 117.5z" />
    <glyph glyph-name="aogonek" unicode="&#x105;" horiz-adv-x="1139" 
d="M821 489q0 153 -78 239.5t-213 86.5q-134 0 -214 -89.5t-80 -242.5q0 -154 79 -247t209 -93q132 0 214.5 96t82.5 250zM1006 -465q-158 0 -224.5 44.5t-66.5 150.5q0 65 41 137.5t112 132.5h-47v150q-47 -91 -128 -137t-195 -46q-199 0 -323 144t-124 374
q0 226 124.5 366t326.5 140q107 0 187 -42.5t132 -127.5v137h185v-958h-37q-56 -52 -88.5 -114t-32.5 -115q0 -60 36.5 -85.5t121.5 -25.5v-125z" />
    <glyph glyph-name="cacute" unicode="&#x107;" horiz-adv-x="903" 
d="M852 35q-64 -35 -132.5 -51.5t-152.5 -16.5q-230 0 -373 141.5t-143 368.5q0 230 146 372t385 142q74 0 135.5 -15.5t124.5 -49.5v-197q-56 41 -121.5 63.5t-130.5 22.5q-163 0 -258.5 -92.5t-95.5 -249.5q0 -150 96.5 -240t257.5 -90q74 0 141.5 23t120.5 65v-196z
M794 1335l-307 -260l-65 74l282 295z" />
    <glyph glyph-name="ccircumflex" unicode="&#x109;" horiz-adv-x="903" 
d="M852 35q-64 -35 -132.5 -51.5t-152.5 -16.5q-230 0 -373 141.5t-143 368.5q0 230 146 372t385 142q74 0 135.5 -15.5t124.5 -49.5v-197q-56 41 -121.5 63.5t-130.5 22.5q-163 0 -258.5 -92.5t-95.5 -249.5q0 -150 96.5 -240t257.5 -90q74 0 141.5 23t120.5 65v-196z
M838 1151l-59 -76l-232 191l-231 -191l-60 76l291 289z" />
    <glyph glyph-name="ccaron" unicode="&#x10d;" horiz-adv-x="903" 
d="M852 35q-64 -35 -132.5 -51.5t-152.5 -16.5q-230 0 -373 141.5t-143 368.5q0 230 146 372t385 142q74 0 135.5 -15.5t124.5 -49.5v-197q-56 41 -121.5 63.5t-130.5 22.5q-163 0 -258.5 -92.5t-95.5 -249.5q0 -150 96.5 -240t257.5 -90q74 0 141.5 23t120.5 65v-196z
M837 1356l-291 -291l-290 291l59 74l231 -191l232 191z" />
    <glyph glyph-name="cdot" unicode="&#x10b;" horiz-adv-x="903" 
d="M852 35q-64 -35 -132.5 -51.5t-152.5 -16.5q-230 0 -373 141.5t-143 368.5q0 230 146 372t385 142q74 0 135.5 -15.5t124.5 -49.5v-197q-56 41 -121.5 63.5t-130.5 22.5q-163 0 -258.5 -92.5t-95.5 -249.5q0 -150 96.5 -240t257.5 -90q74 0 141.5 23t120.5 65v-196z
M653 1241q0 -46 -30 -76t-76 -30q-45 0 -76 31t-31 75q0 43 32 75t75 32q44 0 75 -31t31 -76z" />
    <glyph glyph-name="dcaron" unicode="&#x10f;" horiz-adv-x="1706" 
d="M821 489q0 153 -78 239.5t-213 86.5q-134 0 -214 -89.5t-80 -242.5q0 -154 79 -247t209 -93q132 0 214.5 96t82.5 250zM1006 0h-185v150q-47 -91 -128 -137t-195 -46q-199 0 -323 144t-124 374q0 226 124.5 366t326.5 140q107 0 187 -42.5t132 -127.5v869h185v-1690z
M1610 1499l-266 -528l-113 43l193 563z" />
    <glyph glyph-name="dcroat" unicode="&#x111;" horiz-adv-x="1139" 
d="M821 489q0 153 -78 239.5t-213 86.5q-134 0 -214 -89.5t-80 -242.5q0 -154 79 -247t209 -93q132 0 214.5 96t82.5 250zM1139 1243h-133v-1243h-185v150q-47 -91 -128 -137t-195 -46q-199 0 -323 144t-124 374q0 226 124.5 366t326.5 140q107 0 187 -42.5t132 -127.5v422
h-352v129h352v318h185v-318h133v-129z" />
    <glyph glyph-name="eth" unicode="&#xf0;" horiz-adv-x="1106" 
d="M877 483q0 145 -92.5 238.5t-231.5 93.5q-141 0 -232.5 -93t-91.5 -239q0 -148 92.5 -244t231.5 -96q141 0 232.5 96t91.5 244zM1061 537q0 -251 -144 -410.5t-366 -159.5q-214 0 -360 149.5t-146 366.5t145 362.5t361 145.5q82 0 155 -27t121 -75q-33 121 -112.5 242
t-196.5 227l-311 -176l-53 98l272 156q-52 40 -110.5 77t-122.5 70l79 129q94 -44 174 -93.5t146 -105.5l280 162l52 -98l-246 -143q187 -182 285 -411.5t98 -485.5z" />
    <glyph glyph-name="ecaron" unicode="&#x11b;" horiz-adv-x="999" 
d="M776 571q-12 119 -81 181.5t-187 62.5q-113 0 -186.5 -64.5t-88.5 -179.5h543zM958 444h-729q11 -147 83.5 -224t201.5 -77q98 0 162 38t104 118l154 -82q-66 -126 -170 -188t-252 -62q-215 0 -341 141t-126 377q0 219 132.5 362.5t330.5 143.5q202 0 326 -131.5
t124 -347.5v-68zM790 1356l-291 -291l-290 291l59 74l231 -191l232 191z" />
    <glyph glyph-name="emacron" unicode="&#x113;" horiz-adv-x="999" 
d="M776 571q-12 119 -81 181.5t-187 62.5q-113 0 -186.5 -64.5t-88.5 -179.5h543zM958 444h-729q11 -147 83.5 -224t201.5 -77q98 0 162 38t104 118l154 -82q-66 -126 -170 -188t-252 -62q-215 0 -341 141t-126 377q0 219 132.5 362.5t330.5 143.5q202 0 326 -131.5
t124 -347.5v-68zM777 1169h-552v125h552v-125z" />
    <glyph glyph-name="ebreve" unicode="&#x115;" horiz-adv-x="999" 
d="M776 571q-12 119 -81 181.5t-187 62.5q-113 0 -186.5 -64.5t-88.5 -179.5h543zM958 444h-729q11 -147 83.5 -224t201.5 -77q98 0 162 38t104 118l154 -82q-66 -126 -170 -188t-252 -62q-215 0 -341 141t-126 377q0 219 132.5 362.5t330.5 143.5q202 0 326 -131.5
t124 -347.5v-68zM796 1356q-28 -129 -100 -190.5t-193 -61.5q-124 0 -199.5 64.5t-95.5 187.5l88 30q19 -77 72 -117t135 -40q81 0 132 39.5t71 117.5z" />
    <glyph glyph-name="edot" unicode="&#x117;" horiz-adv-x="999" 
d="M776 571q-12 119 -81 181.5t-187 62.5q-113 0 -186.5 -64.5t-88.5 -179.5h543zM958 444h-729q11 -147 83.5 -224t201.5 -77q98 0 162 38t104 118l154 -82q-66 -126 -170 -188t-252 -62q-215 0 -341 141t-126 377q0 219 132.5 362.5t330.5 143.5q202 0 326 -131.5
t124 -347.5v-68zM606 1241q0 -46 -30 -76t-76 -30q-45 0 -76 31t-31 75q0 43 32 75t75 32q44 0 75 -31t31 -76z" />
    <glyph glyph-name="eogonek" unicode="&#x119;" horiz-adv-x="999" 
d="M776 571q-12 119 -81 181.5t-187 62.5q-113 0 -186.5 -64.5t-88.5 -179.5h543zM958 444h-729q11 -147 83.5 -224t201.5 -77q98 0 162 38t104 118l154 -82q-54 -104 -134 -164t-190 -78q-45 -50 -70.5 -104t-25.5 -100q0 -60 36.5 -85.5t121.5 -25.5v-125
q-158 0 -224.5 44.5t-66.5 150.5q0 56 31.5 118.5t86.5 118.5q-209 5 -331.5 145.5t-122.5 372.5q0 219 132.5 362.5t330.5 143.5q202 0 326 -131.5t124 -347.5v-68z" />
    <glyph glyph-name="gcedilla" unicode="&#x123;" horiz-adv-x="1137" 
d="M819 489q0 153 -77 239.5t-212 86.5q-134 0 -214 -89.5t-80 -242.5q0 -154 79 -247t209 -93q131 0 213 95.5t82 250.5zM1004 -51q0 -263 -111 -382.5t-352 -119.5q-198 0 -316 87t-137 243h188q14 -76 81.5 -115t185.5 -39q154 0 215 71t61 240v216
q-47 -92 -127.5 -137.5t-193.5 -45.5q-199 0 -323 144t-124 374q0 226 124.5 366t326.5 140q107 0 186 -42t131 -128v137h185v-1009zM817 1335l-307 -260l-65 74l282 295z" />
    <glyph glyph-name="gcircumflex" unicode="&#x11d;" horiz-adv-x="1137" 
d="M819 489q0 153 -77 239.5t-212 86.5q-134 0 -214 -89.5t-80 -242.5q0 -154 79 -247t209 -93q131 0 213 95.5t82 250.5zM1004 -51q0 -263 -111 -382.5t-352 -119.5q-198 0 -316 87t-137 243h188q14 -76 81.5 -115t185.5 -39q154 0 215 71t61 240v216
q-47 -92 -127.5 -137.5t-193.5 -45.5q-199 0 -323 144t-124 374q0 226 124.5 366t326.5 140q107 0 186 -42t131 -128v137h185v-1009zM860 1151l-59 -76l-232 191l-231 -191l-60 76l291 289z" />
    <glyph glyph-name="gbreve" unicode="&#x11f;" horiz-adv-x="1137" 
d="M819 489q0 153 -77 239.5t-212 86.5q-134 0 -214 -89.5t-80 -242.5q0 -154 79 -247t209 -93q131 0 213 95.5t82 250.5zM1004 -51q0 -263 -111 -382.5t-352 -119.5q-198 0 -316 87t-137 243h188q14 -76 81.5 -115t185.5 -39q154 0 215 71t61 240v216
q-47 -92 -127.5 -137.5t-193.5 -45.5q-199 0 -323 144t-124 374q0 226 124.5 366t326.5 140q107 0 186 -42t131 -128v137h185v-1009zM865 1356q-28 -129 -100 -190.5t-193 -61.5q-124 0 -199.5 64.5t-95.5 187.5l88 30q19 -77 72 -117t135 -40q81 0 132 39.5t71 117.5z" />
    <glyph glyph-name="gdot" unicode="&#x121;" horiz-adv-x="1137" 
d="M819 489q0 153 -77 239.5t-212 86.5q-134 0 -214 -89.5t-80 -242.5q0 -154 79 -247t209 -93q131 0 213 95.5t82 250.5zM1004 -51q0 -263 -111 -382.5t-352 -119.5q-198 0 -316 87t-137 243h188q14 -76 81.5 -115t185.5 -39q154 0 215 71t61 240v216
q-47 -92 -127.5 -137.5t-193.5 -45.5q-199 0 -323 144t-124 374q0 226 124.5 366t326.5 140q107 0 186 -42t131 -128v137h185v-1009zM676 1241q0 -46 -30 -76t-76 -30q-45 0 -76 31t-31 75q0 43 32 75t75 32q44 0 75 -31t31 -76z" />
    <glyph glyph-name="hcircumflex" unicode="&#x125;" horiz-adv-x="1071" 
d="M944 0h-184v567q0 134 -48 197t-151 63q-117 0 -180.5 -94t-63.5 -272v-461h-184v1690h184v-867q43 83 120.5 125.5t187.5 42.5q149 0 234 -99t85 -278v-614zM531 1849l-59 -76l-232 191l-231 -191l-60 76l291 289z" />
    <glyph glyph-name="iogonek" unicode="&#x12f;" horiz-adv-x="520" 
d="M389 -465q-158 0 -224.5 44.5t-66.5 150.5q0 65 41.5 137.5t112.5 132.5h-84v958h184v-958q-55 -52 -88 -114t-33 -115q0 -60 37 -85.5t121 -25.5v-125zM381 1346q0 -51 -35 -86t-86 -35t-86 35t-35 86q0 50 35 85t86 35t86 -35t35 -85z" />
    <glyph glyph-name="kcedilla" unicode="&#x137;" horiz-adv-x="946" 
d="M944 0h-221l-395 506v-506h-185v1690h185v-1158l366 426h217l-391 -430zM604 -113l-238 -319l-81 57l200 342z" />
    <glyph glyph-name="ldot" unicode="&#x140;" horiz-adv-x="1047" 
d="M315 0h-184v1690h184v-1690zM879 788q0 -52 -37 -89t-90 -37t-90 37t-37 89q0 54 37 90.5t90 36.5t90 -36.5t37 -90.5z" />
    <glyph glyph-name="lcaron" unicode="&#x13e;" horiz-adv-x="758" 
d="M315 0h-184v1690h184v-1690zM799 1499l-267 -528l-112 43l192 563z" />
    <glyph glyph-name="lacute" unicode="&#x13a;" horiz-adv-x="455" 
d="M315 0h-184v1690h184v-1690zM476 2033l-307 -260l-65 74l282 295z" />
    <glyph glyph-name="lcedilla" unicode="&#x13c;" horiz-adv-x="455" 
d="M315 0h-184v1690h184v-1690zM359 -113l-238 -319l-81 57l200 342z" />
    <glyph glyph-name="lslash" unicode="&#x142;" horiz-adv-x="522" 
d="M553 860l-199 -135v-725h-184v621l-127 -84l-74 110l201 135v908h184v-803l125 84z" />
    <glyph glyph-name="nacute" unicode="&#x144;" horiz-adv-x="1071" 
d="M944 0h-184v567q0 134 -48 197t-151 63q-117 0 -180.5 -94t-63.5 -272v-461h-184v958h184v-135q43 83 120.5 125.5t187.5 42.5q149 0 234 -99t85 -278v-614zM784 1335l-307 -260l-65 74l282 295z" />
    <glyph glyph-name="ncaron" unicode="&#x148;" horiz-adv-x="1071" 
d="M944 0h-184v567q0 134 -48 197t-151 63q-117 0 -180.5 -94t-63.5 -272v-461h-184v958h184v-135q43 83 120.5 125.5t187.5 42.5q149 0 234 -99t85 -278v-614zM827 1356l-291 -291l-290 291l59 74l231 -191l232 191z" />
    <glyph glyph-name="ncedilla" unicode="&#x146;" horiz-adv-x="1071" 
d="M944 0h-184v567q0 134 -48 197t-151 63q-117 0 -180.5 -94t-63.5 -272v-461h-184v958h184v-135q43 83 120.5 125.5t187.5 42.5q149 0 234 -99t85 -278v-614zM668 -113l-238 -319l-81 57l200 342z" />
    <glyph glyph-name="omacron" unicode="&#x14d;" horiz-adv-x="1106" 
d="M877 483q0 145 -92.5 238.5t-231.5 93.5q-141 0 -232.5 -93t-91.5 -239q0 -148 92.5 -244t231.5 -96q141 0 232.5 96t91.5 244zM1061 483q0 -216 -147.5 -366t-362.5 -150q-214 0 -360 149.5t-146 366.5t145 362.5t361 145.5q217 0 363.5 -146.5t146.5 -361.5zM829 1169
h-552v125h552v-125z" />
    <glyph glyph-name="obreve" unicode="&#x14f;" horiz-adv-x="1106" 
d="M877 483q0 145 -92.5 238.5t-231.5 93.5q-141 0 -232.5 -93t-91.5 -239q0 -148 92.5 -244t231.5 -96q141 0 232.5 96t91.5 244zM1061 483q0 -216 -147.5 -366t-362.5 -150q-214 0 -360 149.5t-146 366.5t145 362.5t361 145.5q217 0 363.5 -146.5t146.5 -361.5zM848 1356
q-28 -129 -100 -190.5t-193 -61.5q-124 0 -199.5 64.5t-95.5 187.5l88 30q19 -77 72 -117t135 -40q81 0 132 39.5t71 117.5z" />
    <glyph glyph-name="odblacute" unicode="&#x151;" horiz-adv-x="1106" 
d="M877 483q0 145 -92.5 238.5t-231.5 93.5q-141 0 -232.5 -93t-91.5 -239q0 -148 92.5 -244t231.5 -96q141 0 232.5 96t91.5 244zM1061 483q0 -216 -147.5 -366t-362.5 -150q-214 0 -360 149.5t-146 366.5t145 362.5t361 145.5q217 0 363.5 -146.5t146.5 -361.5zM602 1374
l-213 -299l-81 51l176 318zM863 1356l-244 -281l-74 64l211 305z" />
    <glyph glyph-name="thorn" unicode="&#xfe;" horiz-adv-x="1139" 
d="M903 483q0 153 -80 242.5t-215 89.5t-213 -86.5t-78 -239.5q0 -154 83 -250t214 -96q130 0 209.5 93t79.5 247zM1087 485q0 -230 -123.5 -374t-322.5 -144q-114 0 -195.5 46t-128.5 137v-682h-184v2222h184v-869q53 85 132.5 127.5t187.5 42.5q202 0 326 -140t124 -366z
" />
    <glyph glyph-name="racute" unicode="&#x155;" horiz-adv-x="719" 
d="M702 973l-38 -185q-20 13 -42.5 19t-46.5 6q-122 0 -184.5 -100.5t-62.5 -298.5v-414h-185v958h185v-172q33 106 102.5 155.5t183.5 49.5q26 0 49.5 -5t38.5 -13zM609 1335l-307 -260l-65 74l282 295z" />
    <glyph glyph-name="rcaron" unicode="&#x159;" horiz-adv-x="719" 
d="M702 973l-38 -185q-20 13 -42.5 19t-46.5 6q-122 0 -184.5 -100.5t-62.5 -298.5v-414h-185v958h185v-172q33 106 102.5 155.5t183.5 49.5q26 0 49.5 -5t38.5 -13zM652 1356l-291 -291l-290 291l59 74l231 -191l232 191z" />
    <glyph glyph-name="rcedilla" unicode="&#x157;" horiz-adv-x="719" 
d="M702 973l-38 -185q-20 13 -42.5 19t-46.5 6q-122 0 -184.5 -100.5t-62.5 -298.5v-414h-185v958h185v-172q33 106 102.5 155.5t183.5 49.5q26 0 49.5 -5t38.5 -13zM378 -113l-238 -319l-81 57l200 342z" />
    <glyph glyph-name="sacute" unicode="&#x15b;" horiz-adv-x="786" 
d="M735 260q0 -135 -97.5 -214t-266.5 -79q-129 0 -217.5 51.5t-128.5 149.5l155 98q26 -67 75.5 -101t123.5 -34q80 0 126 31.5t46 87.5q0 62 -45 96t-170 80q-133 48 -197.5 119.5t-64.5 171.5q0 128 86 201t239 73q111 0 185.5 -45.5t117.5 -140.5l-149 -92
q-26 60 -64.5 87t-95.5 27q-67 0 -103 -27t-36 -77q0 -54 39.5 -88.5t148.5 -71.5q155 -50 224 -121.5t69 -181.5zM641 1335l-307 -260l-65 74l282 295z" />
    <glyph glyph-name="scircumflex" unicode="&#x15d;" horiz-adv-x="786" 
d="M735 260q0 -135 -97.5 -214t-266.5 -79q-129 0 -217.5 51.5t-128.5 149.5l155 98q26 -67 75.5 -101t123.5 -34q80 0 126 31.5t46 87.5q0 62 -45 96t-170 80q-133 48 -197.5 119.5t-64.5 171.5q0 128 86 201t239 73q111 0 185.5 -45.5t117.5 -140.5l-149 -92
q-26 60 -64.5 87t-95.5 27q-67 0 -103 -27t-36 -77q0 -54 39.5 -88.5t148.5 -71.5q155 -50 224 -121.5t69 -181.5zM685 1151l-59 -76l-232 191l-231 -191l-60 76l291 289z" />
    <glyph glyph-name="scaron" unicode="&#x161;" horiz-adv-x="786" 
d="M735 260q0 -135 -97.5 -214t-266.5 -79q-129 0 -217.5 51.5t-128.5 149.5l155 98q26 -67 75.5 -101t123.5 -34q80 0 126 31.5t46 87.5q0 62 -45 96t-170 80q-133 48 -197.5 119.5t-64.5 171.5q0 128 86 201t239 73q111 0 185.5 -45.5t117.5 -140.5l-149 -92
q-26 60 -64.5 87t-95.5 27q-67 0 -103 -27t-36 -77q0 -54 39.5 -88.5t148.5 -71.5q155 -50 224 -121.5t69 -181.5zM685 1356l-291 -291l-290 291l59 74l231 -191l232 191z" />
    <glyph glyph-name="scedilla" unicode="&#x15f;" horiz-adv-x="786" 
d="M735 260q0 -135 -97.5 -214t-266.5 -79q-129 0 -217.5 51.5t-128.5 149.5l155 98q26 -67 75.5 -101t123.5 -34q80 0 126 31.5t46 87.5q0 62 -45 96t-170 80q-133 48 -197.5 119.5t-64.5 171.5q0 128 86 201t239 73q111 0 185.5 -45.5t117.5 -140.5l-149 -92
q-26 60 -64.5 87t-95.5 27q-67 0 -103 -27t-36 -77q0 -54 39.5 -88.5t148.5 -71.5q155 -50 224 -121.5t69 -181.5zM524 -113l-238 -319l-81 57l200 342z" />
    <glyph glyph-name="tcaron" unicode="&#x165;" horiz-adv-x="741" 
d="M492 795h-164v-795h-185v795h-102v163h102v383h185v-383h164v-163zM782 1499l-239 -463l-113 43l166 498z" />
    <glyph glyph-name="tcedilla" unicode="&#x163;" horiz-adv-x="492" 
d="M492 795h-164v-795h-185v795h-102v163h102v383h185v-383h164v-163zM378 -113l-238 -319l-81 57l200 342z" />
    <glyph glyph-name="utilde" unicode="&#x169;" horiz-adv-x="1049" 
d="M920 418q0 -230 -97 -340.5t-299 -110.5q-205 0 -300 108.5t-95 342.5v540h184v-540q0 -145 48 -210t163 -65q114 0 162.5 65t48.5 210v540h185v-540zM860 1282q-32 -81 -83.5 -122.5t-117.5 -41.5q-33 0 -69 13t-81 41l-11 7q-80 50 -113 50q-39 0 -64.5 -19t-50.5 -71
l-80 49q34 81 83.5 121.5t115.5 40.5q33 0 69 -13t81 -41v0q88 -57 125 -57q39 0 64 18t52 72z" />
    <glyph glyph-name="umacron" unicode="&#x16b;" horiz-adv-x="1049" 
d="M920 418q0 -230 -97 -340.5t-299 -110.5q-205 0 -300 108.5t-95 342.5v540h184v-540q0 -145 48 -210t163 -65q114 0 162.5 65t48.5 210v540h185v-540zM800 1169h-552v125h552v-125z" />
    <glyph glyph-name="ubreve" unicode="&#x16d;" horiz-adv-x="1049" 
d="M920 418q0 -230 -97 -340.5t-299 -110.5q-205 0 -300 108.5t-95 342.5v540h184v-540q0 -145 48 -210t163 -65q114 0 162.5 65t48.5 210v540h185v-540zM820 1356q-28 -129 -100 -190.5t-193 -61.5q-124 0 -199.5 64.5t-95.5 187.5l88 30q19 -77 72 -117t135 -40
q81 0 132 39.5t71 117.5z" />
    <glyph glyph-name="uring" unicode="&#x16f;" horiz-adv-x="1049" 
d="M920 418q0 -230 -97 -340.5t-299 -110.5q-205 0 -300 108.5t-95 342.5v540h184v-540q0 -145 48 -210t163 -65q114 0 162.5 65t48.5 210v540h185v-540zM670 1294q0 61 -43 104.5t-102 43.5q-61 0 -103.5 -43.5t-42.5 -104.5q0 -60 42.5 -102.5t103.5 -42.5
q60 0 102.5 42.5t42.5 102.5zM762 1294q0 -98 -69.5 -167.5t-167.5 -69.5t-167 69.5t-69 167.5q0 99 69 168.5t167 69.5t167.5 -69.5t69.5 -168.5z" />
    <glyph glyph-name="udblacute" unicode="&#x171;" horiz-adv-x="1049" 
d="M920 418q0 -230 -97 -340.5t-299 -110.5q-205 0 -300 108.5t-95 342.5v540h184v-540q0 -145 48 -210t163 -65q114 0 162.5 65t48.5 210v540h185v-540zM573 1374l-213 -299l-81 51l176 318zM834 1356l-244 -281l-74 64l211 305z" />
    <glyph glyph-name="uogonek" unicode="&#x173;" horiz-adv-x="1049" 
d="M920 418q0 -205 -76.5 -314.5t-235.5 -130.5q-44 -49 -69 -102.5t-25 -99.5q0 -60 36.5 -85.5t121.5 -25.5v-125q-158 0 -224.5 44.5t-66.5 150.5q0 56 31.5 118.5t87.5 118.5q-192 6 -281.5 115t-89.5 336v540h184v-540q0 -145 48 -210t163 -65q114 0 162.5 65t48.5 210
v540h185v-540z" />
    <glyph glyph-name="wcircumflex" unicode="&#x175;" horiz-adv-x="1470" 
d="M1481 958l-465 -1003l-279 647l-280 -647l-467 1003h209l258 -608l276 656l283 -656l254 608h211zM1026 1151l-59 -76l-232 191l-231 -191l-60 76l291 289z" />
    <glyph glyph-name="wdieresis" unicode="&#x1e85;" horiz-adv-x="1470" 
d="M1481 958l-465 -1003l-279 647l-280 -647l-467 1003h209l258 -608l276 656l283 -656l254 608h211zM643 1239q0 -44 -29.5 -73t-72.5 -29q-44 0 -74.5 29.5t-30.5 72.5q0 41 31.5 71.5t73.5 30.5q43 0 72.5 -29.5t29.5 -72.5zM1034 1239q0 -44 -29 -73t-73 -29t-74.5 29.5
t-30.5 72.5q0 41 31.5 71.5t73.5 30.5q43 0 72.5 -29.5t29.5 -72.5z" />
    <glyph glyph-name="yacute" unicode="&#xfd;" horiz-adv-x="991" 
d="M983 958l-612 -1490h-203l244 573l-404 917h201l297 -706l274 706h203zM743 1335l-307 -260l-65 74l282 295z" />
    <glyph glyph-name="ygrave" unicode="&#x1ef3;" horiz-adv-x="991" 
d="M983 958l-612 -1490h-203l244 573l-404 917h201l297 -706l274 706h203zM621 1149l-66 -74l-307 260l90 109z" />
    <glyph glyph-name="ycircumflex" unicode="&#x177;" horiz-adv-x="991" 
d="M983 958l-612 -1490h-203l244 573l-404 917h201l297 -706l274 706h203zM786 1151l-59 -76l-232 191l-231 -191l-60 76l291 289z" />
    <glyph glyph-name="zacute" unicode="&#x17a;" horiz-adv-x="1014" 
d="M926 0h-893l559 795h-508v163h838l-557 -794h561v-164zM755 1335l-307 -260l-65 74l282 295z" />
    <glyph glyph-name="zcaron" horiz-adv-x="1014" 
d="M926 0h-893l559 795h-508v163h838l-557 -794h561v-164zM799 1356l-291 -291l-290 291l59 74l231 -191l232 191z" />
    <glyph glyph-name="zcaron" unicode="&#x17e;" horiz-adv-x="1014" 
d="M926 0h-893l559 795h-508v163h838l-557 -794h561v-164zM799 1356l-291 -291l-290 291l59 74l231 -191l232 191z" />
    <glyph glyph-name="zdot" unicode="&#x17c;" horiz-adv-x="1014" 
d="M926 0h-893l559 795h-508v163h838l-557 -794h561v-164zM614 1241q0 -46 -30 -76t-76 -30q-45 0 -76 31t-31 75q0 43 32 75t75 32q44 0 75 -31t31 -76z" />
    <glyph glyph-name="itilde" unicode="&#x129;" horiz-adv-x="520" 
d="M352 0h-184v958h184v-958zM597 1282q-32 -81 -83.5 -122.5t-117.5 -41.5q-33 0 -69 13t-81 41l-11 7q-80 50 -113 50q-39 0 -64.5 -19t-50.5 -71l-80 49q34 81 83.5 121.5t115.5 40.5q33 0 69 -13t81 -41v0q88 -57 125 -57q39 0 64 18t52 72z" />
    <glyph glyph-name="imacron" unicode="&#x12b;" horiz-adv-x="520" 
d="M352 0h-184v958h184v-958zM537 1169h-552v125h552v-125z" />
    <glyph glyph-name="ibreve" unicode="&#x12d;" horiz-adv-x="520" 
d="M352 0h-184v958h184v-958zM556 1356q-28 -129 -100 -190.5t-193 -61.5q-124 0 -199.5 64.5t-95.5 187.5l88 30q19 -77 72 -117t135 -40q81 0 132 39.5t71 117.5z" />
    <glyph glyph-name="c640" horiz-adv-x="520" 
d="M352 0h-184v958h184v-958zM367 1241q0 -46 -30 -76t-76 -30q-45 0 -76 31t-31 75q0 43 32 75t75 32q44 0 75 -31t31 -76z" />
    <glyph glyph-name="Alpha" unicode="&#x391;" horiz-adv-x="1440" 
d="M969 610l-248 561l-248 -561h496zM1450 0h-213l-197 446h-641l-196 -446h-213l731 1589z" />
    <glyph glyph-name="Beta" unicode="&#x392;" horiz-adv-x="1096" 
d="M821 442q0 138 -93.5 210.5t-272.5 72.5h-119v-549h137q185 0 266.5 64.5t81.5 201.5zM711 1128q0 125 -64.5 182.5t-200.5 57.5h-110v-479h88q142 0 214.5 60.5t72.5 178.5zM1014 440q0 -221 -136.5 -330.5t-412.5 -109.5h-322v1544h310q207 0 328.5 -108.5
t121.5 -290.5q0 -121 -61.5 -212.5t-157.5 -113.5q154 -18 242 -120.5t88 -258.5z" />
    <glyph glyph-name="Gamma" unicode="&#x393;" horiz-adv-x="788" 
d="M766 1368h-420v-1368h-192v1544h612v-176z" />
    <glyph glyph-name="Delta" unicode="&#x394;" horiz-adv-x="1440" 
d="M1165 164l-444 1007l-447 -1007h891zM1450 0h-1460l731 1589z" />
    <glyph glyph-name="Epsilon" unicode="&#x395;" horiz-adv-x="1067" 
d="M954 0h-811v1544h811v-180h-618v-451h618v-180h-618v-553h618v-180z" />
    <glyph glyph-name="Zeta" unicode="&#x396;" horiz-adv-x="1130" 
d="M1102 1544l-797 -1364h754v-180h-1069l801 1364h-711v180h1022z" />
    <glyph glyph-name="Eta" unicode="&#x397;" horiz-adv-x="1382" 
d="M1239 0h-192v733h-711v-733h-193v1544h193v-631h711v631h192v-1544z" />
    <glyph glyph-name="Theta" unicode="&#x398;" horiz-adv-x="1696" 
d="M1288 713h-880v180h880v-180zM1442 772q0 262 -172 443.5t-422 181.5q-271 0 -432.5 -184.5t-161.5 -440.5q0 -261 171.5 -443t422.5 -182q250 0 422 182t172 443zM1634 772q0 -338 -228.5 -571.5t-557.5 -233.5q-327 0 -557 234.5t-230 570.5q0 341 227.5 573t559.5 232
t559 -232t227 -573z" />
    <glyph glyph-name="Iota" unicode="&#x399;" horiz-adv-x="475" 
d="M334 0h-193v1544h193v-1544z" />
    <glyph glyph-name="Kappa" unicode="&#x39a;" horiz-adv-x="1229" 
d="M1237 0h-240l-651 801v-801h-192v1544h192v-719l637 719h227l-655 -723z" />
    <glyph glyph-name="Lambda" unicode="&#x39b;" horiz-adv-x="1311" 
d="M1321 0h-207l-457 1130l-460 -1130h-207l667 1589z" />
    <glyph glyph-name="Mu" unicode="&#x39c;" horiz-adv-x="1743" 
d="M1702 0h-193l-147 1001l-492 -1046l-487 1046l-147 -1001h-195l260 1589l573 -1227l574 1227z" />
    <glyph glyph-name="Nu" unicode="&#x39d;" horiz-adv-x="1608" 
d="M1464 -45l-1128 1171v-1126h-193v1589l1129 -1169v1124h192v-1589z" />
    <glyph glyph-name="Xi" unicode="&#x39e;" horiz-adv-x="1249" 
d="M1137 0h-1024v180h1024v-180zM1137 733h-1024v180h1024v-180zM1137 1364h-1024v180h1024v-180z" />
    <glyph glyph-name="Omicron" unicode="&#x39f;" horiz-adv-x="1696" 
d="M1442 772q0 262 -172 443.5t-422 181.5q-271 0 -432.5 -184.5t-161.5 -440.5q0 -261 171.5 -443t422.5 -182q250 0 422 182t172 443zM1634 772q0 -338 -228.5 -571.5t-557.5 -233.5q-327 0 -557 234.5t-230 570.5q0 341 227.5 573t559.5 232t559 -232t227 -573z" />
    <glyph glyph-name="Pi" unicode="&#x3a0;" horiz-adv-x="1382" 
d="M1239 0h-192v1364h-711v-1364h-193v1544h1096v-1544z" />
    <glyph glyph-name="Rho" unicode="&#x3a1;" horiz-adv-x="1014" 
d="M760 1106q0 135 -82 196.5t-268 61.5h-74v-514h74q193 0 271.5 59t78.5 197zM952 1106q0 -212 -141 -324t-405 -112h-70v-670h-193v1544h263q273 0 409.5 -109.5t136.5 -328.5z" />
    <glyph glyph-name="Sigma" unicode="&#x3a3;" horiz-adv-x="1130" 
d="M1059 0h-1069l497 809l-430 735h1002v-180h-690l325 -555l-389 -629h754v-180z" />
    <glyph glyph-name="Tau" unicode="&#x3a4;" horiz-adv-x="934" 
d="M913 1372h-350v-1372h-192v1372h-351v172h893v-172z" />
    <glyph glyph-name="Upsilon" unicode="&#x3a5;" horiz-adv-x="1174" 
d="M1167 1544l-481 -839v-705h-192v705l-488 839h217l371 -665l358 665h215z" />
    <glyph glyph-name="Phi" unicode="&#x3a6;" horiz-adv-x="1503" 
d="M662 373v825q-181 0 -284.5 -109.5t-103.5 -302.5t104 -303t284 -110zM854 1198v-825q178 0 282.5 110.5t104.5 302.5q0 193 -103.5 302.5t-283.5 109.5zM1434 786q0 -264 -154.5 -422t-425.5 -171v-193h-192v193q-272 13 -426 171t-154 422q0 262 155 420.5t425 171.5
v166h192v-166q270 -13 425 -171.5t155 -420.5z" />
    <glyph glyph-name="Chi" unicode="&#x3a7;" horiz-adv-x="1176" 
d="M1169 0h-221l-362 641l-359 -641h-221l473 815l-446 729h221l338 -577l334 577h219l-447 -737z" />
    <glyph glyph-name="Psi" unicode="&#x3a8;" horiz-adv-x="1534" 
d="M1391 907q0 -304 -130.5 -455.5t-395.5 -156.5l-1 -295h-192l-1 295q-262 4 -395 157.5t-133 454.5v637h193v-676q0 -193 84 -291.5t251 -101.5l1 1069h192l1 -1069q168 3 250.5 100t82.5 293v676h193v-637z" />
    <glyph glyph-name="Omega" unicode="&#x3a9;" horiz-adv-x="1696" 
d="M1665 0h-627v180q180 64 290 226.5t110 365.5q0 262 -170.5 443.5t-419.5 181.5q-270 0 -430 -183.5t-160 -441.5q0 -203 110 -365.5t289 -226.5v-180h-626v180h323q-141 102 -217 255t-76 337q0 341 227.5 573t559.5 232t559 -232t227 -573q0 -184 -75.5 -337
t-217.5 -255h324v-180z" />
    <glyph glyph-name="alpha" unicode="&#x3b1;" horiz-adv-x="1139" 
d="M821 489q0 153 -78 239.5t-213 86.5q-134 0 -214 -89.5t-80 -242.5q0 -154 79 -247t209 -93q132 0 214.5 96t82.5 250zM1006 0h-185v150q-47 -91 -128 -137t-195 -46q-199 0 -323 144t-124 374q0 226 124.5 366t326.5 140q107 0 187 -42.5t132 -127.5v137h185v-958z" />
    <glyph glyph-name="beta" unicode="&#x3b2;" horiz-adv-x="1167" 
d="M932 494q0 165 -104 278t-257 113h-55v164h19q126 0 195 66t69 188q0 115 -63.5 182t-172.5 67q-127 0 -190.5 -77t-63.5 -234v-754q0 -162 86 -259t226 -97q136 0 223.5 100.5t87.5 262.5zM1116 494q0 -237 -130.5 -382t-344.5 -145q-112 0 -195.5 46t-136.5 137v-682
h-176v1767q0 232 113 356.5t321 124.5q191 0 303.5 -112.5t112.5 -296.5q0 -120 -63 -209.5t-170 -120.5q151 -21 258.5 -161t107.5 -322z" />
    <glyph glyph-name="gamma" unicode="&#x3b3;" horiz-adv-x="911" 
d="M922 958l-373 -804v-686h-184v686l-375 804h209l258 -608l254 608h211z" />
    <glyph glyph-name="delta" unicode="&#x3b4;" horiz-adv-x="1106" 
d="M877 483q0 145 -92.5 238.5t-231.5 93.5q-141 0 -232.5 -93t-91.5 -239q0 -148 92.5 -244t231.5 -96q141 0 232.5 96t91.5 244zM1061 483q0 -216 -147.5 -366t-362.5 -150q-214 0 -360 149.5t-146 366.5q0 188 108.5 323t285.5 169q9 2 22 4t34 4q-120 85 -181.5 187.5
t-61.5 215.5q0 148 102.5 226t300.5 78h56v-177h-56q-124 0 -171.5 -31t-47.5 -108q0 -155 285 -365q72 -54 102 -79q129 -109 183.5 -213t54.5 -234z" />
    <glyph glyph-name="epsilon" unicode="&#x3b5;" horiz-adv-x="778" 
d="M717 39q-78 -41 -137.5 -56.5t-137.5 -15.5q-166 0 -263 76.5t-97 204.5q0 99 43 165.5t125 92.5q-86 22 -127 75.5t-41 147.5q0 125 94 193.5t266 68.5q78 0 146.5 -17t128.5 -50v-179q-57 41 -122.5 61.5t-133.5 20.5q-92 0 -143.5 -33.5t-51.5 -95.5q0 -71 53 -106
t175 -41v-88q-106 -4 -167 -54.5t-61 -129.5q0 -69 53.5 -108.5t143.5 -39.5q69 0 132 21t122 63v-176z" />
    <glyph glyph-name="zeta" unicode="&#x3b6;" horiz-adv-x="844" 
d="M854 1690q-360 -531 -484 -795.5t-124 -488.5q0 -121 62 -175.5t198 -54.5q147 0 236 -85.5t89 -219.5q0 -91 -50.5 -175.5t-137.5 -137.5l-100 118q49 30 76.5 76.5t27.5 100.5q0 74 -45 110.5t-135 36.5q-203 0 -304.5 98t-101.5 293q0 220 123 494t387 641h-376v164
h659z" />
    <glyph glyph-name="eta" unicode="&#x3b7;" horiz-adv-x="1071" 
d="M944 -532h-184v1099q0 134 -48 197t-151 63q-117 0 -180.5 -94t-63.5 -272v-461h-184v958h184v-135q43 83 120.5 125.5t187.5 42.5q149 0 234 -99t85 -278v-1146z" />
    <glyph glyph-name="theta" unicode="&#x3b8;" 
d="M950 795h-714q7 -296 105.5 -480t250.5 -184q157 0 253.5 180.5t104.5 483.5zM946 958q-17 276 -113.5 435t-242.5 159q-142 0 -236.5 -161t-113.5 -433h706zM1133 842q0 -379 -153 -627t-390 -248q-233 0 -386 249t-153 626t153 625.5t388 248.5q236 0 388.5 -247
t152.5 -627z" />
    <glyph glyph-name="iota" unicode="&#x3b9;" horiz-adv-x="520" 
d="M352 0h-184v958h184v-958z" />
    <glyph glyph-name="kappa" unicode="&#x3ba;" horiz-adv-x="946" 
d="M944 0h-221l-395 506v-506h-185v958h185v-426l366 426h217l-391 -430z" />
    <glyph glyph-name="lambda" unicode="&#x3bb;" horiz-adv-x="991" 
d="M983 0h-203l-274 707l-297 -707h-201l404 918l-328 772h203z" />
    <glyph glyph-name="mu" unicode="&#x3bc;" horiz-adv-x="1077" 
d="M944 0h-184v104q-26 -65 -84.5 -101t-136.5 -36q-79 0 -137.5 36t-84.5 101v-636h-184v1490h184v-471q0 -185 55 -275.5t167 -90.5q111 0 166 90.5t55 275.5v471h184v-958z" />
    <glyph glyph-name="nu" unicode="&#x3bd;" horiz-adv-x="911" 
d="M922 958l-465 -1003l-467 1003h209l258 -608l254 608h211z" />
    <glyph glyph-name="xi" unicode="&#x3be;" horiz-adv-x="938" 
d="M901 -145q0 -84 -49.5 -166.5t-126.5 -130.5l-100 118q43 33 67.5 75.5t24.5 86.5q0 79 -46.5 120.5t-135.5 41.5q-214 0 -331.5 118.5t-117.5 338.5q0 167 97 286.5t249 147.5q-91 35 -148 114t-57 175q0 104 59 200t160 158h-286v152h663q-192 -117 -301.5 -251
t-109.5 -251q0 -101 76.5 -165.5t199.5 -64.5h55v-151h-104q-158 0 -263.5 -97t-105.5 -249q0 -145 72 -215t225 -70q154 0 244 -85.5t90 -235.5z" />
    <glyph glyph-name="omicron" unicode="&#x3bf;" horiz-adv-x="1106" 
d="M877 483q0 145 -92.5 238.5t-231.5 93.5q-141 0 -232.5 -93t-91.5 -239q0 -148 92.5 -244t231.5 -96q141 0 232.5 96t91.5 244zM1061 483q0 -216 -147.5 -366t-362.5 -150q-214 0 -360 149.5t-146 366.5t145 362.5t361 145.5q217 0 363.5 -146.5t146.5 -361.5z" />
    <glyph glyph-name="pi" unicode="&#x3c0;" horiz-adv-x="1077" 
d="M944 0h-184v795h-443v-795h-184v958h811v-958z" />
    <glyph glyph-name="rho" unicode="&#x3c1;" horiz-adv-x="1128" 
d="M893 483q0 153 -80 242.5t-215 89.5t-213 -86.5t-78 -239.5q0 -154 82.5 -250t214.5 -96q130 0 209.5 93t79.5 247zM1077 485q0 -230 -124 -374t-322 -144q-114 0 -195.5 46t-128.5 137v-682h-184v1017q0 228 130.5 367t346.5 139t346.5 -139t130.5 -367z" />
    <glyph glyph-name="sigma" unicode="&#x3c3;" horiz-adv-x="1106" 
d="M877 483q0 145 -92.5 238.5t-231.5 93.5q-141 0 -232.5 -93t-91.5 -239q0 -148 92.5 -244t231.5 -96q141 0 232.5 96t91.5 244zM1096 795h-158q56 -56 89.5 -141t33.5 -171q0 -216 -147.5 -366t-362.5 -150q-214 0 -360 149.5t-146 366.5t145 362.5t361 145.5q47 0 94 -8
t92 -25h359v-163z" />
    <glyph glyph-name="sigma1" unicode="&#x3c2;" horiz-adv-x="903" 
d="M887 -145q0 -89 -46.5 -168.5t-127.5 -128.5l-103 118q44 33 68 75.5t24 86.5q0 78 -47.5 120t-138.5 42q-220 0 -342.5 130t-122.5 364q0 226 144.5 361.5t386.5 135.5q74 0 135.5 -15.5t124.5 -49.5v-197q-56 41 -121.5 63.5t-130.5 22.5q-166 0 -260 -86t-94 -240
t78 -233.5t231 -79.5q160 0 251 -86t91 -235z" />
    <glyph glyph-name="tau" unicode="&#x3c4;" horiz-adv-x="684" 
d="M664 795h-230v-795h-184v795h-230v163h644v-163z" />
    <glyph glyph-name="upsilon" unicode="&#x3c5;" horiz-adv-x="1049" 
d="M920 418q0 -230 -97 -340.5t-299 -110.5q-205 0 -300 108.5t-95 342.5v540h184v-540q0 -145 48 -210t163 -65q114 0 162.5 65t48.5 210v540h185v-540z" />
    <glyph glyph-name="phi" unicode="&#x3c6;" horiz-adv-x="1343" 
d="M1087 481q0 133 -87.5 214t-235.5 89v-608q160 12 241.5 89t81.5 216zM1272 481q0 -210 -136 -337t-372 -144v-532h-184v532q-245 15 -376.5 139t-131.5 342q0 194 120 330.5t308 146.5v-175q-115 -8 -179.5 -86t-64.5 -216q0 -143 77.5 -217t246.5 -88v782h122
q259 0 414.5 -130.5t155.5 -346.5z" />
    <glyph glyph-name="chi" unicode="&#x3c7;" horiz-adv-x="934" 
d="M971 -532h-197l-311 630l-303 -630h-197l408 802l-359 688h197l262 -528l254 528h197l-359 -698z" />
    <glyph glyph-name="psi" unicode="&#x3c8;" horiz-adv-x="1464" 
d="M1341 561q0 -273 -132.5 -417t-385.5 -144v-532h-184v532q-253 0 -384.5 144t-131.5 417v397h182v-405q0 -189 83.5 -283t250.5 -94v782h184v-782q167 0 250.5 95t83.5 282v405h184v-397z" />
    <glyph glyph-name="omega" unicode="&#x3c9;" horiz-adv-x="1393" 
d="M1290 449q0 -230 -90.5 -356t-255.5 -126q-92 0 -155.5 50.5t-92.5 146.5q-28 -96 -91.5 -146.5t-155.5 -50.5q-165 0 -256 126t-91 356q0 160 40.5 299t105.5 210h168q-72 -123 -100.5 -234.5t-28.5 -260.5q0 -168 42.5 -250t131.5 -82q81 0 115 84t34 348v96h172v-96
q0 -264 34.5 -348t115.5 -84q88 0 131 82t43 250q0 149 -29 260.5t-100 234.5h168q65 -71 105 -210t40 -299z" />
    <glyph glyph-name="U2215" unicode="&#x2215;" horiz-adv-x="338" 
d="M690 1544l-944 -1544h-123l942 1544h125z" />
    <glyph glyph-name="anoteleia" unicode="&#x387;" horiz-adv-x="592" 
d="M424 788q0 -52 -37 -89t-90 -37t-90 37t-37 89q0 54 37 90.5t90 36.5t90 -36.5t37 -90.5z" />
    <glyph glyph-name="U037e" unicode="&#x37e;" horiz-adv-x="592" 
d="M436 174l-266 -528l-113 43l193 563zM449 864q0 -52 -37 -88.5t-90 -36.5q-54 0 -90.5 36.5t-36.5 88.5q0 53 37 90t90 37q52 0 89.5 -37t37.5 -90z" />
    <glyph glyph-name="tonos" unicode="&#x384;" horiz-adv-x="410" 
d="M274 1485l-20 -410h-98l-21 410h139z" />
    <glyph glyph-name="dieresistonos" unicode="&#x385;" horiz-adv-x="963" 
d="M342 1239q0 -44 -29 -73t-73 -29q-45 0 -75 29.5t-30 72.5q0 41 31.5 71.5t73.5 30.5q43 0 72.5 -29.5t29.5 -72.5zM551 1485l-21 -410h-98l-20 410h139zM827 1239q0 -44 -29 -73t-73 -29t-74 29.5t-30 72.5q0 41 31 71.5t73 30.5q43 0 72.5 -29.5t29.5 -72.5z" />
    <glyph glyph-name="Alphatonos" unicode="&#x386;" horiz-adv-x="1968" 
d="M274 1485l-20 -410h-98l-21 410h139zM1497 610l-248 561l-248 -561h496zM1978 0h-213l-197 446h-641l-196 -446h-213l731 1589z" />
    <glyph glyph-name="Epsilontonos" unicode="&#x388;" horiz-adv-x="1477" 
d="M274 1485l-20 -410h-98l-21 410h139zM1364 0h-811v1544h811v-180h-618v-451h618v-180h-618v-553h618v-180z" />
    <glyph glyph-name="Etatonos" unicode="&#x389;" horiz-adv-x="1792" 
d="M274 1485l-20 -410h-98l-21 410h139zM1649 0h-192v733h-711v-733h-193v1544h193v-631h711v631h192v-1544z" />
    <glyph glyph-name="Iotatonos" unicode="&#x38a;" horiz-adv-x="885" 
d="M274 1485l-20 -410h-98l-21 410h139zM744 0h-193v1544h193v-1544z" />
    <glyph glyph-name="Omicrontonos" unicode="&#x38c;" horiz-adv-x="2134" 
d="M274 1485l-20 -410h-98l-21 410h139zM1880 772q0 262 -172 443.5t-422 181.5q-271 0 -432.5 -184.5t-161.5 -440.5q0 -261 171.5 -443t422.5 -182q250 0 422 182t172 443zM2072 772q0 -338 -228.5 -571.5t-557.5 -233.5q-327 0 -557 234.5t-230 570.5q0 341 227.5 573
t559.5 232t559 -232t227 -573z" />
    <glyph glyph-name="Upsilontonos" unicode="&#x38e;" horiz-adv-x="1583" 
d="M274 1485l-20 -410h-98l-21 410h139zM1577 1544l-481 -839v-705h-192v705l-488 839h217l371 -665l358 665h215z" />
    <glyph glyph-name="Omegatonos" unicode="&#x38f;" horiz-adv-x="2130" 
d="M274 1485l-20 -410h-98l-21 410h139zM2099 0h-627v180q180 64 290 226.5t110 365.5q0 262 -170.5 443.5t-419.5 181.5q-270 0 -430 -183.5t-160 -441.5q0 -203 110 -365.5t289 -226.5v-180h-626v180h323q-141 102 -217 255t-76 337q0 341 227.5 573t559.5 232t559 -232
t227 -573q0 -184 -75.5 -337t-217.5 -255h324v-180z" />
    <glyph glyph-name="Upsilondieresis" unicode="&#x3ab;" horiz-adv-x="1174" 
d="M1167 1544l-481 -839v-705h-192v705l-488 839h217l371 -665l358 665h215zM495 1825q0 -44 -29 -73t-73 -29q-45 0 -75 29.5t-30 72.5q0 41 31.5 71.5t73.5 30.5q43 0 72.5 -29.5t29.5 -72.5zM886 1825q0 -44 -29 -73t-73 -29t-74.5 29.5t-30.5 72.5q0 41 31.5 71.5
t73.5 30.5q43 0 72.5 -29.5t29.5 -72.5z" />
    <glyph glyph-name="alphatonos" unicode="&#x3ac;" horiz-adv-x="1139" 
d="M821 489q0 153 -78 239.5t-213 86.5q-134 0 -214 -89.5t-80 -242.5q0 -154 79 -247t209 -93q132 0 214.5 96t82.5 250zM1006 0h-185v150q-47 -91 -128 -137t-195 -46q-199 0 -323 144t-124 374q0 226 124.5 366t326.5 140q107 0 187 -42.5t132 -127.5v137h185v-958z
M639 1485l-20 -410h-98l-21 410h139z" />
    <glyph glyph-name="epsilontonos" unicode="&#x3ad;" horiz-adv-x="778" 
d="M717 39q-78 -41 -137.5 -56.5t-137.5 -15.5q-166 0 -263 76.5t-97 204.5q0 99 43 165.5t125 92.5q-86 22 -127 75.5t-41 147.5q0 125 94 193.5t266 68.5q78 0 146.5 -17t128.5 -50v-179q-57 41 -122.5 61.5t-133.5 20.5q-92 0 -143.5 -33.5t-51.5 -95.5q0 -71 53 -106
t175 -41v-88q-106 -4 -167 -54.5t-61 -129.5q0 -69 53.5 -108.5t143.5 -39.5q69 0 132 21t122 63v-176zM458 1485l-20 -410h-98l-21 410h139z" />
    <glyph glyph-name="etatonos" unicode="&#x3ae;" horiz-adv-x="1071" 
d="M944 -532h-184v1099q0 134 -48 197t-151 63q-117 0 -180.5 -94t-63.5 -272v-461h-184v958h184v-135q43 83 120.5 125.5t187.5 42.5q149 0 234 -99t85 -278v-1146zM606 1485l-20 -410h-98l-21 410h139z" />
    <glyph glyph-name="iotatonos" unicode="&#x3af;" horiz-adv-x="520" 
d="M352 0h-184v958h184v-958zM329 1485l-20 -410h-98l-21 410h139z" />
    <glyph glyph-name="omicrontonos" unicode="&#x3cc;" horiz-adv-x="1106" 
d="M877 483q0 145 -92.5 238.5t-231.5 93.5q-141 0 -232.5 -93t-91.5 -239q0 -148 92.5 -244t231.5 -96q141 0 232.5 96t91.5 244zM1061 483q0 -216 -147.5 -366t-362.5 -150q-214 0 -360 149.5t-146 366.5t145 362.5t361 145.5q217 0 363.5 -146.5t146.5 -361.5zM622 1485
l-20 -410h-98l-21 410h139z" />
    <glyph glyph-name="upsilontonos" unicode="&#x3cd;" horiz-adv-x="1049" 
d="M920 418q0 -230 -97 -340.5t-299 -110.5q-205 0 -300 108.5t-95 342.5v540h184v-540q0 -145 48 -210t163 -65q114 0 162.5 65t48.5 210v540h185v-540zM593 1485l-20 -410h-98l-21 410h139z" />
    <glyph glyph-name="omegatonos" unicode="&#x3ce;" horiz-adv-x="1393" 
d="M1290 449q0 -230 -90.5 -356t-255.5 -126q-92 0 -155.5 50.5t-92.5 146.5q-28 -96 -91.5 -146.5t-155.5 -50.5q-165 0 -256 126t-91 356q0 160 40.5 299t105.5 210h168q-72 -123 -100.5 -234.5t-28.5 -260.5q0 -168 42.5 -250t131.5 -82q81 0 115 84t34 348v96h172v-96
q0 -264 34.5 -348t115.5 -84q88 0 131 82t43 250q0 149 -29 260.5t-100 234.5h168q65 -71 105 -210t40 -299zM766 1485l-20 -410h-98l-21 410h139z" />
    <glyph glyph-name="iotadieresis" unicode="&#x3ca;" horiz-adv-x="520" 
d="M352 0h-184v958h184v-958zM169 1239q0 -44 -29 -73t-73 -29q-45 0 -75 29.5t-30 72.5q0 41 31.5 71.5t73.5 30.5q43 0 72.5 -29.5t29.5 -72.5zM560 1239q0 -44 -29 -73t-73 -29t-74.5 29.5t-30.5 72.5q0 41 31.5 71.5t73.5 30.5q43 0 72.5 -29.5t29.5 -72.5z" />
    <glyph glyph-name="Iotadieresis" unicode="&#x3aa;" horiz-adv-x="475" 
d="M334 0h-193v1544h193v-1544zM146 1825q0 -44 -29 -73t-73 -29q-45 0 -75 29.5t-30 72.5q0 41 31.5 71.5t73.5 30.5q43 0 72.5 -29.5t29.5 -72.5zM537 1825q0 -44 -29 -73t-73 -29t-74.5 29.5t-30.5 72.5q0 41 31.5 71.5t73.5 30.5q43 0 72.5 -29.5t29.5 -72.5z" />
    <glyph glyph-name="upsilondieresis" unicode="&#x3cb;" horiz-adv-x="1049" 
d="M920 418q0 -230 -97 -340.5t-299 -110.5q-205 0 -300 108.5t-95 342.5v540h184v-540q0 -145 48 -210t163 -65q114 0 162.5 65t48.5 210v540h185v-540zM432 1239q0 -44 -29 -73t-73 -29q-45 0 -75 29.5t-30 72.5q0 41 31.5 71.5t73.5 30.5q43 0 72.5 -29.5t29.5 -72.5z
M823 1239q0 -44 -29 -73t-73 -29t-74.5 29.5t-30.5 72.5q0 41 31.5 71.5t73.5 30.5q43 0 72.5 -29.5t29.5 -72.5z" />
    <glyph glyph-name="iotedieresistonos" unicode="&#x390;" horiz-adv-x="520" 
d="M352 0h-184v958h184v-958zM122 1239q0 -44 -29 -73t-73 -29q-45 0 -75 29.5t-30 72.5q0 41 31.5 71.5t73.5 30.5q43 0 72.5 -29.5t29.5 -72.5zM331 1485l-21 -410h-98l-20 410h139zM607 1239q0 -44 -29 -73t-73 -29t-74 29.5t-30 72.5q0 41 31 71.5t73 30.5
q43 0 72.5 -29.5t29.5 -72.5z" />
    <glyph glyph-name="upsilondieresistonos" unicode="&#x3b0;" horiz-adv-x="1049" 
d="M920 418q0 -230 -97 -340.5t-299 -110.5q-205 0 -300 108.5t-95 342.5v540h184v-540q0 -145 48 -210t163 -65q114 0 162.5 65t48.5 210v540h185v-540zM385 1239q0 -44 -29 -73t-73 -29q-45 0 -75 29.5t-30 72.5q0 41 31.5 71.5t73.5 30.5q43 0 72.5 -29.5t29.5 -72.5z
M594 1485l-21 -410h-98l-20 410h139zM870 1239q0 -44 -29 -73t-73 -29t-74 29.5t-30 72.5q0 41 31 71.5t73 30.5q43 0 72.5 -29.5t29.5 -72.5z" />
    <glyph glyph-name="afii10017" unicode="&#x410;" horiz-adv-x="1440" 
d="M969 610l-248 561l-248 -561h496zM1450 0h-213l-197 446h-641l-196 -446h-213l731 1589z" />
    <glyph glyph-name="afii10018" unicode="&#x411;" horiz-adv-x="1096" 
d="M821 457q0 137 -93 208.5t-273 71.5h-119v-561h137q177 0 262.5 69.5t85.5 211.5zM1014 457q0 -226 -138.5 -341.5t-410.5 -115.5h-322v1544h674v-176h-481v-455h129q272 0 410.5 -115.5t138.5 -340.5z" />
    <glyph glyph-name="afii10019" unicode="&#x412;" horiz-adv-x="1096" 
d="M821 442q0 138 -93.5 210.5t-272.5 72.5h-119v-549h137q185 0 266.5 64.5t81.5 201.5zM711 1128q0 125 -64.5 182.5t-200.5 57.5h-110v-479h88q142 0 214.5 60.5t72.5 178.5zM1014 440q0 -221 -136.5 -330.5t-412.5 -109.5h-322v1544h310q207 0 328.5 -108.5
t121.5 -290.5q0 -121 -61.5 -212.5t-157.5 -113.5q154 -18 242 -120.5t88 -258.5z" />
    <glyph glyph-name="afii10020" unicode="&#x413;" horiz-adv-x="788" 
d="M766 1368h-420v-1368h-192v1544h612v-176z" />
    <glyph glyph-name="afii10021" unicode="&#x414;" horiz-adv-x="1382" 
d="M1040 180v1184h-663v-922q0 -95 -17 -166.5t-47 -95.5h727zM1372 -328h-192v328h-977v-328h-193v508q101 0 137.5 61t36.5 216v1087h1049v-1364h139v-508z" />
    <glyph glyph-name="afii10022" unicode="&#x415;" horiz-adv-x="1067" 
d="M954 0h-811v1544h811v-180h-618v-451h618v-180h-618v-553h618v-180z" />
    <glyph glyph-name="afii10023" unicode="&#x401;" horiz-adv-x="1067" 
d="M954 0h-811v1544h811v-180h-618v-451h618v-180h-618v-553h618v-180zM442 1757q0 -44 -29 -73t-73 -29q-43 0 -73.5 30t-30.5 72q0 41 31 72t73 31q43 0 72.5 -30t29.5 -73zM834 1757q0 -44 -29.5 -73t-73.5 -29q-43 0 -73.5 30t-30.5 72q0 41 31 72t73 31q43 0 73 -30
t30 -73z" />
    <glyph glyph-name="afii10024" unicode="&#x416;" horiz-adv-x="1958" 
d="M1966 0h-240l-651 801v-801h-192v801l-652 -801h-239l682 821l-656 723h228l637 -719v719h192v-719l637 719h227l-655 -723z" />
    <glyph glyph-name="afii10025" unicode="&#x417;" horiz-adv-x="1075" 
d="M993 428q0 -221 -140 -341t-390 -120q-87 0 -192 30t-210 85v205q144 -77 234.5 -108.5t165.5 -31.5q175 0 258.5 66t83.5 205q0 148 -91.5 221.5t-275.5 73.5h-108v180h94q178 0 259 57.5t81 188.5q0 124 -70 191t-203 67q-83 0 -179.5 -35.5t-219.5 -112.5v207
q92 57 196.5 89t202.5 32q216 0 339.5 -116.5t123.5 -313.5q0 -113 -65 -208t-174 -134q133 -41 206.5 -141.5t73.5 -235.5z" />
    <glyph glyph-name="afii10026" unicode="&#x418;" horiz-adv-x="1608" 
d="M1464 0h-192v1126l-1129 -1171v1589h193v-1124l1128 1169v-1589z" />
    <glyph glyph-name="afii10027" unicode="&#x419;" horiz-adv-x="1608" 
d="M1464 0h-192v1126l-1129 -1171v1589h193v-1124l1128 1169v-1589zM1118 1866q-27 -124 -106.5 -188t-206.5 -64q-128 0 -212.5 66.5t-103.5 185.5l119 41q13 -83 66.5 -136t130.5 -53t131 55t61 133z" />
    <glyph glyph-name="afii10028" unicode="&#x41a;" horiz-adv-x="1229" 
d="M1237 0h-240l-651 801v-801h-192v1544h192v-719l637 719h227l-655 -723z" />
    <glyph glyph-name="afii10029" unicode="&#x41b;" horiz-adv-x="1382" 
d="M1239 0h-192v1364h-670v-954q0 -235 -86 -339t-281 -104v180q101 0 137.5 61t36.5 216v1120h1055v-1544z" />
    <glyph glyph-name="afii10030" unicode="&#x41c;" horiz-adv-x="1743" 
d="M1702 0h-193l-147 1001l-492 -1046l-487 1046l-147 -1001h-195l260 1589l573 -1227l574 1227z" />
    <glyph glyph-name="afii10031" unicode="&#x41d;" horiz-adv-x="1382" 
d="M1239 0h-192v733h-711v-733h-193v1544h193v-631h711v631h192v-1544z" />
    <glyph glyph-name="afii10032" unicode="&#x41e;" horiz-adv-x="1696" 
d="M1442 772q0 262 -172 443.5t-422 181.5q-270 0 -430 -183.5t-160 -441.5q0 -262 170 -443.5t420 -181.5t422 182t172 443zM1634 772q0 -338 -228.5 -571.5t-557.5 -233.5q-327 0 -557 234.5t-230 570.5q0 341 227.5 573t559.5 232t559 -232t227 -573z" />
    <glyph glyph-name="afii10033" unicode="&#x41f;" horiz-adv-x="1382" 
d="M1239 0h-192v1364h-711v-1364h-193v1544h1096v-1544z" />
    <glyph glyph-name="afii10034" unicode="&#x420;" horiz-adv-x="1014" 
d="M760 1106q0 135 -82 196.5t-268 61.5h-74v-514h74q193 0 271.5 59t78.5 197zM952 1106q0 -212 -141 -324t-405 -112h-70v-670h-193v1544h263q273 0 409.5 -109.5t136.5 -328.5z" />
    <glyph glyph-name="afii10035" unicode="&#x421;" horiz-adv-x="1354" 
d="M1296 96q-88 -57 -211 -93t-231 -36q-348 0 -562 223.5t-214 583.5q0 348 218 575.5t560 227.5q134 0 241.5 -31.5t198.5 -97.5v-215q-100 82 -203.5 123t-213.5 41q-269 0 -439 -175t-170 -448q0 -276 162.5 -451.5t419.5 -175.5q124 0 235 42t209 126v-219z" />
    <glyph glyph-name="afii10036" unicode="&#x422;" horiz-adv-x="934" 
d="M913 1372h-350v-1372h-192v1372h-351v172h893v-172z" />
    <glyph glyph-name="afii10037" unicode="&#x423;" horiz-adv-x="1155" 
d="M1165 1544l-725 -1544h-207l299 637l-542 907h217l418 -719l333 719h207z" />
    <glyph glyph-name="afii10038" unicode="&#x424;" horiz-adv-x="1503" 
d="M662 373v825q-181 0 -284.5 -109.5t-103.5 -302.5t104 -303t284 -110zM1241 786q0 193 -103.5 302.5t-283.5 109.5v-825q178 0 282.5 110.5t104.5 302.5zM1434 786q0 -264 -154.5 -422t-425.5 -171v-193h-192v193q-272 13 -426 171t-154 422q0 262 155 420.5t425 171.5
v166h192v-166q270 -13 425 -171.5t155 -420.5z" />
    <glyph glyph-name="afii10039" unicode="&#x425;" horiz-adv-x="1176" 
d="M1169 0h-221l-362 641l-359 -641h-221l473 815l-446 729h221l338 -577l334 577h219l-447 -737z" />
    <glyph glyph-name="afii10040" unicode="&#x426;" horiz-adv-x="1382" 
d="M1337 -328h-192v328h-1002v1544h193v-1364h711v1364h192v-1364h98v-508z" />
    <glyph glyph-name="afii10041" unicode="&#x427;" horiz-adv-x="1329" 
d="M1186 0h-193v662q-66 -52 -157 -80.5t-191 -28.5q-271 0 -407 153.5t-136 458.5v379h193v-418q0 -198 87 -295.5t263 -97.5q101 0 194.5 31.5t153.5 85.5v694h193v-1544z" />
    <glyph glyph-name="afii10042" unicode="&#x428;" horiz-adv-x="1876" 
d="M1733 0h-1590v1544h193v-1364h506v1364h192v-1364h506v1364h193v-1544z" />
    <glyph glyph-name="afii10043" unicode="&#x429;" horiz-adv-x="1876" 
d="M1831 -328h-193v328h-1495v1544h193v-1364h506v1364h192v-1364h506v1364h193v-1364h98v-508z" />
    <glyph glyph-name="afii10044" unicode="&#x42a;" horiz-adv-x="1321" 
d="M1047 457q0 137 -93.5 208.5t-273.5 71.5h-119v-561h137q178 0 263.5 69.5t85.5 211.5zM1239 457q0 -226 -138.5 -341.5t-410.5 -115.5h-321v1368h-359v176h551v-631h129q272 0 410.5 -115.5t138.5 -340.5z" />
    <glyph glyph-name="afii10045" unicode="&#x42b;" horiz-adv-x="1575" 
d="M821 457q0 137 -93 208.5t-273 71.5h-119v-561h137q177 0 262.5 69.5t85.5 211.5zM1014 457q0 -226 -138.5 -341.5t-410.5 -115.5h-322v1544h193v-631h129q272 0 410.5 -115.5t138.5 -340.5zM1432 0h-193v1544h193v-1544z" />
    <glyph glyph-name="afii10046" unicode="&#x42c;" horiz-adv-x="1096" 
d="M821 457q0 137 -93 208.5t-273 71.5h-119v-561h137q177 0 262.5 69.5t85.5 211.5zM1014 457q0 -226 -138.5 -341.5t-410.5 -115.5h-322v1544h193v-631h129q272 0 410.5 -115.5t138.5 -340.5z" />
    <glyph glyph-name="afii10047" unicode="&#x42d;" horiz-adv-x="1354" 
d="M1276 774q0 -360 -214 -583.5t-562 -223.5q-108 0 -231 36t-212 93v219q99 -84 210 -126t235 -42q236 0 395 151.5t182 397.5h-780v181h778q-33 235 -197 377.5t-405 142.5q-110 0 -214 -41t-204 -123v215q92 66 199 97.5t242 31.5q342 0 560 -227.5t218 -575.5z" />
    <glyph glyph-name="afii10048" unicode="&#x42e;" horiz-adv-x="2310" 
d="M2056 772q0 262 -172 443.5t-422 181.5q-270 0 -430 -183.5t-160 -441.5q0 -262 170.5 -443.5t419.5 -181.5q251 0 422.5 182t171.5 443zM2249 772q0 -338 -229 -571.5t-558 -233.5q-316 0 -543.5 221t-242.5 545h-340v-733h-193v1544h193v-631h352q48 292 265 478
t509 186q332 0 559.5 -232t227.5 -573z" />
    <glyph glyph-name="afii10049" unicode="&#x42f;" horiz-adv-x="1112" 
d="M776 883v481h-133q-176 0 -258 -59.5t-82 -188.5q0 -123 81 -178t259 -55h133zM969 0h-193v721h-55l-455 -721h-233l481 729q-187 5 -295 111t-108 286q0 202 130.5 310t379.5 108h348v-1544z" />
    <glyph glyph-name="afii10053" unicode="&#x404;" horiz-adv-x="1354" 
d="M1296 96q-88 -57 -211 -93t-231 -36q-348 0 -562 223.5t-214 583.5q0 348 218 575.5t560 227.5q134 0 241.5 -31.5t198.5 -97.5v-215q-100 82 -203.5 123t-213.5 41q-242 0 -406 -142.5t-197 -377.5h779v-181h-781q24 -246 183 -397.5t395 -151.5q124 0 235 42t209 126
v-219z" />
    <glyph glyph-name="afii10056" unicode="&#x407;" horiz-adv-x="475" 
d="M334 0h-193v1544h193v-1544zM176 1716q0 -44 -29.5 -73t-72.5 -29q-44 0 -74.5 30t-30.5 72q0 41 31.5 72t73.5 31q43 0 72.5 -30t29.5 -73zM506 1716q0 -44 -29.5 -73t-73.5 -29q-43 0 -73.5 30t-30.5 72q0 41 31.5 72t72.5 31q43 0 73 -30t30 -73z" />
    <glyph glyph-name="afii10055" unicode="&#x406;" horiz-adv-x="475" 
d="M334 0h-193v1544h193v-1544z" />
    <glyph glyph-name="afii10050" unicode="&#x490;" horiz-adv-x="788" 
d="M766 1368h-420v-1368h-192v1544h419v266h193v-442z" />
    <glyph glyph-name="afii10060" unicode="&#x40b;" horiz-adv-x="1556" 
d="M1454 0h-192v430q0 195 -85.5 288t-265.5 93q-101 0 -194.5 -31.5t-153.5 -85.5v-694h-192v1372h-351v172h893v-172h-350v-489q67 51 158 79.5t190 28.5q274 0 408.5 -149t134.5 -451v-391z" />
    <glyph glyph-name="afii10051" unicode="&#x402;" horiz-adv-x="1536" 
d="M1454 479q0 -228 -139.5 -370t-382.5 -142v180q155 0 242.5 89.5t87.5 242.5q0 149 -90.5 240.5t-239.5 91.5q-105 0 -208 -33t-161 -84v-694h-192v1372h-351v172h893v-172h-350v-489q62 47 163.5 77.5t205.5 30.5q240 0 381 -141.5t141 -370.5z" />
    <glyph glyph-name="afii10145" unicode="&#x40f;" horiz-adv-x="1382" 
d="M1239 0h-451v-328h-192v328h-453v1544h193v-1364h711v1364h192v-1544z" />
    <glyph glyph-name="afii10057" unicode="&#x408;" horiz-adv-x="741" 
d="M588 410q0 -231 -90 -337t-287 -106q-58 0 -122 14.5t-128 41.5l57 172q65 -28 105.5 -38t77.5 -10q108 0 151 64.5t43 212.5v1120h193v-1134z" />
    <glyph glyph-name="afii10058" unicode="&#x409;" horiz-adv-x="1853" 
d="M1579 457q0 137 -93.5 208.5t-273.5 71.5h-118v-561h137q177 0 262.5 69.5t85.5 211.5zM1772 457q0 -226 -138.5 -341.5t-410.5 -115.5h-322v1364h-524v-954q0 -235 -86 -339t-281 -104v180q101 0 137.5 61t36.5 216v1120h910v-631h129q272 0 410.5 -115.5t138.5 -340.5z
" />
    <glyph glyph-name="afii10059" unicode="&#x40a;" horiz-adv-x="1812" 
d="M1538 457q0 137 -93.5 208.5t-273.5 71.5h-118v-561h137q177 0 262.5 69.5t85.5 211.5zM1731 457q0 -226 -138.5 -341.5t-410.5 -115.5h-322v737h-524v-737h-193v1544h193v-631h524v631h193v-631h129q272 0 410.5 -115.5t138.5 -340.5z" />
    <glyph glyph-name="afii10054" unicode="&#x405;" horiz-adv-x="1100" 
d="M993 412q0 -208 -128 -326.5t-353 -118.5q-156 0 -271.5 68t-168.5 192l133 121q35 -94 119 -147.5t194 -53.5q135 0 209 67t74 189q0 101 -73 177.5t-245 162.5q-200 101 -280 199t-80 246q0 175 118 282t314 107q121 0 211.5 -46t151.5 -138l-127 -125q-35 61 -99 95
t-143 34q-108 0 -171 -54t-63 -145q0 -85 50.5 -145.5t201.5 -141.5q265 -143 345.5 -248.5t80.5 -250.5z" />
    <glyph glyph-name="afii61352" unicode="&#x2116;" horiz-adv-x="2474" 
d="M2228 612q0 96 -58 155.5t-151 59.5t-151 -59t-58 -156q0 -96 59 -157.5t150 -61.5q92 0 150.5 61t58.5 158zM1464 -45l-1128 1171v-1126h-193v1589l1129 -1169v1124h192v-1589zM2363 0h-688v143h688v-143zM2404 614q0 -165 -110.5 -275t-276.5 -110q-163 0 -273 110
t-110 275q0 164 109 270.5t274 106.5q168 0 277.5 -106.5t109.5 -270.5z" />
    <glyph glyph-name="afii10065" unicode="&#x430;" horiz-adv-x="1139" 
d="M821 489q0 153 -78 239.5t-213 86.5q-134 0 -214 -89.5t-80 -242.5q0 -154 79 -247t209 -93q132 0 214.5 96t82.5 250zM1006 0h-185v150q-47 -91 -128 -137t-195 -46q-199 0 -323 144t-124 374q0 226 124.5 366t326.5 140q107 0 187 -42.5t132 -127.5v137h185v-958z" />
    <glyph glyph-name="afii10066" unicode="&#x431;" horiz-adv-x="1106" 
d="M877 483q0 145 -92.5 238.5t-231.5 93.5q-141 0 -232.5 -93t-91.5 -239q0 -148 92.5 -244t231.5 -96q141 0 232.5 96t91.5 244zM1061 483q0 -216 -147.5 -366t-362.5 -150q-225 0 -365.5 153t-140.5 404q0 330 118.5 521.5t377.5 291.5q145 57 211.5 138.5t66.5 214.5
h166q0 -182 -97.5 -307t-307.5 -209q-122 -50 -196.5 -119t-113.5 -166q49 47 126 74.5t155 27.5q217 0 363.5 -146.5t146.5 -361.5z" />
    <glyph glyph-name="afii10067" unicode="&#x432;" horiz-adv-x="856" 
d="M586 293q0 70 -45.5 99.5t-151.5 29.5h-72v-258h72q108 0 152.5 28t44.5 101zM510 686q0 66 -32 87.5t-113 21.5h-48v-209h48q75 0 110 23.5t35 76.5zM770 293q0 -152 -89.5 -222.5t-291.5 -70.5h-256v958h234q161 0 244 -65t83 -191q0 -66 -29 -115.5t-79 -70.5
q86 -23 135 -83.5t49 -139.5z" />
    <glyph glyph-name="afii10068" unicode="&#x433;" horiz-adv-x="666" 
d="M655 795h-338v-795h-184v958h522v-163z" />
    <glyph glyph-name="afii10069" unicode="&#x434;" horiz-adv-x="1057" 
d="M729 164v631h-381v-404q0 -77 -12 -139t-33 -88h426zM1047 -328h-185v328h-667v-328h-185v492q91 0 122.5 47t31.5 186v561h749v-794h134v-492z" />
    <glyph glyph-name="afii10070" unicode="&#x435;" horiz-adv-x="999" 
d="M776 571q-12 119 -81 181.5t-187 62.5q-113 0 -186.5 -64.5t-88.5 -179.5h543zM958 444h-729q11 -147 83.5 -224t201.5 -77q98 0 162 38t104 118l154 -82q-66 -126 -170 -188t-252 -62q-215 0 -341 141t-126 377q0 219 132.5 362.5t330.5 143.5q202 0 326 -131.5
t124 -347.5v-68z" />
    <glyph glyph-name="afii10071" unicode="&#x451;" horiz-adv-x="999" 
d="M776 571q-12 119 -81 181.5t-187 62.5q-113 0 -186.5 -64.5t-88.5 -179.5h543zM958 444h-729q11 -147 83.5 -224t201.5 -77q98 0 162 38t104 118l154 -82q-66 -126 -170 -188t-252 -62q-215 0 -341 141t-126 377q0 219 132.5 362.5t330.5 143.5q202 0 326 -131.5
t124 -347.5v-68zM408 1239q0 -44 -29.5 -73t-73.5 -29q-43 0 -73.5 29.5t-30.5 72.5q0 41 31 71.5t73 30.5q43 0 73 -29.5t30 -72.5zM799 1239q0 -44 -29.5 -73t-73.5 -29q-43 0 -73.5 29.5t-30.5 72.5q0 41 31.5 71.5t72.5 30.5q43 0 73 -29.5t30 -72.5z" />
    <glyph glyph-name="afii10072" unicode="&#x436;" horiz-adv-x="1421" 
d="M1419 0h-221l-395 506v-506h-185v506l-395 -506h-221l424 528l-391 430h217l366 -426v426h185v-426l366 426h217l-391 -430z" />
    <glyph glyph-name="afii10073" unicode="&#x437;" horiz-adv-x="778" 
d="M696 248q0 -128 -96.5 -204.5t-263.5 -76.5q-78 0 -137.5 15.5t-137.5 56.5v176q59 -42 122 -63t132 -21q90 0 143.5 39.5t53.5 108.5q0 79 -60.5 129.5t-166.5 54.5v88q121 6 174 41t53 106q0 62 -51 95.5t-144 33.5q-68 0 -133 -20.5t-123 -61.5v179q60 33 128.5 50
t146.5 17q173 0 266.5 -68.5t93.5 -193.5q0 -94 -41 -147.5t-127 -75.5q82 -26 125 -92.5t43 -165.5z" />
    <glyph glyph-name="afii10074" unicode="&#x438;" horiz-adv-x="1071" 
d="M944 0h-184v592l-627 -637v1003h184v-585l627 631v-1004z" />
    <glyph glyph-name="afii10075" unicode="&#x439;" horiz-adv-x="1071" 
d="M944 0h-184v592l-627 -637v1003h184v-585l627 631v-1004zM850 1300q-27 -124 -106.5 -187.5t-206.5 -63.5q-128 0 -212.5 66.5t-103.5 184.5l119 41q12 -83 66 -135.5t131 -52.5q76 0 130.5 55t61.5 133z" />
    <glyph glyph-name="afii10076" unicode="&#x43a;" horiz-adv-x="946" 
d="M944 0h-221l-395 506v-506h-185v958h185v-426l366 426h217l-391 -430z" />
    <glyph glyph-name="afii10077" unicode="&#x43b;" horiz-adv-x="1040" 
d="M913 0h-184v795h-381v-437q0 -224 -66.5 -307.5t-271.5 -83.5v164q98 0 126 45t28 189v593h749v-958z" />
    <glyph glyph-name="afii10078" unicode="&#x43c;" horiz-adv-x="1159" 
d="M1110 0h-186l-78 471l-266 -516l-267 516l-77 -471h-187l180 1004l351 -687l350 687z" />
    <glyph glyph-name="afii10079" unicode="&#x43d;" horiz-adv-x="1071" 
d="M944 0h-184v434h-443v-434h-184v958h184v-360h443v360h184v-958z" />
    <glyph glyph-name="afii10080" unicode="&#x43e;" horiz-adv-x="1106" 
d="M877 483q0 145 -92.5 238.5t-231.5 93.5q-141 0 -232.5 -93t-91.5 -239q0 -148 92.5 -244t231.5 -96q141 0 232.5 96t91.5 244zM1061 483q0 -216 -147.5 -366t-362.5 -150q-214 0 -360 149.5t-146 366.5t145 362.5t361 145.5q217 0 363.5 -146.5t146.5 -361.5z" />
    <glyph glyph-name="afii10081" unicode="&#x43f;" horiz-adv-x="1071" 
d="M944 0h-184v795h-443v-795h-184v958h811v-958z" />
    <glyph glyph-name="afii10082" unicode="&#x440;" horiz-adv-x="1139" 
d="M903 483q0 153 -80 242.5t-215 89.5t-213 -86.5t-78 -239.5q0 -154 83 -250t214 -96q130 0 209.5 93t79.5 247zM1087 485q0 -230 -123.5 -374t-322.5 -144q-114 0 -195.5 46t-128.5 137v-682h-184v1490h184v-137q53 85 132.5 127.5t187.5 42.5q202 0 326 -140t124 -366z
" />
    <glyph glyph-name="afii10083" unicode="&#x441;" horiz-adv-x="903" 
d="M852 35q-64 -35 -132.5 -51.5t-152.5 -16.5q-230 0 -373 141.5t-143 368.5q0 230 146 372t385 142q74 0 135.5 -15.5t124.5 -49.5v-197q-56 41 -121.5 63.5t-130.5 22.5q-163 0 -258.5 -92.5t-95.5 -249.5q0 -150 96.5 -240t257.5 -90q74 0 141.5 23t120.5 65v-196z" />
    <glyph glyph-name="afii10084" unicode="&#x442;" horiz-adv-x="684" 
d="M664 795h-230v-795h-184v795h-230v163h644v-163z" />
    <glyph glyph-name="afii10085" unicode="&#x443;" horiz-adv-x="991" 
d="M983 958l-612 -1490h-203l244 573l-404 917h201l297 -706l274 706h203z" />
    <glyph glyph-name="afii10086" unicode="&#x444;" horiz-adv-x="1337" 
d="M580 176v606q-149 0 -236.5 -80t-87.5 -221q0 -147 84 -226t240 -79zM1081 481q0 136 -89.5 218.5t-233.5 82.5v-606q154 0 238.5 79.5t84.5 225.5zM1266 481q0 -210 -136 -337t-372 -144v-532h-178v532q-236 15 -372 142.5t-136 338.5q0 210 137 337t371 140v732h178
v-732q233 -15 370.5 -142t137.5 -335z" />
    <glyph glyph-name="afii10087" unicode="&#x445;" horiz-adv-x="1001" 
d="M995 0h-223l-274 371l-271 -371h-221l385 500l-352 458h219l248 -337l237 337h222l-357 -458z" />
    <glyph glyph-name="afii10088" unicode="&#x446;" horiz-adv-x="1071" 
d="M1030 -328h-184v328h-713v958h184v-794h437v794h184v-794h92v-492z" />
    <glyph glyph-name="afii10089" unicode="&#x447;" horiz-adv-x="1053" 
d="M920 0h-185v336q-36 -17 -95.5 -29t-115.5 -12q-205 0 -300 108.5t-95 341.5v213h184v-213q0 -145 48 -209.5t163 -64.5q60 0 111 10.5t100 32.5v444h185v-958z" />
    <glyph glyph-name="afii10090" unicode="&#x448;" horiz-adv-x="1577" 
d="M1444 0h-1311v958h184v-794h379v794h185v-794h379v794h184v-958z" />
    <glyph glyph-name="afii10091" unicode="&#x449;" horiz-adv-x="1577" 
d="M1536 -328h-184v328h-1219v958h184v-794h379v794h185v-794h379v794h184v-794h92v-492z" />
    <glyph glyph-name="afii10092" unicode="&#x44a;" horiz-adv-x="989" 
d="M760 299q0 73 -48.5 104t-168.5 31h-72v-270h72q120 0 168.5 31t48.5 104zM944 299q0 -151 -98.5 -225t-302.5 -74h-256v795h-277v163h461v-360h74q202 0 300.5 -74t98.5 -225z" />
    <glyph glyph-name="afii10093" unicode="&#x44b;" horiz-adv-x="1276" 
d="M606 301q0 72 -47.5 102.5t-169.5 30.5h-72v-270h72q119 0 168 32t49 105zM791 301q0 -152 -99.5 -226.5t-302.5 -74.5h-256v958h184v-360h74q204 0 302 -73.5t98 -223.5zM1143 0h-185v958h185v-958z" />
    <glyph glyph-name="afii10094" unicode="&#x44c;" horiz-adv-x="836" 
d="M606 301q0 72 -47.5 102.5t-169.5 30.5h-72v-270h72q119 0 168 32t49 105zM791 301q0 -152 -99.5 -226.5t-302.5 -74.5h-256v958h184v-360h74q204 0 302 -73.5t98 -223.5z" />
    <glyph glyph-name="afii10095" unicode="&#x44d;" horiz-adv-x="903" 
d="M852 477q0 -227 -143 -368.5t-373 -141.5q-84 0 -152.5 16.5t-132.5 51.5v196q53 -42 121 -65t141 -23q140 0 233.5 71t115.5 194h-474v163h469q-27 116 -118 180t-226 64q-65 0 -130.5 -22.5t-121.5 -63.5v197q63 34 124.5 49.5t136.5 15.5q238 0 384 -142t146 -372z
" />
    <glyph glyph-name="afii10096" unicode="&#x44e;" horiz-adv-x="1597" 
d="M1368 483q0 145 -92 238.5t-232 93.5q-141 0 -232 -93t-91 -239q0 -148 92 -244t231 -96q141 0 232.5 96t91.5 244zM1552 483q0 -216 -147 -366t-363 -150q-200 0 -343 133.5t-160 333.5h-222v-434h-184v958h184v-360h232q37 175 173 284t320 109q217 0 363.5 -146.5
t146.5 -361.5z" />
    <glyph glyph-name="afii10097" unicode="&#x44f;" horiz-adv-x="786" 
d="M469 571v224h-47q-86 0 -126 -27.5t-40 -89.5q0 -57 39.5 -82t126.5 -25h47zM653 0h-184v410l-256 -410h-223l299 430q-98 15 -157.5 82.5t-59.5 161.5q0 140 93 212t275 72h213v-958z" />
    <glyph glyph-name="afii10101" unicode="&#x454;" horiz-adv-x="903" 
d="M852 35q-64 -35 -132.5 -51.5t-152.5 -16.5q-230 0 -373 141.5t-143 368.5q0 230 146 372t385 142q74 0 135.5 -15.5t124.5 -49.5v-197q-56 41 -121.5 63.5t-130.5 22.5q-135 0 -226 -64t-118 -180h469v-163h-473q21 -123 114.5 -194t233.5 -71q74 0 141.5 23t120.5 65
v-196z" />
    <glyph glyph-name="afii10104" unicode="&#x457;" horiz-adv-x="520" 
d="M352 0h-184v958h184v-958zM199 1239q0 -44 -29.5 -73t-73.5 -29q-43 0 -73.5 29.5t-30.5 72.5q0 41 31.5 71.5t72.5 30.5q43 0 73 -29.5t30 -72.5zM528 1239q0 -44 -29 -73t-73 -29q-43 0 -73.5 29.5t-30.5 72.5q0 41 31 71.5t73 30.5q43 0 72.5 -29.5t29.5 -72.5z" />
    <glyph glyph-name="afii10103" unicode="&#x456;" horiz-adv-x="520" 
d="M352 0h-184v958h184v-958zM381 1346q0 -51 -35 -86t-86 -35t-86 35t-35 86q0 50 35 85t86 35t86 -35t35 -85z" />
    <glyph glyph-name="afii10098" unicode="&#x491;" horiz-adv-x="666" 
d="M655 795h-338v-795h-184v958h338v328h184v-491z" />
    <glyph glyph-name="afii10108" unicode="&#x45b;" horiz-adv-x="1071" 
d="M944 0h-184v567q0 134 -48 197t-151 63q-117 0 -180.5 -94t-63.5 -272v-461h-184v1243h-133v129h133v318h184v-318h353v-129h-353v-420q43 83 120.5 125.5t187.5 42.5q149 0 234 -99t85 -278v-614z" />
    <glyph glyph-name="afii10099" unicode="&#x452;" horiz-adv-x="1071" 
d="M944 -129q0 -244 -84 -334t-301 -90v164q116 0 158.5 56.5t42.5 203.5v696q0 134 -48 197t-151 63q-117 0 -180.5 -94t-63.5 -272v-461h-184v1243h-133v129h133v318h184v-318h353v-129h-353v-420q43 83 120.5 125.5t187.5 42.5q149 0 234 -99t85 -278v-743z" />
    <glyph glyph-name="afii10193" unicode="&#x45f;" horiz-adv-x="1071" 
d="M944 0h-315v-328h-185v328h-311v958h184v-794h443v794h184v-958z" />
    <glyph glyph-name="afii10105" unicode="&#x458;" horiz-adv-x="520" 
d="M352 -532h-184v1490h184v-1490zM381 1346q0 -51 -35 -86t-86 -35t-86 35t-35 86q0 50 35 85t86 35t86 -35t35 -85z" />
    <glyph glyph-name="afii10106" unicode="&#x459;" horiz-adv-x="1348" 
d="M1118 301q0 72 -47.5 102.5t-169.5 30.5h-72v-270h72q119 0 168 32t49 105zM1303 301q0 -152 -99.5 -226.5t-302.5 -74.5h-256v795h-297v-437q0 -224 -66.5 -307.5t-271.5 -83.5v164q98 0 126 45t28 189v593h665v-360h74q204 0 302 -73.5t98 -223.5z" />
    <glyph glyph-name="afii10107" unicode="&#x45a;" horiz-adv-x="1327" 
d="M1098 301q0 72 -47.5 102.5t-169.5 30.5h-72v-270h72q119 0 168 32t49 105zM1282 301q0 -152 -99 -226.5t-302 -74.5h-256v434h-308v-434h-184v958h184v-360h308v360h184v-360h74q203 0 301 -73.5t98 -223.5z" />
    <glyph glyph-name="afii10102" unicode="&#x455;" horiz-adv-x="786" 
d="M735 260q0 -135 -97.5 -214t-266.5 -79q-129 0 -217.5 51.5t-128.5 149.5l155 98q26 -67 75.5 -101t123.5 -34q80 0 126 31.5t46 87.5q0 62 -45 96t-170 80q-133 48 -197.5 119.5t-64.5 171.5q0 128 86 201t239 73q111 0 185.5 -45.5t117.5 -140.5l-149 -92
q-26 60 -64.5 87t-95.5 27q-67 0 -103 -27t-36 -77q0 -54 39.5 -88.5t148.5 -71.5q155 -50 224 -121.5t69 -181.5z" />
    <glyph glyph-name="afii10052" unicode="&#x403;" horiz-adv-x="788" 
d="M766 1368h-420v-1368h-192v1544h612v-176zM643 1921l-307 -260l-65 74l282 295z" />
    <glyph glyph-name="afii10100" unicode="&#x453;" horiz-adv-x="666" 
d="M655 795h-338v-795h-184v958h522v-163zM582 1335l-307 -260l-65 74l282 295z" />
    <glyph glyph-name="afii10061" unicode="&#x40c;" horiz-adv-x="1229" 
d="M1237 0h-240l-651 801v-801h-192v1544h192v-719l637 719h227l-655 -723zM862 1921l-307 -260l-65 74l282 295z" />
    <glyph glyph-name="afii10109" unicode="&#x45c;" horiz-adv-x="946" 
d="M944 0h-221l-395 506v-506h-185v958h185v-426l366 426h217l-391 -430zM720 1335l-307 -260l-65 74l282 295z" />
    <glyph glyph-name="afii10062" unicode="&#x40e;" horiz-adv-x="1155" 
d="M1165 1544l-725 -1544h-207l299 637l-542 907h217l418 -719l333 719h207zM893 1942q-27 -124 -106.5 -188t-206.5 -64q-128 0 -212.5 66.5t-103.5 185.5l119 41q13 -83 66.5 -136t130.5 -53t131 55.5t61 132.5z" />
    <glyph glyph-name="Euro" 
d="M1135 96q-84 -68 -179 -98.5t-223 -30.5q-223 0 -372.5 162.5t-192.5 450.5h-162l35 98h116q-2 38 -2.5 57t-0.5 37q0 20 0.5 41.5t3.5 64.5l-152 1l35 100h129q47 274 206 436t380 162q116 0 205.5 -30t173.5 -99v-193q-96 88 -178 123t-191 35q-152 0 -261.5 -116
t-148.5 -318h635l-35 -100h-614q-2 -19 -3 -41t-1 -68q0 -17 1 -36l3 -56h551l-35 -98h-504q39 -213 137.5 -331t239.5 -118q116 0 209 37.5t195 124.5v-197z" />
    <glyph glyph-name="Euro" unicode="&#x20ac;" 
d="M1135 96q-84 -68 -179 -98.5t-223 -30.5q-223 0 -372.5 162.5t-192.5 450.5h-162l35 98h116q-2 38 -2.5 57t-0.5 37q0 20 0.5 41.5t3.5 64.5l-152 1l35 100h129q47 274 206 436t380 162q116 0 205.5 -30t173.5 -99v-193q-96 88 -178 123t-191 35q-152 0 -261.5 -116
t-148.5 -318h635l-35 -100h-614q-2 -19 -3 -41t-1 -68q0 -17 1 -36l3 -56h551l-35 -98h-504q39 -213 137.5 -331t239.5 -118q116 0 209 37.5t195 124.5v-197z" />
    <glyph glyph-name="afii10110" unicode="&#x45e;" horiz-adv-x="991" 
d="M983 958l-612 -1490h-203l244 573l-404 917h201l297 -706l274 706h203zM812 1356q-27 -124 -106.5 -188t-206.5 -64q-128 0 -212.5 66.5t-103.5 185.5l119 41q13 -83 66.5 -136t130.5 -53t131 55.5t61 132.5z" />
    <glyph glyph-name="c8074" horiz-adv-x="567" 
d="M471 1499l-266 -528l-113 43l193 563z" />
    <glyph glyph-name="longdash" unicode="&#x2015;" horiz-adv-x="2048" 
d="M1843 467h-1638v143h1638v-143z" />
    <glyph glyph-name="c6465" horiz-adv-x="963" 
d="M389 1239q0 -44 -29 -73t-73 -29q-45 0 -75 29.5t-30 72.5q0 41 31.5 71.5t73.5 30.5q43 0 72.5 -29.5t29.5 -72.5zM780 1239q0 -44 -29 -73t-73 -29t-74.5 29.5t-30.5 72.5q0 41 31.5 71.5t73.5 30.5q43 0 72.5 -29.5t29.5 -72.5z" />
    <glyph glyph-name="c6466" horiz-adv-x="1004" 
d="M817 1356q-27 -124 -106.5 -188t-206.5 -64q-128 0 -212.5 66.5t-103.5 185.5l119 41q13 -83 66.5 -136t130.5 -53t131 55.5t61 132.5z" />
    <glyph glyph-name="hookabovecomb" unicode="&#x309;" horiz-adv-x="696" 
d="M609 2128q158 0 224.5 -44.5t66.5 -150.5q0 -65 -41 -137.5t-113 -132.5h-100q56 52 88.5 114t32.5 115q0 60 -36.5 85.5t-121.5 25.5v125z" />
    <glyph glyph-name="uniF012" unicode="&#xf012;" horiz-adv-x="696" 
d="M412 1580q158 0 224.5 -44.5t66.5 -150.5q0 -65 -41 -137.5t-113 -132.5h-100q56 52 88.5 114t32.5 115q0 60 -36.5 85.5t-121.5 25.5v125z" />
    <glyph glyph-name="uniF010" unicode="&#xf010;" horiz-adv-x="696" 
d="M617 2124q158 0 224.5 -25t66.5 -85q0 -36 -41 -77t-113 -75h-100q56 29 88.5 64t32.5 65q0 34 -36.5 48.5t-121.5 14.5v70z" />
    <glyph glyph-name="uniF02D" unicode="&#xf02d;" horiz-adv-x="1044" 
d="M1056 2054q-32 -59 -83.5 -89t-117.5 -30q-33 0 -69 9.5t-81 29.5q-3 2 -11 5q-80 37 -113 37q-39 0 -64.5 -14t-50.5 -52l-80 36q34 59 83.5 88.5t115.5 29.5q33 0 69 -9.5t81 -29.5v0q88 -42 125 -42q39 0 64 13t52 53z" />
    <glyph glyph-name="tildecomb" unicode="&#x303;" horiz-adv-x="1044" 
d="M878 1652q-32 -81 -83.5 -122.5t-117.5 -41.5q-33 0 -69 13t-81 41l-11 7q-80 50 -113 50q-39 0 -64.5 -19t-50.5 -71l-80 49q34 81 83.5 121.5t115.5 40.5q33 0 69 -13t81 -41v0q88 -57 125 -57q39 0 64 18t52 72z" />
    <glyph glyph-name="uniF02C" unicode="&#xf02c;" horiz-adv-x="959" 
d="M628 -282q0 -52 -37 -89t-90 -37t-90 37t-37 89q0 54 37 90.5t90 36.5t90 -36.5t37 -90.5z" />
    <glyph glyph-name="dotbelowcomb" unicode="&#x323;" horiz-adv-x="959" 
d="M828 -282q0 -52 -37 -89t-90 -37t-90 37t-37 89q0 54 37 90.5t90 36.5t90 -36.5t37 -90.5z" />
    <glyph glyph-name="gravecomb" unicode="&#x300;" horiz-adv-x="737" 
d="M534 1499l-66 -74l-307 260l90 109z" />
    <glyph glyph-name="uni046E" unicode="&#x46e;" horiz-adv-x="737" 
d="M705 1910l-66 -55l-307 194l90 81z" />
    <glyph glyph-name="acutecomb" unicode="&#x301;" horiz-adv-x="899" 
d="M844 1804l90 -109l-307 -260l-66 74z" />
    <glyph glyph-name="uniF006" unicode="&#xf006;" horiz-adv-x="737" 
d="M995 2130l90 -81l-307 -194l-66 55z" />
    <glyph glyph-name="uni047B" unicode="&#x47b;" horiz-adv-x="861" 
d="M588 1822q-28 -83 -100 -122.5t-193 -39.5q-124 0 -199.5 41.5t-95.5 120.5l88 19q19 -49 72 -75t135 -26q81 0 132 25.5t71 75.5z" />
    <glyph glyph-name="uni047C" unicode="&#x47c;" horiz-adv-x="861" 
d="M582 1668l-59 -47l-232 117l-231 -117l-60 47l291 177z" />
    <glyph glyph-name="uni1EA3" unicode="&#x1ea3;" horiz-adv-x="1139" 
d="M821 489q0 153 -78 239.5t-213 86.5q-134 0 -214 -89.5t-80 -242.5q0 -154 79 -247t209 -93q132 0 214.5 96t82.5 250zM1006 0h-185v150q-47 -91 -128 -137t-195 -46q-199 0 -323 144t-124 374q0 226 124.5 366t326.5 140q107 0 187 -42.5t132 -127.5v137h185v-958z
M412 1580q158 0 224.5 -44.5t66.5 -150.5q0 -65 -41 -137.5t-113 -132.5h-100q56 52 88.5 114t32.5 115q0 60 -36.5 85.5t-121.5 25.5v125z" />
    <glyph glyph-name="uni1EA2" unicode="&#x1ea2;" horiz-adv-x="1440" 
d="M969 610l-248 561l-248 -561h496zM1450 0h-213l-197 446h-641l-196 -446h-213l731 1589zM609 2128q158 0 224.5 -44.5t66.5 -150.5q0 -65 -41 -137.5t-113 -132.5h-100q56 52 88.5 114t32.5 115q0 60 -36.5 85.5t-121.5 25.5v125z" />
    <glyph glyph-name="uni1EA1" unicode="&#x1ea1;" horiz-adv-x="1139" 
d="M821 489q0 153 -78 239.5t-213 86.5q-134 0 -214 -89.5t-80 -242.5q0 -154 79 -247t209 -93q132 0 214.5 96t82.5 250zM1006 0h-185v150q-47 -91 -128 -137t-195 -46q-199 0 -323 144t-124 374q0 226 124.5 366t326.5 140q107 0 187 -42.5t132 -127.5v137h185v-958z
M628 -282q0 -52 -37 -89t-90 -37t-90 37t-37 89q0 54 37 90.5t90 36.5t90 -36.5t37 -90.5z" />
    <glyph glyph-name="uni1EA0" unicode="&#x1ea0;" horiz-adv-x="1440" 
d="M969 610l-248 561l-248 -561h496zM1450 0h-213l-197 446h-641l-196 -446h-213l731 1589zM828 -282q0 -52 -37 -89t-90 -37t-90 37t-37 89q0 54 37 90.5t90 36.5t90 -36.5t37 -90.5z" />
    <glyph glyph-name="uni1EB1" unicode="&#x1eb1;" horiz-adv-x="1139" 
d="M821 489q0 153 -78 239.5t-213 86.5q-134 0 -214 -89.5t-80 -242.5q0 -154 79 -247t209 -93q132 0 214.5 96t82.5 250zM1006 0h-185v150q-47 -91 -128 -137t-195 -46q-199 0 -323 144t-124 374q0 226 124.5 366t326.5 140q107 0 187 -42.5t132 -127.5v137h185v-958z
M842 1356q-28 -129 -100 -190.5t-193 -61.5q-124 0 -199.5 64.5t-95.5 187.5l88 30q19 -77 72 -117t135 -40q81 0 132 39.5t71 117.5zM534 1499l-66 -74l-307 260l90 109z" />
    <glyph glyph-name="uni1EB0" unicode="&#x1eb0;" horiz-adv-x="1440" 
d="M969 610l-248 561l-248 -561h496zM1450 0h-213l-197 446h-641l-196 -446h-213l731 1589zM1016 1822q-28 -83 -100 -122.5t-193 -39.5q-124 0 -199.5 41.5t-95.5 120.5l88 19q19 -49 72 -75t135 -26q81 0 132 25.5t71 75.5zM705 1910l-66 -55l-307 194l90 81z" />
    <glyph glyph-name="uni1EB3" unicode="&#x1eb3;" horiz-adv-x="1139" 
d="M821 489q0 153 -78 239.5t-213 86.5q-134 0 -214 -89.5t-80 -242.5q0 -154 79 -247t209 -93q132 0 214.5 96t82.5 250zM1006 0h-185v150q-47 -91 -128 -137t-195 -46q-199 0 -323 144t-124 374q0 226 124.5 366t326.5 140q107 0 187 -42.5t132 -127.5v137h185v-958z
M842 1356q-28 -129 -100 -190.5t-193 -61.5q-124 0 -199.5 64.5t-95.5 187.5l88 30q19 -77 72 -117t135 -40q81 0 132 39.5t71 117.5zM412 1870q158 0 224.5 -44.5t66.5 -150.5q0 -65 -41 -137.5t-113 -132.5h-100q56 52 88.5 114t32.5 115q0 60 -36.5 85.5t-121.5 25.5v125
z" />
    <glyph glyph-name="uni1EB2" unicode="&#x1eb2;" horiz-adv-x="1440" 
d="M969 610l-248 561l-248 -561h496zM1450 0h-213l-197 446h-641l-196 -446h-213l731 1589zM1016 1822q-28 -83 -100 -122.5t-193 -39.5q-124 0 -199.5 41.5t-95.5 120.5l88 19q19 -49 72 -75t135 -26q81 0 132 25.5t71 75.5zM617 2124q158 0 224.5 -25t66.5 -85
q0 -36 -41 -77t-113 -75h-100q56 29 88.5 64t32.5 65q0 34 -36.5 48.5t-121.5 14.5v70z" />
    <glyph glyph-name="uni1EB5" unicode="&#x1eb5;" horiz-adv-x="1139" 
d="M821 489q0 153 -78 239.5t-213 86.5q-134 0 -214 -89.5t-80 -242.5q0 -154 79 -247t209 -93q132 0 214.5 96t82.5 250zM1006 0h-185v150q-47 -91 -128 -137t-195 -46q-199 0 -323 144t-124 374q0 226 124.5 366t326.5 140q107 0 187 -42.5t132 -127.5v137h185v-958z
M842 1356q-28 -129 -100 -190.5t-193 -61.5q-124 0 -199.5 64.5t-95.5 187.5l88 30q19 -77 72 -117t135 -40q81 0 132 39.5t71 117.5zM878 1652q-32 -81 -83.5 -122.5t-117.5 -41.5q-33 0 -69 13t-81 41l-11 7q-80 50 -113 50q-39 0 -64.5 -19t-50.5 -71l-80 49
q34 81 83.5 121.5t115.5 40.5q33 0 69 -13t81 -41v0q88 -57 125 -57q39 0 64 18t52 72z" />
    <glyph glyph-name="uni1EB4" unicode="&#x1eb4;" horiz-adv-x="1440" 
d="M969 610l-248 561l-248 -561h496zM1450 0h-213l-197 446h-641l-196 -446h-213l731 1589zM1016 1822q-28 -83 -100 -122.5t-193 -39.5q-124 0 -199.5 41.5t-95.5 120.5l88 19q19 -49 72 -75t135 -26q81 0 132 25.5t71 75.5zM1056 2054q-32 -59 -83.5 -89t-117.5 -30
q-33 0 -69 9.5t-81 29.5q-3 2 -11 5q-80 37 -113 37q-39 0 -64.5 -14t-50.5 -52l-80 36q34 59 83.5 88.5t115.5 29.5q33 0 69 -9.5t81 -29.5v0q88 -42 125 -42q39 0 64 13t52 53z" />
    <glyph glyph-name="uni1EAF" unicode="&#x1eaf;" horiz-adv-x="1139" 
d="M821 489q0 153 -78 239.5t-213 86.5q-134 0 -214 -89.5t-80 -242.5q0 -154 79 -247t209 -93q132 0 214.5 96t82.5 250zM1006 0h-185v150q-47 -91 -128 -137t-195 -46q-199 0 -323 144t-124 374q0 226 124.5 366t326.5 140q107 0 187 -42.5t132 -127.5v137h185v-958z
M842 1356q-28 -129 -100 -190.5t-193 -61.5q-124 0 -199.5 64.5t-95.5 187.5l88 30q19 -77 72 -117t135 -40q81 0 132 39.5t71 117.5zM844 1804l90 -109l-307 -260l-66 74z" />
    <glyph glyph-name="uni1EAE" unicode="&#x1eae;" horiz-adv-x="1440" 
d="M969 610l-248 561l-248 -561h496zM1450 0h-213l-197 446h-641l-196 -446h-213l731 1589zM1016 1822q-28 -83 -100 -122.5t-193 -39.5q-124 0 -199.5 41.5t-95.5 120.5l88 19q19 -49 72 -75t135 -26q81 0 132 25.5t71 75.5zM995 2130l90 -81l-307 -194l-66 55z" />
    <glyph glyph-name="uni1EB7" unicode="&#x1eb7;" horiz-adv-x="1139" 
d="M821 489q0 153 -78 239.5t-213 86.5q-134 0 -214 -89.5t-80 -242.5q0 -154 79 -247t209 -93q132 0 214.5 96t82.5 250zM1006 0h-185v150q-47 -91 -128 -137t-195 -46q-199 0 -323 144t-124 374q0 226 124.5 366t326.5 140q107 0 187 -42.5t132 -127.5v137h185v-958z
M842 1356q-28 -129 -100 -190.5t-193 -61.5q-124 0 -199.5 64.5t-95.5 187.5l88 30q19 -77 72 -117t135 -40q81 0 132 39.5t71 117.5zM628 -282q0 -52 -37 -89t-90 -37t-90 37t-37 89q0 54 37 90.5t90 36.5t90 -36.5t37 -90.5z" />
    <glyph glyph-name="uni1EB6" unicode="&#x1eb6;" horiz-adv-x="1440" 
d="M969 610l-248 561l-248 -561h496zM1450 0h-213l-197 446h-641l-196 -446h-213l731 1589zM1016 1942q-28 -129 -100 -190.5t-193 -61.5q-124 0 -199.5 64.5t-95.5 187.5l88 30q19 -77 72 -117t135 -40q81 0 132 39.5t71 117.5zM828 -282q0 -52 -37 -89t-90 -37t-90 37
t-37 89q0 54 37 90.5t90 36.5t90 -36.5t37 -90.5z" />
    <glyph glyph-name="uni1EA7" unicode="&#x1ea7;" horiz-adv-x="1139" 
d="M821 489q0 153 -78 239.5t-213 86.5q-134 0 -214 -89.5t-80 -242.5q0 -154 79 -247t209 -93q132 0 214.5 96t82.5 250zM1006 0h-185v150q-47 -91 -128 -137t-195 -46q-199 0 -323 144t-124 374q0 226 124.5 366t326.5 140q107 0 187 -42.5t132 -127.5v137h185v-958z
M838 1151l-59 -76l-232 191l-231 -191l-60 76l291 289zM534 1499l-66 -74l-307 260l90 109z" />
    <glyph glyph-name="uni1EA6" unicode="&#x1ea6;" horiz-adv-x="1440" 
d="M969 610l-248 561l-248 -561h496zM1450 0h-213l-197 446h-641l-196 -446h-213l731 1589zM1012 1668l-59 -47l-232 117l-231 -117l-60 47l291 177zM705 1910l-66 -55l-307 194l90 81z" />
    <glyph glyph-name="uni1EA9" unicode="&#x1ea9;" horiz-adv-x="1139" 
d="M821 489q0 153 -78 239.5t-213 86.5q-134 0 -214 -89.5t-80 -242.5q0 -154 79 -247t209 -93q132 0 214.5 96t82.5 250zM1006 0h-185v150q-47 -91 -128 -137t-195 -46q-199 0 -323 144t-124 374q0 226 124.5 366t326.5 140q107 0 187 -42.5t132 -127.5v137h185v-958z
M838 1151l-59 -76l-232 191l-231 -191l-60 76l291 289zM412 1980q158 0 224.5 -44.5t66.5 -150.5q0 -65 -41 -137.5t-113 -132.5h-100q56 52 88.5 114t32.5 115q0 60 -36.5 85.5t-121.5 25.5v125z" />
    <glyph glyph-name="uni1EA8" unicode="&#x1ea8;" horiz-adv-x="1440" 
d="M969 610l-248 561l-248 -561h496zM1450 0h-213l-197 446h-641l-196 -446h-213l731 1589zM1012 1668l-59 -47l-232 117l-231 -117l-60 47l291 177zM757 2124q158 0 224.5 -25t66.5 -85q0 -36 -41 -77t-113 -75h-100q56 29 88.5 64t32.5 65q0 34 -36.5 48.5t-121.5 14.5v70
z" />
    <glyph glyph-name="uni1EAB" unicode="&#x1eab;" horiz-adv-x="1139" 
d="M821 489q0 153 -78 239.5t-213 86.5q-134 0 -214 -89.5t-80 -242.5q0 -154 79 -247t209 -93q132 0 214.5 96t82.5 250zM1006 0h-185v150q-47 -91 -128 -137t-195 -46q-199 0 -323 144t-124 374q0 226 124.5 366t326.5 140q107 0 187 -42.5t132 -127.5v137h185v-958z
M838 1151l-59 -76l-232 191l-231 -191l-60 76l291 289zM878 1652q-32 -81 -83.5 -122.5t-117.5 -41.5q-33 0 -69 13t-81 41l-11 7q-80 50 -113 50q-39 0 -64.5 -19t-50.5 -71l-80 49q34 81 83.5 121.5t115.5 40.5q33 0 69 -13t81 -41v0q88 -57 125 -57q39 0 64 18t52 72z
" />
    <glyph glyph-name="uni1EAA" unicode="&#x1eaa;" horiz-adv-x="1440" 
d="M969 610l-248 561l-248 -561h496zM1450 0h-213l-197 446h-641l-196 -446h-213l731 1589zM1012 1668l-59 -47l-232 117l-231 -117l-60 47l291 177zM1056 2054q-32 -59 -83.5 -89t-117.5 -30q-33 0 -69 9.5t-81 29.5q-3 2 -11 5q-80 37 -113 37q-39 0 -64.5 -14t-50.5 -52
l-80 36q34 59 83.5 88.5t115.5 29.5q33 0 69 -9.5t81 -29.5v0q88 -42 125 -42q39 0 64 13t52 53z" />
    <glyph glyph-name="uni1EA5" unicode="&#x1ea5;" horiz-adv-x="1139" 
d="M821 489q0 153 -78 239.5t-213 86.5q-134 0 -214 -89.5t-80 -242.5q0 -154 79 -247t209 -93q132 0 214.5 96t82.5 250zM1006 0h-185v150q-47 -91 -128 -137t-195 -46q-199 0 -323 144t-124 374q0 226 124.5 366t326.5 140q107 0 187 -42.5t132 -127.5v137h185v-958z
M838 1151l-59 -76l-232 191l-231 -191l-60 76l291 289zM844 1804l90 -109l-307 -260l-66 74z" />
    <glyph glyph-name="uni1EA4" unicode="&#x1ea4;" horiz-adv-x="1440" 
d="M969 610l-248 561l-248 -561h496zM1450 0h-213l-197 446h-641l-196 -446h-213l731 1589zM1012 1668l-59 -47l-232 117l-231 -117l-60 47l291 177zM995 2130l90 -81l-307 -194l-66 55z" />
    <glyph glyph-name="uni1EAD" unicode="&#x1ead;" horiz-adv-x="1139" 
d="M821 489q0 153 -78 239.5t-213 86.5q-134 0 -214 -89.5t-80 -242.5q0 -154 79 -247t209 -93q132 0 214.5 96t82.5 250zM1006 0h-185v150q-47 -91 -128 -137t-195 -46q-199 0 -323 144t-124 374q0 226 124.5 366t326.5 140q107 0 187 -42.5t132 -127.5v137h185v-958z
M838 1151l-59 -76l-232 191l-231 -191l-60 76l291 289zM628 -282q0 -52 -37 -89t-90 -37t-90 37t-37 89q0 54 37 90.5t90 36.5t90 -36.5t37 -90.5z" />
    <glyph glyph-name="uni1EAC" unicode="&#x1eac;" horiz-adv-x="1440" 
d="M969 610l-248 561l-248 -561h496zM1450 0h-213l-197 446h-641l-196 -446h-213l731 1589zM1012 1737l-59 -76l-232 191l-231 -191l-60 76l291 289zM828 -282q0 -52 -37 -89t-90 -37t-90 37t-37 89q0 54 37 90.5t90 36.5t90 -36.5t37 -90.5z" />
    <glyph glyph-name="uni1EBB" unicode="&#x1ebb;" horiz-adv-x="999" 
d="M776 571q-12 119 -81 181.5t-187 62.5q-113 0 -186.5 -64.5t-88.5 -179.5h543zM958 444h-729q11 -147 83.5 -224t201.5 -77q98 0 162 38t104 118l154 -82q-66 -126 -170 -188t-252 -62q-215 0 -341 141t-126 377q0 219 132.5 362.5t330.5 143.5q202 0 326 -131.5
t124 -347.5v-68zM412 1580q158 0 224.5 -44.5t66.5 -150.5q0 -65 -41 -137.5t-113 -132.5h-100q56 52 88.5 114t32.5 115q0 60 -36.5 85.5t-121.5 25.5v125z" />
    <glyph glyph-name="uni1EBA" unicode="&#x1eba;" horiz-adv-x="1067" 
d="M954 0h-811v1544h811v-180h-618v-451h618v-180h-618v-553h618v-180zM439 2128q158 0 224.5 -44.5t66.5 -150.5q0 -65 -41 -137.5t-113 -132.5h-100q56 52 88.5 114t32.5 115q0 60 -36.5 85.5t-121.5 25.5v125z" />
    <glyph glyph-name="uni1EBD" unicode="&#x1ebd;" horiz-adv-x="999" 
d="M776 571q-12 119 -81 181.5t-187 62.5q-113 0 -186.5 -64.5t-88.5 -179.5h543zM958 444h-729q11 -147 83.5 -224t201.5 -77q98 0 162 38t104 118l154 -82q-66 -126 -170 -188t-252 -62q-215 0 -341 141t-126 377q0 219 132.5 362.5t330.5 143.5q202 0 326 -131.5
t124 -347.5v-68zM858 1282q-32 -81 -83.5 -122.5t-117.5 -41.5q-33 0 -69 13t-81 41l-11 7q-80 50 -113 50q-39 0 -64.5 -19t-50.5 -71l-80 49q34 81 83.5 121.5t115.5 40.5q33 0 69 -13t81 -41v0q88 -57 125 -57q39 0 64 18t52 72z" />
    <glyph glyph-name="uni1EBC" unicode="&#x1ebc;" horiz-adv-x="1067" 
d="M954 0h-811v1544h811v-180h-618v-451h618v-180h-618v-553h618v-180zM888 1842q-32 -81 -83.5 -122.5t-117.5 -41.5q-33 0 -69 13t-81 41l-11 7q-80 50 -113 50q-39 0 -64.5 -19t-50.5 -71l-80 49q34 81 83.5 121.5t115.5 40.5q33 0 69 -13t81 -41v0q88 -57 125 -57
q39 0 64 18t52 72z" />
    <glyph glyph-name="uni1EB9" unicode="&#x1eb9;" horiz-adv-x="999" 
d="M776 571q-12 119 -81 181.5t-187 62.5q-113 0 -186.5 -64.5t-88.5 -179.5h543zM958 444h-729q11 -147 83.5 -224t201.5 -77q98 0 162 38t104 118l154 -82q-66 -126 -170 -188t-252 -62q-215 0 -341 141t-126 377q0 219 132.5 362.5t330.5 143.5q202 0 326 -131.5
t124 -347.5v-68zM628 -282q0 -52 -37 -89t-90 -37t-90 37t-37 89q0 54 37 90.5t90 36.5t90 -36.5t37 -90.5z" />
    <glyph glyph-name="uni1EB8" unicode="&#x1eb8;" horiz-adv-x="1067" 
d="M954 0h-811v1544h811v-180h-618v-451h618v-180h-618v-553h618v-180zM688 -282q0 -52 -37 -89t-90 -37t-90 37t-37 89q0 54 37 90.5t90 36.5t90 -36.5t37 -90.5z" />
    <glyph glyph-name="uni1EC1" unicode="&#x1ec1;" horiz-adv-x="999" 
d="M776 571q-12 119 -81 181.5t-187 62.5q-113 0 -186.5 -64.5t-88.5 -179.5h543zM958 444h-729q11 -147 83.5 -224t201.5 -77q98 0 162 38t104 118l154 -82q-66 -126 -170 -188t-252 -62q-215 0 -341 141t-126 377q0 219 132.5 362.5t330.5 143.5q202 0 326 -131.5
t124 -347.5v-68zM790 1151l-59 -76l-232 191l-231 -191l-60 76l291 289zM534 1499l-66 -74l-307 260l90 109z" />
    <glyph glyph-name="uni1EC0" unicode="&#x1ec0;" horiz-adv-x="1067" 
d="M954 0h-811v1544h811v-180h-618v-451h618v-180h-618v-553h618v-180zM842 1668l-59 -47l-232 117l-231 -117l-60 47l291 177zM545 1910l-66 -55l-307 194l90 81z" />
    <glyph glyph-name="uni1EC3" unicode="&#x1ec3;" horiz-adv-x="999" 
d="M776 571q-12 119 -81 181.5t-187 62.5q-113 0 -186.5 -64.5t-88.5 -179.5h543zM958 444h-729q11 -147 83.5 -224t201.5 -77q98 0 162 38t104 118l154 -82q-66 -126 -170 -188t-252 -62q-215 0 -341 141t-126 377q0 219 132.5 362.5t330.5 143.5q202 0 326 -131.5
t124 -347.5v-68zM790 1151l-59 -76l-232 191l-231 -191l-60 76l291 289zM412 2000q158 0 224.5 -44.5t66.5 -150.5q0 -65 -41 -137.5t-113 -132.5h-100q56 52 88.5 114t32.5 115q0 60 -36.5 85.5t-121.5 25.5v125z" />
    <glyph glyph-name="uni1EC2" unicode="&#x1ec2;" horiz-adv-x="1067" 
d="M954 0h-811v1544h811v-180h-618v-451h618v-180h-618v-553h618v-180zM852 1668l-59 -47l-232 117l-231 -117l-60 47l291 177zM617 2124q158 0 224.5 -25t66.5 -85q0 -36 -41 -77t-113 -75h-100q56 29 88.5 64t32.5 65q0 34 -36.5 48.5t-121.5 14.5v70z" />
    <glyph glyph-name="uni1EC5" unicode="&#x1ec5;" horiz-adv-x="999" 
d="M776 571q-12 119 -81 181.5t-187 62.5q-113 0 -186.5 -64.5t-88.5 -179.5h543zM958 444h-729q11 -147 83.5 -224t201.5 -77q98 0 162 38t104 118l154 -82q-66 -126 -170 -188t-252 -62q-215 0 -341 141t-126 377q0 219 132.5 362.5t330.5 143.5q202 0 326 -131.5
t124 -347.5v-68zM790 1151l-59 -76l-232 191l-231 -191l-60 76l291 289zM878 1652q-32 -81 -83.5 -122.5t-117.5 -41.5q-33 0 -69 13t-81 41l-11 7q-80 50 -113 50q-39 0 -64.5 -19t-50.5 -71l-80 49q34 81 83.5 121.5t115.5 40.5q33 0 69 -13t81 -41v0q88 -57 125 -57
q39 0 64 18t52 72z" />
    <glyph glyph-name="uni1EC4" unicode="&#x1ec4;" horiz-adv-x="1067" 
d="M954 0h-811v1544h811v-180h-618v-451h618v-180h-618v-553h618v-180zM852 1668l-59 -47l-232 117l-231 -117l-60 47l291 177zM896 2054q-32 -59 -83.5 -89t-117.5 -30q-33 0 -69 9.5t-81 29.5q-3 2 -11 5q-80 37 -113 37q-39 0 -64.5 -14t-50.5 -52l-80 36
q34 59 83.5 88.5t115.5 29.5q33 0 69 -9.5t81 -29.5v0q88 -42 125 -42q39 0 64 13t52 53z" />
    <glyph glyph-name="uni1EBF" unicode="&#x1ebf;" horiz-adv-x="999" 
d="M776 571q-12 119 -81 181.5t-187 62.5q-113 0 -186.5 -64.5t-88.5 -179.5h543zM958 444h-729q11 -147 83.5 -224t201.5 -77q98 0 162 38t104 118l154 -82q-66 -126 -170 -188t-252 -62q-215 0 -341 141t-126 377q0 219 132.5 362.5t330.5 143.5q202 0 326 -131.5
t124 -347.5v-68zM790 1151l-59 -76l-232 191l-231 -191l-60 76l291 289zM844 1804l90 -109l-307 -260l-66 74z" />
    <glyph glyph-name="uni1EBE" unicode="&#x1ebe;" horiz-adv-x="1067" 
d="M954 0h-811v1544h811v-180h-618v-451h618v-180h-618v-553h618v-180zM852 1668l-59 -47l-232 117l-231 -117l-60 47l291 177zM865 2130l90 -81l-307 -194l-66 55z" />
    <glyph glyph-name="uni1EC7" unicode="&#x1ec7;" horiz-adv-x="999" 
d="M776 571q-12 119 -81 181.5t-187 62.5q-113 0 -186.5 -64.5t-88.5 -179.5h543zM958 444h-729q11 -147 83.5 -224t201.5 -77q98 0 162 38t104 118l154 -82q-66 -126 -170 -188t-252 -62q-215 0 -341 141t-126 377q0 219 132.5 362.5t330.5 143.5q202 0 326 -131.5
t124 -347.5v-68zM790 1151l-59 -76l-232 191l-231 -191l-60 76l291 289zM628 -282q0 -52 -37 -89t-90 -37t-90 37t-37 89q0 54 37 90.5t90 36.5t90 -36.5t37 -90.5z" />
    <glyph glyph-name="uni1EC6" unicode="&#x1ec6;" horiz-adv-x="1067" 
d="M954 0h-811v1544h811v-180h-618v-451h618v-180h-618v-553h618v-180zM838 1737l-59 -76l-232 191l-231 -191l-60 76l291 289zM668 -282q0 -52 -37 -89t-90 -37t-90 37t-37 89q0 54 37 90.5t90 36.5t90 -36.5t37 -90.5z" />
    <glyph glyph-name="uniF031" unicode="&#xf031;" horiz-adv-x="520" 
d="M338 0h-184v958h184v-958z" />
    <glyph glyph-name="uni1EC9" unicode="&#x1ec9;" horiz-adv-x="520" 
d="M360 0h-184v958h184v-958zM154 1580q158 0 224.5 -44.5t66.5 -150.5q0 -65 -41 -137.5t-113 -132.5h-100q56 52 88.5 114t32.5 115q0 60 -36.5 85.5t-121.5 25.5v125z" />
    <glyph glyph-name="uni1EC8" unicode="&#x1ec8;" horiz-adv-x="475" 
d="M356 0h-193v1544h193v-1544zM141 2128q158 0 224.5 -44.5t66.5 -150.5q0 -65 -41 -137.5t-113 -132.5h-100q56 52 88.5 114t32.5 115q0 60 -36.5 85.5t-121.5 25.5v125z" />
    <glyph glyph-name="uni1ECB" unicode="&#x1ecb;" horiz-adv-x="520" 
d="M386 0h-184v958h184v-958zM415 1346q0 -51 -35 -86t-86 -35t-86 35t-35 86q0 50 35 85t86 35t86 -35t35 -85zM422 -282q0 -52 -37 -89t-90 -37t-90 37t-37 89q0 54 37 90.5t90 36.5t90 -36.5t37 -90.5z" />
    <glyph glyph-name="uni1ECA" unicode="&#x1eca;" horiz-adv-x="475" 
d="M361 0h-193v1544h193v-1544zM395 -282q0 -52 -37 -89t-90 -37t-90 37t-37 89q0 54 37 90.5t90 36.5t90 -36.5t37 -90.5z" />
    <glyph glyph-name="uni1ECF" unicode="&#x1ecf;" horiz-adv-x="1106" 
d="M877 483q0 145 -92.5 238.5t-231.5 93.5q-141 0 -232.5 -93t-91.5 -239q0 -148 92.5 -244t231.5 -96q141 0 232.5 96t91.5 244zM1061 483q0 -216 -147.5 -366t-362.5 -150q-214 0 -360 149.5t-146 366.5t145 362.5t361 145.5q217 0 363.5 -146.5t146.5 -361.5zM452 1580
q158 0 224.5 -44.5t66.5 -150.5q0 -65 -41 -137.5t-113 -132.5h-100q56 52 88.5 114t32.5 115q0 60 -36.5 85.5t-121.5 25.5v125z" />
    <glyph glyph-name="uni1ECE" unicode="&#x1ece;" horiz-adv-x="1696" 
d="M1442 772q0 262 -172 443.5t-422 181.5q-270 0 -430 -183.5t-160 -441.5q0 -262 170 -443.5t420 -181.5t422 182t172 443zM1634 772q0 -338 -228.5 -571.5t-557.5 -233.5q-327 0 -557 234.5t-230 570.5q0 341 227.5 573t559.5 232t559 -232t227 -573zM739 2128
q158 0 224.5 -44.5t66.5 -150.5q0 -65 -41 -137.5t-113 -132.5h-100q56 52 88.5 114t32.5 115q0 60 -36.5 85.5t-121.5 25.5v125z" />
    <glyph glyph-name="uni1ECD" unicode="&#x1ecd;" horiz-adv-x="1106" 
d="M877 483q0 145 -92.5 238.5t-231.5 93.5q-141 0 -232.5 -93t-91.5 -239q0 -148 92.5 -244t231.5 -96q141 0 232.5 96t91.5 244zM1061 483q0 -216 -147.5 -366t-362.5 -150q-214 0 -360 149.5t-146 366.5t145 362.5t361 145.5q217 0 363.5 -146.5t146.5 -361.5zM678 -282
q0 -52 -37 -89t-90 -37t-90 37t-37 89q0 54 37 90.5t90 36.5t90 -36.5t37 -90.5z" />
    <glyph glyph-name="uni1ECC" unicode="&#x1ecc;" horiz-adv-x="1696" 
d="M1442 772q0 262 -172 443.5t-422 181.5q-270 0 -430 -183.5t-160 -441.5q0 -262 170 -443.5t420 -181.5t422 182t172 443zM1634 772q0 -338 -228.5 -571.5t-557.5 -233.5q-327 0 -557 234.5t-230 570.5q0 341 227.5 573t559.5 232t559 -232t227 -573zM978 -282
q0 -52 -37 -89t-90 -37t-90 37t-37 89q0 54 37 90.5t90 36.5t90 -36.5t37 -90.5z" />
    <glyph glyph-name="uni1ED3" unicode="&#x1ed3;" horiz-adv-x="1106" 
d="M877 483q0 145 -92.5 238.5t-231.5 93.5q-141 0 -232.5 -93t-91.5 -239q0 -148 92.5 -244t231.5 -96q141 0 232.5 96t91.5 244zM1061 483q0 -216 -147.5 -366t-362.5 -150q-214 0 -360 149.5t-146 366.5t145 362.5t361 145.5q217 0 363.5 -146.5t146.5 -361.5zM844 1151
l-59 -76l-232 191l-231 -191l-60 76l291 289zM534 1499l-66 -74l-307 260l90 109z" />
    <glyph glyph-name="uni1ED2" unicode="&#x1ed2;" horiz-adv-x="1696" 
d="M1442 772q0 262 -172 443.5t-422 181.5q-270 0 -430 -183.5t-160 -441.5q0 -262 170 -443.5t420 -181.5t422 182t172 443zM1634 772q0 -338 -228.5 -571.5t-557.5 -233.5q-327 0 -557 234.5t-230 570.5q0 341 227.5 573t559.5 232t559 -232t227 -573zM1142 1668l-59 -47
l-232 117l-231 -117l-60 47l291 177zM805 1910l-66 -55l-307 194l90 81z" />
    <glyph glyph-name="uni1ED5" unicode="&#x1ed5;" horiz-adv-x="1106" 
d="M877 483q0 145 -92.5 238.5t-231.5 93.5q-141 0 -232.5 -93t-91.5 -239q0 -148 92.5 -244t231.5 -96q141 0 232.5 96t91.5 244zM1061 483q0 -216 -147.5 -366t-362.5 -150q-214 0 -360 149.5t-146 366.5t145 362.5t361 145.5q217 0 363.5 -146.5t146.5 -361.5zM844 1151
l-59 -76l-232 191l-231 -191l-60 76l291 289zM432 1990q158 0 224.5 -44.5t66.5 -150.5q0 -65 -41 -137.5t-113 -132.5h-100q56 52 88.5 114t32.5 115q0 60 -36.5 85.5t-121.5 25.5v125z" />
    <glyph glyph-name="uni1ED4" unicode="&#x1ed4;" horiz-adv-x="1696" 
d="M1442 772q0 262 -172 443.5t-422 181.5q-270 0 -430 -183.5t-160 -441.5q0 -262 170 -443.5t420 -181.5t422 182t172 443zM1634 772q0 -338 -228.5 -571.5t-557.5 -233.5q-327 0 -557 234.5t-230 570.5q0 341 227.5 573t559.5 232t559 -232t227 -573zM1152 1668l-59 -47
l-232 117l-231 -117l-60 47l291 177zM877 2124q158 0 224.5 -25t66.5 -85q0 -36 -41 -77t-113 -75h-100q56 29 88.5 64t32.5 65q0 34 -36.5 48.5t-121.5 14.5v70z" />
    <glyph glyph-name="uni1ED7" unicode="&#x1ed7;" horiz-adv-x="1106" 
d="M877 483q0 145 -92.5 238.5t-231.5 93.5q-141 0 -232.5 -93t-91.5 -239q0 -148 92.5 -244t231.5 -96q141 0 232.5 96t91.5 244zM1061 483q0 -216 -147.5 -366t-362.5 -150q-214 0 -360 149.5t-146 366.5t145 362.5t361 145.5q217 0 363.5 -146.5t146.5 -361.5zM844 1151
l-59 -76l-232 191l-231 -191l-60 76l291 289zM878 1652q-32 -81 -83.5 -122.5t-117.5 -41.5q-33 0 -69 13t-81 41l-11 7q-80 50 -113 50q-39 0 -64.5 -19t-50.5 -71l-80 49q34 81 83.5 121.5t115.5 40.5q33 0 69 -13t81 -41v0q88 -57 125 -57q39 0 64 18t52 72z" />
    <glyph glyph-name="uni1ED6" unicode="&#x1ed6;" horiz-adv-x="1696" 
d="M1442 772q0 262 -172 443.5t-422 181.5q-270 0 -430 -183.5t-160 -441.5q0 -262 170 -443.5t420 -181.5t422 182t172 443zM1634 772q0 -338 -228.5 -571.5t-557.5 -233.5q-327 0 -557 234.5t-230 570.5q0 341 227.5 573t559.5 232t559 -232t227 -573zM1132 1668l-59 -47
l-232 117l-231 -117l-60 47l291 177zM1166 2054q-32 -59 -83.5 -89t-117.5 -30q-33 0 -69 9.5t-81 29.5q-3 2 -11 5q-80 37 -113 37q-39 0 -64.5 -14t-50.5 -52l-80 36q34 59 83.5 88.5t115.5 29.5q33 0 69 -9.5t81 -29.5v0q88 -42 125 -42q39 0 64 13t52 53z" />
    <glyph glyph-name="uni1ED1" unicode="&#x1ed1;" horiz-adv-x="1106" 
d="M877 483q0 145 -92.5 238.5t-231.5 93.5q-141 0 -232.5 -93t-91.5 -239q0 -148 92.5 -244t231.5 -96q141 0 232.5 96t91.5 244zM1061 483q0 -216 -147.5 -366t-362.5 -150q-214 0 -360 149.5t-146 366.5t145 362.5t361 145.5q217 0 363.5 -146.5t146.5 -361.5zM844 1151
l-59 -76l-232 191l-231 -191l-60 76l291 289zM844 1804l90 -109l-307 -260l-66 74z" />
    <glyph glyph-name="uni1ED0" unicode="&#x1ed0;" horiz-adv-x="1696" 
d="M1145 2130l90 -81l-307 -194l-66 55zM1442 772q0 262 -172 443.5t-422 181.5q-270 0 -430 -183.5t-160 -441.5q0 -262 170 -443.5t420 -181.5t422 182t172 443zM1634 772q0 -338 -228.5 -571.5t-557.5 -233.5q-327 0 -557 234.5t-230 570.5q0 341 227.5 573t559.5 232
t559 -232t227 -573zM1142 1668l-59 -47l-232 117l-231 -117l-60 47l291 177z" />
    <glyph glyph-name="uni1ED9" unicode="&#x1ed9;" horiz-adv-x="1106" 
d="M877 483q0 145 -92.5 238.5t-231.5 93.5q-141 0 -232.5 -93t-91.5 -239q0 -148 92.5 -244t231.5 -96q141 0 232.5 96t91.5 244zM1061 483q0 -216 -147.5 -366t-362.5 -150q-214 0 -360 149.5t-146 366.5t145 362.5t361 145.5q217 0 363.5 -146.5t146.5 -361.5zM844 1151
l-59 -76l-232 191l-231 -191l-60 76l291 289zM658 -282q0 -52 -37 -89t-90 -37t-90 37t-37 89q0 54 37 90.5t90 36.5t90 -36.5t37 -90.5z" />
    <glyph glyph-name="uni1ED8" unicode="&#x1ed8;" horiz-adv-x="1696" 
d="M1442 772q0 262 -172 443.5t-422 181.5q-270 0 -430 -183.5t-160 -441.5q0 -262 170 -443.5t420 -181.5t422 182t172 443zM1634 772q0 -338 -228.5 -571.5t-557.5 -233.5q-327 0 -557 234.5t-230 570.5q0 341 227.5 573t559.5 232t559 -232t227 -573zM1139 1737l-59 -76
l-232 191l-231 -191l-60 76l291 289zM978 -282q0 -52 -37 -89t-90 -37t-90 37t-37 89q0 54 37 90.5t90 36.5t90 -36.5t37 -90.5z" />
    <glyph glyph-name="ohorn" unicode="&#x1a1;" horiz-adv-x="1106" 
d="M877 483q0 145 -92.5 238.5t-231.5 93.5q-141 0 -232.5 -93t-91.5 -239q0 -148 92.5 -244t231.5 -96q141 0 232.5 96t91.5 244zM959 794q102 -132 102 -311q0 -216 -147.5 -366t-362.5 -150q-214 0 -360 149.5t-146 366.5t145 362.5t361 145.5q201 0 341 -125l108 119
l80 -81z" />
    <glyph glyph-name="Ohorn" unicode="&#x1a0;" horiz-adv-x="1696" 
d="M1442 772q0 262 -172 443.5t-422 181.5q-270 0 -430 -183.5t-160 -441.5q0 -262 170 -443.5t420 -181.5t422 182t172 443zM1455 1292q179 -217 179 -520q0 -338 -228.5 -571.5t-557.5 -233.5q-327 0 -557 234.5t-230 570.5q0 341 227.5 573t559.5 232q309 0 528 -201
l155 172l98 -98z" />
    <glyph glyph-name="uni1EDD" unicode="&#x1edd;" horiz-adv-x="1106" 
d="M877 483q0 145 -92.5 238.5t-231.5 93.5q-141 0 -232.5 -93t-91.5 -239q0 -148 92.5 -244t231.5 -96q141 0 232.5 96t91.5 244zM959 794q102 -132 102 -311q0 -216 -147.5 -366t-362.5 -150q-214 0 -360 149.5t-146 366.5t145 362.5t361 145.5q201 0 341 -125l108 119
l80 -81zM654 1149l-66 -74l-307 260l90 109z" />
    <glyph glyph-name="uni1EDC" unicode="&#x1edc;" horiz-adv-x="1696" 
d="M1442 772q0 262 -172 443.5t-422 181.5q-270 0 -430 -183.5t-160 -441.5q0 -262 170 -443.5t420 -181.5t422 182t172 443zM1455 1292q179 -217 179 -520q0 -338 -228.5 -571.5t-557.5 -233.5q-327 0 -557 234.5t-230 570.5q0 341 227.5 573t559.5 232q309 0 528 -201
l155 172l98 -98zM975 1767l-66 -74l-307 260l90 109z" />
    <glyph glyph-name="uni1EDF" unicode="&#x1edf;" horiz-adv-x="1106" 
d="M877 483q0 145 -92.5 238.5t-231.5 93.5q-141 0 -232.5 -93t-91.5 -239q0 -148 92.5 -244t231.5 -96q141 0 232.5 96t91.5 244zM959 794q102 -132 102 -311q0 -216 -147.5 -366t-362.5 -150q-214 0 -360 149.5t-146 366.5t145 362.5t361 145.5q201 0 341 -125l108 119
l80 -81zM422 1580q158 0 224.5 -44.5t66.5 -150.5q0 -65 -41 -137.5t-113 -132.5h-100q56 52 88.5 114t32.5 115q0 60 -36.5 85.5t-121.5 25.5v125z" />
    <glyph glyph-name="uni1EDE" unicode="&#x1ede;" horiz-adv-x="1696" 
d="M1442 772q0 262 -172 443.5t-422 181.5q-270 0 -430 -183.5t-160 -441.5q0 -262 170 -443.5t420 -181.5t422 182t172 443zM1455 1292q179 -217 179 -520q0 -338 -228.5 -571.5t-557.5 -233.5q-327 0 -557 234.5t-230 570.5q0 341 227.5 573t559.5 232q309 0 528 -201
l155 172l98 -98zM749 2128q158 0 224.5 -44.5t66.5 -150.5q0 -65 -41 -137.5t-113 -132.5h-100q56 52 88.5 114t32.5 115q0 60 -36.5 85.5t-121.5 25.5v125z" />
    <glyph glyph-name="uni1EE1" unicode="&#x1ee1;" horiz-adv-x="1106" 
d="M877 483q0 145 -92.5 238.5t-231.5 93.5q-141 0 -232.5 -93t-91.5 -239q0 -148 92.5 -244t231.5 -96q141 0 232.5 96t91.5 244zM959 794q102 -132 102 -311q0 -216 -147.5 -366t-362.5 -150q-214 0 -360 149.5t-146 366.5t145 362.5t361 145.5q201 0 341 -125l108 119
l80 -81zM878 1282q-32 -81 -83.5 -122.5t-117.5 -41.5q-33 0 -69 13t-81 41l-11 7q-80 50 -113 50q-39 0 -64.5 -19t-50.5 -71l-80 49q34 81 83.5 121.5t115.5 40.5q33 0 69 -13t81 -41v0q88 -57 125 -57q39 0 64 18t52 72z" />
    <glyph glyph-name="uni1EE0" unicode="&#x1ee0;" horiz-adv-x="1696" 
d="M1442 772q0 262 -172 443.5t-422 181.5q-270 0 -430 -183.5t-160 -441.5q0 -262 170 -443.5t420 -181.5t422 182t172 443zM1455 1292q179 -217 179 -520q0 -338 -228.5 -571.5t-557.5 -233.5q-327 0 -557 234.5t-230 570.5q0 341 227.5 573t559.5 232q309 0 528 -201
l155 172l98 -98zM1163 1875q-32 -81 -83.5 -122.5t-117.5 -41.5q-33 0 -69 13t-81 41l-11 7q-80 50 -113 50q-39 0 -64.5 -19t-50.5 -71l-80 49q34 81 83.5 121.5t115.5 40.5q33 0 69 -13t81 -41v0q88 -57 125 -57q39 0 64 18t52 72z" />
    <glyph glyph-name="uni1EDB" unicode="&#x1edb;" horiz-adv-x="1106" 
d="M877 483q0 145 -92.5 238.5t-231.5 93.5q-141 0 -232.5 -93t-91.5 -239q0 -148 92.5 -244t231.5 -96q141 0 232.5 96t91.5 244zM959 794q102 -132 102 -311q0 -216 -147.5 -366t-362.5 -150q-214 0 -360 149.5t-146 366.5t145 362.5t361 145.5q201 0 341 -125l108 119
l80 -81zM826 1335l-307 -260l-65 74l282 295z" />
    <glyph glyph-name="uni1EDA" unicode="&#x1eda;" horiz-adv-x="1696" 
d="M1442 772q0 262 -172 443.5t-422 181.5q-270 0 -430 -183.5t-160 -441.5q0 -262 170 -443.5t420 -181.5t422 182t172 443zM1455 1292q179 -217 179 -520q0 -338 -228.5 -571.5t-557.5 -233.5q-327 0 -557 234.5t-230 570.5q0 341 227.5 573t559.5 232q309 0 528 -201
l155 172l98 -98zM991 2047l90 -109l-307 -260l-66 74z" />
    <glyph glyph-name="uni1EE3" unicode="&#x1ee3;" horiz-adv-x="1106" 
d="M877 483q0 145 -92.5 238.5t-231.5 93.5q-141 0 -232.5 -93t-91.5 -239q0 -148 92.5 -244t231.5 -96q141 0 232.5 96t91.5 244zM959 794q102 -132 102 -311q0 -216 -147.5 -366t-362.5 -150q-214 0 -360 149.5t-146 366.5t145 362.5t361 145.5q201 0 341 -125l108 119
l80 -81zM668 -282q0 -52 -37 -89t-90 -37t-90 37t-37 89q0 54 37 90.5t90 36.5t90 -36.5t37 -90.5z" />
    <glyph glyph-name="uni1EE2" unicode="&#x1ee2;" horiz-adv-x="1696" 
d="M1442 772q0 262 -172 443.5t-422 181.5q-270 0 -430 -183.5t-160 -441.5q0 -262 170 -443.5t420 -181.5t422 182t172 443zM1455 1292q179 -217 179 -520q0 -338 -228.5 -571.5t-557.5 -233.5q-327 0 -557 234.5t-230 570.5q0 341 227.5 573t559.5 232q309 0 528 -201
l155 172l98 -98zM978 -282q0 -52 -37 -89t-90 -37t-90 37t-37 89q0 54 37 90.5t90 36.5t90 -36.5t37 -90.5z" />
    <glyph glyph-name="uni1EE7" unicode="&#x1ee7;" horiz-adv-x="1049" 
d="M920 418q0 -230 -97 -340.5t-299 -110.5q-205 0 -300 108.5t-95 342.5v540h184v-540q0 -145 48 -210t163 -65q114 0 162.5 65t48.5 210v540h185v-540zM412 1580q158 0 224.5 -44.5t66.5 -150.5q0 -65 -41 -137.5t-113 -132.5h-100q56 52 88.5 114t32.5 115
q0 60 -36.5 85.5t-121.5 25.5v125z" />
    <glyph glyph-name="uni1EE6" unicode="&#x1ee6;" horiz-adv-x="1370" 
d="M1227 580q0 -309 -134 -461t-407 -152q-271 0 -407 154t-136 459v964h193v-1003q0 -198 87 -296t263 -98q177 0 262.5 97t85.5 297v1003h193v-964zM589 2128q158 0 224.5 -44.5t66.5 -150.5q0 -65 -41 -137.5t-113 -132.5h-100q56 52 88.5 114t32.5 115q0 60 -36.5 85.5
t-121.5 25.5v125z" />
    <glyph glyph-name="uni1EE5" unicode="&#x1ee5;" horiz-adv-x="1049" 
d="M920 418q0 -230 -97 -340.5t-299 -110.5q-205 0 -300 108.5t-95 342.5v540h184v-540q0 -145 48 -210t163 -65q114 0 162.5 65t48.5 210v540h185v-540zM648 -282q0 -52 -37 -89t-90 -37t-90 37t-37 89q0 54 37 90.5t90 36.5t90 -36.5t37 -90.5z" />
    <glyph glyph-name="uni1EE4" unicode="&#x1ee4;" horiz-adv-x="1370" 
d="M1227 580q0 -309 -134 -461t-407 -152q-271 0 -407 154t-136 459v964h193v-1003q0 -198 87 -296t263 -98q177 0 262.5 97t85.5 297v1003h193v-964zM818 -282q0 -52 -37 -89t-90 -37t-90 37t-37 89q0 54 37 90.5t90 36.5t90 -36.5t37 -90.5z" />
    <glyph glyph-name="uhorn" unicode="&#x1b0;" horiz-adv-x="1049" 
d="M920 721v-303q0 -230 -97 -340.5t-299 -110.5q-205 0 -300 108.5t-95 342.5v540h184v-540q0 -145 48 -210t163 -65q114 0 162.5 65t48.5 210v540h185v-85l78 86l87 -88z" />
    <glyph glyph-name="Uhorn" unicode="&#x1af;" horiz-adv-x="1370" 
d="M1227 1271v-691q0 -309 -134 -461t-407 -152q-271 0 -407 154t-136 459v964h193v-1003q0 -198 87 -296t263 -98q177 0 262.5 97t85.5 297v1003h193v-106l98 109l98 -98z" />
    <glyph glyph-name="uni1EEB" unicode="&#x1eeb;" horiz-adv-x="1049" 
d="M920 721v-303q0 -230 -97 -340.5t-299 -110.5q-205 0 -300 108.5t-95 342.5v540h184v-540q0 -145 48 -210t163 -65q114 0 162.5 65t48.5 210v540h185v-85l78 86l87 -88zM634 1149l-66 -74l-307 260l90 109z" />
    <glyph glyph-name="uni1EEA" unicode="&#x1eea;" horiz-adv-x="1370" 
d="M1227 1271v-691q0 -309 -134 -461t-407 -152q-271 0 -407 154t-136 459v964h193v-1003q0 -198 87 -296t263 -98q177 0 262.5 97t85.5 297v1003h193v-106l98 109l98 -98zM785 1766l-66 -74l-307 260l90 109z" />
    <glyph glyph-name="uni1EED" unicode="&#x1eed;" horiz-adv-x="1049" 
d="M920 721v-303q0 -230 -97 -340.5t-299 -110.5q-205 0 -300 108.5t-95 342.5v540h184v-540q0 -145 48 -210t163 -65q114 0 162.5 65t48.5 210v540h185v-85l78 86l87 -88zM412 1580q158 0 224.5 -44.5t66.5 -150.5q0 -65 -41 -137.5t-113 -132.5h-100q56 52 88.5 114
t32.5 115q0 60 -36.5 85.5t-121.5 25.5v125z" />
    <glyph glyph-name="uni1EEC" unicode="&#x1eec;" horiz-adv-x="1370" 
d="M1227 1271v-691q0 -309 -134 -461t-407 -152q-271 0 -407 154t-136 459v964h193v-1003q0 -198 87 -296t263 -98q177 0 262.5 97t85.5 297v1003h193v-106l98 109l98 -98zM609 2128q158 0 224.5 -44.5t66.5 -150.5q0 -65 -41 -137.5t-113 -132.5h-100q56 52 88.5 114
t32.5 115q0 60 -36.5 85.5t-121.5 25.5v125z" />
    <glyph glyph-name="uni1EEF" unicode="&#x1eef;" horiz-adv-x="1049" 
d="M920 721v-303q0 -230 -97 -340.5t-299 -110.5q-205 0 -300 108.5t-95 342.5v540h184v-540q0 -145 48 -210t163 -65q114 0 162.5 65t48.5 210v540h185v-85l78 86l87 -88zM858 1282q-32 -81 -83.5 -122.5t-117.5 -41.5q-33 0 -69 13t-81 41l-11 7q-80 50 -113 50
q-39 0 -64.5 -19t-50.5 -71l-80 49q34 81 83.5 121.5t115.5 40.5q33 0 69 -13t81 -41v0q88 -57 125 -57q39 0 64 18t52 72z" />
    <glyph glyph-name="uni1EEE" unicode="&#x1eee;" horiz-adv-x="1370" 
d="M1227 1271v-691q0 -309 -134 -461t-407 -152q-271 0 -407 154t-136 459v964h193v-1003q0 -198 87 -296t263 -98q177 0 262.5 97t85.5 297v1003h193v-106l98 109l98 -98zM1032 1878q-32 -81 -83.5 -122.5t-117.5 -41.5q-33 0 -69 13t-81 41l-11 7q-80 50 -113 50
q-39 0 -64.5 -19t-50.5 -71l-80 49q34 81 83.5 121.5t115.5 40.5q33 0 69 -13t81 -41v0q88 -57 125 -57q39 0 64 18t52 72z" />
    <glyph glyph-name="uni1EE9" unicode="&#x1ee9;" horiz-adv-x="1049" 
d="M920 721v-303q0 -230 -97 -340.5t-299 -110.5q-205 0 -300 108.5t-95 342.5v540h184v-540q0 -145 48 -210t163 -65q114 0 162.5 65t48.5 210v540h185v-85l78 86l87 -88zM796 1335l-307 -260l-65 74l282 295z" />
    <glyph glyph-name="uni1EE8" unicode="&#x1ee8;" horiz-adv-x="1370" 
d="M1227 1271v-691q0 -309 -134 -461t-407 -152q-271 0 -407 154t-136 459v964h193v-1003q0 -198 87 -296t263 -98q177 0 262.5 97t85.5 297v1003h193v-106l98 109l98 -98zM854 2094l90 -109l-307 -260l-66 74z" />
    <glyph glyph-name="uni1EF1" unicode="&#x1ef1;" horiz-adv-x="1049" 
d="M920 721v-303q0 -230 -97 -340.5t-299 -110.5q-205 0 -300 108.5t-95 342.5v540h184v-540q0 -145 48 -210t163 -65q114 0 162.5 65t48.5 210v540h185v-85l78 86l87 -88zM648 -282q0 -52 -37 -89t-90 -37t-90 37t-37 89q0 54 37 90.5t90 36.5t90 -36.5t37 -90.5z" />
    <glyph glyph-name="uni1EF0" unicode="&#x1ef0;" horiz-adv-x="1370" 
d="M1227 1271v-691q0 -309 -134 -461t-407 -152q-271 0 -407 154t-136 459v964h193v-1003q0 -198 87 -296t263 -98q177 0 262.5 97t85.5 297v1003h193v-106l98 109l98 -98zM818 -282q0 -52 -37 -89t-90 -37t-90 37t-37 89q0 54 37 90.5t90 36.5t90 -36.5t37 -90.5z" />
    <glyph glyph-name="uni1EF7" unicode="&#x1ef7;" horiz-adv-x="991" 
d="M983 958l-612 -1490h-203l244 573l-404 917h201l297 -706l274 706h203zM412 1580q158 0 224.5 -44.5t66.5 -150.5q0 -65 -41 -137.5t-113 -132.5h-100q56 52 88.5 114t32.5 115q0 60 -36.5 85.5t-121.5 25.5v125z" />
    <glyph glyph-name="uni1EF6" unicode="&#x1ef6;" horiz-adv-x="1174" 
d="M1167 1544l-481 -839v-705h-192v705l-488 839h217l371 -665l358 665h215zM499 2128q158 0 224.5 -44.5t66.5 -150.5q0 -65 -41 -137.5t-113 -132.5h-100q56 52 88.5 114t32.5 115q0 60 -36.5 85.5t-121.5 25.5v125z" />
    <glyph glyph-name="uni1EF9" unicode="&#x1ef9;" horiz-adv-x="991" 
d="M983 958l-612 -1490h-203l244 573l-404 917h201l297 -706l274 706h203zM858 1282q-32 -81 -83.5 -122.5t-117.5 -41.5q-33 0 -69 13t-81 41l-11 7q-80 50 -113 50q-39 0 -64.5 -19t-50.5 -71l-80 49q34 81 83.5 121.5t115.5 40.5q33 0 69 -13t81 -41v0q88 -57 125 -57
q39 0 64 18t52 72z" />
    <glyph glyph-name="uni1EF8" unicode="&#x1ef8;" horiz-adv-x="1174" 
d="M1167 1544l-481 -839v-705h-192v705l-488 839h217l371 -665l358 665h215zM930 1851q-32 -81 -83.5 -122.5t-117.5 -41.5q-33 0 -69 13t-81 41l-11 7q-80 50 -113 50q-39 0 -64.5 -19t-50.5 -71l-80 49q34 81 83.5 121.5t115.5 40.5q33 0 69 -13t81 -41v0q88 -57 125 -57
q39 0 64 18t52 72z" />
    <glyph glyph-name="uni1EF5" unicode="&#x1ef5;" horiz-adv-x="991" 
d="M983 958l-612 -1490h-203l244 573l-404 917h201l297 -706l274 706h203zM848 -282q0 -52 -37 -89t-90 -37t-90 37t-37 89q0 54 37 90.5t90 36.5t90 -36.5t37 -90.5z" />
    <glyph glyph-name="uni1EF4" unicode="&#x1ef4;" horiz-adv-x="1174" 
d="M1167 1544l-481 -839v-705h-192v705l-488 839h217l371 -665l358 665h215zM718 -282q0 -52 -37 -89t-90 -37t-90 37t-37 89q0 54 37 90.5t90 36.5t90 -36.5t37 -90.5z" />
    </font>
</defs>
</svg>
