<?xml version="1.0" standalone="no"?>
<!DOCTYPE svg PUBLIC "-//W3C//DTD SVG 1.1//EN" "http://www.w3.org/Graphics/SVG/1.1/DTD/svg11.dtd" >
<svg>
<metadata>
Created by FontForge 20090622 at Thu Dec 27 07:24:46 2018
 By deploy user
Copyright 2013 Adobe Systems Incorporated. All rights reserved.
</metadata>
<defs>
<font id="iCielAltus" horiz-adv-x="356" >
  <font-face 
    font-family="iCiel Altus"
    font-weight="400"
    font-stretch="normal"
    units-per-em="1000"
    panose-1="0 0 0 0 0 0 0 0 0 0"
    ascent="800"
    descent="-200"
    x-height="497"
    cap-height="693"
    bbox="-366.13 -196.654 840.333 1004"
    underline-thickness="50"
    underline-position="-50"
    unicode-range="U+001D-U+FB06"
  />
<missing-glyph horiz-adv-x="0" 
 />
    <glyph glyph-name="uniFB00" unicode="ff" horiz-adv-x="455" 
d="M266 448v3q-109 0 -114 -1l-3 -100l2 -78v-137q0 -21 4 -60q5 -42 3 -62q-7 -7 -26 -9q-20 -2 -26 5q-4 52 -2 176q1 133 0 179q-1 19 -1 84q-14 -1 -40 -1l-12 12q-1 0 -1 40q0 -2 54 -2v16q0 89 15 118q25 45 114 57q3 4 4 -3q0 -4 1 -13q1 -21 -5 -27q-55 -12 -69 -33
q-15 -22 -15 -88q0 -21 1 -27l117 -1v17q-2 97 14 127q25 49 115 61q3 4 4 -3q0 -4 1 -13q1 -21 -5 -27q-54 -12 -70 -42q-16 -27 -14 -92q0 -21 1 -27q42 0 55 1q4 1 6.5 -4.5t3.5 -18.5q2 -26 -5 -27l-40 3q-11 0 -18 -1l-3 -100l2 -78v-137q0 -21 4 -60q5 -42 3 -62
q-7 -7 -26 -9t-26 5q-4 52 -2 176q1 133 0 179q-1 19 -1 84z" />
    <glyph glyph-name="uniFB03" unicode="ffi" horiz-adv-x="580" 
d="M267 123l1 328q-111 0 -116 -1l-3 -100l2 -78v-137q0 -21 4 -60q5 -42 3 -62q-7 -7 -26 -9q-20 -2 -26 5q-4 52 -2 176q1 133 0 179q-1 19 -1 84q-14 -1 -40 -1l-12 12q-1 0 -1 40q0 -2 54 -2v16q0 89 15 118q25 45 114 57q3 4 4 -3q0 -4 1 -13q1 -21 -5 -27
q-55 -12 -69 -33q-15 -22 -15 -88q0 -21 1 -27l118 -1l-1 52q0 74 37 108q47 46 163 44l1 1q4 0 4 -21q0 -18 -5 -23q-86 -3 -122 -33q-32 -26 -32 -81q0 -41 1 -46l54 -1l118 3q19 0 25 -13l-4 -119l6 -359q-11 -8 -27 -8t-25 11l2 157l-4 281l-125 2q-11 0 -18 -1v-16
q0 -5 -2 -43q-2 -32 -1 -41l2 -215q0 -21 4 -60q3 -43 3 -62q-9 -9 -32 -9q-15 0 -20 5q-3 55 -3 114z" />
    <glyph glyph-name="uniFB04" unicode="ffl" horiz-adv-x="563" 
d="M495 350l2 -78v-137q0 -4 0.5 -12t1 -23t0.5 -27q2 -53 1 -65q-8 -8 -27 -9q-20 -1 -26 5q-5 63 0 179q4 130 3 181v149v118t-1 22q-88 -6 -119 -37q-24 -24 -29 -92q-1 -5 1 -27q42 0 55 1q4 1 6.5 -4.5t3.5 -18.5q2 -26 -5 -27l-40 3q-11 0 -18 -1l-3 -100l2 -78v-137
q0 -21 4 -60q5 -42 3 -62q-7 -7 -26 -9q-20 -2 -26 5q-4 52 -2 176q1 133 0 179v86h-104l-3 -100l2 -78v-137q0 -21 4 -60q5 -42 3 -62q-7 -7 -26 -9q-20 -2 -26 5q-4 52 -2 176q1 133 0 179q-1 19 -1 84q-14 -1 -40 -1l-12 12q-1 0 -1 40q0 -2 54 -2v16q0 89 15 118
q25 45 114 57q3 4 4 -3q0 -4 1 -13q1 -21 -5 -27q-55 -12 -69 -33q-15 -22 -15 -88q0 -21 1 -27q81 0 106 1v15q-2 98 41 138q55 54 202 42q3 -56 -2 -167q-1 -18 0 -46l1 -46z" />
    <glyph glyph-name="t_t" unicode="tt" horiz-adv-x="468" 
d="M291 451v1l-119 2q-11 0 -17 -1q0 -24 -2 -102l2 -107l-1 -14v-143q0 -41 25 -41q6 0 18 3q16 2 17 2q9 0 9 -35q0 -16 -50 -16q-68 0 -68 60l1 339q-1 20 -1 52q-15 -1 -40 -1l-12 12q-3 0 -3 13q0 7 2 27q0 -2 52 -2q-1 13 -1 57q0 33 6 43q6 9 29 9q10 0 17 -4l-1 -25
l1 -80l135 1q-1 13 -1 56q0 33 6 43q6 9 29 9q10 0 17 -4l-1 -25l1 -80l53 1q9 0 9 -29q0 -19 -5 -21l-40 3q-11 0 -17 -1q0 -24 -2 -102l2 -107l-1 -14v-143q0 -41 25 -41q6 0 18 3q16 2 17 2q9 0 9 -35q0 -16 -50 -16q-68 0 -68 60l1 339q-1 20 -1 52z" />
    <glyph glyph-name="f_r" unicode="fr" horiz-adv-x="491" 
d="M275 227v222l-105 2q-11 0 -18 -1l-3 -100l2 -78v-137q0 -21 4 -60q5 -42 3 -62q-7 -7 -26 -9q-20 -2 -26 5q-4 52 -2 176q1 133 0 179q-1 19 -1 84q-14 -1 -40 -1l-12 12q-1 0 -1 40q0 -2 54 -2v16q-2 97 14 127q25 49 115 61q3 4 4 -3q0 -4 1 -13q1 -21 -5 -27
q-54 -12 -70 -42q-16 -27 -14 -92q0 -21 1 -27h145q16 1 28 -11v-48q15 34 52 50q33 16 68 11q8 -35 -6 -49q-31 -1 -61 -15q-44 -20 -52 -58l-1 -229q2 -58 2 -86v-60q-11 -6 -27 -3t-24 12q-1 12 1 63l1 117l-1 18q-1 11 0 18z" />
    <glyph glyph-name="t_r" unicode="tr" horiz-adv-x="505" 
d="M288 227v225l-116 2q-11 0 -17 -1q0 -24 -2 -102l2 -107l-1 -14v-143q0 -41 25 -41q6 0 18 3q16 2 17 2q9 0 9 -35q0 -16 -50 -16q-68 0 -68 60l1 339q-1 20 -1 52q-15 -1 -40 -1l-12 12q-3 0 -3 13q0 7 2 27q0 -2 52 -2q-1 13 -1 57q0 33 6 43q6 9 29 9q10 0 17 -4
l-1 -25l1 -80l172 1l9 -6v-57q15 34 52 50q33 16 68 11q8 -35 -6 -49q-31 -1 -61 -15q-44 -20 -52 -58l-1 -229q2 -58 2 -86v-60q-10 -6 -27 -3t-24 12q-1 12 1 63l1 117l-1 18q-2 11 0 18z" />
    <glyph glyph-name="t_t_y" unicode="tty" horiz-adv-x="796" 
d="M52 502q0 -2 52 -2q-1 13 -1 57q0 33 6 43q6 9 29 9q10 0 17 -4l-1 -25l1 -80l135 1q-1 13 -1 56q0 33 6 43q6 9 29 9q10 0 17 -4l-1 -25l1 -80l158 1q29 -9 29 -29v-2q4 -54 0 -118q0 -17 -5 -142l3 -139q35 -26 86 -12q40 9 71 33l2 60v149q0 19 -6 101q-4 55 1 93
q26 17 51 4q5 -109 1 -185q-1 -18 0 -46l1 -46l-3 -84l2 -78q-4 -155 -51 -199q-37 -24 -131 -29q-16 17 -7 40q82 8 108 29q24 35 30 143q-97 -73 -171 -28l-35 42q0 352 -2 394l-115 2q-11 0 -17 -1q0 -24 -2 -102l2 -107l-1 -14v-143q0 -41 25 -41q6 0 18 3q16 2 17 2
q9 0 9 -35q0 -16 -50 -16q-68 0 -68 60l1 339q-1 20 -1 52v1l-119 2q-11 0 -17 -1q0 -24 -2 -102l2 -107l-1 -14v-143q0 -41 25 -41q6 0 18 3q16 2 17 2q9 0 9 -35q0 -16 -50 -16q-68 0 -68 60l1 339q-1 20 -1 52q-15 -1 -40 -1l-12 12q-3 0 -3 13q0 7 2 27z" />
    <glyph glyph-name="t_y" unicode="ty" horiz-adv-x="608" 
d="M543 138l2 -78q-4 -155 -51 -199q-37 -24 -131 -29q-16 17 -7 40q82 8 108 29q24 35 30 143q-97 -73 -171 -28l-35 42q0 352 -2 394l-114 2q-11 0 -17 -1q0 -24 -2 -102l2 -107l-1 -14v-143q0 -41 25 -41q6 0 18 3q16 2 17 2q9 0 9 -35q0 -16 -50 -16q-68 0 -68 60l1 339
q-1 20 -1 52q-15 -1 -40 -1l-12 12q-3 0 -3 13q0 7 2 27q0 -2 52 -2q-1 13 -1 57q0 33 6 43q6 9 29 9q10 0 17 -4l-1 -25l1 -80l157 1q9 1 25 -9q10 -33 4 -140q0 -17 -5 -142l3 -139q35 -26 86 -12q40 9 71 33l2 60v149q0 19 -6 101q-4 55 1 93q26 17 51 4q5 -109 1 -185
q-1 -18 0 -46l1 -46z" />
    <glyph glyph-name="f_t_y" unicode="fty" horiz-adv-x="803" 
d="M294 451l-142 -1l-3 -100l2 -78v-137q0 -21 4 -60q5 -42 3 -62q-7 -7 -26 -9q-20 -2 -26 5q-4 52 -2 176q1 133 0 179q-1 19 -1 84q-14 -1 -40 -1l-12 12q-1 0 -1 40q0 -2 54 -2v16q-2 97 14 127q25 49 115 61q3 4 4 -3q0 -4 1 -13q1 -21 -5 -27q-54 -12 -70 -42
q-16 -27 -14 -92q0 -21 1 -27h143v3q-1 13 -1 57q0 33 6 43q6 9 29 9q10 0 17 -4l-1 -25l1 -83l190 -1q10 -35 4 -144q0 -17 -5 -142l3 -139q35 -26 86 -12q40 9 71 33l2 60v149q0 19 -6 101q-4 55 1 93q26 17 51 4q5 -109 1 -185q-1 -18 0 -46l1 -46l-3 -84l2 -78
q-4 -155 -51 -199q-37 -24 -131 -29q-16 17 -7 40q82 8 108 29q24 35 30 143q-97 -73 -171 -28l-35 42q0 351 -2 393h-139q0 -26 -2 -100l2 -107l-1 -14v-143q0 -41 25 -41q6 0 18 3q16 2 17 2q9 0 9 -35q0 -16 -50 -16q-68 0 -68 60l1 339q-1 20 -1 52z" />
    <glyph glyph-name="f_f_j" unicode="ffj" horiz-adv-x="552" 
d="M50 499q0 -2 54 -2v16q0 89 15 118q25 45 114 57q3 4 4 -3q0 -4 1 -13q1 -21 -5 -27q-55 -12 -69 -33q-15 -22 -15 -88q0 -21 1 -27h125v16q-2 97 14 127q25 49 115 61q3 4 4 -3q0 -4 1 -13q1 -21 -5 -27q-54 -12 -70 -42q-16 -27 -14 -92q0 -21 1 -27l18 1v-1h117
q10 3 19 0l7 1q2 1 4.5 -1.5t3.5 -7.5l2 -3l-1 -7q1 -13 0 -24q1 -45 -3 -141q-1 -18 0 -46l1 -46l-3 -84l2 -78q-4 -155 -51 -199q-37 -24 -131 -29q-16 17 -7 40q82 8 108 29q29 38 34 251v149v123t-1 23v4q-111 0 -117 -1l-3 -100l2 -78v-137q0 -21 4 -60q5 -42 3 -62
q-7 -7 -26 -9q-20 -2 -26 5q-4 52 -2 176q1 133 0 179q-1 19 -1 84v3q-117 0 -122 -1l-3 -100l2 -78v-137q0 -21 4 -60q5 -42 3 -62q-7 -7 -26 -9q-20 -2 -26 5q-4 52 -2 176q1 133 0 179q-1 19 -1 84q-14 -1 -40 -1l-12 12q-1 0 -1 40z" />
    <glyph glyph-name="f_f_f" unicode="fff" horiz-adv-x="617" 
d="M50 499q0 -2 54 -2v16q0 89 15 118q25 45 114 57q3 4 4 -3q0 -4 1 -13q1 -21 -5 -27q-55 -12 -69 -33q-15 -22 -15 -88q0 -21 1 -27l117 -1v17q-2 97 14 127q25 49 115 61q3 4 4 -3q0 -4 1 -13q1 -21 -5 -27q-54 -12 -70 -42q-16 -27 -14 -92q0 -21 1 -27h120v16
q-2 97 14 127q25 49 115 61q3 4 4 -3q0 -4 1 -13q1 -21 -5 -27q-54 -12 -70 -42q-16 -27 -14 -92q0 -21 1 -27q42 0 55 1q4 1 6.5 -4.5t3.5 -18.5q2 -26 -5 -27l-40 3q-11 0 -18 -1l-3 -100l2 -78v-137q0 -21 4 -60q5 -42 3 -62q-7 -7 -26 -9t-26 5q-4 52 -2 176
q1 133 0 179q-1 19 -1 84v1l-99 2q-11 0 -18 -1l-3 -100l2 -78v-137q0 -21 4 -60q5 -42 3 -62q-7 -7 -26 -9t-26 5q-4 52 -2 176q1 133 0 179q-1 19 -1 84v3q-109 0 -114 -1l-3 -100l2 -78v-137q0 -21 4 -60q5 -42 3 -62q-7 -7 -26 -9q-20 -2 -26 5q-4 52 -2 176
q1 133 0 179q-1 19 -1 84q-14 -1 -40 -1l-12 12q-1 0 -1 40z" />
    <glyph glyph-name="f_j" unicode="fj" horiz-adv-x="377" 
d="M266 447v4q-108 0 -114 -1l-3 -100l2 -78v-137q0 -21 4 -60q5 -42 3 -62q-7 -7 -26 -9q-20 -2 -26 5q-4 52 -2 176q1 133 0 179q-1 19 -1 84q-14 -1 -40 -1l-12 12q-1 0 -1 40q0 -2 54 -2v16q-2 97 14 127q25 49 115 61q3 4 4 -3q0 -4 1 -13q1 -21 -5 -27
q-54 -12 -70 -42q-16 -27 -14 -92q0 -21 1 -27q105 0 135 1q23 -2 27 -7q3 -5 5 -31q1 -46 -3 -146q-1 -18 0 -46l1 -46l-3 -84l2 -78q-4 -155 -51 -199q-37 -24 -131 -29q-16 17 -7 40q82 8 108 29q29 38 34 251v149v123t-1 23z" />
    <glyph glyph-name="f_y" unicode="fy" horiz-adv-x="616" 
d="M541 138l2 -78q-4 -155 -51 -199q-37 -24 -131 -29q-16 17 -7 40q82 8 108 29q24 35 30 143q-97 -73 -171 -28l-35 42q0 351 -2 393q-126 0 -132 -1l-3 -100l2 -78v-137q0 -21 4 -60q5 -42 3 -62q-7 -7 -26 -9q-20 -2 -26 5q-4 52 -2 176q1 133 0 179q-1 19 -1 84
q-14 -1 -40 -1l-12 12q-1 0 -1 40q0 -2 54 -2v16q-2 97 14 127q25 49 115 61q3 4 4 -3q0 -4 1 -13q1 -21 -5 -27q-54 -12 -70 -42q-16 -27 -14 -92q0 -21 1 -27h145q23 -1 34 -7.5t10 -19.5l1 -51q1 -27 -1 -67q0 -17 -5 -142l3 -139q35 -26 86 -12q40 9 71 33l2 60v149
q0 19 -6 101q-4 55 1 93q26 17 51 4q5 -109 1 -185q-1 -18 0 -46l1 -46z" />
    <glyph glyph-name="f_f_y" unicode="ffy" horiz-adv-x="790" 
d="M725 138l2 -78q-4 -155 -51 -199q-37 -24 -131 -29q-16 17 -7 40q82 8 108 29q24 35 30 143q-97 -73 -171 -28l-35 42q0 351 -2 393q-126 0 -132 -1l-3 -100l2 -78v-137q0 -21 4 -60q5 -42 3 -62q-7 -7 -26 -9q-20 -2 -26 5q0 53 -3 219q-2 178 -1 222q-10 0 -15 1
q-112 0 -119 -1l-3 -100l2 -78v-137q0 -21 4 -60q5 -42 3 -62q-7 -7 -26 -9q-20 -2 -26 5q-4 52 -2 176q1 133 0 179q-1 19 -1 84q-14 -1 -40 -1l-12 12q-1 0 -1 40q0 -2 54 -2v16q-2 93 14 118q24 40 115 52q3 4 4 -3q0 -4 1 -13q1 -21 -5 -27q-55 -12 -70 -33
q-16 -21 -14 -83q0 -21 1 -27h138v16q-2 97 14 127q25 49 115 61q3 4 4 -3q0 -4 1 -13q1 -21 -5 -27q-54 -12 -70 -42q-16 -27 -14 -92q0 -21 1 -27h145q23 -1 34 -7.5t10 -19.5l1 -51q1 -27 -1 -67q0 -17 -5 -142l3 -139q35 -26 86 -12q40 9 71 33l2 60v149q0 19 -6 101
q-4 55 1 93q26 17 51 4q5 -109 1 -185q-1 -18 0 -46l1 -46z" />
    <glyph glyph-name="f_t" unicode="ft" horiz-adv-x="471" 
d="M289 451v1q-130 -2 -137 -2l-3 -100l2 -78v-137q0 -21 4 -60q5 -42 3 -62q-7 -7 -26 -9q-20 -2 -26 5q-4 52 -2 176q1 133 0 179q-1 19 -1 84q-14 -1 -40 -1l-12 12q-1 0 -1 40q0 -2 54 -2v16q-2 97 14 127q25 49 115 61q3 4 4 -3q0 -4 1 -13q1 -21 -5 -27
q-54 -12 -70 -42q-16 -27 -14 -92q0 -21 1 -27q8 0 138 2v1q-1 13 -1 57q0 33 6 43q6 9 29 9q10 0 17 -4l-1 -25l1 -80l53 1q9 0 9 -29q0 -19 -5 -21l-40 3q-11 0 -17 -1q0 -24 -2 -102l2 -107l-1 -14v-143q0 -41 25 -41q6 0 18 3q16 2 17 2q9 0 9 -35q0 -16 -50 -16
q-68 0 -68 60l1 339q-1 20 -1 52z" />
    <glyph glyph-name="f_f_t" unicode="fft" horiz-adv-x="597" 
d="M50 499q0 -2 54 -2v16q0 89 15 118q25 45 114 57q3 4 4 -3q0 -4 1 -13q1 -21 -5 -27q-55 -12 -69 -33q-15 -22 -15 -88q0 -21 1 -27l117 -1v17q-2 97 14 127q25 49 115 61q3 4 4 -3q0 -4 1 -13q1 -21 -5 -27q-54 -12 -70 -42q-16 -27 -14 -92q0 -21 1 -27h111v3
q-1 13 -1 57q0 33 6 43q6 9 29 9q10 0 17 -4l-1 -25l1 -80l53 1q4 0 7 -10q4 -10 3 -26t-5 -17l-40 3h-18q0 -26 -2 -100l2 -107l-1 -14v-143q0 -41 25 -41q6 0 18 3q16 2 17 2q9 0 9 -35q0 -16 -50 -16q-68 0 -68 60l1 339q-1 20 -1 52l-110 -1l-3 -100l2 -78v-137
q0 -21 4 -60q5 -42 3 -62q-7 -7 -26 -9t-26 5q-4 52 -2 176q1 133 0 179q-1 19 -1 84v3q-109 0 -114 -1l-3 -100l2 -78v-137q0 -21 4 -60q5 -42 3 -62q-7 -7 -26 -9q-20 -2 -26 5q-4 52 -2 176q1 133 0 179q-1 19 -1 84q-14 -1 -40 -1l-12 12q-1 0 -1 40z" />
    <glyph glyph-name=".notdef" horiz-adv-x="0" 
 />
    <glyph glyph-name=".null" horiz-adv-x="0" 
 />
    <glyph glyph-name="nonmarkingreturn" unicode=" " horiz-adv-x="340" 
 />
    <glyph glyph-name="uni001D" horiz-adv-x="340" 
 />
    <glyph glyph-name="exclam" unicode="!" horiz-adv-x="160" 
d="M56 692l6 2l18 3q27 4 30 -5l-8 -151q-2 -31 -4 -107q-2 -70 -2 -72q-2 -18 -3 -127q0 -100 -3 -106q-1 -6 -16 -9q-14 -2 -17 4q-2 86 -1 87q2 1 -3 342l-3 122q0 17 6 17zM59 81l36 1q5 -3 6 -34q2 -34 -2 -40q-7 -12 -43 -4q-4 2 -3 39q3 38 6 38z" />
    <glyph glyph-name="quotedbl" unicode="&#x22;" horiz-adv-x="216" 
d="M82 530q-14 -10 -28 -7q-2 21 -3 73l-1 64l3 37q6 4 22 2q13 -1 15 -8q3 -31 -8 -161zM157 530q-14 -10 -28 -7q-2 21 -3 73l-1 64l3 37q6 4 22 2q13 -1 15 -8q3 -31 -8 -161z" />
    <glyph glyph-name="numbersign" unicode="#" horiz-adv-x="412" 
d="M274 646q34 7 49 0q0 -5 -5 -57q0 -25 -5 -58q-2 -11 -11 -94q16 1 45 1q5 1 8 -4.5t5 -17.5q2 -25 -5 -26l-58 3l-9 -79q-3 -42 -4 -64q30 0 42 1l15 -12q2 0 2 -40q-34 2 -63 2v-3q-15 -166 -22 -193q-17 -10 -45 -1l6 83l12 115h-23q-36 0 -55 -1q-11 -110 -14 -196
q-35 -8 -50 0q0 5 5 57q0 33 5 58l4 40l4 40h-44q-5 -1 -8.5 4.5t-4.5 18.5q-2 26 5 27l57 -3q4 20 14 90q0 20 3 53q-18 -1 -46 -1l-14 12q-3 0 -3 38q0 -1 66 -3q15 187 28 210q16 10 43 1q0 1 -0.5 -3t-1.5 -16t-2 -25.5t-3 -38.5l-14 -128h74q10 105 18 210zM176 391
l-18 -143q60 0 78 1l15 143q-15 -1 -75 -1z" />
    <glyph glyph-name="dollar" unicode="$" horiz-adv-x="354" 
d="M149 229l1 73q-24 18 -36 30q-44 40 -60 108q-4 12 -4 123q0 73 25 110l72 22q0 3 2 51q28 17 39 7q2 -24 2 -54q28 0 69 -9q16 -45 19 -142q4 -105 -17 -136q-29 0 -30 1q5 217 -4 235q-15 14 -38 12l-3 -84v-204q-1 -7 -1 -33l99 -78q36 -139 10 -195q-3 -10 -28 -32
q-24 -24 -33 -27q-24 -5 -46 -7l-1 -46q-5 -6 -20 -11q-16 -5 -21 3q-1 21 2 54q-37 3 -57 15q-32 20 -34 97q-1 19 -1 106q0 10 1.5 15t5.5 4l30 -10q10 -12 6 -48q-1 -5 4 -93q2 -28 48 -33q1 5 1 19v57q0 44 -2 100zM242 231q-24 25 -57 48q2 -198 2 -225q25 2 36 5
q53 78 19 172zM108 624q-22 -138 16 -235l28 -23v76q0 55 -3 148q-2 58 -2 61q-29 -12 -39 -27z" />
    <glyph glyph-name="percent" unicode="%" horiz-adv-x="592" 
d="M256 688q20 -99 -6 -200q-33 -30 -95 -30q-57 -1 -102 25q-10 118 11 188q26 21 97 26q65 5 95 -9zM98 645q-29 -68 0 -142q82 -22 117 13q23 71 0 143q-79 21 -117 -14zM534 227q20 -99 -6 -200q-33 -30 -95 -30q-57 -1 -102 25q-10 118 11 188q26 21 97 26q65 5 95 -9z
M376 184q-29 -68 0 -142q82 -22 117 13q23 71 0 143q-79 21 -117 -14zM360 696h6q24 8 44 0q-2 -15 -15 -63q-4 -19 -16 -62q-8 -22 -18 -61q-6 -24 -17 -59q-18 -50 -37 -118l-15 -63q-14 -56 -16 -63l-17 -52q-47 -151 -51 -159q-19 -8 -38 -1q-1 8 22 90q4 17 13 42
l13 43q9 27 23 90l13 44q4 13 12 43q3 7 6 24q1 5 5 21l14 41q2 4 7 22l6 21l15 41q10 29 21 89q10 58 20 90z" />
    <glyph glyph-name="ampersand" unicode="&#x26;" horiz-adv-x="486" 
d="M252 634q-25 26 -67 22q-44 -5 -69 -34q-30 -58 -16 -111q21 -72 42 -83q6 -1 35 10q26 11 29 9q5 -1 7 -18q0 -15 -6 -20q-40 -30 -56 -44q-27 -25 -46 -133q-22 -116 10 -160q33 -20 88 -19q66 1 111 36q22 96 -13 202q-44 5 -64 -23q-18 -22 -13 -54q-3 -8 -21 -3
q-19 4 -22 15q0 68 42 94q31 17 107 19q54 2 61 24q-3 -7 3 60q10 13 41 4q2 -71 -12 -97q-20 -36 -85 -38q54 -174 17 -241q-65 -60 -177 -51q-104 8 -117 54q-19 68 -5 177q13 99 46 158q-45 55 -51 132t30 136q20 38 106 41q87 4 115 -34q12 -50 -8 -102q-30 -5 -38 8
q3 37 -4 64z" />
    <glyph glyph-name="quotesingle" unicode="'" horiz-adv-x="149" 
d="M90 530q-22 -10 -36 -7q-2 21 -3 73l-1 64l3 37q6 4 26 2q17 -1 19 -8q3 -31 -8 -161z" />
    <glyph glyph-name="parenleft" unicode="(" horiz-adv-x="352" 
d="M295 719q13 -18 -4 -35q-91 -56 -153 -186q-37 -70 -30 -214q3 -52 18 -112q36 -131 167 -229q17 -21 0 -42q-97 23 -177 156l-20 44l-20 43q-34 100 -24 216q10 114 60 198q55 83 90 115q39 42 93 46z" />
    <glyph glyph-name="parenright" unicode=")" horiz-adv-x="350" 
d="M56 719q53 -4 92 -46q35 -32 90 -115q48 -82 59 -198q11 -118 -23 -216l-20 -43l-20 -44q-80 -134 -176 -156q-16 21 0 42q130 97 166 229q15 60 18 112q7 144 -30 214q-61 130 -152 186q-17 17 -4 35z" />
    <glyph glyph-name="asterisk" unicode="*" horiz-adv-x="276" 
d="M153 699l4 -104l63 29q10 -25 3 -31q-9 -14 -50 -41l39 -83q-16 -28 -26 -20l-48 73l-52 -73q-28 5 -27 21l47 82l-54 42q-6 10 12 36l54 -34l8 96q1 7 27 7z" />
    <glyph glyph-name="plus" unicode="+" 
d="M159 174q-1 0 -1 124l-93 -2l-12 12q-5 0 -3 20q1 4 1 12l1 3q0 -3 106 -3q-2 106 -2 116q-1 5 4.5 8.5t16.5 5.5q24 5 25 -2l-2 -47q0 -51 1 -81q19 0 41.5 0.5t34.5 1t18 0.5q4 1 6.5 -4.5t3.5 -16.5q2 -23 -5 -24l-40 3l-58 -1l3 -129q-12 -5 -46 4z" />
    <glyph glyph-name="comma" unicode="," horiz-adv-x="159" 
d="M102 -7q-9 -42 -37 -79q-14 5 -12 13q23 58 19 65q-11 3 -19 8q-7 46 3 58q46 10 49 2q11 -26 -3 -67z" />
    <glyph glyph-name="hyphen" unicode="-" 
d="M50 348q0 -3 117 -3l126 2q4 1 6.5 -4.5t3.5 -18.5q2 -26 -5 -27l-40 3l-195 -4l-12 12q-1 0 -1 40z" />
    <glyph glyph-name="period" unicode="." horiz-adv-x="159" 
d="M100 1q-22 -9 -47 -1q-7 46 3 58q46 10 49 2q10 -24 -5 -59z" />
    <glyph glyph-name="slash" unicode="/" horiz-adv-x="354" 
d="M251 712h7q26 9 46 0q-2 -19 -16 -73q-10 -48 -17 -71q-7 -22 -18 -69l-19 -69q-23 -76 -39 -136q-2 -8 -16 -72q-7 -33 -17 -73q-1 -7 -8 -29l-9 -30q-49 -176 -54 -183q-19 -9 -40 -1q0 6 23 104q9 33 14 48t14 48l24 104l26 101q3 11 6 27l6 25l1 3q1 3 2 6.5t3 9
t4 13t5 15.5q1 1 7 25l6 24l16 48q10 32 22 101q12 73 21 104z" />
    <glyph glyph-name="zero" unicode="0" horiz-adv-x="355" 
d="M302 639l3 -174v-108q0 -13 -2 -101t-2 -102q0 -4 2 -30q2 -28 2 -31q0 -98 -144 -98q-51 0 -73 24l-31 52q-5 202 -5 425q0 7 -2 63l10 76q47 65 146 65q40 0 63 -20q6 -5 17 -19zM102 599q-4 -20 -4 -34l2 -42q2 -50 2 -57t-2 -57t-2 -57q0 -32 4 -76t4 -73l-1 -61
q0 -101 47 -101q37 0 67 15q33 16 39 45q-2 200 -2 214q0 152 8 301q-12 34 -73 34q-77 0 -89 -51z" />
    <glyph glyph-name="one" unicode="1" horiz-adv-x="219" 
d="M159 350l2 -78v-137q0 -21 4 -60q5 -42 3 -62q-7 -7 -26 -9q-20 -2 -26 5q-4 52 -2 176q1 133 0 179l-2 246q-34 -35 -62 8l66 67l1 4q22 15 46 4l1 -26q2 -43 -3 -141q-1 -18 0 -46l1 -46z" />
    <glyph glyph-name="two" unicode="2" horiz-adv-x="355" 
d="M69 653q65 57 141 50q65 -5 73 -32q25 -37 25 -110q0 -171 -7 -195q-17 -68 -60 -108q-54 -51 -91 -113q-46 -77 -18 -99q58 -14 171 10q8 -5 -2 -56q-188 0 -215 4q-44 44 -2 123q35 67 147 188q48 121 19 312q-16 36 -75 28q-56 -9 -67 -41q-9 -30 -9 -158
q-4 -12 -21 -10q-15 2 -21 9q-18 151 12 198z" />
    <glyph glyph-name="three" unicode="3" horiz-adv-x="355" 
d="M229 650l-162 -2q-8 -10 -13 12q-1 3 -1 6q-4 28 3 29l221 1l14 -21q-5 -7 -12 -22q-7 -17 -12 -24q-4 -7 -58 -89q-45 -68 -57 -90q48 2 80 -19q74 -48 73 -169q-1 -97 -32 -143q-62 -92 -193 -117q-14 0 -20 20q-8 20 8 29q83 27 103 44q42 33 55 53q28 42 30 110
q1 40 -19 79q-20 40 -53 55q-10 3 -82 11l-9 40q13 26 70 105q55 75 66 102z" />
    <glyph glyph-name="four" unicode="4" horiz-adv-x="350" 
d="M201 693q9 23 51 4q4 -61 -2 -171q-1 -18 0 -46l1 -46l-3 -84l2 -78q-1 -3 -1 -12l42 3q13 -3 7 -49l-48 -1v-78q0 -21 4 -62q5 -45 3 -65q-7 -7 -26 -9q-20 -1 -26 5q-4 54 -2 208q-49 0 -129 2l-24 28l8 43q12 52 78 227q64 171 65 181zM203 364v176l-1 26
q-69 -182 -98 -296l6 -14q27 0 93 2q1 54 0 106z" />
    <glyph glyph-name="five" unicode="5" horiz-adv-x="359" 
d="M84 700h210q15 0 0 -40q-1 -4 -88 -6q-86 0 -86 -6q-3 -35 -11 -91q-8 -61 -10 -94l51 -15q31 -9 51 -17q80 -35 102 -152q19 -109 -18 -160q-69 -91 -201 -117q-14 0 -20 20q-8 20 8 29q93 29 111 44q88 73 70 172q-14 82 -108 125l-79 37l-15 22q-3 185 33 249z" />
    <glyph glyph-name="six" unicode="6" 
d="M284 451q23 -29 21 -200q-3 -145 -12 -194q-10 -49 -110 -57q-98 -6 -107 35q-44 89 -15 428q22 174 34 186q80 60 180 50q3 -5 3 -23q0 -20 -4 -21q-88 3 -134 -40q-27 -36 -31 -152q57 56 122 27q32 -14 53 -39zM243 71q26 74 16 283q-1 30 -5 43q-12 44 -72 47
q-62 2 -79 -57q-19 -161 9 -321q10 -25 66 -23q54 1 65 28z" />
    <glyph glyph-name="seven" unicode="7" horiz-adv-x="354" 
d="M250 647q-90 12 -151 1l2 -39q-9 -5 -26 0q-16 3 -20 9q-5 38 -5 64q19 10 127 15q109 4 119 -10q26 -126 -50 -261q-128 -228 -126 -222q-7 -18 -5 -109q1 -85 -3 -93q-4 -5 -24 -4q-21 2 -21 6q-7 202 14 243l53 92q37 60 65 114q75 144 51 194z" />
    <glyph glyph-name="eight" unicode="8" horiz-adv-x="363" 
d="M306 72q-20 -74 -129 -74q-98 0 -119 74q-8 51 -8 105q0 155 37 228q-31 77 -31 149q0 56 20 110q26 36 114 36q76 0 97 -31q24 -59 24 -124q0 -87 -38 -146q40 -81 40 -237q0 -56 -7 -90zM138 378q-42 -32 -42 -202q0 -82 23 -113q22 -16 61 -16q50 0 69 13
q19 28 19 104q0 174 -38 209q-27 8 -64 8q-22 0 -28 -3zM124 638l-17 -21q-5 -38 -5 -78q0 -76 43 -107q12 -6 71 -6q30 6 44 47q7 20 7 38q0 36 -8 118q-10 31 -73 31q-31 0 -62 -22z" />
    <glyph glyph-name="nine" unicode="9" 
d="M71 250q-23 29 -21 200q3 145 12 194q10 49 110 57q98 6 107 -35q44 -89 15 -428q-22 -174 -34 -186q-80 -60 -180 -50q-3 5 -2 23q2 20 5 21q92 -3 138 40q18 26 24 152q-57 -55 -121 -27q-32 14 -53 39zM112 630q-26 -74 -16 -283q1 -30 5 -43q12 -44 72 -47
q62 -2 79 57q20 160 -9 321q-10 25 -66 23q-54 -1 -65 -28z" />
    <glyph glyph-name="colon" unicode=":" horiz-adv-x="159" 
d="M100 440q-22 -9 -47 -1q-7 46 3 58q46 10 49 2q10 -24 -5 -59zM100 5q-22 -9 -47 -1q-7 46 3 58q46 10 49 2q10 -24 -5 -59z" />
    <glyph glyph-name="semicolon" unicode=";" horiz-adv-x="159" 
d="M102 -7q-9 -42 -37 -79q-14 5 -12 13q23 58 19 65q-11 3 -19 8q-7 46 3 58q46 10 49 2q11 -26 -3 -67zM100 440q-22 -9 -47 -1q-7 46 3 58q46 10 49 2q10 -24 -5 -59z" />
    <glyph glyph-name="less" unicode="&#x3c;" horiz-adv-x="355" 
d="M291 506q12 -5 13 -22q1 -18 -6 -25q-18 -10 -73 -54q-56 -45 -83 -58l-31 -33v-18q73 -67 180 -124q11 -18 7 -40q-2 -13 -5.5 -16t-8.5 2l-164 99q-58 39 -67 58q-10 55 9 73q164 125 229 158z" />
    <glyph glyph-name="equal" unicode="=" 
d="M50 288q0 -3 117 -3l126 2q4 1 6.5 -4.5t3.5 -18.5q2 -26 -5 -27l-40 3l-195 -4l-12 12q-1 0 -1 40zM50 403q0 -3 117 -3l126 2q4 1 6.5 -4.5t3.5 -17.5q2 -25 -5 -26l-40 3l-195 -4l-12 12q-1 0 -1 38z" />
    <glyph glyph-name="greater" unicode="&#x3e;" horiz-adv-x="355" 
d="M64 506q65 -33 229 -158q19 -18 9 -73q-9 -19 -67 -58l-164 -99q-5 -5 -8.5 -2t-5.5 16q-4 22 7 40q107 57 180 124v18l-31 33q-27 13 -83 58q-55 44 -73 54q-7 7 -6 25q1 17 13 22z" />
    <glyph glyph-name="question" unicode="?" horiz-adv-x="361" 
d="M96 473q-4 -9 -17 -9q-14 0 -20 13q-14 45 -3 203q18 24 101 22q88 -1 123 -41q28 -31 28 -100l2 -64q2 -55 1 -72q-4 -84 -34 -112q-4 -3 -26 -16q-21 -10 -29 -17q-33 -22 -33 -60l-5 -27l1 -61q-5 -10 -20 -11q-16 -1 -26 3q-1 106 9 135q11 31 72 71q24 17 37 35v228
q-16 42 -57 59q-38 15 -89 1q-31 -55 -15 -180zM182 1q-22 -9 -47 -1q-7 46 3 58q46 10 49 2q10 -24 -5 -59z" />
    <glyph glyph-name="at" unicode="@" horiz-adv-x="493" 
d="M393 106l-26 -22q-80 1 -94 70l-53 -39l-38 12q-17 48 -19 163q-1 101 11 155q9 36 41 67q36 34 75 33l38 -47q3 -185 -7 -238q-22 -115 35 -121q38 31 40 181l2 54q1 43 -5 93q0 25 -16 95q-16 73 -25 83q-22 28 -96 10q-65 -16 -96 -47q-55 -131 -58 -231
q-2 -99 4 -156q10 -131 45 -192q1 -5 43 -33l42 -28q9 -5 68 20q57 23 71 28q16 -1 25 -31l-149 -70l-61 23q-29 9 -60 38q-42 40 -52 89q-34 144 -27 300q7 184 74 297q127 54 254 30q42 -77 59 -197q20 -155 -21 -336zM211 422q-5 -203 5 -259q47 26 62 79l12 236
q-20 18 -47 -7q-20 -18 -32 -49z" />
    <glyph glyph-name="A" unicode="A" horiz-adv-x="345" 
d="M204 698q12 -50 21 -159q10 -124 18 -163l15 -79q31 -284 36 -283q-1 -18 -53 -11q-1 2 -4 38l-7 69q-12 105 -24 158q-11 2 -44 0l-42 -3q-13 -110 -14 -129q-4 -39 -4 -119q0 -13 -20 -11l-32 1q22 270 43 427q36 264 33 258q44 16 78 6zM130 314l68 5q0 44 -10 158
q-11 127 -12 160q-2 5 -9 4q-8 -2 -10 -7q-5 -30 -12 -138q-7 -116 -15 -182z" />
    <glyph glyph-name="B" unicode="B" horiz-adv-x="351" 
d="M64 7q-6 21 -6 220l-6 71q-3 62 0 229q3 137 -2 150q112 30 199 17q11 -8 18 -68q13 -101 7 -143q-1 -3 -4 -53q-3 -44 -5 -50q-11 -33 -18 -40l-27 -16q5 -8 34 -30q26 -21 35 -30q35 -120 -10 -238l-52 -23h-39q-59 0 -124 4zM96 636l3 -304q69 4 101 36q33 33 35 138
q1 92 -19 139q-70 17 -120 -9zM250 108q1 9 -1 59q0 50 -11 64q-28 43 -66 70l-37 -9q-26 -6 -30 -19l-2 -41q-2 -28 1 -76q4 -57 4 -105q73 -10 101 -6q36 16 41 63z" />
    <glyph glyph-name="C" unicode="C" horiz-adv-x="351" 
d="M286 463q-23 0 -31 11q-3 15 2 92q3 45 -17 91q-70 8 -123 -35q-8 -33 -23 -250q-1 -41 2 -106q2 -86 2 -101q8 -84 11 -87q23 -29 130 -11l11 26q3 7 6 65q3 51 10 52l24 9q7 2 9 -20q1 -11 1 -28q0 -97 -6 -115q-8 -23 -40 -34q-95 -27 -131 -17q-18 5 -45 21
q-29 71 -27 100v303q0 92 20 217q32 38 112 51q86 15 117 -19q-1 -165 -14 -215z" />
    <glyph glyph-name="D" unicode="D" horiz-adv-x="357" 
d="M52 449l-2 217l19 32q124 1 179 -37q27 -18 48 -67q8 -53 8 -165q4 -67 2 -125q-3 -42 -1 -78l1 -74q-15 -72 -34 -99q-39 -58 -127 -52q-91 4 -91 5q-2 8 -2 443zM96 502l3 -94l3 -357q99 -8 131 41q22 36 27 152q0 68 -2 126q5 111 -5 189q-1 48 -60 69q-44 16 -90 11
q-3 -11 -8 -88q2 -13 1 -24q-1 -18 0 -25z" />
    <glyph glyph-name="E" unicode="E" horiz-adv-x="332" 
d="M287 659q-14 0 -178 -19q-4 -63 -8 -100q-6 -69 -5 -112q3 -61 4 -63q6 -21 59 -19q73 2 81 0q13 -22 -12 -38q-111 -9 -102 -6q-9 -4 -10 -6q-1 -4 -7 -6q-3 -6 -6 -145q-2 -48 7 -81q22 -15 126 -10q10 0 34 6q17 4 31 2q3 -8 0 -43l-74 -12q-65 -8 -77 -6q-22 2 -47 7
q-35 4 -45 6q-2 20 -4 73q-1 58 -3 79q-2 9 0 47l2 47q-3 40 -3 162q0 6 2 76q2 68 2 78q0 77 7 92q58 34 232 26q9 -2 3 -15z" />
    <glyph glyph-name="F" unicode="F" horiz-adv-x="344" 
d="M288 653q-146 5 -181 -24q-15 -32 -11 -201q3 -61 4 -63q-6 20 140 -13q8 -10 3 -24q-5 -15 -14 -20q-8 -2 -61 0q-39 0 -57 -6l-9 -23q-12 -29 -2 -134q2 -27 1 -45q0 -31 1 -38l4 -51q-40 -12 -52 -7q-3 27 -2 78q1 49 -1 84q-2 9 0 47l2 47q-3 40 -3 162l2 157
q0 76 8 97q66 27 241 19q11 -2 4 -20q-6 -20 -17 -22z" />
    <glyph glyph-name="G" unicode="G" horiz-adv-x="357" 
d="M291 405q-12 2 -17 5q-3 1 -6 2.5l-5 2.5t-3 1q-3 15 2 92q4 60 -17 149q-75 9 -131 -35q-10 -37 -10 -113q0 -97 -2 -139q-1 -15 -1 -215l6 -68q41 -52 129 -38l13 19q29 76 15 177q-1 0 -29 2q-19 0 -26 3q-1 2 0 18l1 23q86 -5 87 1q3 -3 3 -74q0 -177 -1 -179
q-8 -23 -40 -34q-69 -21 -190 22q-17 83 -16 104q2 40 -2 117q-3 72 3 112l-1 69q0 143 12 217q32 38 118 51q91 15 122 -19q-3 -226 -14 -273z" />
    <glyph glyph-name="H" unicode="H" 
d="M299 677q-7 -185 -7 -342q0 -74 8 -252q4 -70 0 -80q-41 -5 -58 6l3 82q4 53 4 97l2 54q2 36 0 59q-8 -1 -64 2q-42 2 -59 -5l-28 -26q-1 -2 -1 -81l2 -79q0 -20 -3 -54q-3 -40 -3 -57q-24 -4 -42 14q-4 53 1 173q4 124 3 176q-4 87 -4 149q0 153 5 180q22 13 47 0
q3 -17 -5 -167q-1 -18 0 -46l1 -46q0 -72 6 -86q32 -6 143 4q-4 40 3 89q4 33 -3 124q-6 81 4 125q1 10 25 4q11 -2 16.5 -6.5t3.5 -10.5z" />
    <glyph glyph-name="I" unicode="I" horiz-adv-x="157" 
d="M96 350l2 -78v-137q0 -21 4 -60q5 -42 3 -62q-7 -7 -26 -9q-20 -2 -26 5q-4 52 -2 176q1 133 0 179v149q0 157 3 176q22 15 46 4q3 -56 -2 -167q-1 -18 0 -46l1 -46z" />
    <glyph glyph-name="J" unicode="J" horiz-adv-x="352" 
d="M53 229q11 15 44 12q2 -25 1 -74q-2 -47 6 -69q3 -13 22 -32q16 -14 51 -17q37 -4 53 10q16 13 18 54q2 11 0 36q0 29 1 38q3 78 3 254q0 9 -2 67t-2 65q0 119 1 121l47 6q5 -4 4 -26l-1 -300v-128.5t1 -24.5q-1 -5 -1 -21l-1 -54q0 -46 -1 -61q0 -23 -2 -35l-21 -40
q-41 -13 -103 -8q-71 6 -99 37q-14 17 -20 95q-5 72 1 95z" />
    <glyph glyph-name="K" unicode="K" horiz-adv-x="399" 
d="M326 6q-32 -18 -52 -4q-10 7 -28 59q-5 27 -8 32l-19 47l-49 128q-23 48 -34 89q-32 -41 -33 -45q-1 -3 -1 -100l2 -202q-8 -14 -50 -11q-1 10 -1 327l-3 243q0 34 1 56l1 51q16 26 50 19q1 -36 -3 -118q-5 -81 -3 -122v-73q38 55 100 154q75 120 100 156q7 6 23 7
q19 1 30 -11q1 1 -8 -12.5l-29 -45l-46 -73.5q-8 -11 -53 -82l-46 -71l85 -201q49 -110 62 -148q13 -37 12 -49z" />
    <glyph glyph-name="L" unicode="L" horiz-adv-x="322" 
d="M96 350v-215l6 -73q2 -1 11 -8l111 2l61 8q11 -3 10 -28q-4 -22 -7 -23l-13 -10l-38 -1q-24 -2 -39 0q-75 0 -86 -1h-38q-15 -2 -21 4q-4 52 -2 178q1 135 0 181v149q0 157 3 176q24 17 51 3q1 -8 -7 -166q-1 -18 0 -46l1 -46z" />
    <glyph glyph-name="M" unicode="M" horiz-adv-x="567" 
d="M477 686l35 -42q0 -567 5 -635q-30 -22 -53 -8q-11 41 -5 147q0 8 0.5 45.5t2 126t2.5 172.5l-3 139q-63 42 -154 -19v-603q-5 -3 -25 -5q-21 -1 -29 5q0 127 1 139q0 8 0.5 45.5t2 126t2.5 172.5l-3 139q-64 43 -156 -19q-2 -56 -2 -60l2 -78v-339q0 -21 4 -60
q5 -42 3 -62q-7 -7 -27 -9t-27 5q-4 58 -1 277q2 259 1 280v121q21 25 46 12l2 -42q98 75 171 29l27 -33q102 79 178 33z" />
    <glyph glyph-name="N" unicode="N" horiz-adv-x="360" 
d="M270 685l35 -42q0 -566 5 -634q-30 -22 -53 -8q-11 41 -5 147q0 8 0.5 45t2 125.5t2.5 172.5l-3 139q-64 43 -156 -19q-2 -56 -2 -60l2 -416q0 -21 4 -60q5 -42 3 -62q-7 -7 -26 -9q-20 -2 -26 5q-4 52 -2 277q1 236 0 279v121q21 25 46 12l2 -42q98 75 171 29z" />
    <glyph glyph-name="O" unicode="O" horiz-adv-x="352" 
d="M297 645q3 -39 1 -122q-3 -81 1 -129q1 -31 0 -82q0 -15 -0.5 -34.5t-1 -30t-0.5 -16.5l-1 -77q0 -8 3 -38q1 -24 0 -37l-12 -24q-3 -9 -7 -19q-6 -2 -19 -15q-13 -12 -24 -15q-83 -26 -132 -3q-19 9 -51 60q-1 14 -1 94q-1 59 -3 99q-1 22 1 128q2 86 -1 125
q0 101 6 119q5 24 39 43q26 19 86 34q20 5 68 -12q15 -6 48 -48zM99 599q-4 -21 -2 -68q4 -61 -1 -155q-2 -43 2 -89q5 -68 5 -84q0 -97 4 -117q10 -51 64 -43q63 6 84 58q-11 251 4 515q-13 37 -80 34q-70 -5 -80 -51z" />
    <glyph glyph-name="P" unicode="P" horiz-adv-x="352" 
d="M96 636l3 -304q94 4 124 36q35 35 36 139q1 96 -18 141q-84 19 -145 -12zM270 330q-46 -24 -114 -38q-47 -11 -51 -19l-2 -41q-2 -28 1 -76q4 -57 4 -105l3 -51l-61 8q6 46 6 223q0 26 -4 67q-3 62 0 229q3 137 -2 150q125 34 224 20q15 -10 23 -62q21 -163 -9 -255
q-17 -49 -18 -50z" />
    <glyph glyph-name="Q" unicode="Q" horiz-adv-x="353" 
d="M298 663q2 -36 2 -269l-1 -82q-2 -65 -1 -81l-1 -77q0 -8 3 -38q1 -24 0 -37l-12 -24q-3 -9 -7 -19q-4 -1 -15 -11q-12 -11 -18 -15q48 -25 52 -43q-1 -10 -12 -25q-11 -14 -20 -16q-38 59 -76 74q-60 -4 -87 3q-25 7 -51 48q-1 15 -1 100q-1 65 -3 105q-1 31 4 128
q5 85 2 125q0 101 6 119q4 26 33 43q29 21 87 34q20 5 68 -12q36 -13 48 -30zM103 615q-7 -47 -6 -84q4 -61 -1 -155q-2 -43 2 -89q5 -68 5 -84q0 -106 7 -142q25 -22 61 -18q39 3 91 42q-4 71 -2 333q2 192 -6 215q-11 27 -68 20t-83 -38z" />
    <glyph glyph-name="R" unicode="R" horiz-adv-x="337" 
d="M97 636l3 -304q69 4 101 36q33 33 35 138q1 92 -19 139q-71 17 -120 -9zM223 6l-9 56q-25 115 -30 178q-1 39 -11 61l-37 -9q-26 -6 -30 -19l-2 -41l-4 -117q1 -59 5 -86q2 -15 -12 -22t-43 -6v54q0 37 3 86q2 64 2 86q0 41 -2 71q-3 62 0 229q3 137 -2 150
q107 29 185 17q29 -20 35 -68q14 -108 8 -143l-6 -53q-4 -41 -7 -50q-11 -33 -18 -40l-27 -16l10 -45q40 -214 48 -232t-1 -31q-10 -11 -55 -10z" />
    <glyph glyph-name="S" unicode="S" horiz-adv-x="354" 
d="M259 690q16 -45 19 -142q4 -105 -17 -136q-29 0 -30 1q5 217 -4 235q-19 20 -63 9q-40 -11 -56 -33q-22 -138 16 -235l160 -128q36 -139 10 -195q-3 -10 -28 -32q-24 -24 -33 -27q-90 -19 -143 8q-32 20 -34 97q-1 19 -1 106q0 10 1.5 15t5.5 4l30 -10q10 -12 6 -48
q-1 -5 4 -93q3 -51 121 -27q53 78 19 172q-19 21 -64 53q-45 30 -64 48q-44 40 -60 108q-4 12 -4 123q0 73 25 110q115 35 184 17z" />
    <glyph glyph-name="T" unicode="T" horiz-adv-x="351" 
d="M57 696l245 3q5 -38 -13 -48l-74 3q-15 0 -18 -8q-2 -8 -2 -38l2 -249q0 -52 6 -145q6 -91 6 -161q0 -53 -6 -54q-11 -5 -30 3q-18 6 -18 11q0 9 2 99l1 72q0 74 -4 195q-5 152 -5 212l1 52q0 7 -39 6q-43 -3 -49 -1q-19 22 -5 48z" />
    <glyph glyph-name="U" unicode="U" horiz-adv-x="357" 
d="M305 666q-3 -39 -2 -105q1 -58 -1 -108q-3 -78 0 -87q-4 -39 0 -124q3 -90 0 -131q-4 -16 -4 -26v-21q1 -9 -1 -18q-9 -24 -50 -39q-39 -11 -82 -5q-41 4 -52 9q-6 1 -30 28q-20 26 -22 31q-10 25 -8 50q2 32 1 64q-1 46 0 67q1 28 -1 131q0 24 -0.5 56t-1 49t-0.5 27
l-1 127q0 45 6 52q24 5 48 -11q-5 -76 -2 -195q3 -168 2 -205q-3 -154 1 -173q11 -33 32 -44q26 -14 91 -15l20 18q6 126 6 306q0 223 -7 315q13 13 35 1q18 -11 23 -24z" />
    <glyph glyph-name="V" unicode="V" horiz-adv-x="355" 
d="M94 694q-1 -6 10 -140q6 -58 17 -125l19 -122q10 -57 10 -96q0 -25 3 -42q5 -21 6 -36l14 -17l63 404q15 101 32 176q25 1 32 -8q5 -48 -10 -122q-2 -10 -8 -59l-9 -62l-10 -47q-5 -41 -7 -50q-9 -66 -14 -96q-10 -60 -15 -100q-1 -15 -9 -50q-6 -25 -8 -47
q-1 -52 -16 -55l-36 10q-19 3 -32 10q-2 32 -12 107q-9 75 -12 114q-3 29 -5 39q-1 5 -5 38q-44 371 -42 379q22 13 44 -3z" />
    <glyph glyph-name="W" unicode="W" horiz-adv-x="415" 
d="M213 315l-9 -15q-9 -32 -31 -161q-20 -108 -31 -136q-15 -3 -43 9q-26 11 -33 19q-8 206 -6 268q1 68 -5 198q-6 128 -5 186q38 11 45 10q4 -4 7 -32q3 -34 -1 -101q-5 -117 -1 -156q8 -93 0 -155l1 -168l16 -11q17 39 30 121l18 120l19 68q23 31 43 23q10 -31 21 -97
l36 -236l28 22q6 29 3 177q0 5 2 59q2 52 2 58q0 5 -2 79q-3 54 -2 78q0 14 -2 72q-3 44 -3 69q26 13 54 9q0 -3 -0.5 -10t-1 -20.5t-0.5 -24.5q-3 -43 -3 -66l-1 -77l2 -74q-2 -61 -1 -76q3 -149 -13 -298q-7 -9 -31 -25q-26 -19 -37 -17q-17 2 -23 33l-24 128z" />
    <glyph glyph-name="X" unicode="X" 
d="M287 693q13 -16 13 -32q-18 -46 -46 -156q-30 -111 -47 -155q23 -58 55 -160q8 -30 21 -94q15 -70 22 -92l-41 -4q-14 37 -41 145q-27 105 -43 150q-15 -45 -42 -143q-27 -96 -46 -143q-2 1 -22 -2l-19 -3q-4 25 15 79l35 113q12 32 36 114q14 51 4 78q-57 147 -80 235
q-12 42 -10 68q0 -10 30 2q4 1 7.5 -3.5t5.5 -13.5q9 -36 14 -48q14 -34 32 -107q18 -75 33 -108q2 5 28 91q19 65 31 93l12 30q6 15 10 28l8 28q7 13 25 10z" />
    <glyph glyph-name="Y" unicode="Y" horiz-adv-x="349" 
d="M296 689q3 -3 3 -12q0 -15 -6 -28q-18 -47 -43 -168t-43 -168l-9 -16q-1 -6 -1 -29q0 -10 2 -96t2 -92q0 -68 -2 -70q-29 -11 -40 -6q-10 4 -10 90l2 156q0 39 -6 57q-4 9 -84 316q-11 41 -11 55q0 10 33 17q21 0 28 -67l60 -257l11 8q25 82 49 221q16 97 33 97
q11 0 32 -8z" />
    <glyph glyph-name="Z" unicode="Z" horiz-adv-x="357" 
d="M280 695l23 -45l-15 -45q-23 -65 -47 -122l-48 -120q-75 -196 -90 -277l25 -36q76 -18 166 9q16 -13 7 -44q-25 -13 -130 -13q-84 0 -94 2l-27 67q9 92 67 240l46 112l87 195q2 6 -7 19q-9 14 -8 18q-101 -1 -120 -9q-30 -11 -47 -7l-14 36q10 18 109 26q95 6 117 -6z
" />
    <glyph glyph-name="bracketleft" unicode="[" horiz-adv-x="259" 
d="M96 350l2 -78v-81q0 -3 5 -115t5 -113q67 -3 95 -3q9 -45 1 -48q-52 -25 -151 -4q-4 52 -2 227q1 184 0 229v149q0 179 3 199q8 5 73 6q63 1 76 -4q6 -39 0 -43l-102 -14v-27q0 -64 -3 -104q-1 -18 0 -46l1 -46z" />
    <glyph glyph-name="backslash" unicode="\" horiz-adv-x="361" 
d="M103 712q7 -22 25 -104q12 -58 25 -101l16 -48q1 -4 7 -24l6 -25l4 -13.5l3.5 -11l3 -9t2 -6.5t1.5 -5t1 -2l6 -25q3 -16 6 -27l26 -101l24 -104q9 -33 14 -48t14 -48q23 -98 23 -104q-23 -10 -47 1q-5 7 -54 183l-17 59l-33 145q-16 60 -39 136q-8 24 -18 69
q-14 53 -19 69q-7 23 -17 71q-14 54 -16 73q24 11 53 0z" />
    <glyph glyph-name="bracketright" unicode="]" horiz-adv-x="259" 
d="M160 272l2 78l-3 84l1 46q1 28 0 46q-3 41 -3 104v27l-102 14q-6 4 0 43q13 5 76 4q65 -1 73 -6q3 -20 3 -199v-149q-1 -21 1 -229q2 -162 -3 -227q-99 -21 -151 4q-8 3 1 48q28 0 95 3q0 1 5 113t5 115v81z" />
    <glyph glyph-name="asciicircum" unicode="^" horiz-adv-x="314" 
d="M264 401q-1 -5 -25 -35q-15 29 -38 109q-29 96 -37 116q-59 -139 -84 -223q-15 0 -22.5 6t-6.5 18l98 282l30 8l59 -186q23 -57 26 -95z" />
    <glyph glyph-name="underscore" unicode="_" 
d="M300 -49q-38 -2 -119 0q-84 1 -126 0q-10 17 -1 48q124 1 249 0q13 -13 -3 -48z" />
    <glyph glyph-name="grave" unicode="`" horiz-adv-x="231" 
d="M50 684q13 13 34 18l19 -8q67 -92 78 -128q-15 -5 -28 -7z" />
    <glyph glyph-name="a" unicode="a" horiz-adv-x="364" 
d="M67 402v53q0 17 54 34q53 15 111 15q36 0 46 -2q25 -4 30 -29l-2 -235q0 -122 8 -229q-14 -11 -41 -11q-16 0 -18 41q-55 -42 -110 -42q-25 0 -60 11q-35 23 -35 121q0 115 38 136q7 4 94 27q64 16 79 44l-6 109q-16 10 -55 10q-75 0 -95 -26v-36q-3 -10 -13 -10
q-25 0 -25 19zM256 148q0 23 7 131q-13 -15 -67 -32q-58 -17 -72 -27q-26 -18 -26 -97q0 -73 26 -84q78 0 130 45q0 32 2 64z" />
    <glyph glyph-name="b" unicode="b" horiz-adv-x="373" 
d="M61 353l-2 81q0 12 1 15l-1 119q0 21 -4 60q-5 42 -3 62q7 7 26 9q19 1 26 -5q4 -55 2 -209q58 24 114 12q46 -10 69 -41q33 -43 34 -123q1 -15 -1 -71q-2 -70 -2 -71q0 -27 -24 -124q-15 -46 -91 -62q-68 -14 -131 1q-10 0 -17 4q-3 56 2 167q1 18 0 46l-1 46zM105 412
l2 -292q1 -39 0 -63q3 -3 19 -10q79 -23 119 37q14 35 24 148q0 175 -32 204q-19 16 -55 20q-46 6 -70 -17z" />
    <glyph glyph-name="c" unicode="c" horiz-adv-x="365" 
d="M298 352q-24 0 -32 8l2 38q3 32 0 39t-21 14q-79 23 -119 -37q-14 -35 -24 -148q0 -175 32 -204q19 -16 55 -20q46 -6 70 17l16 65l25 6q5 1 7.5 -7t2.5 -27q0 -58 -6 -63q-72 -44 -138 -34q-57 8 -84 43q-33 43 -34 123q-1 15 1 71q2 70 2 71q0 27 24 124q15 51 109 64
q87 13 126 -16q-2 -94 -14 -127z" />
    <glyph glyph-name="d" unicode="d" horiz-adv-x="371" 
d="M312 353l3 -84l-1 -46q-1 -28 0 -46q5 -111 2 -167q-7 -4 -18 -4q-63 -15 -131 -1q-77 17 -90 62q-24 97 -24 124q0 1 -2 71q-2 56 -1 71q1 80 34 123q23 31 69 41q54 12 113 -12q-2 161 1 209q6 6 26 5q19 -2 26 -9q1 -18 -2 -62q-3 -45 -3 -60l-1 -88q-2 -20 0 -31
q0 -69 -1 -96zM267 163v249l-6 27q-24 23 -70 17q-36 -4 -55 -20q-32 -29 -32 -204q10 -113 24 -148q40 -60 119 -37q17 8 18 10q-1 14 1 80z" />
    <glyph glyph-name="e" unicode="e" 
d="M272 70q14 -5 18 -29q-59 -40 -106 -43q-42 -2 -100 25q-34 47 -34 215q-1 172 41 231q23 32 98 35q77 3 96 -36q49 -104 0 -261l-29 -21q-106 -20 -156 -17q1 -69 29 -116q75 -25 143 17zM251 431q-19 25 -57 24t-72 -27q-35 -84 -27 -212q65 -2 132 9l24 14
q23 83 0 192z" />
    <glyph glyph-name="f" unicode="f" horiz-adv-x="291" 
d="M50 499q0 -2 54 -2v16q-2 97 14 127q25 49 115 61q3 4 4 -3q0 -4 1 -13q1 -21 -5 -27q-54 -12 -70 -42q-16 -27 -14 -92q0 -21 1 -27q42 0 55 1q4 1 6.5 -4.5t3.5 -18.5q2 -26 -5 -27l-40 3q-11 0 -18 -1l-3 -100l2 -78v-137q0 -21 4 -60q5 -42 3 -62q-7 -7 -26 -9
q-20 -2 -26 5q-4 52 -2 176q1 133 0 179q-1 19 -1 84q-14 -1 -40 -1l-12 12q-1 0 -1 40z" />
    <glyph glyph-name="g" unicode="g" horiz-adv-x="368" 
d="M312 138l1 -78q-4 -157 -50 -199q-37 -24 -131 -29q-10 10 -10 25q0 9 3 15q82 8 108 29q22 28 28 112q-38 -16 -74 -16q-137 0 -137 187q0 8 2 62q2 56 2 61q0 27 24 124q11 32 57 50q43 17 94 17q45 0 75 -14q12 0 14 -23l-1 -37l-3 -129l1 -73zM267 152l-2 253
q0 28 1 36q-15 15 -55 15q-66 0 -87 -57q-8 -24 -19 -133q0 -177 32 -204q23 -21 73 -21q32 0 52 18l3 12z" />
    <glyph glyph-name="h" unicode="h" horiz-adv-x="361" 
d="M270 484l35 -42q0 -365 5 -433q-30 -22 -53 -8q-11 41 -5 147q0 17 5 142l-3 139q-64 43 -156 -19q-2 -56 -2 -60l2 -78v-137q0 -21 4 -60q5 -42 3 -62q-7 -7 -26 -9q-20 -2 -26 5q-4 52 -2 176q1 133 0 179v149q0 157 3 176q22 15 46 4q3 -56 -2 -167q-1 -14 1 -71
q98 75 171 29z" />
    <glyph glyph-name="i" unicode="i" horiz-adv-x="161" 
d="M58 168l-4 315q10 17 29 16q16 -1 23 -13l-4 -119l6 -359q-6 -6 -23 -8q-19 -1 -29 11zM108 587q-2 -5 -26 -5q-25 0 -28 8q-8 32 0 55q19 21 55 3z" />
    <glyph glyph-name="j" unicode="j" horiz-adv-x="177" 
d="M115 587q-2 -5 -26 -5q-25 0 -28 8q-8 32 0 55q19 21 55 3zM61 447v36q10 17 29 16q16 -1 23 -13l-1 -26q1 -46 -3 -146q-1 -18 0 -46l1 -46l-3 -84l2 -78q-4 -155 -51 -199q-37 -24 -131 -29q-16 17 -7 40q82 8 108 29q29 38 34 251v149v123t-1 23z" />
    <glyph glyph-name="k" unicode="k" 
d="M257 9q-9 29 -52 133q-36 85 -49 132q-8 24 -10 29l-24 -37l-10 -12l-15 -18l1 -101q0 -21 4 -62q5 -45 3 -65q-7 -7 -26 -9q-20 -1 -26 5q-4 52 -2 179q1 135 0 181v149q0 157 3 176q22 15 46 4q3 -56 -2 -167q-1 -18 0 -46l1 -46l-3 -84l1 -40q27 41 78 109
q44 60 74 105q8 11 31 10q22 -2 24 -9q-27 -44 -124 -175q11 -20 25 -63q13 -45 50 -141q38 -96 50 -138q-3 -8 -23 -10q-20 -1 -25 11z" />
    <glyph glyph-name="l" unicode="l" horiz-adv-x="157" 
d="M96 350l2 -78v-137q0 -21 4 -62q5 -45 3 -65q-7 -7 -26 -9q-20 -1 -26 5q-4 52 -2 179q1 135 0 181v149q0 157 3 176q22 15 46 4q3 -56 -2 -167q-1 -18 0 -46l1 -46z" />
    <glyph glyph-name="m" unicode="m" horiz-adv-x="567" 
d="M477 484l35 -42q0 -365 5 -433q-30 -22 -53 -8q-11 41 -5 147q0 17 5 142l-3 139q-63 42 -154 -19v-401q-5 -3 -25 -5q-21 -1 -29 5q0 127 1 139q0 17 5 142l-3 139q-64 43 -156 -19q-2 -56 -2 -60l2 -78v-137q0 -21 4 -60q5 -42 3 -62q-7 -7 -27 -9t-27 5q-4 58 -1 176
q2 154 1 179v121q21 25 46 12l2 -42q98 75 171 29l27 -33q102 79 178 33z" />
    <glyph glyph-name="n" unicode="n" horiz-adv-x="360" 
d="M270 484l35 -42q0 -365 5 -433q-30 -22 -53 -8q-11 41 -5 147q0 17 5 142l-3 139q-64 43 -156 -19q-2 -56 -2 -60l2 -78v-137q0 -21 4 -60q5 -42 3 -62q-7 -7 -26 -9q-20 -2 -26 5q-4 52 -2 176q1 133 0 179v121q21 25 46 12l2 -42q98 75 171 29z" />
    <glyph glyph-name="o" unicode="o" horiz-adv-x="353" 
d="M302 446q2 -16 2 -52q2 -42 2 -82l-1 -81q0 -147 -1 -152l-12 -24q-3 -9 -7 -19q-6 -2 -19 -15q-14 -12 -24 -15q-82 -26 -132 -3q-20 9 -51 60q-1 14 -1 94q-2 59 -3 99v54q-12 71 4 117q5 25 41 45q26 19 86 34q20 5 68 -12q15 -6 48 -48zM104 400q-3 -27 3 -197
l5 -117q10 -51 64 -43q44 5 51 8q18 7 30 39q1 19 1 328q-13 37 -77 33q-65 -5 -77 -51z" />
    <glyph glyph-name="p" unicode="p" horiz-adv-x="369" 
d="M53 -20v391q0 90 -3 90q44 44 129 37q79 -6 104 -40q33 -43 34 -123q1 -15 -1 -71q-2 -70 -2 -71q0 -27 -24 -124q-13 -40 -74 -58q-53 -17 -116 -9v-9q0 -157 -3 -176q-22 -15 -46 -4q-3 56 2 167zM100 142v-1q0 -1 1 -1l-1 -9q1 -16 1 -72q3 -3 19 -10q79 -23 119 37
q14 35 24 148q0 175 -32 204q-17 14 -57 18q-48 4 -73 -18l-1 -148q-2 -92 0 -148z" />
    <glyph glyph-name="q" unicode="q" horiz-adv-x="364" 
d="M310 310l-2 -335q5 -111 2 -167q-24 -11 -46 4q-3 35 -3 176v22q-59 -21 -111 -8q-44 10 -66 40q-33 43 -34 123q-1 15 1 71q2 70 2 71q0 27 24 124q18 50 97 65q76 14 135 -18q6 -13 3 -46q2 -40 -2 -122zM261 137q2 48 0 155q-1 100 0 153l-14 6q-79 23 -119 -37
q-14 -35 -24 -148q0 -175 32 -204q19 -16 55 -20q45 -6 69 16q-1 15 1 79z" />
    <glyph glyph-name="r" unicode="r" horiz-adv-x="256" 
d="M52 227v207q0 12 2 54q36 20 46 7v-57q15 34 52 50q33 16 68 11q8 -35 -6 -49q-31 -1 -61 -15q-44 -20 -52 -58l-1 -229q2 -58 2 -86v-60q-10 -6 -27 -3t-24 12q-1 12 1 63l1 117l-1 18q-2 11 0 18z" />
    <glyph glyph-name="s" unicode="s" horiz-adv-x="358" 
d="M262 500q17 -34 20 -104q5 -77 -18 -98q-32 0 -33 1q5 150 -3 162q-22 14 -63 7q-39 -7 -56 -24q-20 -96 16 -163l162 -92q38 -101 11 -142q-3 -8 -28 -24q-27 -18 -35 -19q-92 -14 -145 5q-32 15 -34 71q-1 14 -1 77q0 7 2 10.5t6 2.5l29 -7q7 -4 7 -34q0 -47 4 -59
q10 -37 123 -19q50 51 19 115q-23 19 -65 39q-46 22 -65 35q-45 31 -61 78q-4 9 -4 90q0 54 25 79q111 27 187 13z" />
    <glyph glyph-name="t" unicode="t" horiz-adv-x="273" 
d="M52 502q0 -2 52 -2q-1 13 -1 57q0 33 6 43q6 9 29 9q10 0 17 -4l-1 -25l1 -80l53 1q9 0 9 -29q0 -19 -5 -21l-40 3q-11 0 -17 -1q0 -24 -2 -102l2 -107l-1 -14v-143q0 -41 25 -41q6 0 18 3q16 2 17 2q9 0 9 -35q0 -16 -50 -16q-68 0 -68 60l1 339q-1 20 -1 52
q-15 -1 -40 -1l-12 12q-3 0 -3 13q0 7 2 27z" />
    <glyph glyph-name="u" unicode="u" horiz-adv-x="360" 
d="M90 16l-35 42q0 365 -5 433q30 22 53 8q11 -41 5 -147q0 -17 -5 -142l3 -139q66 -46 155 19l3 60l-2 78v137q0 21 -4 60q-5 42 -3 62q7 7 26 9t26 -5q4 -64 3 -176q-2 -156 -1 -179v-121q-21 -25 -46 -12q-2 26 -2 41q-99 -72 -171 -28z" />
    <glyph glyph-name="v" unicode="v" horiz-adv-x="357" 
d="M50 485q1 7 25 12q23 5 26 -3q6 -48 24 -135l28 -145l19 -113q3 7 16 59q15 59 16 61q16 72 28 136q22 111 28 138q8 9 24 2q16 -8 23 -20l-26 -136q-15 -84 -31 -133l-24 -93q-18 -68 -28 -99q-10 -12 -50 -8l-27 117q-4 30 -15 82l-17 82q-3 16 -21 97q-14 60 -18 99z
" />
    <glyph glyph-name="w" unicode="w" horiz-adv-x="530" 
d="M480 485q-7 -62 -29 -198l-15 -81q-7 -36 -14 -82l-25 -116q-37 -4 -47 8q-14 44 -27 99q-17 70 -24 92q-18 57 -32 150q-17 -83 -36 -150q-7 -22 -24 -92q-13 -55 -27 -99q-10 -12 -47 -8l-25 116q-7 46 -14 82l-15 81q-20 112 -29 197q2 9 24 13q21 5 24 -2
q14 -108 42 -282l16 -113q2 4 17 58q13 49 17 60l55 266q6 13 20 11q13 -1 20 -11l55 -266q4 -11 17 -60q15 -54 17 -58l17 113q34 217 42 283q3 7 24 2t23 -13z" />
    <glyph glyph-name="x" unicode="x" horiz-adv-x="355" 
d="M285 501q13 -13 13 -23q-18 -33 -46 -114q-27 -80 -45 -114q23 -40 54 -114q25 -65 43 -134q-11 -14 -41 -3q-49 102 -83 212q-16 -31 -42 -103q-24 -64 -45 -102q-5 -4 -41 -4q-6 26 10 57l35 81l35 82q15 37 5 56q-41 74 -75 168q-13 31 -11 49q0 5 15 6q14 1 18 0
q-7 3 28 -51q13 -22 30 -77q16 -55 31 -77q9 19 24 65q15 45 27 66q12 26 20 47q12 32 41 27z" />
    <glyph glyph-name="y" unicode="y" horiz-adv-x="364" 
d="M310 138l2 -78q-4 -155 -51 -199q-37 -24 -131 -29q-16 17 -7 40q82 8 108 29q24 35 30 143q-97 -73 -171 -28l-35 42q0 365 -5 433q30 22 53 8q11 -41 5 -147q0 -17 -5 -142l3 -139q35 -26 86 -12q40 9 71 33l2 60v149q0 19 -6 101q-4 55 1 93q26 17 51 4q5 -109 1 -185
q-1 -18 0 -46l1 -46z" />
    <glyph glyph-name="z" unicode="z" horiz-adv-x="359" 
d="M281 497l24 -35q-2 -9 -8 -20l-6 -12l-59 -108l-53 -97q-53 -94 -71 -161l23 -22q33 -5 61 -5q53 0 103 10q18 -11 10 -31q0 -3 -3 -6q-24 -9 -114 -9h-30q-63 0 -81 2l-27 49q8 66 66 171l17 28l26 43l86 143q-5 17 -15 21h-25q-53 0 -89 -6q-32 -8 -51 -6q-10 1 -12 34
q18 22 160 22q56 0 68 -5z" />
    <glyph glyph-name="braceleft" unicode="{" horiz-adv-x="260" 
d="M112 -18l11 -30q36 -16 81 -15q7 -4 5 -33q-7 -6 -59 2q-48 7 -60 14q-23 15 -28 53q13 296 31 296q2 1 3 -1q-3 6 -46 21v24q43 15 46 21q-8 -9 -15 32q-11 65 -19 263q5 38 28 53q12 7 60 14q52 8 59 2q2 -29 -5 -33q-45 1 -81 -15l-11 -30q22 -78 28 -106
q14 -65 16 -86q5 -89 -17 -111l-13 -11l-6 -6q11 -7 19 -15q22 -22 17 -111q-2 -21 -16 -86q-6 -28 -28 -106z" />
    <glyph glyph-name="bar" unicode="|" horiz-adv-x="161" 
d="M53 407q-3 284 0 331q6 6 26 11q19 5 27 -3q1 -15 -4 -64q-4 -41 -4 -62v-56q0 -69 3 -100l-2 -56q-36 -20 -46 -1zM97 279v-27q0 -55 3 -148q5 -80 0 -155q-36 -17 -50 -7l2 176v151q4 18 45 10z" />
    <glyph glyph-name="braceright" unicode="}" horiz-adv-x="260" 
d="M136 -48l11 30q-22 78 -28 106q-14 65 -16 86q-5 89 17 111q8 8 19 15l-19 18v-1q-22 22 -17 111q2 21 16 86q6 28 28 106l-11 30q-36 16 -81 15q-7 4 -5 33q7 6 60 -2q47 -7 59 -14q23 -15 28 -53q-13 -297 -31 -296q-2 0 -3 1q3 -6 46 -21v-24q-43 -15 -46 -21
q8 9 15 -32q11 -65 19 -263q-5 -38 -28 -53q-12 -7 -59 -14q-53 -8 -60 -2q-2 29 5 33q45 -1 81 15z" />
    <glyph glyph-name="asciitilde" unicode="~" horiz-adv-x="430" 
d="M161 315l-96 -22q-23 13 -12 39l91 35q37 -1 79 -15l57 -17l82 23q31 -29 8 -41l-92 -32z" />
    <glyph glyph-name="exclamdown" unicode="&#xa1;" horiz-adv-x="160" 
d="M104 7l-6 -2l-18 -3q-27 -4 -30 5l8 151q2 32 4 108q2 69 2 71q2 18 3 127q0 100 3 106q1 6 16 9q14 2 17 -4q2 -86 1 -87q-2 -2 3 -342l3 -122q0 -17 -6 -17zM101 618l-36 -1q-5 3 -6 34q-2 34 2 40q7 12 43 4q4 -1 3 -39q-3 -38 -6 -38z" />
    <glyph glyph-name="cent" unicode="&#xa2;" horiz-adv-x="365" 
d="M172 585q23 12 37 8q1 -5 1 -68q-1 -7 -1 -28q72 4 103 -18q-2 -94 -14 -127q-24 0 -32 8l2 38q3 32 0 39t-21 14q-24 6 -40 5v-53q0 -26 -2 -54q-2 -30 -2 -59v-56q-3 -105 -2 -121l-3 -50v-22q40 -5 63 18l16 65l25 6q5 1 7.5 -7t2.5 -27q0 -58 -6 -63
q-53 -33 -107 -36q2 -62 -5 -90q-14 -12 -30 -6l1 98q-56 8 -81 43q-33 43 -34 123q-1 15 1 71q2 70 2 71q0 27 24 124q13 44 97 61q0 11 -2 93zM136 62q7 -6 29 -14l1 23q2 15 0 42v44q0 55 3 147l5 146q-28 -10 -46 -36q-14 -35 -24 -148q0 -175 32 -204z" />
    <glyph glyph-name="sterling" unicode="&#xa3;" horiz-adv-x="404" 
d="M161 20l-96 -22q-23 14 -12 39l22 8l53 105q1 50 -22 150q-15 -1 -39 -1l-12 12q-1 0 -1 40q0 -2 39 -2q-43 154 -43 212q0 73 25 110q8 23 79 24q82 1 159 -42q30 -47 12 -198q-6 -7 -21 -9q-17 -2 -21 10q0 144 -9 158q-14 20 -71 27q-61 7 -75 -15q-43 -95 10 -278
l159 2q4 1 6.5 -4.5t3.5 -18.5q2 -26 -5 -27l-40 3l-110 -2q33 -109 27 -169l-32 -60q35 -3 64 -16q37 -15 43 -16l82 23q31 -29 8 -41l-92 -32z" />
    <glyph glyph-name="currency" unicode="&#xa4;" horiz-adv-x="359" 
d="M250 505l28 35q23 2 31 -27l-26 -49q23 -155 -7 -296l23 -53q-6 -16 -12 -22t-12 -3q-1 1 -3 3.5t-5 7t-6 7.5l-14 18q-61 -45 -136 -6l-25 -34q-7 -4 -18 4q-12 8 -13 18l28 48q-24 147 0 298l-33 58q11 32 37 19l26 -36q58 32 137 10zM129 429q-32 -125 0 -268
q65 -33 105 15q37 139 1 282q-20 20 -52 14q-35 -8 -54 -43z" />
    <glyph glyph-name="yen" unicode="&#xa5;" horiz-adv-x="360" 
d="M50 369q0 -3 81 -3l-35 134l-30 123q-11 41 -11 55q0 10 33 17q21 0 28 -67l60 -257l11 8q25 82 49 221q16 97 33 97q11 0 32 -8q3 -3 3 -12q0 -15 -6 -28q-17 -44 -37 -138q-22 -106 -32 -144l64 1q4 1 6.5 -4.5t3.5 -17.5q2 -25 -5 -26l-40 3q-26 0 -43 -1l-3 -9
l-9 -16q-1 -5 -1 -21q19 0 41.5 0.5t35 1t18.5 0.5q4 1 6.5 -4.5t3.5 -18.5q2 -26 -5 -27l-40 3l-60 -1l2 -78q2 -62 2 -72q0 -68 -2 -70q-29 -11 -40 -6q-10 4 -10 90l2 135l-89 -2l-12 12q-1 0 -1 40q0 -3 101 -3q-1 20 -5 31q-3 5 -5 14l-82 -2l-12 12q-1 0 -1 38z" />
    <glyph glyph-name="brokenbar" unicode="&#xa6;" horiz-adv-x="161" 
d="M101 464l-5 -128l1 -84q0 -55 3 -148q5 -80 0 -155q-36 -17 -50 -7l2 176q0 188 1 204q1 23 -1 210q-3 147 1 206q6 6 26 11q19 5 27 -3q1 -15 -4 -64q-4 -41 -4 -62v-56q0 -69 3 -100z" />
    <glyph glyph-name="section" unicode="&#xa7;" horiz-adv-x="352" 
d="M250 655q-88 21 -158 -20q-4 -67 3 -104q4 -22 14 -33q19 -22 143 -67q22 -8 28 -16q18 -22 15 -116q-28 -25 -67 -29l21 -18l44 -36q8 -2 8 -97q0 -96 -11 -98q-32 -21 -116 -21q-86 -1 -115 23q-15 52 4 86q10 9 26 -2v-55q63 -28 176 2q1 26 -6 87q-9 69 -20 78
q-10 10 -75 34t-87 49q-18 54 -1 113q3 9 23 17t26 5q-43 29 -51 36q-22 7 -24 101q0 92 27 106q26 12 112 17q83 3 89 -8q21 -35 11 -71l-3 -21q-14 -6 -28 0q-1 43 -8 58zM114 398q0 -57 4 -80q10 -2 42 -14q22 -8 33 -10q53 11 68 15q3 35 -6 79q-5 1 -44 16
q-33 14 -45 15q-49 -19 -52 -21z" />
    <glyph glyph-name="dieresis" unicode="&#xa8;" horiz-adv-x="270" 
d="M100 638q-22 -9 -47 -1q-7 46 3 58q46 10 49 2q10 -24 -5 -59zM211 638q-22 -9 -47 -1q-7 46 3 58q46 10 49 2q10 -24 -5 -59z" />
    <glyph glyph-name="copyright" unicode="&#xa9;" horiz-adv-x="492" 
d="M387 75l-26 -39q-88 -57 -200 -21q-58 18 -83 130q-74 314 47 517q127 54 254 30q42 -77 59 -197q19 -148 -27 -352zM398 399l-3 67q0 26 -16 97q-16 76 -25 86q-24 28 -102 10q-72 -16 -102 -46q-55 -131 -58 -236q-1 -21 4 -76q11 -149 39 -197q8 -19 40 -52
q11 -6 60 -5q57 1 90 17q44 15 62 169q6 57 8 108zM321 421l-4 -1q-28 0 -28 29q0 4 2 28q2 26 2 28q0 20 -7 35l-5 9h-7q-39 0 -69 -24q-4 -18 -13 -163l3 -163q1 -24 7 -33h-1q10 -10 39 -10q13 0 41 5l7 16q0 74 13 80l15 6h3q10 0 10 -30v-5q0 -58 -1 -63
q-6 -31 -33 -42l-11 -4q-36 -11 -53 -11q-12 0 -24 3h1q-50 11 -53 86q2 56 2 68l-2 136q0 69 13 146q33 40 108 40q54 0 54 -41l1 -48q0 -44 -10 -77z" />
    <glyph glyph-name="ordfeminine" unicode="&#xaa;" horiz-adv-x="268" 
d="M61 640v36q14 29 104 29q25 0 40 -4q7 -4 9 -17l-1 -148q0 -73 5 -138q-4 -4 -17 -7q-14 -3 -20 1l-4 20q-31 -24 -66 -24q-20 0 -38 7q-23 14 -23 76q0 75 25 87q7 3 40 12q54 14 66 30l-4 66q-13 5 -30 5q-41 0 -58 -16v-21q-5 -11 -16 -7q-12 5 -12 13zM178 477v6
q0 43 3 76q-7 -6 -42 -18q-31 -11 -39 -15q-16 -13 -16 -58q0 -40 16 -50q48 1 76 25q0 8 2 34z" />
    <glyph glyph-name="guillemotleft" unicode="&#xab;" horiz-adv-x="350" 
d="M149 472q29 -23 16 -49l-56 -124l58 -139q-3 -16 -23 -33q-36 34 -94 173q13 18 52 89q30 56 47 83zM280 472q29 -23 16 -49l-56 -124l58 -139q-3 -16 -23 -33q-36 34 -94 173q13 18 52 89q30 56 47 83z" />
    <glyph glyph-name="logicalnot" unicode="&#xac;" horiz-adv-x="355" 
d="M50 348q0 1 117 1l136 -4v-106q-9 -12 -47 -4q2 38 -3 65q-10 6 -190 0l-12 12q-1 0 -1 36z" />
    <glyph glyph-name="uni00AD" unicode="&#xad;" 
d="M50 348q0 -3 117 -3l126 2q4 1 6.5 -4.5t3.5 -18.5q2 -26 -5 -27l-40 3l-195 -4l-12 12q-1 0 -1 40z" />
    <glyph glyph-name="registered" unicode="&#xae;" horiz-adv-x="492" 
d="M387 75l-26 -39q-88 -57 -200 -21q-58 18 -83 130q-74 314 47 517q127 54 254 30q42 -77 59 -197q19 -148 -27 -352zM398 399l-3 67q0 26 -16 97q-16 76 -25 86q-24 28 -102 10q-72 -16 -102 -46q-55 -131 -58 -236q-1 -21 4 -76q11 -149 39 -197q8 -19 40 -52
q11 -6 60 -5q57 1 90 17q44 15 62 169q6 57 8 108zM281 123l-6 41q-10 43 -15 88q-4 40 -9 60q-39 -10 -39 -21v-129q1 -5 1 -23t-42 -18v38q0 54 1 88l1 70q-1 9 -1 53q0 48 1 74l1 50q0 56 -2 70q45 13 90 13q49 0 58 -51q5 -35 5 -103q-6 -69 -38 -93l5 -27
q8 -56 23 -112q11 -41 11 -49q0 -19 -45 -19zM210 530q0 -45 -1 -70l-1 -50q0 -38 3 -68q42 2 60 27q19 25 19 84q0 61 -10 82q-43 11 -70 -5z" />
    <glyph glyph-name="degree" unicode="&#xb0;" horiz-adv-x="314" 
d="M256 688q20 -99 -6 -200q-33 -30 -95 -30q-57 -1 -102 25q-10 118 11 188q26 21 97 26q65 5 95 -9zM98 645q-29 -68 0 -142q82 -22 117 13q23 71 0 143q-79 21 -117 -14z" />
    <glyph glyph-name="plusminus" unicode="&#xb1;" horiz-adv-x="357" 
d="M160 174q-1 0 -1 124l-93 -2l-12 12q-5 0 -3 20q1 4 1 12l1 3q0 -3 106 -3q-2 106 -2 116q-1 5 4.5 8.5t16.5 5.5q24 5 25 -2l-2 -47q0 -51 1 -81q19 0 41.5 0.5t34.5 1t18 0.5q4 1 6.5 -4.5t3.5 -16.5q2 -23 -5 -24l-40 3l-58 -1l3 -129q-12 -5 -46 4zM304 72
q0 3 -117 3l-126 -2q-4 -1 -6.5 4.5t-3.5 17.5q-2 23 5 25l40 -3l195 4l12 -12q1 0 1 -37z" />
    <glyph glyph-name="uni00B2" unicode="&#xb2;" horiz-adv-x="306" 
d="M66 672q52 30 114 27q51 -3 59 -18q20 -20 20 -58q0 -87 -6 -104q-15 -37 -48 -57q-41 -25 -74 -60q-38 -41 -14 -53q47 -7 138 6q6 -1 -2 -30q-141 0 -173 2q-36 23 -2 66q30 36 119 99q13 21 18 78q4 57 -3 88q-14 20 -61 15q-45 -4 -53 -22q-8 -19 -8 -84
q-3 -7 -17 -5t-17 5q-15 78 10 105z" />
    <glyph glyph-name="uni00B3" unicode="&#xb3;" horiz-adv-x="301" 
d="M191 677l-127 -1q-7 -5 -11 10q-4 14 2 16h174l11 -11q-4 -3 -9 -12q-6 -9 -10 -13l-45 -49l-45 -49q36 2 63 -10q59 -26 57 -92q-2 -55 -25 -78q-49 -51 -152 -64q-11 0 -16 11q-5 12 7 16q59 12 81 24q32 18 43 29q23 22 24 60q0 55 -57 73l-65 6l-7 21q13 17 56 57
q41 40 51 56z" />
    <glyph glyph-name="acute" unicode="&#xb4;" horiz-adv-x="231" 
d="M181 684l-103 -125q-13 2 -28 7q11 36 78 128l19 8q21 -5 34 -18z" />
    <glyph glyph-name="mu" unicode="&#xb5;" horiz-adv-x="360" 
d="M264 150l-2 78v137q0 21 -4 60q-5 42 -3 62q7 7 26 9t26 -5q4 -64 3 -176q-2 -156 -1 -179v-121q-21 -25 -46 -12q-2 26 -2 41q-86 -66 -154 -37q0 -52 -2 -98q-36 -17 -50 -7q-4 18 1 154l-1 2q0 365 -5 433q30 22 53 8q11 -41 5 -147l-2 -99q-1 -97 0 -182
q66 -46 155 19z" />
    <glyph glyph-name="paragraph" unicode="&#xb6;" horiz-adv-x="396" 
d="M294 232l7 404q-30 14 -94 17q2 -41 -3 -127q-2 -23 0 -47l1 -53l-3 -76l2 -78v-137q0 -21 4 -62q5 -45 3 -65q-7 -7 -26 -9q-19 -1 -26 5q-4 52 -2 179q1 135 0 181q-1 14 -1 65q-65 8 -72 22q-60 138 -14 216q84 62 277 10q-5 -13 -2 -150q3 -167 0 -229q-4 -41 -4 -67
q0 -177 6 -223q-15 -18 -58 -8v51q0 48 4 105q3 48 1 76z" />
    <glyph glyph-name="middot" unicode="&#xb7;" horiz-adv-x="159" 
d="M100 294q-22 -9 -47 -1q-7 46 3 58q46 10 49 2q10 -24 -5 -59z" />
    <glyph glyph-name="cedilla" unicode="&#xb8;" horiz-adv-x="255" 
d="M86 -37l17 43h29l-7 -35q47 5 69 -29q17 -28 7 -56q-11 -30 -53 -38l-98 19q0 17 21 21q14 -4 63 -7q36 10 30 41q-5 32 -59 27z" />
    <glyph glyph-name="uni00B9" unicode="&#xb9;" horiz-adv-x="189" 
d="M132 512l1 -115q0 -9 3 -33q3 -22 3 -33q-24 -15 -39 -2q-3 39 -2 95q2 68 0 96v107l-1 25q-25 -19 -47 4l50 36l1 2q18 8 34 2l1 -14q0 -36 -3 -75l1 -50z" />
    <glyph glyph-name="ordmasculine" unicode="&#xba;" horiz-adv-x="298" 
d="M248 657q2 -12 2 -39q2 -32 1 -61v-61q0 -108 -1 -113q0 3 -15 -32q-6 -3 -15 -11q-10 -8 -19 -12q-68 -17 -102 -2q-18 8 -40 45q-1 13 -1 70q0 36 -2 74v40q-12 59 3 87q3 20 32 34q20 14 67 25q18 3 53 -9q12 -4 37 -35zM94 622q-2 -26 2 -147q1 -21 3 -53l1 -34
q8 -38 50 -32q32 3 39 6q13 6 24 29q1 19 1 245q-10 28 -60 25q-51 -5 -60 -39z" />
    <glyph glyph-name="guillemotright" unicode="&#xbb;" horiz-adv-x="350" 
d="M201 472q17 -27 47 -83q39 -71 52 -89q-58 -139 -94 -173q-20 17 -23 33l58 139l-56 124q-13 26 16 49zM70 472q17 -27 47 -83q39 -71 52 -89q-58 -139 -94 -173q-20 17 -23 33l58 139l-56 124q-13 26 16 49z" />
    <glyph glyph-name="onequarter" unicode="&#xbc;" horiz-adv-x="565" 
d="M309 712h7q26 9 46 0q-2 -19 -16 -73q-10 -48 -17 -71q-7 -22 -18 -69l-19 -69q-23 -76 -39 -136q-2 -8 -16 -72q-7 -33 -17 -73q-1 -7 -8 -29l-9 -30q-49 -176 -54 -183q-19 -9 -40 -1q0 6 23 104q9 33 14 48t14 48l24 104l26 101q3 11 6 27l6 25l1 3q1 3 2 6.5t3 9
t4 13t5 15.5q1 1 7 25l6 24l16 48q10 32 22 101q12 73 21 104zM437 406q8 15 31 6l8 -2q2 -34 -2 -99l1 -54l-2 -50l1 -49q-1 -1 -1 -4l34 2q10 -1 6 -28l-39 -1v-45q0 -10 3 -36q3 -27 3 -38q-6 -4 -21 -6t-20 3q-3 28 -3 122q-69 0 -102 1l-20 16l6 25q10 31 64 132
q51 95 53 105zM132 512l1 -115q0 -9 3 -33q3 -22 3 -33q-24 -15 -39 -2q-3 39 -2 95q2 68 0 96v107l-1 25q-25 -19 -47 4l50 36l1 2q18 8 34 2l1 -14q0 -36 -3 -75l1 -50zM437 153l-1 165l-1 14q-58 -111 -78 -172l5 -8q48 0 75 1z" />
    <glyph glyph-name="onehalf" unicode="&#xbd;" horiz-adv-x="578" 
d="M309 712h7q26 9 46 0q-2 -19 -16 -73q-10 -48 -17 -71q-7 -22 -18 -69l-19 -69q-23 -76 -39 -136q-2 -8 -16 -72q-7 -33 -17 -73q-1 -7 -8 -29l-9 -30q-49 -176 -54 -183q-19 -9 -40 -1q0 6 23 104q9 33 14 48t14 48l24 104l26 101q3 11 6 27l6 25l1 3q1 3 2 6.5t3 9
t4 13t5 15.5q1 1 7 25l6 24l16 48q10 32 22 101q12 73 21 104zM335 347q53 30 114 27q51 -3 59 -18q20 -20 20 -58q0 -88 -6 -104q-15 -38 -48 -57q-41 -25 -74 -60q-38 -41 -14 -53q46 -8 138 6q6 -1 -2 -30q-141 0 -173 2q-36 23 -2 66q30 36 119 99q14 21 18 78t-3 88
q-14 20 -61 15q-45 -4 -53 -22q-8 -19 -8 -84q-3 -7 -17 -5t-17 5q-15 78 10 105zM132 512l1 -115q0 -9 3 -33q3 -22 3 -33q-24 -15 -39 -2q-3 39 -2 95q2 68 0 96v107l-1 25q-25 -19 -47 4l50 36l1 2q18 8 34 2l1 -14q0 -36 -3 -75l1 -50z" />
    <glyph glyph-name="threequarters" unicode="&#xbe;" horiz-adv-x="638" 
d="M383 713h7q26 9 46 0q-2 -19 -16 -73q-10 -48 -17 -71t-18 -69l-19 -69q-23 -76 -39 -136q-2 -8 -16 -72q-7 -33 -17 -73q-1 -7 -8 -29l-9 -30q-49 -175 -54 -183q-19 -9 -40 -1q0 6 23 104q9 33 14 48t14 48l24 104l26 101q3 10 6 27l6 25l1 3q1 3 2 6.5t3 9t4 13
t5 15.5q1 1 7 25l6 24l16 48q10 32 22 101q12 73 21 104zM511 407q8 15 31 6l8 -2q2 -34 -2 -99l1 -54l-2 -50l1 -49q-1 -1 -1 -4l34 2q10 -1 6 -28l-39 -1v-45q0 -11 3 -36q3 -27 3 -38q-6 -5 -21 -6q-15 -2 -20 3q-3 29 -3 122q-69 0 -102 1l-20 16l6 25q10 31 64 132
q51 95 53 105zM191 677l-127 -1q-7 -5 -11 10q-4 14 2 16h174l11 -11q-4 -3 -9 -12q-6 -9 -10 -13l-45 -49l-45 -49q36 2 63 -10q59 -26 57 -92q-2 -55 -25 -78q-49 -51 -152 -64q-11 0 -16 11q-5 12 7 16q59 12 81 24q32 18 43 29q23 22 24 60q0 55 -57 73l-65 6l-7 21
q13 17 56 57q41 40 51 56zM511 154l-1 165l-1 14q-58 -111 -78 -172l5 -8q48 0 75 1z" />
    <glyph glyph-name="questiondown" unicode="&#xbf;" horiz-adv-x="361" 
d="M265 236q5 9 17 9q14 0 20 -13q14 -45 3 -203q-18 -24 -101 -22q-88 1 -123 41q-28 31 -28 100l-2 64q-1 44 0 72q3 83 33 112q4 3 26 16q21 10 29 17q33 23 33 60l5 27l-1 61q5 10 20 11q16 1 26 -3q1 -106 -9 -134q-11 -31 -72 -72q-24 -17 -37 -35v-228q16 -43 57 -58
q38 -16 89 -2q32 56 15 180zM179 708q22 9 47 1q7 -46 -3 -58q-46 -10 -49 -2q-10 24 5 59z" />
    <glyph glyph-name="Agrave" unicode="&#xc0;" horiz-adv-x="368" 
d="M227 698q12 -50 21 -159q10 -124 18 -163l15 -79q31 -284 36 -283q-1 -18 -53 -11q-1 2 -4 38l-7 69q-12 105 -24 158q-11 2 -44 0l-42 -3q-13 -110 -14 -129q-4 -39 -4 -119q0 -13 -20 -11l-32 1q22 270 43 427q36 264 33 258q43 16 78 6zM153 314l68 5q0 44 -10 158
q-11 127 -12 160q-2 5 -9 4q-8 -2 -10 -7q-4 -30 -12 -138q-7 -116 -15 -182zM71 861q13 13 34 18l19 -8q67 -92 78 -128q-15 -5 -28 -7z" />
    <glyph glyph-name="Aacute" unicode="&#xc1;" horiz-adv-x="345" 
d="M204 698q12 -50 21 -159q10 -124 18 -163l15 -79q31 -284 36 -283q-1 -18 -53 -11q-1 2 -4 38l-7 69q-12 105 -24 158q-11 2 -44 0l-42 -3q-13 -110 -14 -129q-4 -39 -4 -119q0 -13 -20 -11l-32 1q22 270 43 427q36 264 33 258q44 16 78 6zM130 314l68 5q0 44 -10 158
q-11 127 -12 160q-2 5 -9 4q-8 -2 -10 -7q-5 -30 -12 -138q-7 -116 -15 -182zM268 861l-103 -125q-13 2 -28 7q11 36 78 128l19 8q21 -5 34 -18z" />
    <glyph glyph-name="Acircumflex" unicode="&#xc2;" horiz-adv-x="345" 
d="M204 698q12 -50 21 -159q10 -124 18 -163l15 -79q31 -284 36 -283q-1 -18 -53 -11q-1 2 -4 38l-7 69q-12 105 -24 158q-11 2 -44 0l-42 -3q-13 -110 -14 -129q-4 -39 -4 -119q0 -13 -20 -11l-32 1q22 270 43 427q36 264 33 258q44 16 78 6zM130 314l68 5q0 44 -10 158
q-11 127 -12 160q-2 5 -9 4q-8 -2 -10 -7q-5 -30 -12 -138q-7 -116 -15 -182zM261 752l-24 -11q-77 53 -83 59q-46 -40 -68 -65q-7 0 -11 7q-5 8 -10 8q20 47 77 105l30 -5l65 -66q21 -20 24 -32z" />
    <glyph glyph-name="Atilde" unicode="&#xc3;" horiz-adv-x="360" 
d="M204 698q12 -50 21 -159q10 -124 18 -163l15 -79q31 -284 36 -283q-1 -18 -53 -11q-1 2 -4 38l-7 69q-12 105 -24 158q-11 2 -44 0l-42 -3q-13 -110 -14 -129q-4 -39 -4 -119q0 -13 -20 -11l-32 1q22 270 43 427q36 264 33 258q44 16 78 6zM130 314l68 5q0 44 -10 158
q-11 127 -12 160q-2 5 -9 4q-8 -2 -10 -7q-5 -30 -12 -138q-7 -116 -15 -182zM121 765l-70 -21q-16 13 -9 38l67 32q26 -1 58 -15q38 -16 41 -16l60 24q22 -28 6 -40l-67 -31z" />
    <glyph glyph-name="Adieresis" unicode="&#xc4;" horiz-adv-x="345" 
d="M204 698q12 -50 21 -159q10 -124 18 -163l15 -79q31 -284 36 -283q-1 -18 -53 -11q-1 2 -4 38l-7 69q-12 105 -24 158q-11 2 -44 0l-42 -3q-13 -110 -14 -129q-4 -39 -4 -119q0 -13 -20 -11l-32 1q22 270 43 427q36 264 33 258q44 16 78 6zM130 314l68 5q0 44 -10 158
q-11 127 -12 160q-2 5 -9 4q-8 -2 -10 -7q-5 -30 -12 -138q-7 -116 -15 -182zM133 744q-22 -9 -47 -1q-7 46 3 58q46 10 49 2q10 -24 -5 -59zM244 744q-22 -9 -47 -1q-7 46 3 58q46 10 49 2q10 -24 -5 -59z" />
    <glyph glyph-name="Aring" unicode="&#xc5;" horiz-adv-x="345" 
d="M204 698q12 -50 21 -159q10 -124 18 -163l15 -79q31 -284 36 -283q-1 -18 -53 -11q-1 2 -4 38l-7 69q-12 105 -24 158q-11 2 -44 0l-42 -3q-13 -110 -14 -129q-4 -39 -4 -119q0 -13 -20 -11l-32 1q22 270 43 427q36 264 33 258q44 16 78 6zM130 314l68 5q0 44 -10 158
q-11 127 -12 160q-2 5 -9 4q-8 -2 -10 -7q-5 -30 -12 -138q-7 -116 -15 -182zM220 862q11 -56 -3 -110q-19 -16 -52 -16t-56 14q-6 65 6 103q16 13 53 14q38 2 52 -5zM143 828q-12 -27 0 -57q30 -9 47 5q7 28 0 58q-33 8 -47 -6z" />
    <glyph glyph-name="AE" unicode="&#xc6;" horiz-adv-x="577" 
d="M511 659q-14 0 -178 -19q-4 -63 -8 -100q-6 -69 -5 -112q3 -61 4 -63q6 -21 59 -19q73 2 81 0q13 -22 -12 -38q-111 -9 -102 -6q-9 -4 -10 -6q-1 -4 -7 -6q-3 -6 -6 -145q-2 -48 7 -81q22 -15 126 -10q10 0 34 6q17 4 31 2q3 -8 0 -43l-74 -12q-65 -8 -77 -6l-80 11
q-4 -16 -53 -9q-1 2 -4 38l-7 69q-12 105 -24 158q-11 2 -44 0l-42 -3q-13 -110 -14 -129q-4 -39 -4 -119q0 -13 -20 -11l-32 1q22 270 43 427q36 264 33 258q44 16 78 6q12 -50 21 -159q10 -124 18 -163l15 -79l16 -127q-1 8 2 47l1 43q-3 40 -3 162q0 6 2 76q2 68 2 78
q0 77 7 92q58 34 232 26q9 -2 3 -15zM130 314l68 5q0 44 -10 158q-11 127 -12 160q-2 5 -9 4q-8 -2 -10 -7q-5 -30 -12 -138q-7 -116 -15 -182z" />
    <glyph glyph-name="Ccedilla" unicode="&#xc7;" horiz-adv-x="351" 
d="M116 -37l15 40l-8 2q-18 5 -45 21q-29 71 -27 100v303q0 92 20 217q32 38 112 51q86 15 117 -19q-1 -165 -14 -215q-23 0 -31 11q-3 15 2 92q3 45 -17 91q-70 8 -123 -35q-8 -33 -23 -250q-1 -41 2 -106q2 -86 2 -101q8 -84 11 -87q23 -29 130 -11l11 26q3 7 6 65
q3 51 10 52l24 9q7 2 9 -20q1 -11 1 -28q0 -97 -6 -115q-8 -23 -40 -34q-72 -20 -93 -22l-6 -29q47 5 69 -29q17 -28 7 -56q-11 -30 -53 -38l-98 19q0 17 21 21q14 -4 63 -7q36 10 30 41q-5 32 -59 27z" />
    <glyph glyph-name="Egrave" unicode="&#xc8;" horiz-adv-x="393" 
d="M327 659q-14 0 -178 -19q-4 -63 -8 -100q-6 -69 -5 -112q3 -61 4 -63q6 -21 59 -19q73 2 81 0q13 -22 -12 -38q-111 -9 -102 -6q-9 -4 -10 -6q-1 -4 -7 -6q-3 -6 -6 -145q-2 -48 7 -81q22 -15 126 -10q10 0 34 6q17 4 31 2q3 -8 0 -43l-74 -12q-65 -8 -77 -6q-22 2 -47 7
q-35 4 -45 6q-2 20 -4 73q-1 58 -3 79q-2 9 0 47l2 47q-3 40 -3 162q0 6 2 76q2 68 2 78q0 77 7 92q58 34 232 26q9 -2 3 -15zM87 861q13 13 34 18l19 -8q67 -92 78 -128q-15 -5 -28 -7z" />
    <glyph glyph-name="Eacute" unicode="&#xc9;" horiz-adv-x="354" 
d="M287 659q-14 0 -178 -19q-4 -63 -8 -100q-6 -69 -5 -112q3 -61 4 -63q6 -21 59 -19q73 2 81 0q13 -22 -12 -38q-111 -9 -102 -6q-9 -4 -10 -6q-1 -4 -7 -6q-3 -6 -6 -145q-2 -48 7 -81q22 -15 126 -10q10 0 34 6q17 4 31 2q3 -8 0 -43l-74 -12q-65 -8 -77 -6q-22 2 -47 7
q-35 4 -45 6q-2 20 -4 73q-1 58 -3 79q-2 9 0 47l2 47q-3 40 -3 162q0 6 2 76q2 68 2 78q0 77 7 92q58 34 232 26q9 -2 3 -15zM276 860l-103 -125q-13 2 -28 7q11 36 78 128l19 8q21 -5 34 -18z" />
    <glyph glyph-name="Ecircumflex" unicode="&#xca;" horiz-adv-x="354" 
d="M287 659q-14 0 -178 -19q-4 -63 -8 -100q-6 -69 -5 -112q3 -61 4 -63q6 -21 59 -19q73 2 81 0q13 -22 -12 -38q-111 -9 -102 -6q-9 -4 -10 -6q-1 -4 -7 -6q-3 -6 -6 -145q-2 -48 7 -81q22 -15 126 -10q10 0 34 6q17 4 31 2q3 -8 0 -43l-74 -12q-65 -8 -77 -6q-22 2 -47 7
q-35 4 -45 6q-2 20 -4 73q-1 58 -3 79q-2 9 0 47l2 47q-3 40 -3 162q0 6 2 76q2 68 2 78q0 77 7 92q58 34 232 26q9 -2 3 -15zM273 752l-24 -11q-77 53 -83 59q-46 -40 -68 -65q-7 0 -11 7q-5 8 -10 8q20 47 77 105l30 -5l65 -66q21 -20 24 -32z" />
    <glyph glyph-name="Edieresis" unicode="&#xcb;" horiz-adv-x="354" 
d="M287 659q-14 0 -178 -19q-4 -63 -8 -100q-6 -69 -5 -112q3 -61 4 -63q6 -21 59 -19q73 2 81 0q13 -22 -12 -38q-111 -9 -102 -6q-9 -4 -10 -6q-1 -4 -7 -6q-3 -6 -6 -145q-2 -48 7 -81q22 -15 126 -10q10 0 34 6q17 4 31 2q3 -8 0 -43l-74 -12q-65 -8 -77 -6q-22 2 -47 7
q-35 4 -45 6q-2 20 -4 73q-1 58 -3 79q-2 9 0 47l2 47q-3 40 -3 162q0 6 2 76q2 68 2 78q0 77 7 92q58 34 232 26q9 -2 3 -15zM135 739q-22 -9 -47 -1q-7 46 3 58q46 10 49 2q10 -24 -5 -59zM246 739q-22 -9 -47 -1q-7 46 3 58q46 10 49 2q10 -24 -5 -59z" />
    <glyph glyph-name="Igrave" unicode="&#xcc;" horiz-adv-x="157" 
d="M97 350l2 -78v-137q0 -21 4 -60q5 -42 3 -62q-7 -7 -26 -9q-20 -2 -26 5q-4 52 -2 176q1 133 0 179v149q0 157 3 176q22 15 46 4q3 -56 -2 -167q-1 -18 0 -46l1 -46zM-37 860q13 13 34 18l19 -8q67 -92 78 -128q-15 -5 -28 -7z" />
    <glyph glyph-name="Iacute" unicode="&#xcd;" horiz-adv-x="157" 
d="M96 350l2 -78v-137q0 -21 4 -60q5 -42 3 -62q-7 -7 -26 -9q-20 -2 -26 5q-4 52 -2 176q1 133 0 179v149q0 157 3 176q22 15 46 4q3 -56 -2 -167q-1 -18 0 -46l1 -46zM184 860l-103 -125q-13 2 -28 7q11 36 78 128l19 8q21 -5 34 -18z" />
    <glyph glyph-name="Icircumflex" unicode="&#xce;" horiz-adv-x="157" 
d="M97 350l2 -78v-137q0 -21 4 -60q5 -42 3 -62q-7 -7 -26 -9q-20 -2 -26 5q-4 52 -2 176q1 133 0 179v149q0 157 3 176q22 15 46 4q3 -56 -2 -167q-1 -18 0 -46l1 -46zM177 751l-24 -11q-77 53 -83 59q-46 -40 -68 -65q-7 0 -11 7q-5 8 -10 8q20 47 77 105l30 -5l65 -66
q21 -20 24 -32z" />
    <glyph glyph-name="Idieresis" unicode="&#xcf;" horiz-adv-x="157" 
d="M97 350l2 -78v-137q0 -21 4 -60q5 -42 3 -62q-7 -7 -26 -9q-20 -2 -26 5q-4 52 -2 176q1 133 0 179v149q0 157 3 176q22 15 46 4q3 -56 -2 -167q-1 -18 0 -46l1 -46zM158 743q-22 -9 -47 -1q-7 46 3 58q46 10 49 2q10 -24 -5 -59zM47 743q-22 -9 -47 -1q-7 46 3 58
q46 10 49 2q10 -24 -5 -59z" />
    <glyph glyph-name="Eth" unicode="&#xd0;" horiz-adv-x="402" 
d="M50 350q0 -1 44 -3l1 102l-2 217l19 32q124 1 179 -37q27 -18 48 -67q8 -53 8 -165q4 -67 2 -125q-3 -42 -1 -78l1 -74q-15 -72 -34 -99q-39 -58 -127 -52q-91 4 -91 5q-5 14 -3 293q-12 -1 -31 -1l-12 12q-1 0 -1 40zM139 502l3 -94v-61l100 2q4 1 6.5 -4.5t3.5 -18.5
q2 -26 -5 -27l-40 3l-64 -2l2 -249q99 -8 131 41q22 36 27 152q0 68 -2 126q5 111 -5 189q-2 48 -60 69q-44 16 -90 11q-3 -11 -8 -88q2 -13 1 -24q-1 -18 0 -25z" />
    <glyph glyph-name="Ntilde" unicode="&#xd1;" horiz-adv-x="370" 
d="M279 685l35 -42q0 -566 5 -634q-30 -22 -53 -8q-11 41 -5 147q0 8 0.5 45t2 126t2.5 172l-3 139q-64 43 -156 -19q-2 -56 -2 -60l2 -416q0 -21 4 -60q5 -42 3 -62q-7 -7 -26 -9q-20 -2 -26 5q-4 52 -2 277q2 236 0 279v121q21 25 46 12l2 -42q98 75 171 29zM149 764
l-70 -21q-16 13 -9 38l67 32q26 -1 58 -15q38 -16 41 -16l60 24q22 -28 6 -40l-67 -31z" />
    <glyph glyph-name="Ograve" unicode="&#xd2;" horiz-adv-x="385" 
d="M330 645q3 -39 1 -122q-3 -81 1 -129q1 -31 0 -82q0 -15 -0.5 -34.5t-1 -30t-0.5 -16.5l-1 -77q0 -8 3 -38q1 -24 0 -37l-12 -24q-3 -9 -7 -19q-6 -2 -19 -15q-14 -12 -24 -15q-82 -26 -132 -3q-20 9 -51 60q-1 14 -1 94q-2 59 -3 99q-1 22 1 128q2 86 -1 125
q0 101 6 119q5 24 39 43q26 19 86 34q20 5 68 -12q15 -6 48 -48zM132 599q-4 -21 -2 -68q4 -61 -1 -155q-2 -43 2 -89q5 -68 5 -84q0 -97 4 -117q10 -51 64 -43q63 6 84 58q-11 251 4 515q-13 37 -80 34q-70 -5 -80 -51zM91 860q13 13 34 18l19 -8q67 -92 78 -128
q-15 -5 -28 -7z" />
    <glyph glyph-name="Oacute" unicode="&#xd3;" horiz-adv-x="352" 
d="M297 645q3 -39 1 -122q-3 -81 1 -129q1 -31 0 -82q0 -15 -0.5 -34.5t-1 -30t-0.5 -16.5l-1 -77q0 -8 3 -38q1 -24 0 -37l-12 -24q-3 -9 -7 -19q-6 -2 -19 -15q-13 -12 -24 -15q-83 -26 -132 -3q-19 9 -51 60q-1 14 -1 94q-1 59 -3 99q-1 22 1 128q2 86 -1 125
q0 101 6 119q5 24 39 43q26 19 86 34q20 5 68 -12q15 -6 48 -48zM99 599q-4 -21 -2 -68q4 -61 -1 -155q-2 -43 2 -89q5 -68 5 -84q0 -97 4 -117q10 -51 64 -43q63 6 84 58q-11 251 4 515q-13 37 -80 34q-70 -5 -80 -51zM285 860l-103 -125q-13 2 -28 7q11 36 78 128l19 8
q21 -5 34 -18z" />
    <glyph glyph-name="Ocircumflex" unicode="&#xd4;" horiz-adv-x="352" 
d="M297 645q3 -39 1 -122q-3 -81 1 -129q1 -31 0 -82q0 -15 -0.5 -34.5t-1 -30t-0.5 -16.5l-1 -77q0 -8 3 -38q1 -24 0 -37l-12 -24q-3 -9 -7 -19q-6 -2 -19 -15q-13 -12 -24 -15q-83 -26 -132 -3q-19 9 -51 60q-1 14 -1 94q-1 59 -3 99q-1 22 1 128q2 86 -1 125
q0 101 6 119q5 24 39 43q26 19 86 34q20 5 68 -12q15 -6 48 -48zM99 599q-4 -21 -2 -68q4 -61 -1 -155q-2 -43 2 -89q5 -68 5 -84q0 -97 4 -117q10 -51 64 -43q63 6 84 58q-11 251 4 515q-13 37 -80 34q-70 -5 -80 -51zM283 752l-24 -11q-77 53 -83 59q-46 -40 -68 -65
q-7 0 -11 7q-5 8 -10 8q20 47 77 105l30 -5l65 -66q21 -20 24 -32z" />
    <glyph glyph-name="Otilde" unicode="&#xd5;" 
d="M302 645q3 -39 1 -122q-3 -81 1 -129q1 -31 0 -82q0 -15 -0.5 -34.5t-1 -30t-0.5 -16.5l-1 -77q0 -8 3 -38q1 -24 0 -37l-12 -24q-3 -9 -7 -19q-6 -2 -19 -15q-14 -12 -24 -15q-82 -26 -132 -3q-20 9 -51 60q-1 14 -1 94q-2 59 -3 99q-1 22 1 128q2 86 -1 125
q0 101 6 119q5 24 39 43q26 19 86 34q20 5 68 -12q15 -6 48 -48zM104 599q-4 -21 -2 -68q4 -61 -1 -155q-2 -43 2 -89q5 -68 5 -84q0 -97 4 -117q10 -51 64 -43q63 6 84 58q-11 251 4 515q-13 37 -80 34q-70 -5 -80 -51zM137 764l-70 -21q-16 13 -9 38l67 32q26 -1 58 -15
q38 -16 41 -16l60 24q22 -28 6 -40l-67 -31z" />
    <glyph glyph-name="Odieresis" unicode="&#xd6;" horiz-adv-x="352" 
d="M297 645q3 -39 1 -122q-3 -81 1 -129q1 -31 0 -82q0 -15 -0.5 -34.5t-1 -30t-0.5 -16.5l-1 -77q0 -8 3 -38q1 -24 0 -37l-12 -24q-3 -9 -7 -19q-6 -2 -19 -15q-13 -12 -24 -15q-83 -26 -132 -3q-19 9 -51 60q-1 14 -1 94q-1 59 -3 99q-1 22 1 128q2 86 -1 125
q0 101 6 119q5 24 39 43q26 19 86 34q20 5 68 -12q15 -6 48 -48zM99 599q-4 -21 -2 -68q4 -61 -1 -155q-2 -43 2 -89q5 -68 5 -84q0 -97 4 -117q10 -51 64 -43q63 6 84 58q-11 251 4 515q-13 37 -80 34q-70 -5 -80 -51zM146 738q-22 -9 -47 -1q-7 46 3 58q46 10 49 2
q10 -24 -5 -59zM257 738q-22 -9 -47 -1q-7 46 3 58q46 10 49 2q10 -24 -5 -59z" />
    <glyph glyph-name="multiply" unicode="&#xd7;" horiz-adv-x="351" 
d="M63 177l-12 16q-8 0 94 127q-91 103 -91 105q-11 8 6 32q17 23 24 17l33 -45l58 -69l83 109q5 12 23 -8q19 -19 14 -26l-19 -22.5l-13 -15.5l-4 -5l-51 -71l90 -104l2 -22q4 -4 -11 -21q-13 -16 -15 -16q4 4 -94 122l-82 -113l-19 -2q-1 -2 -5 1t-11 11z" />
    <glyph glyph-name="Oslash" unicode="&#xd8;" horiz-adv-x="353" 
d="M298 645q3 -39 1 -122q-3 -81 1 -129q1 -31 0 -82q0 -15 -0.5 -34.5t-1 -30t-0.5 -16.5l-1 -77q0 -8 3 -38q1 -24 0 -37l-12 -24q-3 -9 -7 -19q-6 -2 -19 -15q-14 -12 -24 -15q-82 -26 -132 -3q-20 9 -51 60q-1 14 -1 94q-2 59 -3 99q-1 22 1 128q2 86 -1 125
q0 101 6 119q5 24 39 43q26 19 86 34q20 5 68 -12q15 -6 48 -48zM256 101q-12 231 2 479l-9 -29q-5 -13 -15 -52q-10 -37 -16 -51l-32 -101l-28 -108l-7 -22q-7 -19 -7 -22q-6 -19 -17 -59q-10 -34 -18 -55q13 -46 63 -38q63 6 84 58zM100 599q-4 -21 -2 -68q4 -61 -1 -155
q-2 -43 2 -89q5 -68 5 -84v-10l4 14q7 24 10 38l10 39q2 12 11 38l11 38l2 7q2 7 3 12t3 12l2 7l23 72l14 35q10 35 16 68q10 50 15 70q-33 13 -76 2q-45 -12 -52 -46z" />
    <glyph glyph-name="Ugrave" unicode="&#xd9;" horiz-adv-x="386" 
d="M334 666q-3 -39 -2 -105q1 -58 -1 -108q-3 -78 0 -87q-4 -39 0 -124q3 -90 0 -131q-4 -16 -4 -26v-21q1 -9 -1 -18q-9 -24 -50 -39q-39 -11 -82 -5q-41 4 -52 9q-6 1 -30 28q-20 26 -22 31q-10 25 -8 50q2 32 1 64q-1 46 0 67q1 28 -1 131q0 24 -0.5 56t-1 49t-0.5 27
l-1 127q0 45 6 52q24 5 48 -11q-5 -76 -2 -195q3 -168 2 -205q-3 -154 1 -173q11 -33 32 -44q26 -14 91 -15l20 18q6 126 6 306q0 223 -7 315q13 13 35 1q18 -11 23 -24zM101 861q13 13 34 18l19 -8q67 -92 78 -128q-15 -5 -28 -7z" />
    <glyph glyph-name="Uacute" unicode="&#xda;" horiz-adv-x="357" 
d="M305 666q-3 -39 -2 -105q1 -58 -1 -108q-3 -78 0 -87q-4 -39 0 -124q3 -90 0 -131q-4 -16 -4 -26v-21q1 -9 -1 -18q-9 -24 -50 -39q-39 -11 -82 -5q-41 4 -52 9q-6 1 -30 28q-20 26 -22 31q-10 25 -8 50q2 32 1 64q-1 46 0 67q1 28 -1 131q0 24 -0.5 56t-1 49t-0.5 27
l-1 127q0 45 6 52q24 5 48 -11q-5 -76 -2 -195q3 -168 2 -205q-3 -154 1 -173q11 -33 32 -44q26 -14 91 -15l20 18q6 126 6 306q0 223 -7 315q13 13 35 1q18 -11 23 -24zM282 860l-103 -125q-13 2 -28 7q11 36 78 128l19 8q21 -5 34 -18z" />
    <glyph glyph-name="Ucircumflex" unicode="&#xdb;" horiz-adv-x="357" 
d="M305 666q-3 -39 -2 -105q1 -58 -1 -108q-3 -78 0 -87q-4 -39 0 -124q3 -90 0 -131q-4 -16 -4 -26v-21q1 -9 -1 -18q-9 -24 -50 -39q-39 -11 -82 -5q-41 4 -52 9q-6 1 -30 28q-20 26 -22 31q-10 25 -8 50q2 32 1 64q-1 46 0 67q1 28 -1 131q0 24 -0.5 56t-1 49t-0.5 27
l-1 127q0 45 6 52q24 5 48 -11q-5 -76 -2 -195q3 -168 2 -205q-3 -154 1 -173q11 -33 32 -44q26 -14 91 -15l20 18q6 126 6 306q0 223 -7 315q13 13 35 1q18 -11 23 -24zM271 752l-24 -11q-77 53 -83 59q-46 -40 -68 -65q-7 0 -11 7q-5 8 -10 8q20 47 77 105l30 -5l65 -66
q21 -20 24 -32z" />
    <glyph glyph-name="Udieresis" unicode="&#xdc;" horiz-adv-x="357" 
d="M305 666q-3 -39 -2 -105q1 -58 -1 -108q-3 -78 0 -87q-4 -39 0 -124q3 -90 0 -131q-4 -16 -4 -26v-21q1 -9 -1 -18q-9 -24 -50 -39q-39 -11 -82 -5q-41 4 -52 9q-6 1 -30 28q-20 26 -22 31q-10 25 -8 50q2 32 1 64q-1 46 0 67q1 28 -1 131q0 24 -0.5 56t-1 49t-0.5 27
l-1 127q0 45 6 52q24 5 48 -11q-5 -76 -2 -195q3 -168 2 -205q-3 -154 1 -173q11 -33 32 -44q26 -14 91 -15l20 18q6 126 6 306q0 223 -7 315q13 13 35 1q18 -11 23 -24zM142 745q-22 -9 -47 -1q-7 46 3 58q46 10 49 2q10 -24 -5 -59zM253 745q-22 -9 -47 -1q-7 46 3 58
q46 10 49 2q10 -24 -5 -59z" />
    <glyph glyph-name="Yacute" unicode="&#xdd;" horiz-adv-x="349" 
d="M296 689q3 -3 3 -12q0 -15 -6 -28q-18 -47 -43 -168t-43 -168l-9 -16q-1 -6 -1 -29q0 -10 2 -96t2 -92q0 -68 -2 -70q-29 -11 -40 -6q-10 4 -10 90l2 156q0 39 -6 57q-4 9 -84 316q-11 41 -11 55q0 10 33 17q21 0 28 -67l60 -257l11 8q25 82 49 221q16 97 33 97
q11 0 32 -8zM283 860l-103 -125q-13 2 -28 7q11 36 78 128l19 8q21 -5 34 -18z" />
    <glyph glyph-name="Thorn" unicode="&#xde;" 
d="M100 693q3 -69 0 -156q123 31 182 -20q26 -70 22 -183q-5 -117 -35 -158q-79 -34 -171 -16v-8q0 -22 4 -71q4 -52 3 -73q-7 -7 -26 -9q-20 -1 -26 5q-4 52 -2 179q1 135 0 181v149q0 157 3 176q22 15 46 4zM96 350l2 -78v-66q109 -1 146 12q10 27 18 108l2 89
q-3 58 -24 77q-15 12 -61 13q-54 2 -81 -14q-1 -16 0 -28q1 -11 1 -29z" />
    <glyph glyph-name="germandbls" unicode="&#xdf;" horiz-adv-x="354" 
d="M186 0l3 39l24 3q36 16 41 66q1 9 -1 59q0 50 -11 64q-43 64 -52 70l-16 8l-4 32q14 6 34 27q35 35 44 127q9 87 -10 128q1 15 -20 26q-18 10 -47 8q-71 -6 -71 -72q-8 -80 -2 -181q9 -153 9 -172l2 -101q2 -110 2 -130l-43 1q-11 41 -11 226q0 63 -1 70q-11 234 -2 316
q15 75 107 86q87 10 113 -40q23 -48 16 -148q-4 -82 -21 -132q-11 -33 -18 -40l-27 -16q5 -8 34 -30q26 -21 35 -30q35 -122 -10 -241l-52 -23h-45z" />
    <glyph glyph-name="agrave" unicode="&#xe0;" horiz-adv-x="364" 
d="M67 402v53q0 17 54 34q53 15 111 15q36 0 46 -2q25 -4 30 -29l-2 -235q0 -122 8 -229q-14 -11 -41 -11q-16 0 -18 41q-55 -42 -110 -42q-25 0 -60 11q-35 23 -35 121q0 115 38 136q7 4 94 27q64 16 79 44l-6 109q-16 10 -55 10q-75 0 -95 -26v-36q-3 -10 -13 -10
q-25 0 -25 19zM256 148q0 23 7 131q-13 -15 -67 -32q-58 -17 -72 -27q-26 -18 -26 -97q0 -73 26 -84q78 0 130 45q0 32 2 64zM79 658q13 13 34 18l19 -8q67 -92 78 -128q-15 -5 -28 -7z" />
    <glyph glyph-name="aacute" unicode="&#xe1;" horiz-adv-x="364" 
d="M67 402v53q0 17 54 34q53 15 111 15q36 0 46 -2q25 -4 30 -29l-2 -235q0 -122 8 -229q-14 -11 -41 -11q-16 0 -18 41q-55 -42 -110 -42q-25 0 -60 11q-35 23 -35 121q0 115 38 136q7 4 94 27q64 16 79 44l-6 109q-16 10 -55 10q-75 0 -95 -26v-36q-3 -10 -13 -10
q-25 0 -25 19zM256 148q0 23 7 131q-13 -15 -67 -32q-58 -17 -72 -27q-26 -18 -26 -97q0 -73 26 -84q78 0 130 45q0 32 2 64zM279 658l-103 -125q-13 2 -28 7q11 36 78 128l19 8q21 -5 34 -18z" />
    <glyph glyph-name="acircumflex" unicode="&#xe2;" horiz-adv-x="364" 
d="M67 402v53q0 17 54 34q53 15 111 15q36 0 46 -2q25 -4 30 -29l-2 -235q0 -122 8 -229q-14 -11 -41 -11q-16 0 -18 41q-55 -42 -110 -42q-25 0 -60 11q-35 23 -35 121q0 115 38 136q7 4 94 27q64 16 79 44l-6 109q-16 10 -55 10q-75 0 -95 -26v-36q-3 -10 -13 -10
q-25 0 -25 19zM256 148q0 23 7 131q-13 -15 -67 -32q-58 -17 -72 -27q-26 -18 -26 -97q0 -73 26 -84q78 0 130 45q0 32 2 64zM288 549l-24 -11q-77 53 -83 59q-46 -40 -68 -65q-7 0 -11 7q-5 8 -10 8q20 47 77 105l30 -5l65 -66q21 -20 24 -32z" />
    <glyph glyph-name="atilde" unicode="&#xe3;" horiz-adv-x="366" 
d="M67 402v53q0 17 54 34q53 15 111 15q36 0 46 -2q25 -4 30 -29l-2 -235q0 -122 8 -229q-14 -11 -41 -11q-16 0 -18 41q-55 -42 -110 -42q-25 0 -60 11q-35 23 -35 121q0 115 38 136q7 4 94 27q64 16 79 44l-6 109q-16 10 -55 10q-75 0 -95 -26v-36q-3 -10 -13 -10
q-25 0 -25 19zM256 148q0 23 7 131q-13 -15 -67 -32q-58 -17 -72 -27q-26 -18 -26 -97q0 -73 26 -84q78 0 130 45q0 32 2 64zM148 563l-70 -21q-16 13 -9 38l67 32q26 -1 58 -15q38 -16 41 -16l60 24q22 -28 6 -40l-67 -31z" />
    <glyph glyph-name="adieresis" unicode="&#xe4;" horiz-adv-x="364" 
d="M67 402v53q0 17 54 34q53 15 111 15q36 0 46 -2q25 -4 30 -29l-2 -235q0 -122 8 -229q-14 -11 -41 -11q-16 0 -18 41q-55 -42 -110 -42q-25 0 -60 11q-35 23 -35 121q0 115 38 136q7 4 94 27q64 16 79 44l-6 109q-16 10 -55 10q-75 0 -95 -26v-36q-3 -10 -13 -10
q-25 0 -25 19zM256 148q0 23 7 131q-13 -15 -67 -32q-58 -17 -72 -27q-26 -18 -26 -97q0 -73 26 -84q78 0 130 45q0 32 2 64zM149 548q-22 -9 -47 -1q-7 46 3 58q46 10 49 2q10 -24 -5 -59zM260 548q-22 -9 -47 -1q-7 46 3 58q46 10 49 2q10 -24 -5 -59z" />
    <glyph glyph-name="aring" unicode="&#xe5;" horiz-adv-x="364" 
d="M67 402v53q0 17 54 34q53 15 111 15q36 0 46 -2q25 -4 30 -29l-2 -235q0 -122 8 -229q-14 -11 -41 -11q-16 0 -18 41q-55 -42 -110 -42q-25 0 -60 11q-35 23 -35 121q0 115 38 136q7 4 94 27q64 16 79 44l-6 109q-16 10 -55 10q-75 0 -95 -26v-36q-3 -10 -13 -10
q-25 0 -25 19zM256 148q0 23 7 131q-13 -15 -67 -32q-58 -17 -72 -27q-26 -18 -26 -97q0 -73 26 -84q78 0 130 45q0 32 2 64zM238 666q11 -56 -3 -110q-19 -16 -52 -16t-56 14q-6 65 6 103q16 13 53 14q38 2 52 -5zM161 632q-12 -27 0 -57q30 -9 47 5q7 28 0 58
q-33 8 -47 -6z" />
    <glyph glyph-name="ae" unicode="&#xe6;" horiz-adv-x="574" 
d="M491 70q14 -5 18 -29q-59 -37 -102 -42q-38 -4 -94 19q0 -7 1 -9q-14 -11 -41 -11q-16 0 -18 41q-55 -42 -110 -42q-25 0 -60 11q-35 23 -35 121q0 115 38 136q7 4 94 27q64 16 79 44l-6 109q-16 10 -55 10q-75 0 -95 -26v-36q-3 -10 -13 -10q-25 0 -25 19v53q0 17 54 34
q53 15 111 15q36 0 46 -2q25 -4 30 -29v-7q0 1 2 3q23 32 98 35q76 3 96 -36q50 -104 0 -261l-29 -21q-106 -20 -156 -17q1 -69 29 -116q75 -25 143 17zM470 431q-20 25 -57 24t-72 -27q-35 -84 -27 -212q64 -2 132 9l24 14q22 83 0 192zM256 148q0 23 7 131
q-13 -15 -67 -32q-58 -17 -72 -27q-26 -18 -26 -97q0 -73 26 -84q78 0 130 45q0 32 2 64z" />
    <glyph glyph-name="ccedilla" unicode="&#xe7;" horiz-adv-x="365" 
d="M162 -37l14 35q-64 5 -92 44q-33 43 -34 123q-1 15 1 71q2 70 2 71q0 27 24 124q15 51 109 64q87 13 126 -16q-2 -94 -14 -127q-24 0 -32 8l2 38q3 32 0 39t-21 14q-79 23 -119 -37q-14 -35 -24 -148q0 -175 32 -204q19 -16 55 -20q46 -6 70 17l16 65l25 6q5 1 7.5 -7
t2.5 -27q0 -58 -6 -63q-53 -32 -100 -35l-5 -27q47 5 69 -29q17 -28 7 -56q-11 -30 -53 -38l-98 19q0 17 21 21q14 -4 63 -7q36 10 30 41q-5 32 -59 27z" />
    <glyph glyph-name="egrave" unicode="&#xe8;" horiz-adv-x="373" 
d="M289 70q14 -5 18 -29q-59 -40 -106 -43q-42 -2 -100 25q-34 47 -34 215q-1 172 41 231q23 32 98 35q76 3 96 -36q50 -104 0 -261l-29 -21q-106 -20 -156 -17q1 -69 29 -116q75 -25 143 17zM268 431q-20 25 -57 24t-72 -27q-35 -84 -27 -212q64 -2 132 9l24 14
q22 83 0 192zM81 659q13 13 34 18l19 -8q67 -92 78 -128q-15 -5 -28 -7z" />
    <glyph glyph-name="eacute" unicode="&#xe9;" 
d="M272 70q14 -5 18 -29q-59 -40 -106 -43q-42 -2 -100 25q-34 47 -34 215q-1 172 41 231q23 32 98 35q77 3 96 -36q49 -104 0 -261l-29 -21q-106 -20 -156 -17q1 -69 29 -116q75 -25 143 17zM251 431q-19 25 -57 24t-72 -27q-35 -84 -27 -212q65 -2 132 9l24 14
q23 83 0 192zM286 660l-103 -125q-13 2 -28 7q11 36 78 128l19 8q21 -5 34 -18z" />
    <glyph glyph-name="ecircumflex" unicode="&#xea;" 
d="M272 70q14 -5 18 -29q-59 -40 -106 -43q-42 -2 -100 25q-34 47 -34 215q-1 172 41 231q23 32 98 35q77 3 96 -36q49 -104 0 -261l-29 -21q-106 -20 -156 -17q1 -69 29 -116q75 -25 143 17zM251 431q-19 25 -57 24t-72 -27q-35 -84 -27 -212q65 -2 132 9l24 14
q23 83 0 192zM280 550l-24 -11q-77 53 -83 59q-46 -40 -68 -65q-7 0 -11 7q-5 8 -10 8q20 47 77 105l30 -5l65 -66q21 -20 24 -32z" />
    <glyph glyph-name="edieresis" unicode="&#xeb;" 
d="M272 70q14 -5 18 -29q-59 -40 -106 -43q-42 -2 -100 25q-34 47 -34 215q-1 172 41 231q23 32 98 35q77 3 96 -36q49 -104 0 -261l-29 -21q-106 -20 -156 -17q1 -69 29 -116q75 -25 143 17zM251 431q-19 25 -57 24t-72 -27q-35 -84 -27 -212q65 -2 132 9l24 14
q23 83 0 192zM153 542q-22 -9 -47 -1q-7 46 3 58q46 10 49 2q10 -24 -5 -59zM264 542q-22 -9 -47 -1q-7 46 3 58q46 10 49 2q10 -24 -5 -59z" />
    <glyph glyph-name="igrave" unicode="&#xec;" horiz-adv-x="161" 
d="M58 168l-4 315q10 17 29 16q16 -1 23 -13l-4 -119l6 -359q-6 -6 -23 -8q-19 -1 -29 11zM-34 662q13 13 34 18l19 -8q67 -92 78 -128q-15 -5 -28 -7z" />
    <glyph glyph-name="iacute" unicode="&#xed;" horiz-adv-x="161" 
d="M58 168l-4 315q10 17 29 16q16 -1 23 -13l-4 -119l6 -359q-6 -6 -23 -8q-19 -1 -29 11zM187 658l-103 -125q-13 2 -28 7q11 36 78 128l19 8q21 -5 34 -18z" />
    <glyph glyph-name="icircumflex" unicode="&#xee;" horiz-adv-x="161" 
d="M58 168l-4 315q10 17 29 16q16 -1 23 -13l-4 -119l6 -359q-6 -6 -23 -8q-19 -1 -29 11zM180 550l-24 -11q-77 53 -83 59q-46 -40 -68 -65q-7 0 -11 7q-5 8 -10 8q20 47 77 105l30 -5l65 -66q21 -20 24 -32z" />
    <glyph glyph-name="idieresis" unicode="&#xef;" horiz-adv-x="161" 
d="M58 168l-4 315q10 17 29 16q16 -1 23 -13l-4 -119l6 -359q-6 -6 -23 -8q-19 -1 -29 11zM46 543q-22 -9 -47 -1q-7 46 3 58q46 10 49 2q10 -24 -5 -59zM157 543q-22 -9 -47 -1q-7 46 3 58q46 10 49 2q10 -24 -5 -59z" />
    <glyph glyph-name="eth" unicode="&#xf0;" horiz-adv-x="353" 
d="M298 446q2 -18 2 -52q2 -42 2 -82l-1 -81q0 -147 -1 -152l-12 -24q-3 -9 -7 -19q-6 -2 -19 -15q-14 -12 -24 -15q-82 -26 -132 -3q-20 9 -51 60q-1 14 -1 94q-2 59 -3 99v33q1 -2 1 -4l-1 25q0 106 4 117q5 25 41 45q26 19 86 34q21 5 59 -9q-16 46 -45 76l-75 -52l-15 4
q-1 -1 -3.5 2t-6.5 10q-8 14 -7 14l58 35l19 13q-27 18 -66 23q-9 5 -2 21q3 9 6 13t6 3q57 -11 91 -36l58 38q5 6 17 -11t8 -21q-31 -16 -33 -16l-21 -16q44 -49 68 -151zM100 400q-3 -27 3 -197l5 -117q10 -51 64 -43q44 5 51 8q18 7 30 39q1 19 1 328q-13 37 -77 33
q-65 -5 -77 -51z" />
    <glyph glyph-name="ntilde" unicode="&#xf1;" horiz-adv-x="365" 
d="M275 484l35 -42q0 -365 5 -433q-30 -22 -53 -8q-11 41 -5 147q0 17 5 142l-3 139q-64 43 -156 -19q-2 -56 -2 -60l2 -78v-137q0 -21 4 -60q5 -42 3 -62q-7 -7 -26 -9q-20 -2 -26 5q-4 52 -2 176q1 133 0 179v121q21 25 46 12l2 -42q98 75 171 29zM137 562l-70 -21
q-16 13 -9 38l67 32q26 -1 58 -15q38 -16 41 -16l60 24q22 -28 6 -40l-67 -31z" />
    <glyph glyph-name="ograve" unicode="&#xf2;" horiz-adv-x="353" 
d="M302 446q2 -16 2 -52q2 -42 2 -82l-1 -81q0 -147 -1 -152l-12 -24q-3 -9 -7 -19q-6 -2 -19 -15q-14 -12 -24 -15q-82 -26 -132 -3q-20 9 -51 60q-1 14 -1 94q-2 59 -3 99v54q-12 71 4 117q5 25 41 45q26 19 86 34q20 5 68 -12q15 -6 48 -48zM104 400q-3 -27 3 -197
l5 -117q10 -51 64 -43q44 5 51 8q18 7 30 39q1 19 1 328q-13 37 -77 33q-65 -5 -77 -51zM63 658q13 13 34 18l19 -8q67 -92 78 -128q-15 -5 -28 -7z" />
    <glyph glyph-name="oacute" unicode="&#xf3;" horiz-adv-x="353" 
d="M302 446q2 -16 2 -52q2 -42 2 -82l-1 -81q0 -147 -1 -152l-12 -24q-3 -9 -7 -19q-6 -2 -19 -15q-14 -12 -24 -15q-82 -26 -132 -3q-20 9 -51 60q-1 14 -1 94q-2 59 -3 99v54q-12 71 4 117q5 25 41 45q26 19 86 34q20 5 68 -12q15 -6 48 -48zM104 400q-3 -27 3 -197
l5 -117q10 -51 64 -43q44 5 51 8q18 7 30 39q1 19 1 328q-13 37 -77 33q-65 -5 -77 -51zM295 658l-103 -125q-13 2 -28 7q11 36 78 128l19 8q21 -5 34 -18z" />
    <glyph glyph-name="ocircumflex" unicode="&#xf4;" horiz-adv-x="353" 
d="M302 446q2 -16 2 -52q2 -42 2 -82l-1 -81q0 -147 -1 -152l-12 -24q-3 -9 -7 -19q-6 -2 -19 -15q-14 -12 -24 -15q-82 -26 -132 -3q-20 9 -51 60q-1 14 -1 94q-2 59 -3 99v54q-12 71 4 117q5 25 41 45q26 19 86 34q20 5 68 -12q15 -6 48 -48zM104 400q-3 -27 3 -197
l5 -117q10 -51 64 -43q44 5 51 8q18 7 30 39q1 19 1 328q-13 37 -77 33q-65 -5 -77 -51zM285 550l-24 -11q-77 53 -83 59q-46 -40 -68 -65q-7 0 -11 7q-5 8 -10 8q20 47 77 105l30 -5l65 -66q21 -20 24 -32z" />
    <glyph glyph-name="otilde" unicode="&#xf5;" horiz-adv-x="353" 
d="M302 446q2 -16 2 -52q2 -42 2 -82l-1 -81q0 -147 -1 -152l-12 -24q-3 -9 -7 -19q-6 -2 -19 -15q-14 -12 -24 -15q-82 -26 -132 -3q-20 9 -51 60q-1 14 -1 94q-2 59 -3 99v54q-12 71 4 117q5 25 41 45q26 19 86 34q20 5 68 -12q15 -6 48 -48zM104 400q-3 -27 3 -197
l5 -117q10 -51 64 -43q44 5 51 8q18 7 30 39q1 19 1 328q-13 37 -77 33q-65 -5 -77 -51zM135 562l-70 -21q-16 13 -9 38l67 32q26 -1 58 -15q38 -16 41 -16l60 24q22 -28 6 -40l-67 -31z" />
    <glyph glyph-name="odieresis" unicode="&#xf6;" horiz-adv-x="353" 
d="M302 446q2 -16 2 -52q2 -42 2 -82l-1 -81q0 -147 -1 -152l-12 -24q-3 -9 -7 -19q-6 -2 -19 -15q-14 -12 -24 -15q-82 -26 -132 -3q-20 9 -51 60q-1 14 -1 94q-2 59 -3 99v54q-12 71 4 117q5 25 41 45q26 19 86 34q20 5 68 -12q15 -6 48 -48zM104 400q-3 -27 3 -197
l5 -117q10 -51 64 -43q44 5 51 8q18 7 30 39q1 19 1 328q-13 37 -77 33q-65 -5 -77 -51zM150 542q-22 -9 -47 -1q-7 46 3 58q46 10 49 2q10 -24 -5 -59zM261 542q-22 -9 -47 -1q-7 46 3 58q46 10 49 2q10 -24 -5 -59z" />
    <glyph glyph-name="divide" unicode="&#xf7;" 
d="M50 348q0 -3 117 -3l126 2q4 1 6.5 -4.5t3.5 -18.5q2 -26 -5 -27l-40 3l-195 -4l-12 12q-1 0 -1 40zM196 412q-22 -9 -47 -1q-7 46 3 58q46 10 49 2q10 -24 -5 -59zM196 167q-22 -9 -47 -1q-7 46 3 58q46 10 49 2q10 -24 -5 -59z" />
    <glyph glyph-name="oslash" unicode="&#xf8;" horiz-adv-x="353" 
d="M302 446q2 -16 2 -52q2 -42 2 -82l-1 -81q0 -147 -1 -152l-12 -24q-3 -9 -7 -19q-6 -2 -19 -15q-14 -12 -24 -15q-82 -26 -132 -3q-20 9 -51 60q-1 14 -1 94q-2 59 -3 99v54q-12 71 4 117q5 25 41 45q26 19 86 34q20 5 68 -12q15 -6 48 -48zM104 400q-3 -27 3 -197
q0 -12 0.5 -24.5t1 -21.5l1 -18t0.5 -15.5t0.5 -12.5t0.5 -9.5v-6.5v-3v-1q0 2 1 3l21 52q8 23 17 55q0 2 1.5 5.5t4 10.5t4.5 12q6 17 9 27l9 27l6 13q2 4 5 13q0 1 2 5.5t3 7.5t3 7.5t2 5.5l12 25q6 16 12 40l10 42q-33 16 -75 5q-46 -12 -54 -47zM257 90q1 24 1 305
q-1 -1 -1 -2q-7 -15 -14 -37l-13 -37q-10 -21 -29 -73l-12 -38q-7 -26 -12 -39l-13 -32l-31 -85q19 -13 43 -9q44 5 51 8q18 7 30 39z" />
    <glyph glyph-name="ugrave" unicode="&#xf9;" horiz-adv-x="376" 
d="M106 16l-35 42q0 365 -5 433q30 22 53 8q11 -41 5 -147q0 -17 -5 -142l3 -139q66 -46 155 19l3 60l-2 78v137q0 21 -4 60q-5 42 -3 62q7 7 26 9t26 -5q4 -64 3 -176q-2 -156 -1 -179v-121q-21 -25 -46 -12q-2 26 -2 41q-99 -72 -171 -28zM91 658q13 13 34 18l19 -8
q67 -92 78 -128q-15 -5 -28 -7z" />
    <glyph glyph-name="uacute" unicode="&#xfa;" horiz-adv-x="360" 
d="M90 16l-35 42q0 365 -5 433q30 22 53 8q11 -41 5 -147q0 -17 -5 -142l3 -139q66 -46 155 19l3 60l-2 78v137q0 21 -4 60q-5 42 -3 62q7 7 26 9t26 -5q4 -64 3 -176q-2 -156 -1 -179v-121q-21 -25 -46 -12q-2 26 -2 41q-99 -72 -171 -28zM289 658l-103 -125q-13 2 -28 7
q11 36 78 128l19 8q21 -5 34 -18z" />
    <glyph glyph-name="ucircumflex" unicode="&#xfb;" horiz-adv-x="360" 
d="M90 16l-35 42q0 365 -5 433q30 22 53 8q11 -41 5 -147q0 -17 -5 -142l3 -139q66 -46 155 19l3 60l-2 78v137q0 21 -4 60q-5 42 -3 62q7 7 26 9t26 -5q4 -64 3 -176q-2 -156 -1 -179v-121q-21 -25 -46 -12q-2 26 -2 41q-99 -72 -171 -28zM280 550l-24 -11q-77 53 -83 59
q-46 -40 -68 -65q-7 0 -11 7q-5 8 -10 8q20 47 77 105l30 -5l65 -66q21 -20 24 -32z" />
    <glyph glyph-name="udieresis" unicode="&#xfc;" horiz-adv-x="360" 
d="M90 16l-35 42q0 365 -5 433q30 22 53 8q11 -41 5 -147q0 -17 -5 -142l3 -139q66 -46 155 19l3 60l-2 78v137q0 21 -4 60q-5 42 -3 62q7 7 26 9t26 -5q4 -64 3 -176q-2 -156 -1 -179v-121q-21 -25 -46 -12q-2 26 -2 41q-99 -72 -171 -28zM150 538q-22 -9 -47 -1
q-7 46 3 58q46 10 49 2q10 -24 -5 -59zM261 538q-22 -9 -47 -1q-7 46 3 58q46 10 49 2q10 -24 -5 -59z" />
    <glyph glyph-name="yacute" unicode="&#xfd;" horiz-adv-x="364" 
d="M310 138l2 -78q-4 -155 -51 -199q-37 -24 -131 -29q-16 17 -7 40q82 8 108 29q24 35 30 143q-97 -73 -171 -28l-35 42q0 365 -5 433q30 22 53 8q11 -41 5 -147q0 -17 -5 -142l3 -139q35 -26 86 -12q40 9 71 33l2 60v149q0 19 -6 101q-4 55 1 93q26 17 51 4q5 -109 1 -185
q-1 -18 0 -46l1 -46zM300 659l-103 -125q-13 2 -28 7q11 36 78 128l19 8q21 -5 34 -18z" />
    <glyph glyph-name="thorn" unicode="&#xfe;" horiz-adv-x="366" 
d="M99 1l3 -158q-7 -7 -26 -9t-26 5q-1 28 1 261q3 191 1 264v149q0 157 3 176q22 15 46 4q4 -74 -2 -200l-1 -11q61 28 114 16q44 -11 68 -42q33 -43 34 -123q1 -15 -1 -71q-2 -70 -2 -71q0 -27 -24 -124q-14 -41 -74 -59q-51 -15 -114 -7zM97 350l2 -78v-211q2 -3 27 -14
q70 -19 110 37q14 35 24 148q0 175 -32 204q-16 13 -56 15q-47 2 -72 -19z" />
    <glyph glyph-name="ydieresis" unicode="&#xff;" horiz-adv-x="364" 
d="M310 138l2 -78q-4 -155 -51 -199q-37 -24 -131 -29q-16 17 -7 40q82 8 108 29q24 35 30 143q-97 -73 -171 -28l-35 42q0 365 -5 433q30 22 53 8q11 -41 5 -147q0 -17 -5 -142l3 -139q35 -26 86 -12q40 9 71 33l2 60v149q0 19 -6 101q-4 55 1 93q26 17 51 4q5 -109 1 -185
q-1 -18 0 -46l1 -46zM149 542q-22 -9 -47 -1q-7 46 3 58q46 10 49 2q10 -24 -5 -59zM260 542q-22 -9 -47 -1q-7 46 3 58q46 10 49 2q10 -24 -5 -59z" />
    <glyph glyph-name="Abreve" unicode="&#x102;" horiz-adv-x="345" 
d="M204 698q12 -50 21 -159q10 -124 18 -163l15 -79q31 -284 36 -283q-1 -18 -53 -11q-1 2 -4 38l-7 69q-12 105 -24 158q-11 2 -44 0l-42 -3q-13 -110 -14 -129q-4 -39 -4 -119q0 -13 -20 -11l-32 1q22 270 43 427q36 264 33 258q44 16 78 6zM130 314l68 5q0 44 -10 158
q-11 127 -12 160q-2 5 -9 4q-8 -2 -10 -7q-5 -30 -12 -138q-7 -116 -15 -182zM262 814q-20 -46 -30 -57q-25 -26 -82 -25q-59 12 -77 98q3 9 26 9q1 -15 22 -39t40 -25q39 -3 57 17q7 9 21 44q23 3 23 -22z" />
    <glyph glyph-name="abreve" unicode="&#x103;" horiz-adv-x="364" 
d="M67 402v53q0 17 54 34q53 15 111 15q36 0 46 -2q25 -4 30 -29l-2 -235q0 -122 8 -229q-14 -11 -41 -11q-16 0 -18 41q-55 -42 -110 -42q-25 0 -60 11q-35 23 -35 121q0 115 38 136q7 4 94 27q64 16 79 44l-6 109q-16 10 -55 10q-75 0 -95 -26v-36q-3 -10 -13 -10
q-25 0 -25 19zM256 148q0 23 7 131q-13 -15 -67 -32q-58 -17 -72 -27q-26 -18 -26 -97q0 -73 26 -84q78 0 130 45q0 32 2 64zM288 615q-20 -47 -30 -57q-25 -26 -82 -25q-59 12 -77 98q3 9 26 9q1 -15 22 -39t40 -25q39 -3 57 17q7 9 21 44q23 3 23 -22z" />
    <glyph glyph-name="Aogonek" unicode="&#x104;" horiz-adv-x="370" 
d="M204 698q12 -50 21 -159q10 -124 18 -163l15 -79q31 -284 36 -283q-2 -12 -23 -13q-57 -24 -67 -64q-9 -38 24 -47q49 3 63 7q21 -5 21 -21l-98 -19q-42 8 -53 38q-26 62 79 110q-23 213 -34 263q-11 2 -44 0l-42 -3q-13 -110 -14 -129q-4 -39 -4 -119q0 -13 -20 -11
l-32 1q22 270 43 427q36 264 33 258q44 16 78 6zM130 314l68 5q0 44 -10 158q-11 127 -12 160q-2 5 -9 4q-8 -2 -10 -7q-5 -30 -12 -138q-7 -116 -15 -182z" />
    <glyph glyph-name="aogonek" unicode="&#x105;" horiz-adv-x="366" 
d="M67 402v53q0 17 54 34q53 15 111 15q36 0 46 -2q25 -4 30 -29l-2 -235q0 -122 8 -229q-7 -6 -26 -9q-56 -26 -65 -65q-9 -37 24 -46q49 3 63 7q21 -4 21 -21l-98 -19q-42 8 -53 38q-26 62 80 110q-5 8 -5 35q-55 -42 -110 -42q-25 0 -60 11q-35 23 -35 121q0 115 38 136
q7 4 94 27q64 16 79 44l-6 109q-16 10 -55 10q-75 0 -95 -26v-36q-3 -10 -13 -10q-25 0 -25 19zM256 148q0 23 7 131q-13 -15 -67 -32q-58 -17 -72 -27q-26 -18 -26 -97q0 -73 26 -84q78 0 130 45q0 32 2 64z" />
    <glyph glyph-name="Cacute" unicode="&#x106;" horiz-adv-x="351" 
d="M286 463q-23 0 -31 11q-3 15 2 92q3 45 -17 91q-70 8 -123 -35q-8 -33 -23 -250q-1 -41 2 -106q2 -86 2 -101q8 -84 11 -87q23 -29 130 -11l11 26q3 7 6 65q3 51 10 52l24 9q7 2 9 -20q1 -11 1 -28q0 -97 -6 -115q-8 -23 -40 -34q-95 -27 -131 -17q-18 5 -45 21
q-29 71 -27 100v303q0 92 20 217q32 38 112 51q86 15 117 -19q-1 -165 -14 -215zM286 860l-103 -125q-13 2 -28 7q11 36 78 128l19 8q21 -5 34 -18z" />
    <glyph glyph-name="cacute" unicode="&#x107;" horiz-adv-x="365" 
d="M298 352q-24 0 -32 8l2 38q3 32 0 39t-21 14q-79 23 -119 -37q-14 -35 -24 -148q0 -175 32 -204q19 -16 55 -20q46 -6 70 17l16 65l25 6q5 1 7.5 -7t2.5 -27q0 -58 -6 -63q-72 -44 -138 -34q-57 8 -84 43q-33 43 -34 123q-1 15 1 71q2 70 2 71q0 27 24 124q15 51 109 64
q87 13 126 -16q-2 -94 -14 -127zM308 658l-103 -125q-13 2 -28 7q11 36 78 128l19 8q21 -5 34 -18z" />
    <glyph glyph-name="Ccircumflex" unicode="&#x108;" horiz-adv-x="351" 
d="M286 463q-23 0 -31 11q-3 15 2 92q3 45 -17 91q-70 8 -123 -35q-8 -33 -23 -250q-1 -41 2 -106q2 -86 2 -101q8 -84 11 -87q23 -29 130 -11l11 26q3 7 6 65q3 51 10 52l24 9q7 2 9 -20q1 -11 1 -28q0 -97 -6 -115q-8 -23 -40 -34q-95 -27 -131 -17q-18 5 -45 21
q-29 71 -27 100v303q0 92 20 217q32 38 112 51q86 15 117 -19q-1 -165 -14 -215zM281 749l-24 -11q-77 53 -83 59q-46 -40 -68 -65q-7 0 -11 7q-5 8 -10 8q20 47 77 105l30 -5l65 -66q21 -20 24 -32z" />
    <glyph glyph-name="ccircumflex" unicode="&#x109;" horiz-adv-x="365" 
d="M298 352q-24 0 -32 8l2 38q3 32 0 39t-21 14q-79 23 -119 -37q-14 -35 -24 -148q0 -175 32 -204q19 -16 55 -20q46 -6 70 17l16 65l25 6q5 1 7.5 -7t2.5 -27q0 -58 -6 -63q-72 -44 -138 -34q-57 8 -84 43q-33 43 -34 123q-1 15 1 71q2 70 2 71q0 27 24 124q15 51 109 64
q87 13 126 -16q-2 -94 -14 -127zM295 549l-24 -11q-77 53 -83 59q-46 -40 -68 -65q-7 0 -11 7q-5 8 -10 8q20 47 77 105l30 -5l65 -66q21 -20 24 -32z" />
    <glyph glyph-name="Cdotaccent" unicode="&#x10a;" horiz-adv-x="351" 
d="M286 463q-23 0 -31 11q-3 15 2 92q3 45 -17 91q-70 8 -123 -35q-8 -33 -23 -250q-1 -41 2 -106q2 -86 2 -101q8 -84 11 -87q23 -29 130 -11l11 26q3 7 6 65q3 51 10 52l24 9q7 2 9 -20q1 -11 1 -28q0 -97 -6 -115q-8 -23 -40 -34q-95 -27 -131 -17q-18 5 -45 21
q-29 71 -27 100v303q0 92 20 217q32 38 112 51q86 15 117 -19q-1 -165 -14 -215zM196 741q-22 -9 -47 -1q-7 46 3 58q46 10 49 2q10 -24 -5 -59z" />
    <glyph glyph-name="cdotaccent" unicode="&#x10b;" horiz-adv-x="365" 
d="M298 352q-24 0 -32 8l2 38q3 32 0 39t-21 14q-79 23 -119 -37q-14 -35 -24 -148q0 -175 32 -204q19 -16 55 -20q46 -6 70 17l16 65l25 6q5 1 7.5 -7t2.5 -27q0 -58 -6 -63q-72 -44 -138 -34q-57 8 -84 43q-33 43 -34 123q-1 15 1 71q2 70 2 71q0 27 24 124q15 51 109 64
q87 13 126 -16q-2 -94 -14 -127zM223 538q-22 -9 -47 -1q-7 46 3 58q46 10 49 2q10 -24 -5 -59z" />
    <glyph glyph-name="Ccaron" unicode="&#x10c;" horiz-adv-x="351" 
d="M286 463q-23 0 -31 11q-3 15 2 92q3 45 -17 91q-70 8 -123 -35q-8 -33 -23 -250q-1 -41 2 -106q2 -86 2 -101q8 -84 11 -87q23 -29 130 -11l11 26q3 7 6 65q3 51 10 52l24 9q7 2 9 -20q1 -11 1 -28q0 -97 -6 -115q-8 -23 -40 -34q-95 -27 -131 -17q-18 5 -45 21
q-29 71 -27 100v303q0 92 20 217q32 38 112 51q86 15 117 -19q-1 -165 -14 -215zM279 839q-3 -12 -24 -32l-65 -66l-30 -5q-57 58 -77 105q4 0 13 3q8 3 15 3q31 -37 61 -63q58 53 84 70q16 -8 23 -15z" />
    <glyph glyph-name="ccaron" unicode="&#x10d;" horiz-adv-x="365" 
d="M298 352q-24 0 -32 8l2 38q3 32 0 39t-21 14q-79 23 -119 -37q-14 -35 -24 -148q0 -175 32 -204q19 -16 55 -20q46 -6 70 17l16 65l25 6q5 1 7.5 -7t2.5 -27q0 -58 -6 -63q-72 -44 -138 -34q-57 8 -84 43q-33 43 -34 123q-1 15 1 71q2 70 2 71q0 27 24 124q15 51 109 64
q87 13 126 -16q-2 -94 -14 -127zM304 637q-3 -12 -24 -32l-65 -66l-30 -5q-57 58 -77 105q4 0 13 3q7 3 15 3q31 -37 61 -63q58 53 84 70q16 -8 23 -15z" />
    <glyph glyph-name="Dcaron" unicode="&#x10e;" horiz-adv-x="375" 
d="M70 449l-2 217l19 32q124 1 179 -37q27 -18 48 -67q8 -53 8 -165q4 -67 2 -125q-3 -42 -1 -78l1 -74q-15 -72 -34 -99q-39 -58 -127 -52q-91 4 -91 5q-2 8 -2 443zM114 502l3 -94l3 -357q99 -8 131 41q22 36 27 152q0 68 -2 126q5 111 -5 189q-1 48 -60 69q-44 16 -90 11
q-3 -11 -8 -88q2 -13 1 -24q-1 -18 0 -25zM283 839q-3 -12 -24 -32l-65 -66l-30 -5q-57 58 -77 105q4 0 13 3q8 3 15 3q31 -37 61 -63q58 53 84 70q16 -8 23 -15z" />
    <glyph glyph-name="dcaron" unicode="&#x10f;" horiz-adv-x="457" 
d="M312 353l3 -84l-1 -46q-1 -28 0 -46q5 -111 2 -167q-7 -4 -18 -4q-63 -15 -131 -1q-77 17 -90 62q-24 97 -24 124q0 1 -2 71q-2 56 -1 71q1 80 34 123q23 31 69 41q54 12 113 -12q-2 161 1 209q6 6 26 5q19 -2 26 -9q1 -18 -2 -62q-3 -45 -3 -60l-1 -88q-2 -20 0 -31
q0 -69 -1 -96zM267 163v249l-6 27q-24 23 -70 17q-36 -4 -55 -20q-32 -29 -32 -204q10 -113 24 -148q40 -60 119 -37q17 8 18 10q-1 14 1 80zM399 628q-9 -42 -37 -79q-14 5 -12 13q23 58 19 65q-11 3 -19 8q-7 46 3 58q46 10 49 2q11 -26 -3 -67z" />
    <glyph glyph-name="Dcroat" unicode="&#x110;" horiz-adv-x="424" 
d="M117 449l-2 217l19 32q124 1 179 -37q27 -18 48 -67q8 -53 8 -165q4 -67 2 -125q-3 -42 -1 -78l1 -74q-15 -72 -34 -99q-39 -58 -127 -52q-91 4 -91 5q-5 14 -3 295l-53 -2l-12 12q-1 0 -1 40q0 -3 66 -3zM161 502l3 -94v-60l43 2q4 1 6.5 -4.5t3.5 -18.5q2 -26 -5 -27
l-47 3l2 -252q99 -8 131 41q22 36 27 152q0 68 -2 126q5 111 -5 189q-2 48 -60 69q-44 16 -90 11q-3 -11 -8 -88q2 -13 1 -24q-1 -18 0 -25z" />
    <glyph glyph-name="dslash" unicode="&#x111;" horiz-adv-x="371" 
d="M267 163v249l-6 27q-24 23 -70 17q-36 -4 -55 -20q-32 -29 -32 -204q10 -113 24 -148q40 -60 119 -37q17 8 18 10q-1 14 1 80zM314 556l-1 -76q-2 -20 0 -31q0 -69 -1 -96l3 -84l-1 -46q-1 -28 0 -46q5 -111 2 -167q-7 -4 -18 -4q-63 -15 -131 -1q-77 17 -90 62
q-24 97 -24 124q0 1 -2 71q-2 56 -1 71q1 80 34 123q23 31 69 41q54 12 113 -12q-1 26 -1 71q-41 2 -63 0q-6 17 -1 48q21 1 64 1q0 49 2 89q6 6 26 5q19 -2 26 -9q1 -18 -2 -62q-1 -9 -1 -23q30 0 45 -1q9 -13 -2 -48q-17 -2 -45 0z" />
    <glyph glyph-name="Edotaccent" unicode="&#x116;" horiz-adv-x="354" 
d="M287 659q-14 0 -178 -19q-4 -63 -8 -100q-6 -69 -5 -112q3 -61 4 -63q6 -21 59 -19q73 2 81 0q13 -22 -12 -38q-111 -9 -102 -6q-9 -4 -10 -6q-1 -4 -7 -6q-3 -6 -6 -145q-2 -48 7 -81q22 -15 126 -10q10 0 34 6q17 4 31 2q3 -8 0 -43l-74 -12q-65 -8 -77 -6q-22 2 -47 7
q-35 4 -45 6q-2 20 -4 73q-1 58 -3 79q-2 9 0 47l2 47q-3 40 -3 162q0 6 2 76q2 68 2 78q0 77 7 92q58 34 232 26q9 -2 3 -15zM192 738q-22 -9 -47 -1q-7 46 3 58q46 10 49 2q10 -24 -5 -59z" />
    <glyph glyph-name="Eogonek" unicode="&#x118;" horiz-adv-x="354" 
d="M287 659q-14 0 -178 -19q-4 -63 -8 -100q-6 -69 -5 -112q3 -61 4 -63q6 -21 59 -19q73 2 81 0q13 -22 -12 -38q-111 -9 -102 -6q-9 -4 -10 -6q-1 -4 -7 -6q-3 -6 -6 -145q-2 -48 7 -81q22 -15 126 -10q10 0 34 6q17 4 31 2q3 -8 0 -43l-97 -15q-48 -26 -52 -62
q-5 -33 25 -42q49 3 63 7q21 -5 21 -21l-98 -19q-42 8 -53 38q-19 52 50 95q-8 0 -10 1q-22 2 -47 7q-35 4 -45 6q-2 20 -4 73q-1 58 -3 79q-2 9 0 47l2 47q-3 40 -3 162q0 6 2 76q2 68 2 78q0 77 7 92q58 34 232 26q9 -2 3 -15z" />
    <glyph glyph-name="eogonek" unicode="&#x119;" 
d="M272 70q14 -5 18 -29q-52 -35 -91 -41q-50 -25 -58 -63q-6 -35 25 -44q49 3 63 7q21 -4 21 -21l-98 -19q-42 8 -53 38q-23 56 61 101q-29 1 -76 24q-34 47 -34 215q-1 172 41 231q23 32 98 35q77 3 96 -36q49 -104 0 -261l-29 -21q-106 -20 -156 -17q1 -69 29 -116
q75 -25 143 17zM251 431q-19 25 -57 24t-72 -27q-35 -84 -27 -212q65 -2 132 9l24 14q23 83 0 192z" />
    <glyph glyph-name="Ecaron" unicode="&#x11a;" horiz-adv-x="354" 
d="M287 659q-14 0 -178 -19q-4 -63 -8 -100q-6 -69 -5 -112q3 -61 4 -63q6 -21 59 -19q73 2 81 0q13 -22 -12 -38q-111 -9 -102 -6q-9 -4 -10 -6q-1 -4 -7 -6q-3 -6 -6 -145q-2 -48 7 -81q22 -15 126 -10q10 0 34 6q17 4 31 2q3 -8 0 -43l-74 -12q-65 -8 -77 -6q-22 2 -47 7
q-35 4 -45 6q-2 20 -4 73q-1 58 -3 79q-2 9 0 47l2 47q-3 40 -3 162q0 6 2 76q2 68 2 78q0 77 7 92q58 34 232 26q9 -2 3 -15zM269 838q-3 -12 -24 -32l-65 -66l-30 -5q-57 58 -77 105q4 0 13 3q8 3 15 3q31 -37 61 -63q58 53 84 70q16 -8 23 -15z" />
    <glyph glyph-name="ecaron" unicode="&#x11b;" 
d="M272 70q14 -5 18 -29q-59 -40 -106 -43q-42 -2 -100 25q-34 47 -34 215q-1 172 41 231q23 32 98 35q77 3 96 -36q49 -104 0 -261l-29 -21q-106 -20 -156 -17q1 -69 29 -116q75 -25 143 17zM251 431q-19 25 -57 24t-72 -27q-35 -84 -27 -212q65 -2 132 9l24 14
q23 83 0 192zM286 636q-3 -12 -24 -32l-65 -66l-30 -5q-57 58 -77 105q4 0 13 3q7 3 15 3q31 -37 61 -63q58 53 84 70q16 -8 23 -15z" />
    <glyph glyph-name="Gcircumflex" unicode="&#x11c;" horiz-adv-x="357" 
d="M291 405q-12 2 -17 5q-3 1 -6 2.5l-5 2.5t-3 1q-3 15 2 92q4 60 -17 149q-75 9 -131 -35q-10 -37 -10 -113q0 -97 -2 -139q-1 -15 -1 -215l6 -68q41 -52 129 -38l13 19q29 76 15 177q-1 0 -29 2q-19 0 -26 3q-1 2 0 18l1 23q86 -5 87 1q3 -3 3 -74q0 -177 -1 -179
q-8 -23 -40 -34q-69 -21 -190 22q-17 83 -16 104q2 40 -2 117q-3 72 3 112l-1 69q0 143 12 217q32 38 118 51q91 15 122 -19q-3 -226 -14 -273zM265 746l-24 -11q-77 53 -83 59q-46 -40 -68 -65q-7 0 -11 7q-5 8 -10 8q20 47 77 105l30 -5l65 -66q21 -20 24 -32z" />
    <glyph glyph-name="gcircumflex" unicode="&#x11d;" horiz-adv-x="368" 
d="M312 138l1 -78q-4 -157 -50 -199q-37 -24 -131 -29q-10 10 -10 25q0 9 3 15q82 8 108 29q22 28 28 112q-38 -16 -74 -16q-137 0 -137 187q0 8 2 62q2 56 2 61q0 27 24 124q11 32 57 50q43 17 94 17q45 0 75 -14q12 0 14 -23l-1 -37l-3 -129l1 -73zM267 152l-2 253
q0 28 1 36q-15 15 -55 15q-66 0 -87 -57q-8 -24 -19 -133q0 -177 32 -204q23 -21 73 -21q32 0 52 18l3 12zM295 551l-24 -11q-77 53 -83 59q-46 -40 -68 -65q-7 0 -11 7q-5 8 -10 8q20 47 77 105l30 -5l65 -66q21 -20 24 -32z" />
    <glyph glyph-name="Gbreve" unicode="&#x11e;" horiz-adv-x="357" 
d="M291 405q-12 2 -17 5q-3 1 -6 2.5l-5 2.5t-3 1q-3 15 2 92q4 60 -17 149q-75 9 -131 -35q-10 -37 -10 -113q0 -97 -2 -139q-1 -15 -1 -215l6 -68q41 -52 129 -38l13 19q29 76 15 177q-1 0 -29 2q-19 0 -26 3q-1 2 0 18l1 23q86 -5 87 1q3 -3 3 -74q0 -177 -1 -179
q-8 -23 -40 -34q-69 -21 -190 22q-17 83 -16 104q2 40 -2 117q-3 72 3 112l-1 69q0 143 12 217q32 38 118 51q91 15 122 -19q-3 -226 -14 -273zM276 817q-20 -47 -30 -57q-25 -26 -82 -25q-59 12 -77 98q3 9 26 9q1 -15 22 -39t40 -25q39 -3 57 17q7 9 21 44q23 3 23 -22z
" />
    <glyph glyph-name="gbreve" unicode="&#x11f;" horiz-adv-x="368" 
d="M312 138l1 -78q-4 -157 -50 -199q-37 -24 -131 -29q-10 10 -10 25q0 9 3 15q82 8 108 29q22 28 28 112q-38 -16 -74 -16q-137 0 -137 187q0 8 2 62q2 56 2 61q0 27 24 124q11 32 57 50q43 17 94 17q45 0 75 -14q12 0 14 -23l-1 -37l-3 -129l1 -73zM267 152l-2 253
q0 28 1 36q-15 15 -55 15q-66 0 -87 -57q-8 -24 -19 -133q0 -177 32 -204q23 -21 73 -21q32 0 52 18l3 12zM289 615q-19 -47 -30 -57q-25 -26 -82 -25q-59 12 -77 98q3 9 26 9q1 -15 22 -39t40 -25q39 -3 57 17q7 9 21 44q23 3 23 -22z" />
    <glyph glyph-name="Gdotaccent" unicode="&#x120;" horiz-adv-x="357" 
d="M291 405q-12 2 -17 5q-3 1 -6 2.5l-5 2.5t-3 1q-3 15 2 92q4 60 -17 149q-75 9 -131 -35q-10 -37 -10 -113q0 -97 -2 -139q-1 -15 -1 -215l6 -68q41 -52 129 -38l13 19q29 76 15 177q-1 0 -29 2q-19 0 -26 3q-1 2 0 18l1 23q86 -5 87 1q3 -3 3 -74q0 -177 -1 -179
q-8 -23 -40 -34q-69 -21 -190 22q-17 83 -16 104q2 40 -2 117q-3 72 3 112l-1 69q0 143 12 217q32 38 118 51q91 15 122 -19q-3 -226 -14 -273zM202 738q-22 -9 -47 -1q-7 46 3 58q46 10 49 2q10 -24 -5 -59z" />
    <glyph glyph-name="gdotaccent" unicode="&#x121;" horiz-adv-x="368" 
d="M312 138l1 -78q-4 -157 -50 -199q-37 -24 -131 -29q-10 10 -10 25q0 9 3 15q82 8 108 29q22 28 28 112q-38 -16 -74 -16q-137 0 -137 187q0 8 2 62q2 56 2 61q0 27 24 124q11 32 57 50q43 17 94 17q45 0 75 -14q12 0 14 -23l-1 -37l-3 -129l1 -73zM267 152l-2 253
q0 28 1 36q-15 15 -55 15q-66 0 -87 -57q-8 -24 -19 -133q0 -177 32 -204q23 -21 73 -21q32 0 52 18l3 12zM218 541q-22 -9 -47 -1q-7 46 3 58q46 10 49 2q10 -24 -5 -59z" />
    <glyph glyph-name="Hcircumflex" unicode="&#x124;" 
d="M299 677q-7 -185 -7 -342q0 -74 8 -252q4 -70 0 -80q-41 -5 -58 6l3 82q4 53 4 97l2 54q2 36 0 59q-8 -1 -64 2q-42 2 -59 -5l-28 -26q-1 -2 -1 -81l2 -79q0 -20 -3 -54q-3 -40 -3 -57q-24 -4 -42 14q-4 53 1 173q4 124 3 176q-4 87 -4 149q0 153 5 180q22 13 47 0
q3 -17 -5 -167q-1 -18 0 -46l1 -46q0 -72 6 -86q32 -6 143 4q-4 40 3 89q4 33 -3 124q-6 81 4 125q1 10 25 4q11 -2 16.5 -6.5t3.5 -10.5zM277 751l-24 -11q-77 53 -83 59q-46 -40 -68 -65q-7 0 -11 7q-5 8 -10 8q20 47 77 105l30 -5l65 -66q21 -20 24 -32z" />
    <glyph glyph-name="hcircumflex" unicode="&#x125;" horiz-adv-x="361" 
d="M270 484l35 -42q0 -365 5 -433q-30 -22 -53 -8q-11 41 -5 147q0 17 5 142l-3 139q-64 43 -156 -19q-2 -56 -2 -60l2 -78v-137q0 -21 4 -60q5 -42 3 -62q-7 -7 -26 -9q-20 -2 -26 5q-4 52 -2 176q1 133 0 179v149q0 157 3 176q22 15 46 4q3 -56 -2 -167q-1 -14 1 -71
q98 75 171 29zM259 752l-24 -11q-77 53 -83 59q-46 -40 -68 -65q-7 0 -11 7q-5 8 -10 8q20 47 77 105l30 -5l65 -66q21 -20 24 -32z" />
    <glyph glyph-name="Hbar" unicode="&#x126;" horiz-adv-x="421" 
d="M333 677q-3 -95 -4 -121h29q4 1 6.5 -4.5t3.5 -17.5q2 -25 -5 -26l-35 3q-2 -78 -2 -176q0 -74 8 -252q4 -70 0 -80q-41 -5 -58 6l3 82q4 53 4 97l2 54q2 36 0 59q-8 -1 -64 2q-42 2 -59 -5l-28 -26q-1 -2 -1 -81l2 -79q0 -20 -3 -54q-3 -40 -3 -57q-24 -4 -42 14
q-4 53 1 173q4 124 3 176q-4 84 -4 143h-24l-12 12q-1 0 -1 38l36 -2q-2 102 6 138q22 13 47 0q5 -37 -4 -139h71q53 0 78 1q-6 93 4 135q1 10 25 4q11 -2 16.5 -6.5t3.5 -10.5zM288 510l-155 -2l2 -74q0 -72 6 -86q32 -6 143 4q-4 40 3 89q3 26 1 69z" />
    <glyph glyph-name="hbar" unicode="&#x127;" horiz-adv-x="407" 
d="M50 605q0 -1 44 -3q-2 54 5 87q22 15 46 4q1 -20 1 -91l100 2q8 2 9 -23t-4 -27l-33 3l-74 -2l-1 -29q-1 -14 1 -71q98 75 171 29l35 -42q0 -365 5 -433q-30 -22 -53 -8q-11 41 -5 147q0 17 5 142l-3 139q-64 43 -156 -19q-2 -56 -2 -60l2 -78v-137q0 -21 4 -60
q5 -42 3 -62q-7 -7 -26 -9q-20 -2 -26 5q-4 52 -2 176q1 133 0 179v149q0 32 -1 41q-13 -1 -34 -1l-10 12q-1 0 -1 40z" />
    <glyph glyph-name="Itilde" unicode="&#x128;" horiz-adv-x="157" 
d="M95 350l2 -78v-137q0 -21 4 -60q5 -42 3 -62q-7 -7 -26 -9q-20 -2 -26 5q-4 52 -2 176q1 133 0 179v149q0 157 3 176q22 15 46 4q3 -56 -2 -167q-1 -18 0 -46l1 -46zM38 781l-70 -21q-16 13 -9 38l67 32q26 -1 58 -15q38 -16 41 -16l60 24q22 -28 6 -40l-67 -31z" />
    <glyph glyph-name="itilde" unicode="&#x129;" horiz-adv-x="157" 
d="M58 168l-4 315q10 17 29 16q16 -1 23 -13l-4 -119l6 -359q-6 -6 -23 -8q-19 -1 -29 11zM41 569l-70 -21q-16 13 -9 38l67 32q26 -1 58 -15q38 -16 41 -16l60 24q22 -28 6 -40l-67 -31z" />
    <glyph glyph-name="Idotaccent" unicode="&#x130;" horiz-adv-x="169" 
d="M109 350l2 -78v-137q0 -21 4 -60q5 -42 3 -62q-7 -7 -26 -9q-20 -2 -26 5q-4 52 -2 176q1 133 0 179v149q0 157 3 176q22 15 46 4q3 -56 -2 -167q-1 -18 0 -46l1 -46zM111 739q-22 -9 -47 -1q-7 46 3 58q46 10 49 2q10 -24 -5 -59z" />
    <glyph glyph-name="dotlessi" unicode="&#x131;" horiz-adv-x="157" 
d="M58 168l-4 315q10 17 29 16q16 -1 23 -13l-4 -119l6 -359q-6 -6 -23 -8q-19 -1 -29 11z" />
    <glyph glyph-name="Jcircumflex" unicode="&#x134;" horiz-adv-x="352" 
d="M53 229q11 15 44 12q2 -25 1 -74q-2 -47 6 -69q3 -13 22 -32q16 -14 51 -17q37 -4 53 10q16 13 18 54q2 11 0 36q0 29 1 38q3 78 3 254q0 9 -2 67t-2 65q0 119 1 121l47 6q5 -4 4 -26l-1 -300v-128.5t1 -24.5q-1 -5 -1 -21l-1 -54q0 -46 -1 -61q0 -23 -2 -35l-21 -40
q-41 -13 -103 -8q-71 6 -99 37q-14 17 -20 95q-5 72 1 95zM290 751l-24 -11q-77 53 -83 59q-46 -40 -68 -65q-7 0 -11 7q-5 8 -10 8q20 47 77 105l30 -5l65 -66q21 -20 24 -32z" />
    <glyph glyph-name="jcircumflex" unicode="&#x135;" horiz-adv-x="164" 
d="M54 447v36q10 17 29 16q16 -1 23 -13l-1 -26q1 -46 -3 -146q-1 -18 0 -46l1 -46l-3 -84l2 -78q-4 -155 -51 -199q-37 -24 -131 -29q-16 17 -7 40q82 8 108 29q29 38 34 251v149v123t-1 23zM185 549l-24 -11q-77 53 -83 59q-46 -40 -68 -65q-7 0 -11 7q-5 8 -10 8
q20 47 77 105l30 -5l65 -66q21 -20 24 -32z" />
    <glyph glyph-name="Lacute" unicode="&#x139;" horiz-adv-x="347" 
d="M96 350v-215l6 -73q2 -1 11 -8l111 2l61 8q11 -3 10 -28q-4 -22 -7 -23l-13 -10l-38 -1q-24 -2 -39 0q-75 0 -86 -1h-38q-15 -2 -21 4q-4 52 -2 178q1 135 0 181v149q0 157 3 176q24 17 51 3q1 -8 -7 -166q-1 -18 0 -46l1 -46zM195 859l-103 -125q-13 2 -28 7
q11 36 78 128l19 8q21 -5 34 -18z" />
    <glyph glyph-name="lacute" unicode="&#x13a;" horiz-adv-x="161" 
d="M96 350l2 -78v-137q0 -21 4 -62q5 -45 3 -65q-7 -7 -26 -9q-20 -1 -26 5q-4 52 -2 179q1 135 0 181v149q0 157 3 176q22 15 46 4q3 -56 -2 -167q-1 -18 0 -46l1 -46zM193 857l-103 -125q-13 2 -28 7q11 36 78 128l19 8q21 -5 34 -18z" />
    <glyph glyph-name="Lcaron" unicode="&#x13d;" horiz-adv-x="347" 
d="M96 350v-215l6 -73q2 -1 11 -8l111 2l61 8q11 -3 10 -28q-4 -22 -7 -23l-13 -10l-38 -1q-24 -2 -39 0q-75 0 -86 -1h-38q-15 -2 -21 4q-4 52 -2 178q1 135 0 181v149q0 157 3 176q24 17 51 3q1 -8 -7 -166q-1 -18 0 -46l1 -46zM190 629q-9 -42 -37 -79q-14 5 -12 13
q23 58 19 65q-11 3 -19 8q-7 46 3 58q46 10 49 2q11 -26 -3 -67z" />
    <glyph glyph-name="lcaron" unicode="&#x13e;" horiz-adv-x="240" 
d="M96 350l2 -78v-137q0 -21 4 -62q5 -45 3 -65q-7 -7 -26 -9q-20 -1 -26 5q-4 52 -2 179q1 135 0 181v149q0 157 3 176q22 15 46 4q3 -56 -2 -167q-1 -18 0 -46l1 -46zM182 630q-9 -42 -37 -79q-14 5 -12 13q23 58 19 65q-11 3 -19 8q-7 46 3 58q46 10 49 2q11 -26 -3 -67z
" />
    <glyph glyph-name="Lslash" unicode="&#x141;" horiz-adv-x="442" 
d="M76 296l-4 13l2 1q3 0 10 2.5l14.5 5l22 7.5l26.5 9v179q0 157 3 176q24 17 51 3q1 -8 -7 -166q-1 -18 0 -46l1 -46l-3 -82l63 24q2 2 5.5 -1.5t7.5 -11.5q8 -17 4 -20l-28 -7q0 -2 -52 -21v-180l6 -73q2 -1 11 -8l111 2l61 8q11 -3 10 -28q-4 -22 -7 -23l-13 -10l-38 -1
q-24 -2 -39 0q-75 0 -86 -1h-38q-15 -2 -21 4q-2 42 -2 292l-53 -20l-12 5l-5 12q-1 1 -1 2z" />
    <glyph glyph-name="lslash" unicode="&#x142;" horiz-adv-x="301" 
d="M54 296l-4 13q0 -1 18 5t59 21q1 0 2 1v177q0 157 3 176q22 15 46 4q3 -56 -2 -167q-1 -18 0 -46l1 -46l-3 -80q54 22 59 22q2 2 5.5 -1.5t7.5 -11.5q8 -17 4 -20l-28 -7q0 -1 -47 -19l1 -182q0 -21 4 -62q5 -45 3 -65q-7 -7 -26 -9q-20 -1 -26 5q-2 42 -2 295l-57 -22
l-12 5l-5 12q-1 1 -1 2z" />
    <glyph glyph-name="Nacute" unicode="&#x143;" horiz-adv-x="361" 
d="M270 685l35 -42q0 -566 5 -634q-30 -22 -53 -8q-11 41 -5 147q0 8 0.5 45t2 125.5t2.5 172.5l-3 139q-64 43 -156 -19q-2 -56 -2 -60l2 -416q0 -21 4 -60q5 -42 3 -62q-7 -7 -26 -9q-20 -2 -26 5q-4 52 -2 277q1 236 0 279v121q21 25 46 12l2 -42q98 75 171 29zM285 860
l-103 -125q-13 2 -28 7q11 36 78 128l19 8q21 -5 34 -18z" />
    <glyph glyph-name="nacute" unicode="&#x144;" horiz-adv-x="360" 
d="M270 484l35 -42q0 -365 5 -433q-30 -22 -53 -8q-11 41 -5 147q0 17 5 142l-3 139q-64 43 -156 -19q-2 -56 -2 -60l2 -78v-137q0 -21 4 -60q5 -42 3 -62q-7 -7 -26 -9q-20 -2 -26 5q-4 52 -2 176q1 133 0 179v121q21 25 46 12l2 -42q98 75 171 29zM294 660l-103 -125
q-13 2 -28 7q11 36 78 128l19 8q21 -5 34 -18z" />
    <glyph glyph-name="Ncaron" unicode="&#x147;" horiz-adv-x="361" 
d="M270 685l35 -42q0 -566 5 -634q-30 -22 -53 -8q-11 41 -5 147q0 8 0.5 45t2 125.5t2.5 172.5l-3 139q-64 43 -156 -19q-2 -56 -2 -60l2 -416q0 -21 4 -60q5 -42 3 -62q-7 -7 -26 -9q-20 -2 -26 5q-4 52 -2 277q1 236 0 279v121q21 25 46 12l2 -42q98 75 171 29zM285 839
q-3 -12 -24 -32l-65 -66l-30 -5q-57 58 -77 105q4 0 13 3q8 3 15 3q31 -37 61 -63q58 53 84 70q16 -8 23 -15z" />
    <glyph glyph-name="ncaron" unicode="&#x148;" horiz-adv-x="360" 
d="M270 484l35 -42q0 -365 5 -433q-30 -22 -53 -8q-11 41 -5 147q0 17 5 142l-3 139q-64 43 -156 -19q-2 -56 -2 -60l2 -78v-137q0 -21 4 -60q5 -42 3 -62q-7 -7 -26 -9q-20 -2 -26 5q-4 52 -2 176q1 133 0 179v121q21 25 46 12l2 -42q98 75 171 29zM278 634q-3 -12 -24 -32
l-65 -66l-30 -5q-57 58 -77 105q4 0 13 3q7 3 15 3q31 -37 61 -63q58 53 84 70q16 -8 23 -15z" />
    <glyph glyph-name="Ohungarumlaut" unicode="&#x150;" horiz-adv-x="385" 
d="M297 645q3 -39 1 -122q-3 -81 1 -129q1 -31 0 -82q0 -15 -0.5 -34.5t-1 -30t-0.5 -16.5l-1 -77q0 -8 3 -38q1 -24 0 -37l-12 -24q-3 -9 -7 -19q-6 -2 -19 -15q-13 -12 -24 -15q-83 -26 -132 -3q-19 9 -51 60q-1 14 -1 94q-1 59 -3 99q-1 22 1 128q2 86 -1 125
q0 101 6 119q5 24 39 43q26 19 86 34q20 5 68 -12q15 -6 48 -48zM99 599q-4 -21 -2 -68q4 -61 -1 -155q-2 -43 2 -89q5 -68 5 -84q0 -97 4 -117q10 -51 64 -43q63 6 84 58q-11 251 4 515q-13 37 -80 34q-70 -5 -80 -51zM211 853q-21 -30 -47 -59q-49 -56 -50 -57l-28 3
q14 42 82 136q25 -4 35 -8t8 -15zM334 858l-103 -125l-23 19q9 28 73 116l19 8q11 5 34 -18z" />
    <glyph glyph-name="ohungarumlaut" unicode="&#x151;" horiz-adv-x="381" 
d="M302 446q2 -16 2 -52q2 -42 2 -82l-1 -81q0 -147 -1 -152l-12 -24q-3 -9 -7 -19q-6 -2 -19 -15q-14 -12 -24 -15q-82 -26 -132 -3q-20 9 -51 60q-1 14 -1 94q-2 59 -3 99v54q-12 71 4 117q5 25 41 45q26 19 86 34q20 5 68 -12q15 -6 48 -48zM104 400q-3 -27 3 -197
l5 -117q10 -51 64 -43q44 5 51 8q18 7 30 39q1 19 1 328q-13 37 -77 33q-65 -5 -77 -51zM212 652q-21 -30 -47 -59q-49 -56 -50 -57l-28 3q14 42 82 136q25 -4 35 -8t8 -15zM335 657l-103 -125l-23 19q9 28 73 116l19 8q11 5 34 -18z" />
    <glyph glyph-name="OE" unicode="&#x152;" horiz-adv-x="561" 
d="M494 659q-14 0 -178 -19q-4 -63 -8 -100q-6 -69 -5 -112q3 -61 4 -63q6 -21 59 -19q74 2 81 0q13 -22 -12 -38q-111 -9 -102 -6q-9 -4 -10 -6q-1 -4 -7 -6q-3 -6 -6 -145q-2 -48 7 -81q22 -15 126 -10q10 0 34 6q17 4 31 2q3 -8 0 -43l-74 -12q-65 -8 -77 -6q-22 2 -47 7
q-34 4 -45 6l-2 9q-12 -13 -26 -17q-83 -26 -132 -3q-19 9 -51 60q-1 14 -1 94q-1 59 -3 99q-1 22 1 128q2 86 -1 125q0 101 6 119q5 24 39 43q26 19 86 34q20 5 68 -12q13 -5 27 -21q59 30 224 22q9 -2 3 -15zM99 599q-4 -21 -2 -68q4 -61 -1 -155q-2 -43 2 -89
q5 -68 5 -84q0 -97 4 -117q10 -51 64 -43q63 6 84 58q-11 251 4 515q-13 37 -80 34q-70 -5 -80 -51z" />
    <glyph glyph-name="oe" unicode="&#x153;" horiz-adv-x="593" 
d="M510 70q14 -5 18 -29q-59 -40 -106 -43q-42 -2 -100 25q-14 18 -21 61l-1 -5l-12 -24q-3 -9 -7 -19q-6 -2 -19 -15q-14 -12 -24 -15q-82 -26 -132 -3q-20 9 -51 60q-1 14 -1 94q-2 59 -3 99v33q1 -2 1 -4l-1 25q0 106 4 117q5 25 41 45q26 19 86 34q20 5 68 -12
q15 -6 48 -48l1 -28v6q-1 8 -1 6q-1 -3 2 -36v-3q12 55 29 78q23 32 98 35q77 3 96 -36q49 -104 0 -261l-29 -21q-106 -20 -156 -17q1 -69 29 -116q75 -25 143 17zM100 400q-3 -27 3 -197l5 -117q10 -51 64 -43q48 5 55 8q23 9 35 39q1 19 1 328q-13 38 -81 33
q-72 -5 -82 -51zM489 431q-19 25 -57 24t-72 -27q-35 -84 -27 -212q65 -2 132 9l24 14q23 83 0 192z" />
    <glyph glyph-name="Racute" unicode="&#x154;" horiz-adv-x="337" 
d="M97 636l3 -304q69 4 101 36q33 33 35 138q1 92 -19 139q-71 17 -120 -9zM223 6l-9 56q-25 115 -30 178q-1 39 -11 61l-37 -9q-26 -6 -30 -19l-2 -41l-4 -117q1 -59 5 -86q2 -15 -12 -22t-43 -6v54q0 37 3 86q2 64 2 86q0 41 -2 71q-3 62 0 229q3 137 -2 150
q107 29 185 17q29 -20 35 -68q14 -108 8 -143l-6 -53q-4 -41 -7 -50q-11 -33 -18 -40l-27 -16l10 -45q40 -214 48 -232t-1 -31q-10 -11 -55 -10zM255 861l-103 -125q-13 2 -28 7q11 36 78 128l19 8q21 -5 34 -18z" />
    <glyph glyph-name="racute" unicode="&#x155;" horiz-adv-x="306" 
d="M85 227v207q0 12 2 54q36 20 46 7v-57q15 34 52 50q33 16 68 11q8 -35 -6 -49q-31 -1 -61 -15q-44 -20 -52 -58l-1 -229q2 -58 2 -86v-60q-11 -6 -27 -3t-24 12q-1 12 1 63l1 117l-1 18q-1 11 0 18zM225 660l-103 -125q-13 2 -28 7q11 36 78 128l19 8q21 -5 34 -18z" />
    <glyph glyph-name="Rcaron" unicode="&#x158;" horiz-adv-x="354" 
d="M114 636l3 -304q69 4 101 36q33 33 35 138q1 92 -19 139q-70 17 -120 -9zM240 6l-9 56q-25 115 -30 178q-1 39 -11 61l-37 -9q-26 -6 -30 -19l-2 -41l-4 -117q1 -59 5 -86q2 -15 -12 -22t-43 -6v54q0 37 3 86q2 64 2 86q0 41 -2 71q-3 62 0 229q3 137 -2 150
q107 29 185 17q29 -20 35 -68q14 -108 8 -143l-6 -53q-4 -41 -7 -50q-11 -33 -18 -40l-27 -16l10 -45q40 -214 48 -232t-1 -31q-10 -11 -55 -10zM272 839q-3 -12 -24 -32l-65 -66l-30 -5q-57 58 -77 105q4 0 13 3q7 3 15 3q31 -37 61 -63q58 53 84 70q16 -8 23 -15z" />
    <glyph glyph-name="rcaron" unicode="&#x159;" horiz-adv-x="306" 
d="M85 227v207q0 12 2 54q36 20 46 7v-57q15 34 52 50q33 16 68 11q8 -35 -6 -49q-31 -1 -61 -15q-44 -20 -52 -58l-1 -229q2 -58 2 -86v-60q-11 -6 -27 -3t-24 12q-1 12 1 63l1 117l-1 18q-1 11 0 18zM263 637q-3 -12 -24 -32l-65 -66l-30 -5q-57 58 -77 105q4 0 13 3
q8 3 15 3q31 -37 61 -63q58 53 84 70q16 -8 23 -15z" />
    <glyph glyph-name="Sacute" unicode="&#x15a;" horiz-adv-x="354" 
d="M259 690q16 -45 19 -142q4 -105 -17 -136q-29 0 -30 1q5 217 -4 235q-19 20 -63 9q-40 -11 -56 -33q-22 -138 16 -235l160 -128q36 -139 10 -195q-3 -10 -28 -32q-24 -24 -33 -27q-90 -19 -143 8q-32 20 -34 97q-1 19 -1 106q0 10 1.5 15t5.5 4l30 -10q10 -12 6 -48
q-1 -5 4 -93q3 -51 121 -27q53 78 19 172q-19 21 -64 53q-45 30 -64 48q-44 40 -60 108q-4 12 -4 123q0 73 25 110q115 35 184 17zM272 861l-103 -125q-13 2 -28 7q11 36 78 128l19 8q21 -5 34 -18z" />
    <glyph glyph-name="sacute" unicode="&#x15b;" horiz-adv-x="358" 
d="M262 500q17 -34 20 -104q5 -77 -18 -98q-32 0 -33 1q5 150 -3 162q-22 14 -63 7q-39 -7 -56 -24q-20 -96 16 -163l162 -92q38 -101 11 -142q-3 -8 -28 -24q-27 -18 -35 -19q-92 -14 -145 5q-32 15 -34 71q-1 14 -1 77q0 7 2 10.5t6 2.5l29 -7q7 -4 7 -34q0 -47 4 -59
q10 -37 123 -19q50 51 19 115q-23 19 -65 39q-46 22 -65 35q-45 31 -61 78q-4 9 -4 90q0 54 25 79q111 27 187 13zM242 657l-103 -125q-13 2 -28 7q11 36 78 128l19 8q21 -5 34 -18z" />
    <glyph glyph-name="Scircumflex" unicode="&#x15c;" horiz-adv-x="354" 
d="M259 690q16 -45 19 -142q4 -105 -17 -136q-29 0 -30 1q5 217 -4 235q-19 20 -63 9q-40 -11 -56 -33q-22 -138 16 -235l160 -128q36 -139 10 -195q-3 -10 -28 -32q-24 -24 -33 -27q-90 -19 -143 8q-32 20 -34 97q-1 19 -1 106q0 10 1.5 15t5.5 4l30 -10q10 -12 6 -48
q-1 -5 4 -93q3 -51 121 -27q53 78 19 172q-19 21 -64 53q-45 30 -64 48q-44 40 -60 108q-4 12 -4 123q0 73 25 110q115 35 184 17zM264 751l-24 -11q-77 53 -83 59q-46 -40 -68 -65q-7 0 -11 7q-5 8 -10 8q20 47 77 105l30 -5l65 -66q21 -20 24 -32z" />
    <glyph glyph-name="scircumflex" unicode="&#x15d;" horiz-adv-x="358" 
d="M262 500q17 -34 20 -104q5 -77 -18 -98q-32 0 -33 1q5 150 -3 162q-22 14 -63 7q-39 -7 -56 -24q-20 -96 16 -163l162 -92q38 -101 11 -142q-3 -8 -28 -24q-27 -18 -35 -19q-92 -14 -145 5q-32 15 -34 71q-1 14 -1 77q0 7 2 10.5t6 2.5l29 -7q7 -4 7 -34q0 -47 4 -59
q10 -37 123 -19q50 51 19 115q-23 19 -65 39q-46 22 -65 35q-45 31 -61 78q-4 9 -4 90q0 54 25 79q111 27 187 13zM268 553l-24 -11q-77 53 -83 59q-46 -40 -68 -65q-7 0 -11 7q-5 8 -10 8q20 47 77 105l30 -5l65 -66q21 -20 24 -32z" />
    <glyph glyph-name="Scedilla" unicode="&#x15e;" horiz-adv-x="354" 
d="M150 -37l14 37q-47 0 -74 15q-32 20 -34 97q-1 19 -1 106q0 10 1.5 15t5.5 4l30 -10q10 -12 6 -48q-1 -5 4 -93q3 -51 121 -27q53 78 19 172q-19 21 -64 53q-45 30 -64 48q-44 40 -60 108q-4 12 -4 123q0 73 25 110q115 35 184 17q16 -45 19 -142q4 -105 -17 -136
q-29 0 -30 1q5 217 -4 235q-19 20 -63 9q-40 -11 -56 -33q-22 -138 16 -235l160 -128q36 -139 10 -195q-3 -10 -28 -32q-24 -24 -33 -27q-18 -4 -38 -6l-6 -30q47 5 69 -29q17 -28 7 -56q-11 -30 -53 -38l-98 19q0 17 21 21q14 -4 63 -7q36 10 30 41q-5 32 -59 27z" />
    <glyph glyph-name="scedilla" unicode="&#x15f;" horiz-adv-x="358" 
d="M150 -36l13 35q-46 0 -73 10q-32 15 -34 71q-1 14 -1 77q0 7 2 10.5t6 2.5l29 -7q7 -4 7 -34q0 -47 4 -59q10 -37 123 -19q50 51 19 115q-23 19 -65 39q-46 22 -65 35q-45 31 -61 78q-4 9 -4 90q0 54 25 79q111 27 187 13q17 -34 20 -104q5 -77 -18 -98q-32 0 -33 1
q5 150 -3 162q-22 14 -63 7q-39 -7 -56 -24q-20 -96 16 -163l162 -92q38 -101 11 -142q-3 -8 -28 -24q-27 -18 -35 -19q-23 -4 -41 -4l-5 -28q47 5 69 -29q17 -28 7 -56q-11 -30 -53 -38l-98 19q0 16 21 21q14 -4 63 -7q36 10 30 41q-5 32 -59 27z" />
    <glyph glyph-name="Scaron" unicode="&#x160;" horiz-adv-x="354" 
d="M259 690q16 -45 19 -142q4 -105 -17 -136q-29 0 -30 1q5 217 -4 235q-19 20 -63 9q-40 -11 -56 -33q-22 -138 16 -235l160 -128q36 -139 10 -195q-3 -10 -28 -32q-24 -24 -33 -27q-90 -19 -143 8q-32 20 -34 97q-1 19 -1 106q0 10 1.5 15t5.5 4l30 -10q10 -12 6 -48
q-1 -5 4 -93q3 -51 121 -27q53 78 19 172q-19 21 -64 53q-45 30 -64 48q-44 40 -60 108q-4 12 -4 123q0 73 25 110q115 35 184 17zM259 838q-3 -12 -24 -32l-65 -66l-30 -5q-57 58 -77 105q4 0 13 3q8 3 15 3q31 -37 61 -63q58 53 84 70q16 -8 23 -15z" />
    <glyph glyph-name="scaron" unicode="&#x161;" horiz-adv-x="358" 
d="M262 500q17 -34 20 -104q5 -77 -18 -98q-32 0 -33 1q5 150 -3 162q-22 14 -63 7q-39 -7 -56 -24q-20 -96 16 -163l162 -92q38 -101 11 -142q-3 -8 -28 -24q-27 -18 -35 -19q-92 -14 -145 5q-32 15 -34 71q-1 14 -1 77q0 7 2 10.5t6 2.5l29 -7q7 -4 7 -34q0 -47 4 -59
q10 -37 123 -19q50 51 19 115q-23 19 -65 39q-46 22 -65 35q-45 31 -61 78q-4 9 -4 90q0 54 25 79q111 27 187 13zM259 636q-3 -12 -24 -32l-65 -66l-30 -5q-57 58 -77 105q4 0 13 3q8 3 15 3q31 -37 61 -63q58 53 84 70q16 -8 23 -15z" />
    <glyph glyph-name="uni0162" unicode="&#x162;" horiz-adv-x="351" 
d="M57 696l245 3q5 -38 -13 -48l-74 3q-15 0 -18 -8q-2 -8 -2 -38l2 -249q0 -52 6 -145q6 -91 6 -161q0 -53 -6 -54q-11 -5 -30 3q-18 6 -18 11q0 9 2 99l1 72q0 74 -4 195q-5 152 -5 212l1 52q0 7 -39 6q-43 -3 -49 -1q-19 22 -5 48zM209 -115q-9 -42 -37 -79q-14 5 -12 13
q23 58 19 65q-11 3 -19 8q-7 46 3 58q46 10 49 2q11 -26 -3 -67z" />
    <glyph glyph-name="uni0163" unicode="&#x163;" horiz-adv-x="273" 
d="M52 502q0 -2 52 -2q-1 13 -1 57q0 33 6 43q6 9 29 9q10 0 17 -4l-1 -25l1 -80l53 1q9 0 9 -29q0 -19 -5 -21l-40 3q-11 0 -17 -1q0 -24 -2 -102l2 -107l-1 -14v-143q0 -41 25 -41q6 0 18 3q16 2 17 2q9 0 9 -35q0 -16 -50 -16q-68 0 -68 60l1 339q-1 20 -1 52
q-15 -1 -40 -1l-12 12q-3 0 -3 13q0 7 2 27zM184 -108q-9 -42 -37 -79q-14 5 -12 13q23 58 19 65q-11 3 -19 8q-7 46 3 58q46 10 49 2q11 -26 -3 -67z" />
    <glyph glyph-name="Tcaron" unicode="&#x164;" horiz-adv-x="351" 
d="M57 696l245 3q5 -38 -13 -48l-74 3q-15 0 -18 -8q-2 -8 -2 -38l2 -249q0 -52 6 -145q6 -91 6 -161q0 -53 -6 -54q-11 -5 -30 3q-18 6 -18 11q0 9 2 99l1 72q0 74 -4 195q-5 152 -5 212l1 52q0 7 -39 6q-43 -3 -49 -1q-19 22 -5 48zM276 838q-3 -12 -24 -32l-65 -66
l-30 -5q-57 58 -77 105q4 0 13 3q7 3 15 3q31 -37 61 -63q58 53 84 70q16 -8 23 -15z" />
    <glyph glyph-name="tcaron" unicode="&#x165;" horiz-adv-x="324" 
d="M52 502q0 -2 52 -2q-1 13 -1 57q0 33 6 43q6 9 29 9q10 0 17 -4l-1 -25l1 -80l53 1q9 0 9 -29q0 -19 -5 -21l-40 3q-11 0 -17 -1q0 -24 -2 -102l2 -107l-1 -14v-143q0 -41 25 -41q6 0 18 3q16 2 17 2q9 0 9 -35q0 -16 -50 -16q-68 0 -68 60l1 339q-1 20 -1 52
q-15 -1 -40 -1l-12 12q-3 0 -3 13q0 7 2 27zM267 611q-9 -42 -37 -79q-14 5 -12 13q23 58 19 65q-11 3 -19 8q-7 46 3 58q46 10 49 2q11 -26 -3 -67z" />
    <glyph glyph-name="Utilde" unicode="&#x168;" horiz-adv-x="357" 
d="M303 666q-3 -39 -2 -105q1 -58 -1 -108q-3 -78 0 -87q-4 -39 0 -124q3 -90 0 -131q-4 -16 -4 -26v-21q1 -9 -1 -18q-9 -24 -50 -39q-39 -11 -82 -5q-41 4 -52 9q-6 1 -30 28q-20 26 -22 31q-10 25 -8 50q2 32 1 64q-1 46 0 67q1 28 -1 131q0 24 -0.5 56t-1 49t-0.5 27
l-1 127q0 45 6 52q24 5 48 -11q-5 -76 -2 -195q3 -168 2 -205q-3 -154 1 -173q11 -33 32 -44q26 -14 91 -15l20 18q6 126 6 306q0 223 -7 315q13 13 35 1q18 -11 23 -24zM133 761l-70 -21q-16 13 -9 38l67 32q26 -1 58 -15q38 -16 41 -16l60 24q22 -28 6 -40l-67 -31z" />
    <glyph glyph-name="utilde" unicode="&#x169;" horiz-adv-x="360" 
d="M90 16l-35 42q0 365 -5 433q30 22 53 8q11 -41 5 -147q0 -17 -5 -142l3 -139q66 -46 155 19l3 60l-2 78v137q0 21 -4 60q-5 42 -3 62q7 7 26 9t26 -5q4 -64 3 -176q-2 -156 -1 -179v-121q-21 -25 -46 -12q-2 26 -2 41q-99 -72 -171 -28zM138 574l-70 -21q-16 13 -9 38
l67 32q26 -1 58 -15q38 -16 41 -16l60 24q22 -28 6 -40l-67 -31z" />
    <glyph glyph-name="Ubreve" unicode="&#x16c;" horiz-adv-x="357" 
d="M305 666q-3 -39 -2 -105q1 -58 -1 -108q-3 -78 0 -87q-4 -39 0 -124q3 -90 0 -131q-4 -16 -4 -26v-21q1 -9 -1 -18q-9 -24 -50 -39q-39 -11 -82 -5q-41 4 -52 9q-6 1 -30 28q-20 26 -22 31q-10 25 -8 50q2 32 1 64q-1 46 0 67q1 28 -1 131q0 24 -0.5 56t-1 49t-0.5 27
l-1 127q0 45 6 52q24 5 48 -11q-5 -76 -2 -195q3 -168 2 -205q-3 -154 1 -173q11 -33 32 -44q26 -14 91 -15l20 18q6 126 6 306q0 223 -7 315q13 13 35 1q18 -11 23 -24zM269 815q-19 -47 -30 -57q-25 -26 -82 -25q-59 12 -77 98q3 9 26 9q1 -15 22 -39t40 -25q39 -3 57 17
q7 9 21 44q23 3 23 -22z" />
    <glyph glyph-name="ubreve" unicode="&#x16d;" horiz-adv-x="360" 
d="M90 16l-35 42q0 365 -5 433q30 22 53 8q11 -41 5 -147q0 -17 -5 -142l3 -139q66 -46 155 19l3 60l-2 78v137q0 21 -4 60q-5 42 -3 62q7 7 26 9t26 -5q4 -64 3 -176q-2 -156 -1 -179v-121q-21 -25 -46 -12q-2 26 -2 41q-99 -72 -171 -28zM275 619q-19 -47 -30 -57
q-25 -26 -82 -25q-59 12 -77 98q3 9 26 9q1 -15 22 -39t40 -25q39 -3 57 17q7 9 21 44q23 3 23 -22z" />
    <glyph glyph-name="Uring" unicode="&#x16e;" horiz-adv-x="357" 
d="M305 666q-3 -39 -2 -105q1 -58 -1 -108q-3 -78 0 -87q-4 -39 0 -124q3 -90 0 -131q-4 -16 -4 -26v-21q1 -9 -1 -18q-9 -24 -50 -39q-39 -11 -82 -5q-41 4 -52 9q-6 1 -30 28q-20 26 -22 31q-10 25 -8 50q2 32 1 64q-1 46 0 67q1 28 -1 131q0 24 -0.5 56t-1 49t-0.5 27
l-1 127q0 45 6 52q24 5 48 -11q-5 -76 -2 -195q3 -168 2 -205q-3 -154 1 -173q11 -33 32 -44q26 -14 91 -15l20 18q6 126 6 306q0 223 -7 315q13 13 35 1q18 -11 23 -24zM232 861q11 -56 -3 -110q-19 -16 -52 -16t-56 14q-6 65 6 103q16 13 53 14q38 2 52 -5zM155 827
q-12 -27 0 -57q30 -9 47 5q7 28 0 58q-33 8 -47 -6z" />
    <glyph glyph-name="uring" unicode="&#x16f;" horiz-adv-x="360" 
d="M90 16l-35 42q0 365 -5 433q30 22 53 8q11 -41 5 -147q0 -17 -5 -142l3 -139q66 -46 155 19l3 60l-2 78v137q0 21 -4 60q-5 42 -3 62q7 7 26 9t26 -5q4 -64 3 -176q-2 -156 -1 -179v-121q-21 -25 -46 -12q-2 26 -2 41q-99 -72 -171 -28zM238 660q11 -56 -3 -110
q-19 -16 -52 -16t-56 14q-6 65 6 103q16 13 53 14q38 2 52 -5zM161 626q-12 -27 0 -57q30 -9 47 5q7 28 0 58q-33 8 -47 -6z" />
    <glyph glyph-name="Uhungarumlaut" unicode="&#x170;" horiz-adv-x="372" 
d="M305 666q-3 -39 -2 -105q1 -58 -1 -108q-3 -78 0 -87q-4 -39 0 -124q3 -90 0 -131q-4 -16 -4 -26v-21q1 -9 -1 -18q-9 -24 -50 -39q-39 -11 -82 -5q-41 4 -52 9q-6 1 -30 28q-20 26 -22 31q-10 25 -8 50q2 32 1 64q-1 46 0 67q1 28 -1 131q0 24 -0.5 56t-1 49t-0.5 27
l-1 127q0 45 6 52q24 5 48 -11q-5 -76 -2 -195q3 -168 2 -205q-3 -154 1 -173q11 -33 32 -44q26 -14 91 -15l20 18q6 126 6 306q0 223 -7 315q13 13 35 1q18 -11 23 -24zM197 852q-21 -30 -47 -59q-49 -56 -50 -57l-28 3q14 42 82 136q25 -4 35 -8t8 -15zM320 857l-103 -125
l-23 19q9 28 73 116l19 8q11 5 34 -18z" />
    <glyph glyph-name="uhungarumlaut" unicode="&#x171;" horiz-adv-x="388" 
d="M90 16l-35 42q0 365 -5 433q30 22 53 8q11 -41 5 -147q0 -17 -5 -142l3 -139q66 -46 155 19l3 60l-2 78v137q0 21 -4 60q-5 42 -3 62q7 7 26 9t26 -5q4 -64 3 -176q-2 -156 -1 -179v-121q-21 -25 -46 -12q-2 26 -2 41q-99 -72 -171 -28zM215 653q-21 -30 -47 -59
q-49 -56 -50 -57l-28 3q14 42 82 136q25 -4 35 -8t8 -15zM338 658l-103 -125l-23 19q9 28 73 116l19 8q11 5 34 -18z" />
    <glyph glyph-name="Uogonek" unicode="&#x172;" horiz-adv-x="357" 
d="M305 666q-3 -39 -2 -105q1 -58 -1 -108q-3 -78 0 -87q-4 -39 0 -124q3 -90 0 -131q-4 -16 -4 -26v-21q1 -9 -1 -18q-9 -24 -50 -39q-5 -1 -22 -5q-53 -26 -60 -63q-7 -36 24 -45q49 3 63 7q21 -5 21 -21l-98 -19q-42 8 -53 38q-23 58 62 101l-19 2q-41 4 -52 9
q-6 1 -30 28q-20 26 -22 31q-10 25 -8 50q2 32 1 64q-1 46 0 67q1 28 -1 131q0 24 -0.5 56t-1 49t-0.5 27l-1 127q0 45 6 52q24 5 48 -11q-5 -76 -2 -195q3 -168 2 -205q-3 -154 1 -173q11 -33 32 -44q26 -14 91 -15l20 18q6 126 6 306q0 223 -7 315q13 13 35 1
q18 -11 23 -24z" />
    <glyph glyph-name="Ydieresis" unicode="&#x178;" horiz-adv-x="349" 
d="M296 689q3 -3 3 -12q0 -15 -6 -28q-18 -47 -43 -168t-43 -168l-9 -16q-1 -6 -1 -29q0 -10 2 -96t2 -92q0 -68 -2 -70q-29 -11 -40 -6q-10 4 -10 90l2 156q0 39 -6 57q-4 9 -84 316q-11 41 -11 55q0 10 33 17q21 0 28 -67l60 -257l11 8q25 82 49 221q16 97 33 97
q11 0 32 -8zM250 739q-22 -9 -47 -1q-7 46 3 58q46 10 49 2q10 -24 -5 -59zM139 739q-22 -9 -47 -1q-7 46 3 58q46 10 49 2q10 -24 -5 -59z" />
    <glyph glyph-name="Zacute" unicode="&#x179;" horiz-adv-x="357" 
d="M280 695l23 -45l-15 -45q-23 -65 -47 -122l-48 -120q-75 -196 -90 -277l25 -36q76 -18 166 9q16 -13 7 -44q-25 -13 -130 -13q-84 0 -94 2l-27 67q9 92 67 240l46 112l87 195q2 6 -7 19q-9 14 -8 18q-101 -1 -120 -9q-30 -11 -47 -7l-14 36q10 18 109 26q95 6 117 -6z
M283 861l-103 -125q-13 2 -28 7q11 36 78 128l19 8q21 -5 34 -18z" />
    <glyph glyph-name="zacute" unicode="&#x17a;" horiz-adv-x="359" 
d="M281 497l24 -35q-2 -9 -8 -20l-6 -12l-59 -108l-53 -97q-53 -94 -71 -161l23 -22q33 -5 61 -5q53 0 103 10q18 -11 10 -31q0 -3 -3 -6q-24 -9 -114 -9h-30q-63 0 -81 2l-27 49q8 66 66 171l17 28l26 43l86 143q-5 17 -15 21h-25q-53 0 -89 -6q-32 -8 -51 -6q-10 1 -12 34
q18 22 160 22q56 0 68 -5zM271 658l-103 -125q-13 2 -28 7q11 36 78 128l19 8q21 -5 34 -18z" />
    <glyph glyph-name="Zdotaccent" unicode="&#x17b;" horiz-adv-x="357" 
d="M280 695l23 -45l-15 -45q-23 -65 -47 -122l-48 -120q-75 -196 -90 -277l25 -36q76 -18 166 9q16 -13 7 -44q-25 -13 -130 -13q-84 0 -94 2l-27 67q9 92 67 240l46 112l87 195q2 6 -7 19q-9 14 -8 18q-101 -1 -120 -9q-30 -11 -47 -7l-14 36q10 18 109 26q95 6 117 -6z
M207 741q-22 -9 -47 -1q-7 46 3 58q46 10 49 2q10 -24 -5 -59z" />
    <glyph glyph-name="zdotaccent" unicode="&#x17c;" horiz-adv-x="359" 
d="M281 497l24 -35q-2 -9 -8 -20l-6 -12l-59 -108l-53 -97q-53 -94 -71 -161l23 -22q33 -5 61 -5q53 0 103 10q18 -11 10 -31q0 -3 -3 -6q-24 -9 -114 -9h-30q-63 0 -81 2l-27 49q8 66 66 171l17 28l26 43l86 143q-5 17 -15 21h-25q-53 0 -89 -6q-32 -8 -51 -6q-10 1 -12 34
q18 22 160 22q56 0 68 -5zM207 542q-22 -9 -47 -1q-7 46 3 58q46 10 49 2q10 -24 -5 -59z" />
    <glyph glyph-name="Zcaron" unicode="&#x17d;" horiz-adv-x="357" 
d="M280 695l23 -45l-15 -45q-23 -65 -47 -122l-48 -120q-75 -196 -90 -277l25 -36q76 -18 166 9q16 -13 7 -44q-25 -13 -130 -13q-84 0 -94 2l-27 67q9 92 67 240l46 112l87 195q2 6 -7 19q-9 14 -8 18q-101 -1 -120 -9q-30 -11 -47 -7l-14 36q10 18 109 26q95 6 117 -6z
M286 838q-3 -12 -24 -32l-65 -66l-30 -5q-57 58 -77 105q4 0 13 3q7 3 15 3q31 -37 61 -63q58 53 84 70q16 -8 23 -15z" />
    <glyph glyph-name="zcaron" unicode="&#x17e;" horiz-adv-x="359" 
d="M281 497l24 -35q-2 -9 -8 -20l-6 -12l-59 -108l-53 -97q-53 -94 -71 -161l23 -22q33 -5 61 -5q53 0 103 10q18 -11 10 -31q0 -3 -3 -6q-24 -9 -114 -9h-30q-63 0 -81 2l-27 49q8 66 66 171l17 28l26 43l86 143q-5 17 -15 21h-25q-53 0 -89 -6q-32 -8 -51 -6q-10 1 -12 34
q18 22 160 22q56 0 68 -5zM277 637q-3 -12 -24 -32l-65 -66l-30 -5q-57 58 -77 105q4 0 13 3q8 3 15 3q31 -37 61 -63q58 53 84 70q16 -8 23 -15z" />
    <glyph glyph-name="florin" unicode="&#x192;" horiz-adv-x="334" 
d="M146 -69h-4q-44 -28 -80 -29q-16 17 -11 40q37 8 61 29q29 24 32 111l1 130q1 86 0 132q-1 6 -1 28q-15 -1 -40 -1l-12 12q-1 0 -1 40q0 -2 52 -2l1 19q1 16 1 73q-2 93 16 127q27 49 117 61q3 4 4 -3q0 -4 1 -13q1 -21 -5 -27q-54 -12 -70 -42q-16 -27 -14 -92v-103
q43 0 57 1q4 1 6.5 -4.5t3.5 -18.5q2 -26 -5 -27l-45 3q-10 0 -16 -1q2 -280 -5 -336q-8 -79 -44 -107z" />
    <glyph glyph-name="Ohorn" unicode="&#x1a0;" horiz-adv-x="352" 
d="M97 531q4 -61 -1 -155q-2 -43 2 -89q5 -68 5 -84q0 -97 4 -117q10 -51 64 -43q63 6 84 58q-11 251 4 515q-13 37 -80 34q-70 -5 -80 -51q-4 -21 -2 -68zM297 639q3 -38 1 -116q-3 -81 1 -129q1 -31 0 -82q0 -15 -0.5 -34.5t-1 -30t-0.5 -16.5l-1 -77q0 -8 3 -38
q1 -24 0 -37l-12 -24q-3 -9 -7 -19q-6 -2 -19 -15q-13 -12 -24 -15q-83 -26 -132 -3q-19 9 -51 60q-1 14 -1 94q-1 59 -3 99q-1 22 1 128q2 86 -1 125q0 101 6 119q5 24 39 43q26 19 86 34q20 5 68 -12q7 -3 17 -13q20 -3 28 4q20 27 4 67q14 11 31 -4q28 -39 10 -74
q-13 -28 -42 -34z" />
    <glyph glyph-name="ohorn" unicode="&#x1a1;" horiz-adv-x="353" 
d="M107 203l5 -117q10 -51 64 -43q44 5 51 8q18 7 30 39q1 19 1 328q-13 37 -77 33q-65 -5 -77 -51q-3 -27 3 -197zM301 447q1 0 1 -1q2 -16 2 -52q2 -42 2 -82l-1 -81q0 -147 -1 -152l-12 -24q-3 -9 -7 -19q-6 -2 -19 -15q-14 -12 -24 -15q-82 -26 -132 -3q-20 9 -51 60
q-1 14 -1 94q-2 59 -3 99v54q-12 71 4 117q5 25 41 45q26 19 86 34q20 5 68 -12q1 -1 3 -1q32 -9 44 0q20 27 4 67q14 11 31 -4q28 -39 10 -74q-15 -31 -45 -35z" />
    <glyph glyph-name="Uhorn" unicode="&#x1af;" horiz-adv-x="357" 
d="M303 639q-1 -31 0 -78q1 -58 -1 -108q-3 -78 0 -87q-4 -39 0 -124q3 -90 0 -131q-4 -16 -4 -26v-21q1 -9 -1 -18q-9 -24 -50 -39q-39 -11 -82 -5q-41 4 -52 9q-6 1 -30 28q-20 26 -22 31q-10 25 -8 50q2 32 1 64q-1 46 0 67q1 28 -1 131q0 24 -0.5 56t-1 49t-0.5 27
l-1 127q0 45 6 52q24 5 48 -11q-5 -76 -2 -195q3 -168 2 -205q-3 -154 1 -173q11 -33 32 -44q26 -14 91 -15l20 18q6 126 6 306q0 223 -7 315q13 13 35 1q8 -4 13 -10q20 -3 28 4q20 27 4 67q14 11 31 -4q28 -39 10 -74q-15 -31 -45 -35q-11 -2 -20 1z" />
    <glyph glyph-name="uhorn" unicode="&#x1b0;" horiz-adv-x="360" 
d="M309 449q2 -77 1 -134q-2 -156 -1 -179v-121q-21 -25 -46 -12q-2 26 -2 41q-99 -72 -171 -28l-35 42q0 365 -5 433q30 22 53 8q11 -41 5 -147q0 -17 -5 -142l3 -139q66 -46 155 19l3 60l-2 78v137q0 21 -4 60q-5 42 -3 62q7 7 26 9t26 -5v-1q12 -7 38 8q15 27 -16 61
q19 13 36 -2q28 -39 10 -74q-15 -31 -45 -35q-12 -2 -21 1z" />
    <glyph glyph-name="circumflex" unicode="&#x2c6;" horiz-adv-x="296" 
d="M246 599l-24 -11q-77 53 -83 59q-46 -40 -68 -65q-7 0 -11 7q-5 8 -10 8q20 47 77 105l30 -5l65 -66q21 -20 24 -32z" />
    <glyph glyph-name="caron" unicode="&#x2c7;" horiz-adv-x="296" 
d="M246 685q-3 -12 -24 -32l-65 -66l-30 -5q-57 58 -77 105q4 0 13 3q7 3 15 3q31 -37 61 -63q58 53 84 70q16 -8 23 -15z" />
    <glyph glyph-name="breve" unicode="&#x2d8;" horiz-adv-x="289" 
d="M239 671q-19 -47 -30 -57q-25 -26 -82 -25q-59 12 -77 98q3 9 26 9q1 -15 22 -39t40 -25q39 -3 57 17q7 9 21 44q23 3 23 -22z" />
    <glyph glyph-name="dotaccent" unicode="&#x2d9;" horiz-adv-x="159" 
d="M100 638q-22 -9 -47 -1q-7 46 3 58q46 10 49 2q10 -24 -5 -59z" />
    <glyph glyph-name="ring" unicode="&#x2da;" horiz-adv-x="218" 
d="M163 693q11 -56 -3 -110q-19 -16 -52 -16t-56 14q-6 65 6 103q16 13 53 14q38 2 52 -5zM86 659q-12 -27 0 -57q30 -9 47 5q7 28 0 58q-33 8 -47 -6z" />
    <glyph glyph-name="ogonek" unicode="&#x2db;" horiz-adv-x="256" 
d="M143 0h41q-70 -22 -85 -68q-13 -40 23 -51q49 3 63 7q21 -4 21 -21l-98 -19q-42 8 -53 38q-26 65 88 114z" />
    <glyph glyph-name="tilde" unicode="&#x2dc;" horiz-adv-x="342" 
d="M131 314l-70 -21q-16 13 -9 38l67 32q26 -1 58 -15q38 -16 41 -16l60 24q22 -28 6 -40l-67 -31z" />
    <glyph glyph-name="hungarumlaut" unicode="&#x2dd;" horiz-adv-x="348" 
d="M175 679q-21 -30 -47 -59q-49 -56 -50 -57l-28 3q14 42 82 136q25 -4 35 -8t8 -15zM298 684l-103 -125l-23 19q9 28 73 116l19 8q11 5 34 -18z" />
    <glyph glyph-name="gravecomb" unicode="&#x300;" horiz-adv-x="0" 
d="M-338 684q13 13 34 18l19 -8q67 -92 78 -128q-15 -5 -28 -7z" />
    <glyph glyph-name="acutecomb" unicode="&#x301;" horiz-adv-x="0" 
d="M-196 684l-103 -125q-13 2 -28 7q11 36 78 128l19 8q21 -5 34 -18z" />
    <glyph glyph-name="tildecomb" unicode="&#x303;" horiz-adv-x="0" 
d="M-285 314l-70 -21q-16 13 -9 38l67 32q26 -1 58 -15q38 -16 41 -16l60 24q22 -28 6 -40l-67 -31z" />
    <glyph glyph-name="hookabovecomb" unicode="&#x309;" horiz-adv-x="16" 
d="M14 569l-48 4q48 26 56 43q10 22 -9 28q-11 -3 -43 -10q-19 4 -22 31q56 31 84 18q29 -14 36 -38q9 -46 -54 -76z" />
    <glyph glyph-name="uni031B" unicode="&#x31b;" horiz-adv-x="0" 
 />
    <glyph glyph-name="dotbelowcomb" unicode="&#x323;" horiz-adv-x="0" 
d="M-218 -160q-22 -9 -47 -1q-7 46 3 58q46 10 49 2q10 -24 -5 -59z" />
    <glyph glyph-name="uni1EA0" unicode="&#x1ea0;" horiz-adv-x="345" 
d="M204 698q12 -50 21 -159q10 -124 18 -163l15 -79q31 -284 36 -283q-1 -18 -53 -11q-1 2 -4 38l-7 69q-12 105 -24 158q-11 2 -44 0l-42 -3q-13 -110 -14 -129q-4 -39 -4 -119q0 -13 -20 -11l-32 1q22 270 43 427q36 264 33 258q44 16 78 6zM130 314l68 5q0 44 -10 158
q-11 127 -12 160q-2 5 -9 4q-8 -2 -10 -7q-5 -30 -12 -138q-7 -116 -15 -182zM193 -160q-22 -9 -47 -1q-7 46 3 58q46 10 49 2q10 -24 -5 -59z" />
    <glyph glyph-name="uni1EA1" unicode="&#x1ea1;" horiz-adv-x="364" 
d="M67 402v53q0 17 54 34q53 15 111 15q36 0 46 -2q25 -4 30 -29l-2 -235q0 -122 8 -229q-14 -11 -41 -11q-16 0 -18 41q-55 -42 -110 -42q-25 0 -60 11q-35 23 -35 121q0 115 38 136q7 4 94 27q64 16 79 44l-6 109q-16 10 -55 10q-75 0 -95 -26v-36q-3 -10 -13 -10
q-25 0 -25 19zM256 148q0 23 7 131q-13 -15 -67 -32q-58 -17 -72 -27q-26 -18 -26 -97q0 -73 26 -84q78 0 130 45q0 32 2 64zM203 -160q-22 -9 -47 -1q-7 46 3 58q46 10 49 2q10 -24 -5 -59z" />
    <glyph glyph-name="uni1EA2" unicode="&#x1ea2;" horiz-adv-x="345" 
d="M204 698q12 -50 21 -159q10 -124 18 -163l15 -79q31 -284 36 -283q-1 -18 -53 -11q-1 2 -4 38l-7 69q-12 105 -24 158q-11 2 -44 0l-42 -3q-13 -110 -14 -129q-4 -39 -4 -119q0 -13 -20 -11l-32 1q22 270 43 427q36 264 33 258q44 16 78 6zM130 314l68 5q0 44 -10 158
q-11 127 -12 160q-2 5 -9 4q-8 -2 -10 -7q-5 -30 -12 -138q-7 -116 -15 -182zM178 765l-48 4q48 26 56 43q10 22 -9 28q-11 -3 -43 -10q-19 4 -22 31q56 31 84 18q29 -14 36 -38q9 -46 -54 -76z" />
    <glyph glyph-name="uni1EA3" unicode="&#x1ea3;" horiz-adv-x="364" 
d="M67 402v53q0 17 54 34q53 15 111 15q36 0 46 -2q25 -4 30 -29l-2 -235q0 -122 8 -229q-14 -11 -41 -11q-16 0 -18 41q-55 -42 -110 -42q-25 0 -60 11q-35 23 -35 121q0 115 38 136q7 4 94 27q64 16 79 44l-6 109q-16 10 -55 10q-75 0 -95 -26v-36q-3 -10 -13 -10
q-25 0 -25 19zM256 148q0 23 7 131q-13 -15 -67 -32q-58 -17 -72 -27q-26 -18 -26 -97q0 -73 26 -84q78 0 130 45q0 32 2 64zM188 569l-48 4q48 26 56 43q10 22 -9 28q-11 -3 -43 -10q-19 4 -22 31q56 31 84 18q29 -14 36 -38q9 -46 -54 -76z" />
    <glyph glyph-name="uni1EA4" unicode="&#x1ea4;" horiz-adv-x="345" 
d="M204 698q12 -50 21 -159q10 -124 18 -163l15 -79q31 -284 36 -283q-1 -18 -53 -11q-1 2 -4 38l-7 69q-12 105 -24 158q-11 2 -44 0l-42 -3q-13 -110 -14 -129q-4 -39 -4 -119q0 -13 -20 -11l-32 1q22 270 43 427q36 264 33 258q44 16 78 6zM130 314l68 5q0 44 -10 158
q-11 127 -12 160q-2 5 -9 4q-8 -2 -10 -7q-5 -30 -12 -138q-7 -116 -15 -182zM261 752l-24 -11q-77 53 -83 59q-46 -40 -68 -65q-7 0 -11 7q-5 8 -10 8q20 47 77 105l30 -5l65 -66q21 -20 24 -32zM368 947l-103 -125q-13 2 -28 7q11 36 78 128l19 8q21 -5 34 -18z" />
    <glyph glyph-name="uni1EA5" unicode="&#x1ea5;" horiz-adv-x="364" 
d="M67 402v53q0 17 54 34q53 15 111 15q36 0 46 -2q25 -4 30 -29l-2 -235q0 -122 8 -229q-14 -11 -41 -11q-16 0 -18 41q-55 -42 -110 -42q-25 0 -60 11q-35 23 -35 121q0 115 38 136q7 4 94 27q64 16 79 44l-6 109q-16 10 -55 10q-75 0 -95 -26v-36q-3 -10 -13 -10
q-25 0 -25 19zM256 148q0 23 7 131q-13 -15 -67 -32q-58 -17 -72 -27q-26 -18 -26 -97q0 -73 26 -84q78 0 130 45q0 32 2 64zM288 549l-24 -11q-77 53 -83 59q-46 -40 -68 -65q-7 0 -11 7q-5 8 -10 8q20 47 77 105l30 -5l65 -66q21 -20 24 -32zM390 760l-103 -125
q-13 2 -28 7q11 36 78 128l19 8q21 -5 34 -18z" />
    <glyph glyph-name="uni1EA6" unicode="&#x1ea6;" horiz-adv-x="345" 
d="M204 698q12 -50 21 -159q10 -124 18 -163l15 -79q31 -284 36 -283q-1 -18 -53 -11q-1 2 -4 38l-7 69q-12 105 -24 158q-11 2 -44 0l-42 -3q-13 -110 -14 -129q-4 -39 -4 -119q0 -13 -20 -11l-32 1q22 270 43 427q36 264 33 258q44 16 78 6zM130 314l68 5q0 44 -10 158
q-11 127 -12 160q-2 5 -9 4q-8 -2 -10 -7q-5 -30 -12 -138q-7 -116 -15 -182zM261 752l-24 -11q-77 53 -83 59q-46 -40 -68 -65q-7 0 -11 7q-5 8 -10 8q20 47 77 105l30 -5l65 -66q21 -20 24 -32zM128 986q13 13 34 18l19 -8q67 -92 78 -128q-15 -5 -28 -7z" />
    <glyph glyph-name="uni1EA7" unicode="&#x1ea7;" horiz-adv-x="364" 
d="M67 402v53q0 17 54 34q53 15 111 15q36 0 46 -2q25 -4 30 -29l-2 -235q0 -122 8 -229q-14 -11 -41 -11q-16 0 -18 41q-55 -42 -110 -42q-25 0 -60 11q-35 23 -35 121q0 115 38 136q7 4 94 27q64 16 79 44l-6 109q-16 10 -55 10q-75 0 -95 -26v-36q-3 -10 -13 -10
q-25 0 -25 19zM256 148q0 23 7 131q-13 -15 -67 -32q-58 -17 -72 -27q-26 -18 -26 -97q0 -73 26 -84q78 0 130 45q0 32 2 64zM288 549l-24 -11q-77 53 -83 59q-46 -40 -68 -65q-7 0 -11 7q-5 8 -10 8q20 47 77 105l30 -5l65 -66q21 -20 24 -32zM167 779q13 13 34 18l19 -8
q67 -92 78 -128q-15 -5 -28 -7z" />
    <glyph glyph-name="uni1EA8" unicode="&#x1ea8;" horiz-adv-x="345" 
d="M204 698q12 -50 21 -159q10 -124 18 -163l15 -79q31 -284 36 -283q-1 -18 -53 -11q-1 2 -4 38l-7 69q-12 105 -24 158q-11 2 -44 0l-42 -3q-13 -110 -14 -129q-4 -39 -4 -119q0 -13 -20 -11l-32 1q22 270 43 427q36 264 33 258q44 16 78 6zM130 314l68 5q0 44 -10 158
q-11 127 -12 160q-2 5 -9 4q-8 -2 -10 -7q-5 -30 -12 -138q-7 -116 -15 -182zM261 752l-24 -11q-77 53 -83 59q-46 -40 -68 -65q-7 0 -11 7q-5 8 -10 8q20 47 77 105l30 -5l65 -66q21 -20 24 -32zM281 831l-48 4q48 26 56 43q10 22 -9 28q-11 -3 -43 -10q-19 4 -22 31
q55 31 84 18q29 -14 36 -38q9 -46 -54 -76z" />
    <glyph glyph-name="uni1EA9" unicode="&#x1ea9;" horiz-adv-x="364" 
d="M67 402v53q0 17 54 34q53 15 111 15q36 0 46 -2q25 -4 30 -29l-2 -235q0 -122 8 -229q-14 -11 -41 -11q-16 0 -18 41q-55 -42 -110 -42q-25 0 -60 11q-35 23 -35 121q0 115 38 136q7 4 94 27q64 16 79 44l-6 109q-16 10 -55 10q-75 0 -95 -26v-36q-3 -10 -13 -10
q-25 0 -25 19zM256 148q0 23 7 131q-13 -15 -67 -32q-58 -17 -72 -27q-26 -18 -26 -97q0 -73 26 -84q78 0 130 45q0 32 2 64zM288 549l-24 -11q-77 53 -83 59q-46 -40 -68 -65q-7 0 -11 7q-5 8 -10 8q20 47 77 105l30 -5l65 -66q21 -20 24 -32zM296 634l-48 4q48 26 56 43
q10 22 -9 28q-11 -3 -43 -10q-19 4 -22 31q56 32 84 18q29 -14 36 -38q9 -46 -54 -76z" />
    <glyph glyph-name="uni1EAA" unicode="&#x1eaa;" horiz-adv-x="345" 
d="M204 698q12 -50 21 -159q10 -124 18 -163l15 -79q31 -284 36 -283q-1 -18 -53 -11q-1 2 -4 38l-7 69q-12 105 -24 158q-11 2 -44 0l-42 -3q-13 -110 -14 -129q-4 -39 -4 -119q0 -13 -20 -11l-32 1q22 270 43 427q36 264 33 258q44 16 78 6zM130 314l68 5q0 44 -10 158
q-11 127 -12 160q-2 5 -9 4q-8 -2 -10 -7q-5 -30 -12 -138q-7 -116 -15 -182zM261 752l-24 -11q-77 53 -83 59q-46 -40 -68 -65q-7 0 -11 7q-5 8 -10 8q20 47 77 105l30 -5l65 -66q21 -20 24 -32zM146 909l-70 -21q-16 13 -9 38l67 32q26 -1 58 -15q38 -16 41 -16l60 24
q22 -28 6 -40l-67 -31z" />
    <glyph glyph-name="uni1EAB" unicode="&#x1eab;" horiz-adv-x="364" 
d="M67 402v53q0 17 54 34q53 15 111 15q36 0 46 -2q25 -4 30 -29l-2 -235q0 -122 8 -229q-14 -11 -41 -11q-16 0 -18 41q-55 -42 -110 -42q-25 0 -60 11q-35 23 -35 121q0 115 38 136q7 4 94 27q64 16 79 44l-6 109q-16 10 -55 10q-75 0 -95 -26v-36q-3 -10 -13 -10
q-25 0 -25 19zM256 148q0 23 7 131q-13 -15 -67 -32q-58 -17 -72 -27q-26 -18 -26 -97q0 -73 26 -84q78 0 130 45q0 32 2 64zM288 549l-24 -11q-77 53 -83 59q-46 -40 -68 -65q-7 0 -11 7q-5 8 -10 8q20 47 77 105l30 -5l65 -66q21 -20 24 -32zM177 698l-70 -21
q-16 13 -9 38l67 32q26 -1 58 -15q38 -16 41 -16l60 24q22 -28 6 -40l-67 -31z" />
    <glyph glyph-name="uni1EAC" unicode="&#x1eac;" horiz-adv-x="345" 
d="M204 698q12 -50 21 -159q10 -124 18 -163l15 -79q31 -284 36 -283q-1 -18 -53 -11q-1 2 -4 38l-7 69q-12 105 -24 158q-11 2 -44 0l-42 -3q-13 -110 -14 -129q-4 -39 -4 -119q0 -13 -20 -11l-32 1q22 270 43 427q36 264 33 258q44 16 78 6zM130 314l68 5q0 44 -10 158
q-11 127 -12 160q-2 5 -9 4q-8 -2 -10 -7q-5 -30 -12 -138q-7 -116 -15 -182zM261 752l-24 -11q-77 53 -83 59q-46 -40 -68 -65q-7 0 -11 7q-5 8 -10 8q20 47 77 105l30 -5l65 -66q21 -20 24 -32zM188 -160q-22 -9 -47 -1q-7 46 3 58q46 10 49 2q10 -24 -5 -59z" />
    <glyph glyph-name="uni1EAD" unicode="&#x1ead;" horiz-adv-x="364" 
d="M67 402v53q0 17 54 34q53 15 111 15q36 0 46 -2q25 -4 30 -29l-2 -235q0 -122 8 -229q-14 -11 -41 -11q-16 0 -18 41q-55 -42 -110 -42q-25 0 -60 11q-35 23 -35 121q0 115 38 136q7 4 94 27q64 16 79 44l-6 109q-16 10 -55 10q-75 0 -95 -26v-36q-3 -10 -13 -10
q-25 0 -25 19zM256 148q0 23 7 131q-13 -15 -67 -32q-58 -17 -72 -27q-26 -18 -26 -97q0 -73 26 -84q78 0 130 45q0 32 2 64zM288 549l-24 -11q-77 53 -83 59q-46 -40 -68 -65q-7 0 -11 7q-5 8 -10 8q20 47 77 105l30 -5l65 -66q21 -20 24 -32zM208 -160q-22 -9 -47 -1
q-7 46 3 58q46 10 49 2q10 -24 -5 -59z" />
    <glyph glyph-name="uni1EAE" unicode="&#x1eae;" horiz-adv-x="345" 
d="M204 698q12 -50 21 -159q10 -124 18 -163l15 -79q31 -284 36 -283q-1 -18 -53 -11q-1 2 -4 38l-7 69q-12 105 -24 158q-11 2 -44 0l-42 -3q-13 -110 -14 -129q-4 -39 -4 -119q0 -13 -20 -11l-32 1q22 270 43 427q36 264 33 258q44 16 78 6zM130 314l68 5q0 44 -10 158
q-11 127 -12 160q-2 5 -9 4q-8 -2 -10 -7q-5 -30 -12 -138q-7 -116 -15 -182zM262 814q-20 -46 -30 -57q-25 -26 -82 -25q-59 12 -77 98q3 9 26 9q1 -15 22 -39t40 -25q39 -3 57 17q7 9 21 44q23 3 23 -22zM287 976l-103 -125q-13 2 -28 7q11 36 78 128l19 8q21 -5 34 -18z
" />
    <glyph glyph-name="uni1EAF" unicode="&#x1eaf;" horiz-adv-x="364" 
d="M67 402v53q0 17 54 34q53 15 111 15q36 0 46 -2q25 -4 30 -29l-2 -235q0 -122 8 -229q-14 -11 -41 -11q-16 0 -18 41q-55 -42 -110 -42q-25 0 -60 11q-35 23 -35 121q0 115 38 136q7 4 94 27q64 16 79 44l-6 109q-16 10 -55 10q-75 0 -95 -26v-36q-3 -10 -13 -10
q-25 0 -25 19zM256 148q0 23 7 131q-13 -15 -67 -32q-58 -17 -72 -27q-26 -18 -26 -97q0 -73 26 -84q78 0 130 45q0 32 2 64zM288 615q-20 -47 -30 -57q-25 -26 -82 -25q-59 12 -77 98q3 9 26 9q1 -15 22 -39t40 -25q39 -3 57 17q7 9 21 44q23 3 23 -22zM312 771l-103 -125
q-13 2 -28 7q11 36 78 128l19 8q21 -5 34 -18z" />
    <glyph glyph-name="uni1EB0" unicode="&#x1eb0;" horiz-adv-x="345" 
d="M204 698q12 -50 21 -159q10 -124 18 -163l15 -79q31 -284 36 -283q-1 -18 -53 -11q-1 2 -4 38l-7 69q-12 105 -24 158q-11 2 -44 0l-42 -3q-13 -110 -14 -129q-4 -39 -4 -119q0 -13 -20 -11l-32 1q22 270 43 427q36 264 33 258q44 16 78 6zM130 314l68 5q0 44 -10 158
q-11 127 -12 160q-2 5 -9 4q-8 -2 -10 -7q-5 -30 -12 -138q-7 -116 -15 -182zM262 814q-20 -46 -30 -57q-25 -26 -82 -25q-59 12 -77 98q3 9 26 9q1 -15 22 -39t40 -25q39 -3 57 17q7 9 21 44q23 3 23 -22zM54 965q13 13 34 18l19 -8q67 -92 78 -128q-15 -5 -28 -7z" />
    <glyph glyph-name="uni1EB1" unicode="&#x1eb1;" horiz-adv-x="364" 
d="M67 402v53q0 17 54 34q53 15 111 15q36 0 46 -2q25 -4 30 -29l-2 -235q0 -122 8 -229q-14 -11 -41 -11q-16 0 -18 41q-55 -42 -110 -42q-25 0 -60 11q-35 23 -35 121q0 115 38 136q7 4 94 27q64 16 79 44l-6 109q-16 10 -55 10q-75 0 -95 -26v-36q-3 -10 -13 -10
q-25 0 -25 19zM256 148q0 23 7 131q-13 -15 -67 -32q-58 -17 -72 -27q-26 -18 -26 -97q0 -73 26 -84q78 0 130 45q0 32 2 64zM288 615q-20 -47 -30 -57q-25 -26 -82 -25q-59 12 -77 98q3 9 26 9q1 -15 22 -39t40 -25q39 -3 57 17q7 9 21 44q23 3 23 -22zM91 779q13 13 34 18
l19 -8q67 -92 78 -128q-15 -5 -28 -7z" />
    <glyph glyph-name="uni1EB2" unicode="&#x1eb2;" horiz-adv-x="345" 
d="M204 698q12 -50 21 -159q10 -124 18 -163l15 -79q31 -284 36 -283q-1 -18 -53 -11q-1 2 -4 38l-7 69q-12 105 -24 158q-11 2 -44 0l-42 -3q-13 -110 -14 -129q-4 -39 -4 -119q0 -13 -20 -11l-32 1q22 270 43 427q36 264 33 258q44 16 78 6zM130 314l68 5q0 44 -10 158
q-11 127 -12 160q-2 5 -9 4q-8 -2 -10 -7q-5 -30 -12 -138q-7 -116 -15 -182zM262 814q-20 -46 -30 -57q-25 -26 -82 -25q-59 12 -77 98q3 9 26 9q1 -15 22 -39t40 -25q39 -3 57 17q7 9 21 44q23 3 23 -22zM188 846l-48 4q48 26 56 43q10 22 -9 28q-11 -3 -43 -10
q-19 4 -22 31q56 32 84 18q29 -14 36 -38q9 -46 -54 -76z" />
    <glyph glyph-name="uni1EB3" unicode="&#x1eb3;" horiz-adv-x="364" 
d="M67 402v53q0 17 54 34q53 15 111 15q36 0 46 -2q25 -4 30 -29l-2 -235q0 -122 8 -229q-14 -11 -41 -11q-16 0 -18 41q-55 -42 -110 -42q-25 0 -60 11q-35 23 -35 121q0 115 38 136q7 4 94 27q64 16 79 44l-6 109q-16 10 -55 10q-75 0 -95 -26v-36q-3 -10 -13 -10
q-25 0 -25 19zM256 148q0 23 7 131q-13 -15 -67 -32q-58 -17 -72 -27q-26 -18 -26 -97q0 -73 26 -84q78 0 130 45q0 32 2 64zM288 615q-20 -47 -30 -57q-25 -26 -82 -25q-59 12 -77 98q3 9 26 9q1 -15 22 -39t40 -25q39 -3 57 17q7 9 21 44q23 3 23 -22zM218 634l-48 4
q48 26 56 43q10 22 -9 28q-11 -3 -43 -10q-19 4 -22 31q56 32 84 18q29 -14 36 -38q9 -46 -54 -76z" />
    <glyph glyph-name="uni1EB4" unicode="&#x1eb4;" horiz-adv-x="345" 
d="M204 698q12 -50 21 -159q10 -124 18 -163l15 -79q31 -284 36 -283q-1 -18 -53 -11q-1 2 -4 38l-7 69q-12 105 -24 158q-11 2 -44 0l-42 -3q-13 -110 -14 -129q-4 -39 -4 -119q0 -13 -20 -11l-32 1q22 270 43 427q36 264 33 258q44 16 78 6zM130 314l68 5q0 44 -10 158
q-11 127 -12 160q-2 5 -9 4q-8 -2 -10 -7q-5 -30 -12 -138q-7 -116 -15 -182zM262 814q-20 -46 -30 -57q-25 -26 -82 -25q-59 12 -77 98q3 9 26 9q1 -15 22 -39t40 -25q39 -3 57 17q7 9 21 44q23 3 23 -22zM126 893l-70 -21q-16 13 -9 38l67 32q26 -1 58 -15q38 -16 41 -16
l60 24q22 -28 6 -40l-67 -31z" />
    <glyph glyph-name="uni1EB5" unicode="&#x1eb5;" horiz-adv-x="364" 
d="M67 402v53q0 17 54 34q53 15 111 15q36 0 46 -2q25 -4 30 -29l-2 -235q0 -122 8 -229q-14 -11 -41 -11q-16 0 -18 41q-55 -42 -110 -42q-25 0 -60 11q-35 23 -35 121q0 115 38 136q7 4 94 27q64 16 79 44l-6 109q-16 10 -55 10q-75 0 -95 -26v-36q-3 -10 -13 -10
q-25 0 -25 19zM256 148q0 23 7 131q-13 -15 -67 -32q-58 -17 -72 -27q-26 -18 -26 -97q0 -73 26 -84q78 0 130 45q0 32 2 64zM288 615q-20 -47 -30 -57q-25 -26 -82 -25q-59 12 -77 98q3 9 26 9q1 -15 22 -39t40 -25q39 -3 57 17q7 9 21 44q23 3 23 -22zM152 696l-70 -21
q-16 13 -9 38l67 32q26 -1 58 -15q38 -16 41 -16l60 24q22 -28 6 -40l-67 -31z" />
    <glyph glyph-name="uni1EB6" unicode="&#x1eb6;" horiz-adv-x="345" 
d="M204 698q12 -50 21 -159q10 -124 18 -163l15 -79q31 -284 36 -283q-1 -18 -53 -11q-1 2 -4 38l-7 69q-12 105 -24 158q-11 2 -44 0l-42 -3q-13 -110 -14 -129q-4 -39 -4 -119q0 -13 -20 -11l-32 1q22 270 43 427q36 264 33 258q44 16 78 6zM130 314l68 5q0 44 -10 158
q-11 127 -12 160q-2 5 -9 4q-8 -2 -10 -7q-5 -30 -12 -138q-7 -116 -15 -182zM262 814q-20 -46 -30 -57q-25 -26 -82 -25q-59 12 -77 98q3 9 26 9q1 -15 22 -39t40 -25q39 -3 57 17q7 9 21 44q23 3 23 -22zM186 -160q-22 -9 -47 -1q-7 46 3 58q46 10 49 2q10 -24 -5 -59z
" />
    <glyph glyph-name="uni1EB7" unicode="&#x1eb7;" horiz-adv-x="364" 
d="M67 402v53q0 17 54 34q53 15 111 15q36 0 46 -2q25 -4 30 -29l-2 -235q0 -122 8 -229q-14 -11 -41 -11q-16 0 -18 41q-55 -42 -110 -42q-25 0 -60 11q-35 23 -35 121q0 115 38 136q7 4 94 27q64 16 79 44l-6 109q-16 10 -55 10q-75 0 -95 -26v-36q-3 -10 -13 -10
q-25 0 -25 19zM256 148q0 23 7 131q-13 -15 -67 -32q-58 -17 -72 -27q-26 -18 -26 -97q0 -73 26 -84q78 0 130 45q0 32 2 64zM288 615q-20 -47 -30 -57q-25 -26 -82 -25q-59 12 -77 98q3 9 26 9q1 -15 22 -39t40 -25q39 -3 57 17q7 9 21 44q23 3 23 -22zM184 -160
q-22 -9 -47 -1q-7 46 3 58q46 10 49 2q10 -24 -5 -59z" />
    <glyph glyph-name="uni1EB8" unicode="&#x1eb8;" horiz-adv-x="332" 
d="M286 659q-14 0 -178 -19q-4 -63 -8 -100q-6 -69 -5 -112q3 -61 4 -63q6 -21 59 -19q74 2 81 0q13 -22 -12 -38q-111 -9 -102 -6q-9 -4 -10 -6q-1 -4 -7 -6q-3 -6 -6 -145q-2 -48 7 -81q22 -15 126 -10q10 0 34 6q17 4 31 2q3 -8 0 -43l-74 -12q-65 -8 -77 -6q-22 2 -47 7
q-34 4 -45 6q-2 20 -4 73q-1 58 -3 79q-2 9 0 47l2 47q-3 40 -3 162q0 6 2 76q2 68 2 78q0 77 7 92q58 34 232 26q9 -2 3 -15zM198 -160q-22 -9 -47 -1q-7 46 3 58q46 10 49 2q10 -24 -5 -59z" />
    <glyph glyph-name="uni1EB9" unicode="&#x1eb9;" 
d="M271 70q14 -5 18 -29q-59 -40 -106 -43q-42 -2 -100 25q-34 47 -34 215q-1 172 41 231q23 32 98 35q76 3 96 -36q50 -104 0 -261l-29 -21q-106 -20 -156 -17q1 -69 29 -116q75 -25 143 17zM250 431q-20 25 -57 24t-72 -27q-35 -84 -27 -212q64 -2 132 9l24 14
q22 83 0 192zM201 -160q-22 -9 -47 -1q-7 46 3 58q46 10 49 2q10 -24 -5 -59z" />
    <glyph glyph-name="uni1EBA" unicode="&#x1eba;" horiz-adv-x="332" 
d="M286 659q-14 0 -178 -19q-4 -63 -8 -100q-6 -69 -5 -112q3 -61 4 -63q6 -21 59 -19q74 2 81 0q13 -22 -12 -38q-111 -9 -102 -6q-9 -4 -10 -6q-1 -4 -7 -6q-3 -6 -6 -145q-2 -48 7 -81q22 -15 126 -10q10 0 34 6q17 4 31 2q3 -8 0 -43l-74 -12q-65 -8 -77 -6q-22 2 -47 7
q-34 4 -45 6q-2 20 -4 73q-1 58 -3 79q-2 9 0 47l2 47q-3 40 -3 162q0 6 2 76q2 68 2 78q0 77 7 92q58 34 232 26q9 -2 3 -15zM183 765l-48 4q48 26 56 43q10 22 -9 28q-11 -3 -43 -10q-19 4 -22 31q55 31 84 18q29 -14 36 -38q9 -46 -54 -76z" />
    <glyph glyph-name="uni1EBB" unicode="&#x1ebb;" 
d="M271 70q14 -5 18 -29q-59 -40 -106 -43q-42 -2 -100 25q-34 47 -34 215q-1 172 41 231q23 32 98 35q76 3 96 -36q50 -104 0 -261l-29 -21q-106 -20 -156 -17q1 -69 29 -116q75 -25 143 17zM250 431q-20 25 -57 24t-72 -27q-35 -84 -27 -212q64 -2 132 9l24 14
q22 83 0 192zM186 569l-48 4q48 26 56 43q10 22 -9 28q-11 -3 -43 -10q-19 4 -22 31q56 31 84 18q29 -14 36 -38q9 -46 -54 -76z" />
    <glyph glyph-name="uni1EBC" unicode="&#x1ebc;" horiz-adv-x="332" 
d="M286 659q-14 0 -178 -19q-4 -63 -8 -100q-6 -69 -5 -112q3 -61 4 -63q6 -21 59 -19q74 2 81 0q13 -22 -12 -38q-111 -9 -102 -6q-9 -4 -10 -6q-1 -4 -7 -6q-3 -6 -6 -145q-2 -48 7 -81q22 -15 126 -10q10 0 34 6q17 4 31 2q3 -8 0 -43l-74 -12q-65 -8 -77 -6q-22 2 -47 7
q-34 4 -45 6q-2 20 -4 73q-1 58 -3 79q-2 9 0 47l2 47q-3 40 -3 162q0 6 2 76q2 68 2 78q0 77 7 92q58 34 232 26q9 -2 3 -15zM138 781l-70 -21q-16 13 -9 38l67 32q26 -1 58 -15q38 -16 41 -16l60 24q22 -28 6 -40l-67 -31z" />
    <glyph glyph-name="uni1EBD" unicode="&#x1ebd;" 
d="M271 70q14 -5 18 -29q-59 -40 -106 -43q-42 -2 -100 25q-34 47 -34 215q-1 172 41 231q23 32 98 35q76 3 96 -36q50 -104 0 -261l-29 -21q-106 -20 -156 -17q1 -69 29 -116q75 -25 143 17zM250 431q-20 25 -57 24t-72 -27q-35 -84 -27 -212q64 -2 132 9l24 14
q22 83 0 192zM152 570l-70 -21q-16 13 -9 38l67 32q26 -1 58 -15q38 -16 41 -16l60 24q22 -28 6 -40l-67 -31z" />
    <glyph glyph-name="uni1EBE" unicode="&#x1ebe;" horiz-adv-x="354" 
d="M287 659q-14 0 -178 -19q-4 -63 -8 -100q-6 -69 -5 -112q3 -61 4 -63q6 -21 59 -19q73 2 81 0q13 -22 -12 -38q-111 -9 -102 -6q-9 -4 -10 -6q-1 -4 -7 -6q-3 -6 -6 -145q-2 -48 7 -81q22 -15 126 -10q10 0 34 6q17 4 31 2q3 -8 0 -43l-74 -12q-65 -8 -77 -6q-22 2 -47 7
q-35 4 -45 6q-2 20 -4 73q-1 58 -3 79q-2 9 0 47l2 47q-3 40 -3 162q0 6 2 76q2 68 2 78q0 77 7 92q58 34 232 26q9 -2 3 -15zM273 752l-24 -11q-77 53 -83 59q-46 -40 -68 -65q-7 0 -11 7q-5 8 -10 8q20 47 77 105l30 -5l65 -66q21 -20 24 -32zM392 952l-103 -125
q-13 2 -28 7q11 36 78 128l19 8q21 -5 34 -18z" />
    <glyph glyph-name="uni1EBF" unicode="&#x1ebf;" 
d="M272 70q14 -5 18 -29q-59 -40 -106 -43q-42 -2 -100 25q-34 47 -34 215q-1 172 41 231q23 32 98 35q77 3 96 -36q49 -104 0 -261l-29 -21q-106 -20 -156 -17q1 -69 29 -116q75 -25 143 17zM251 431q-19 25 -57 24t-72 -27q-35 -84 -27 -212q65 -2 132 9l24 14
q23 83 0 192zM280 550l-24 -11q-77 53 -83 59q-46 -40 -68 -65q-7 0 -11 7q-5 8 -10 8q20 47 77 105l30 -5l65 -66q21 -20 24 -32zM384 758l-103 -125q-13 2 -28 7q11 36 78 128l19 8q21 -5 34 -18z" />
    <glyph glyph-name="uni1EC0" unicode="&#x1ec0;" horiz-adv-x="354" 
d="M287 659q-14 0 -178 -19q-4 -63 -8 -100q-6 -69 -5 -112q3 -61 4 -63q6 -21 59 -19q73 2 81 0q13 -22 -12 -38q-111 -9 -102 -6q-9 -4 -10 -6q-1 -4 -7 -6q-3 -6 -6 -145q-2 -48 7 -81q22 -15 126 -10q10 0 34 6q17 4 31 2q3 -8 0 -43l-74 -12q-65 -8 -77 -6q-22 2 -47 7
q-35 4 -45 6q-2 20 -4 73q-1 58 -3 79q-2 9 0 47l2 47q-3 40 -3 162q0 6 2 76q2 68 2 78q0 77 7 92q58 34 232 26q9 -2 3 -15zM273 752l-24 -11q-77 53 -83 59q-46 -40 -68 -65q-7 0 -11 7q-5 8 -10 8q20 47 77 105l30 -5l65 -66q21 -20 24 -32zM127 986q13 13 34 18l19 -8
q67 -92 78 -128q-15 -5 -28 -7z" />
    <glyph glyph-name="uni1EC1" unicode="&#x1ec1;" 
d="M272 70q14 -5 18 -29q-59 -40 -106 -43q-42 -2 -100 25q-34 47 -34 215q-1 172 41 231q23 32 98 35q77 3 96 -36q49 -104 0 -261l-29 -21q-106 -20 -156 -17q1 -69 29 -116q75 -25 143 17zM251 431q-19 25 -57 24t-72 -27q-35 -84 -27 -212q65 -2 132 9l24 14
q23 83 0 192zM280 550l-24 -11q-77 53 -83 59q-46 -40 -68 -65q-7 0 -11 7q-5 8 -10 8q20 47 77 105l30 -5l65 -66q21 -20 24 -32zM153 779q13 13 34 18l19 -8q67 -92 78 -128q-15 -5 -28 -7z" />
    <glyph glyph-name="uni1EC2" unicode="&#x1ec2;" horiz-adv-x="354" 
d="M287 659q-14 0 -178 -19q-4 -63 -8 -100q-6 -69 -5 -112q3 -61 4 -63q6 -21 59 -19q73 2 81 0q13 -22 -12 -38q-111 -9 -102 -6q-9 -4 -10 -6q-1 -4 -7 -6q-3 -6 -6 -145q-2 -48 7 -81q22 -15 126 -10q10 0 34 6q17 4 31 2q3 -8 0 -43l-74 -12q-65 -8 -77 -6q-22 2 -47 7
q-35 4 -45 6q-2 20 -4 73q-1 58 -3 79q-2 9 0 47l2 47q-3 40 -3 162q0 6 2 76q2 68 2 78q0 77 7 92q58 34 232 26q9 -2 3 -15zM273 752l-24 -11q-77 53 -83 59q-46 -40 -68 -65q-7 0 -11 7q-5 8 -10 8q20 47 77 105l30 -5l65 -66q21 -20 24 -32zM280 831l-48 4q48 26 56 43
q10 22 -9 28q-11 -3 -43 -10q-19 4 -22 31q56 31 84 18q29 -14 36 -38q9 -46 -54 -76z" />
    <glyph glyph-name="uni1EC3" unicode="&#x1ec3;" 
d="M272 70q14 -5 18 -29q-59 -40 -106 -43q-42 -2 -100 25q-34 47 -34 215q-1 172 41 231q23 32 98 35q77 3 96 -36q49 -104 0 -261l-29 -21q-106 -20 -156 -17q1 -69 29 -116q75 -25 143 17zM251 431q-19 25 -57 24t-72 -27q-35 -84 -27 -212q65 -2 132 9l24 14
q23 83 0 192zM280 550l-24 -11q-77 53 -83 59q-46 -40 -68 -65q-7 0 -11 7q-5 8 -10 8q20 47 77 105l30 -5l65 -66q21 -20 24 -32zM295 634l-48 4q48 26 56 43q10 22 -9 28q-11 -3 -43 -10q-19 4 -22 31q55 32 84 18t36 -38q9 -46 -54 -76z" />
    <glyph glyph-name="uni1EC4" unicode="&#x1ec4;" horiz-adv-x="354" 
d="M287 659q-14 0 -178 -19q-4 -63 -8 -100q-6 -69 -5 -112q3 -61 4 -63q6 -21 59 -19q73 2 81 0q13 -22 -12 -38q-111 -9 -102 -6q-9 -4 -10 -6q-1 -4 -7 -6q-3 -6 -6 -145q-2 -48 7 -81q22 -15 126 -10q10 0 34 6q17 4 31 2q3 -8 0 -43l-74 -12q-65 -8 -77 -6q-22 2 -47 7
q-35 4 -45 6q-2 20 -4 73q-1 58 -3 79q-2 9 0 47l2 47q-3 40 -3 162q0 6 2 76q2 68 2 78q0 77 7 92q58 34 232 26q9 -2 3 -15zM273 752l-24 -11q-77 53 -83 59q-46 -40 -68 -65q-7 0 -11 7q-5 8 -10 8q20 47 77 105l30 -5l65 -66q21 -20 24 -32zM169 907l-70 -21
q-16 13 -9 38l67 32q26 -1 58 -15q38 -16 41 -16l60 24q22 -28 6 -40l-67 -31z" />
    <glyph glyph-name="uni1EC5" unicode="&#x1ec5;" 
d="M272 70q14 -5 18 -29q-59 -40 -106 -43q-42 -2 -100 25q-34 47 -34 215q-1 172 41 231q23 32 98 35q77 3 96 -36q49 -104 0 -261l-29 -21q-106 -20 -156 -17q1 -69 29 -116q75 -25 143 17zM251 431q-19 25 -57 24t-72 -27q-35 -84 -27 -212q65 -2 132 9l24 14
q23 83 0 192zM280 550l-24 -11q-77 53 -83 59q-46 -40 -68 -65q-7 0 -11 7q-5 8 -10 8q20 47 77 105l30 -5l65 -66q21 -20 24 -32zM176 698l-70 -21q-16 13 -9 38l67 32q26 -1 58 -15q38 -16 41 -16l60 24q22 -28 6 -40l-67 -31z" />
    <glyph glyph-name="uni1EC6" unicode="&#x1ec6;" horiz-adv-x="354" 
d="M287 659q-14 0 -178 -19q-4 -63 -8 -100q-6 -69 -5 -112q3 -61 4 -63q6 -21 59 -19q73 2 81 0q13 -22 -12 -38q-111 -9 -102 -6q-9 -4 -10 -6q-1 -4 -7 -6q-3 -6 -6 -145q-2 -48 7 -81q22 -15 126 -10q10 0 34 6q17 4 31 2q3 -8 0 -43l-74 -12q-65 -8 -77 -6q-22 2 -47 7
q-35 4 -45 6q-2 20 -4 73q-1 58 -3 79q-2 9 0 47l2 47q-3 40 -3 162q0 6 2 76q2 68 2 78q0 77 7 92q58 34 232 26q9 -2 3 -15zM273 752l-24 -11q-77 53 -83 59q-46 -40 -68 -65q-7 0 -11 7q-5 8 -10 8q20 47 77 105l30 -5l65 -66q21 -20 24 -32zM185 -160q-22 -9 -47 -1
q-7 46 3 58q46 10 49 2q10 -24 -5 -59z" />
    <glyph glyph-name="uni1EC7" unicode="&#x1ec7;" 
d="M272 70q14 -5 18 -29q-59 -40 -106 -43q-42 -2 -100 25q-34 47 -34 215q-1 172 41 231q23 32 98 35q77 3 96 -36q49 -104 0 -261l-29 -21q-106 -20 -156 -17q1 -69 29 -116q75 -25 143 17zM251 431q-19 25 -57 24t-72 -27q-35 -84 -27 -212q65 -2 132 9l24 14
q23 83 0 192zM280 550l-24 -11q-77 53 -83 59q-46 -40 -68 -65q-7 0 -11 7q-5 8 -10 8q20 47 77 105l30 -5l65 -66q21 -20 24 -32zM183 -160q-22 -9 -47 -1q-7 46 3 58q46 10 49 2q10 -24 -5 -59z" />
    <glyph glyph-name="uni1EC8" unicode="&#x1ec8;" horiz-adv-x="157" 
d="M95 350l2 -78v-137q0 -21 4 -60q5 -42 3 -62q-7 -7 -26 -9q-20 -2 -26 5q-4 52 -2 176q1 133 0 179v149q0 157 3 176q22 15 46 4q3 -56 -2 -167q-1 -18 0 -46l1 -46zM84 765l-48 4q48 26 56 43q10 22 -9 28q-11 -3 -43 -10q-19 4 -22 31q56 31 84 18q29 -14 36 -38
q9 -46 -54 -76z" />
    <glyph glyph-name="uni1EC9" unicode="&#x1ec9;" horiz-adv-x="157" 
d="M58 168l-4 315q10 17 29 16q16 -1 23 -13l-4 -119l6 -359q-6 -6 -23 -8q-19 -1 -29 11zM87 569l-48 4q48 26 56 43q10 22 -9 28q-11 -3 -43 -10q-19 4 -22 31q55 31 84 18q29 -14 36 -38q9 -46 -54 -76z" />
    <glyph glyph-name="uni1ECA" unicode="&#x1eca;" horiz-adv-x="157" 
d="M95 350l2 -78v-137q0 -21 4 -60q5 -42 3 -62q-7 -7 -26 -9q-20 -2 -26 5q-4 52 -2 176q1 133 0 179v149q0 157 3 176q22 15 46 4q3 -56 -2 -167q-1 -18 0 -46l1 -46zM99 -160q-22 -9 -47 -1q-7 46 3 58q46 10 49 2q10 -24 -5 -59z" />
    <glyph glyph-name="uni1ECB" unicode="&#x1ecb;" horiz-adv-x="161" 
d="M58 168l-4 315q10 17 29 16q16 -1 23 -13l-4 -119l6 -359q-6 -6 -23 -8q-19 -1 -29 11zM108 587q-2 -5 -26 -5q-25 0 -28 8q-8 32 0 55q19 21 55 3zM100 -160q-22 -9 -47 -1q-7 46 3 58q46 10 49 2q10 -24 -5 -59z" />
    <glyph glyph-name="uni1ECC" unicode="&#x1ecc;" horiz-adv-x="352" 
d="M296 645q3 -39 1 -122q-3 -81 1 -129q1 -31 0 -82q0 -15 -0.5 -34.5t-1 -30t-0.5 -16.5l-1 -77q0 -8 3 -38q1 -24 0 -37l-12 -24q-3 -9 -7 -19q-6 -2 -19 -15q-14 -12 -24 -15q-82 -26 -132 -3q-20 9 -51 60q-1 14 -1 94q-2 59 -3 99q-1 22 1 128q2 86 -1 125
q0 101 6 119q5 24 39 43q26 19 86 34q20 5 68 -12q15 -6 48 -48zM98 599q-4 -21 -2 -68q4 -61 -1 -155q-2 -43 2 -89q5 -68 5 -84q0 -97 4 -117q10 -51 64 -43q63 6 84 58q-11 251 4 515q-13 37 -80 34q-70 -5 -80 -51zM197 -160q-22 -9 -47 -1q-7 46 3 58q46 10 49 2
q10 -24 -5 -59z" />
    <glyph glyph-name="uni1ECD" unicode="&#x1ecd;" horiz-adv-x="353" 
d="M306 446q2 -16 2 -52q2 -42 2 -82l-1 -81q0 -147 -1 -152l-12 -24q-3 -9 -7 -19q-6 -2 -19 -15q-14 -12 -24 -15q-82 -26 -132 -3q-20 9 -51 60q-1 14 -1 94q-2 59 -3 99v54q-12 71 4 117q5 25 41 45q26 19 86 34q20 5 68 -12q15 -6 48 -48zM108 400q-3 -27 3 -197
l5 -117q10 -51 64 -43q44 5 51 8q18 7 30 39q1 19 1 328q-13 37 -77 33q-65 -5 -77 -51zM195 -160q-22 -9 -47 -1q-7 46 3 58q46 10 49 2q10 -24 -5 -59z" />
    <glyph glyph-name="uni1ECE" unicode="&#x1ece;" horiz-adv-x="352" 
d="M296 645q3 -39 1 -122q-3 -81 1 -129q1 -31 0 -82q0 -15 -0.5 -34.5t-1 -30t-0.5 -16.5l-1 -77q0 -8 3 -38q1 -24 0 -37l-12 -24q-3 -9 -7 -19q-6 -2 -19 -15q-14 -12 -24 -15q-82 -26 -132 -3q-20 9 -51 60q-1 14 -1 94q-2 59 -3 99q-1 22 1 128q2 86 -1 125
q0 101 6 119q5 24 39 43q26 19 86 34q20 5 68 -12q15 -6 48 -48zM98 599q-4 -21 -2 -68q4 -61 -1 -155q-2 -43 2 -89q5 -68 5 -84q0 -97 4 -117q10 -51 64 -43q63 6 84 58q-11 251 4 515q-13 37 -80 34q-70 -5 -80 -51zM181 765l-48 4q48 26 56 43q10 22 -9 28
q-11 -3 -43 -10q-19 4 -22 31q55 31 84 18q29 -14 36 -38q9 -46 -54 -76z" />
    <glyph glyph-name="uni1ECF" unicode="&#x1ecf;" horiz-adv-x="353" 
d="M306 446q2 -16 2 -52q2 -42 2 -82l-1 -81q0 -147 -1 -152l-12 -24q-3 -9 -7 -19q-6 -2 -19 -15q-14 -12 -24 -15q-82 -26 -132 -3q-20 9 -51 60q-1 14 -1 94q-2 59 -3 99v54q-12 71 4 117q5 25 41 45q26 19 86 34q20 5 68 -12q15 -6 48 -48zM108 400q-3 -27 3 -197
l5 -117q10 -51 64 -43q44 5 51 8q18 7 30 39q1 19 1 328q-13 37 -77 33q-65 -5 -77 -51zM179 569l-48 4q48 26 56 43q10 22 -9 28q-11 -3 -43 -10q-19 4 -22 31q55 31 84 18q29 -14 36 -38q9 -46 -54 -76z" />
    <glyph glyph-name="uni1ED0" unicode="&#x1ed0;" horiz-adv-x="352" 
d="M297 645q3 -39 1 -122q-3 -81 1 -129q1 -31 0 -82q0 -15 -0.5 -34.5t-1 -30t-0.5 -16.5l-1 -77q0 -8 3 -38q1 -24 0 -37l-12 -24q-3 -9 -7 -19q-6 -2 -19 -15q-13 -12 -24 -15q-83 -26 -132 -3q-19 9 -51 60q-1 14 -1 94q-1 59 -3 99q-1 22 1 128q2 86 -1 125
q0 101 6 119q5 24 39 43q26 19 86 34q20 5 68 -12q15 -6 48 -48zM99 599q-4 -21 -2 -68q4 -61 -1 -155q-2 -43 2 -89q5 -68 5 -84q0 -97 4 -117q10 -51 64 -43q63 6 84 58q-11 251 4 515q-13 37 -80 34q-70 -5 -80 -51zM283 752l-24 -11q-77 53 -83 59q-46 -40 -68 -65
q-7 0 -11 7q-5 8 -10 8q20 47 77 105l30 -5l65 -66q21 -20 24 -32zM392 952l-103 -125q-13 2 -28 7q11 36 78 128l19 8q21 -5 34 -18z" />
    <glyph glyph-name="uni1ED1" unicode="&#x1ed1;" horiz-adv-x="353" 
d="M302 446q2 -16 2 -52q2 -42 2 -82l-1 -81q0 -147 -1 -152l-12 -24q-3 -9 -7 -19q-6 -2 -19 -15q-14 -12 -24 -15q-82 -26 -132 -3q-20 9 -51 60q-1 14 -1 94q-2 59 -3 99v54q-12 71 4 117q5 25 41 45q26 19 86 34q20 5 68 -12q15 -6 48 -48zM104 400q-3 -27 3 -197
l5 -117q10 -51 64 -43q44 5 51 8q18 7 30 39q1 19 1 328q-13 37 -77 33q-65 -5 -77 -51zM285 550l-24 -11q-77 53 -83 59q-46 -40 -68 -65q-7 0 -11 7q-5 8 -10 8q20 47 77 105l30 -5l65 -66q21 -20 24 -32zM389 758l-103 -125q-13 2 -28 7q11 36 78 128l19 8q21 -5 34 -18z
" />
    <glyph glyph-name="uni1ED2" unicode="&#x1ed2;" horiz-adv-x="352" 
d="M297 645q3 -39 1 -122q-3 -81 1 -129q1 -31 0 -82q0 -15 -0.5 -34.5t-1 -30t-0.5 -16.5l-1 -77q0 -8 3 -38q1 -24 0 -37l-12 -24q-3 -9 -7 -19q-6 -2 -19 -15q-13 -12 -24 -15q-83 -26 -132 -3q-19 9 -51 60q-1 14 -1 94q-1 59 -3 99q-1 22 1 128q2 86 -1 125
q0 101 6 119q5 24 39 43q26 19 86 34q20 5 68 -12q15 -6 48 -48zM99 599q-4 -21 -2 -68q4 -61 -1 -155q-2 -43 2 -89q5 -68 5 -84q0 -97 4 -117q10 -51 64 -43q63 6 84 58q-11 251 4 515q-13 37 -80 34q-70 -5 -80 -51zM283 752l-24 -11q-77 53 -83 59q-46 -40 -68 -65
q-7 0 -11 7q-5 8 -10 8q20 47 77 105l30 -5l65 -66q21 -20 24 -32zM127 986q13 13 34 18l19 -8q67 -92 78 -128q-15 -5 -28 -7z" />
    <glyph glyph-name="uni1ED3" unicode="&#x1ed3;" horiz-adv-x="353" 
d="M302 446q2 -16 2 -52q2 -42 2 -82l-1 -81q0 -147 -1 -152l-12 -24q-3 -9 -7 -19q-6 -2 -19 -15q-14 -12 -24 -15q-82 -26 -132 -3q-20 9 -51 60q-1 14 -1 94q-2 59 -3 99v54q-12 71 4 117q5 25 41 45q26 19 86 34q20 5 68 -12q15 -6 48 -48zM104 400q-3 -27 3 -197
l5 -117q10 -51 64 -43q44 5 51 8q18 7 30 39q1 19 1 328q-13 37 -77 33q-65 -5 -77 -51zM285 550l-24 -11q-77 53 -83 59q-46 -40 -68 -65q-7 0 -11 7q-5 8 -10 8q20 47 77 105l30 -5l65 -66q21 -20 24 -32zM158 779q13 13 34 18l19 -8q67 -92 78 -128q-15 -5 -28 -7z" />
    <glyph glyph-name="uni1ED4" unicode="&#x1ed4;" horiz-adv-x="352" 
d="M297 645q3 -39 1 -122q-3 -81 1 -129q1 -31 0 -82q0 -15 -0.5 -34.5t-1 -30t-0.5 -16.5l-1 -77q0 -8 3 -38q1 -24 0 -37l-12 -24q-3 -9 -7 -19q-6 -2 -19 -15q-13 -12 -24 -15q-83 -26 -132 -3q-19 9 -51 60q-1 14 -1 94q-1 59 -3 99q-1 22 1 128q2 86 -1 125
q0 101 6 119q5 24 39 43q26 19 86 34q20 5 68 -12q15 -6 48 -48zM99 599q-4 -21 -2 -68q4 -61 -1 -155q-2 -43 2 -89q5 -68 5 -84q0 -97 4 -117q10 -51 64 -43q63 6 84 58q-11 251 4 515q-13 37 -80 34q-70 -5 -80 -51zM283 752l-24 -11q-77 53 -83 59q-46 -40 -68 -65
q-7 0 -11 7q-5 8 -10 8q20 47 77 105l30 -5l65 -66q21 -20 24 -32zM312 827l-48 4q48 26 56 43q10 22 -9 28q-11 -3 -43 -10q-19 4 -22 31q56 31 84 18q29 -14 36 -38q9 -46 -54 -76z" />
    <glyph glyph-name="uni1ED5" unicode="&#x1ed5;" horiz-adv-x="353" 
d="M302 446q2 -16 2 -52q2 -42 2 -82l-1 -81q0 -147 -1 -152l-12 -24q-3 -9 -7 -19q-6 -2 -19 -15q-14 -12 -24 -15q-82 -26 -132 -3q-20 9 -51 60q-1 14 -1 94q-2 59 -3 99v54q-12 71 4 117q5 25 41 45q26 19 86 34q20 5 68 -12q15 -6 48 -48zM104 400q-3 -27 3 -197
l5 -117q10 -51 64 -43q44 5 51 8q18 7 30 39q1 19 1 328q-13 37 -77 33q-65 -5 -77 -51zM285 550l-24 -11q-77 53 -83 59q-46 -40 -68 -65q-7 0 -11 7q-5 8 -10 8q20 47 77 105l30 -5l65 -66q21 -20 24 -32zM300 634l-48 4q48 26 56 43q10 22 -9 28q-11 -3 -43 -10
q-19 4 -22 31q56 32 84 18q29 -14 36 -38q9 -46 -54 -76z" />
    <glyph glyph-name="uni1ED6" unicode="&#x1ed6;" horiz-adv-x="352" 
d="M297 645q3 -39 1 -122q-3 -81 1 -129q1 -31 0 -82q0 -15 -0.5 -34.5t-1 -30t-0.5 -16.5l-1 -77q0 -8 3 -38q1 -24 0 -37l-12 -24q-3 -9 -7 -19q-6 -2 -19 -15q-13 -12 -24 -15q-83 -26 -132 -3q-19 9 -51 60q-1 14 -1 94q-1 59 -3 99q-1 22 1 128q2 86 -1 125
q0 101 6 119q5 24 39 43q26 19 86 34q20 5 68 -12q15 -6 48 -48zM99 599q-4 -21 -2 -68q4 -61 -1 -155q-2 -43 2 -89q5 -68 5 -84q0 -97 4 -117q10 -51 64 -43q63 6 84 58q-11 251 4 515q-13 37 -80 34q-70 -5 -80 -51zM283 752l-24 -11q-77 53 -83 59q-46 -40 -68 -65
q-7 0 -11 7q-5 8 -10 8q20 47 77 105l30 -5l65 -66q21 -20 24 -32zM179 899l-70 -21q-16 13 -9 38l67 32q26 -1 58 -15q38 -16 41 -16l60 24q22 -28 6 -40l-67 -31z" />
    <glyph glyph-name="uni1ED7" unicode="&#x1ed7;" horiz-adv-x="353" 
d="M302 446q2 -16 2 -52q2 -42 2 -82l-1 -81q0 -147 -1 -152l-12 -24q-3 -9 -7 -19q-6 -2 -19 -15q-14 -12 -24 -15q-82 -26 -132 -3q-20 9 -51 60q-1 14 -1 94q-2 59 -3 99v54q-12 71 4 117q5 25 41 45q26 19 86 34q20 5 68 -12q15 -6 48 -48zM104 400q-3 -27 3 -197
l5 -117q10 -51 64 -43q44 5 51 8q18 7 30 39q1 19 1 328q-13 37 -77 33q-65 -5 -77 -51zM285 550l-24 -11q-77 53 -83 59q-46 -40 -68 -65q-7 0 -11 7q-5 8 -10 8q20 47 77 105l30 -5l65 -66q21 -20 24 -32zM181 698l-70 -21q-16 13 -9 38l67 32q26 -1 58 -15q38 -16 41 -16
l60 24q22 -28 6 -40l-67 -31z" />
    <glyph glyph-name="uni1ED8" unicode="&#x1ed8;" horiz-adv-x="352" 
d="M297 645q3 -39 1 -122q-3 -81 1 -129q1 -31 0 -82q0 -15 -0.5 -34.5t-1 -30t-0.5 -16.5l-1 -77q0 -8 3 -38q1 -24 0 -37l-12 -24q-3 -9 -7 -19q-6 -2 -19 -15q-13 -12 -24 -15q-83 -26 -132 -3q-19 9 -51 60q-1 14 -1 94q-1 59 -3 99q-1 22 1 128q2 86 -1 125
q0 101 6 119q5 24 39 43q26 19 86 34q20 5 68 -12q15 -6 48 -48zM99 599q-4 -21 -2 -68q4 -61 -1 -155q-2 -43 2 -89q5 -68 5 -84q0 -97 4 -117q10 -51 64 -43q63 6 84 58q-11 251 4 515q-13 37 -80 34q-70 -5 -80 -51zM283 752l-24 -11q-77 53 -83 59q-46 -40 -68 -65
q-7 0 -11 7q-5 8 -10 8q20 47 77 105l30 -5l65 -66q21 -20 24 -32zM192 -160q-22 -9 -47 -1q-7 46 3 58q46 10 49 2q10 -24 -5 -59z" />
    <glyph glyph-name="uni1ED9" unicode="&#x1ed9;" horiz-adv-x="353" 
d="M302 446q2 -16 2 -52q2 -42 2 -82l-1 -81q0 -147 -1 -152l-12 -24q-3 -9 -7 -19q-6 -2 -19 -15q-14 -12 -24 -15q-82 -26 -132 -3q-20 9 -51 60q-1 14 -1 94q-2 59 -3 99v54q-12 71 4 117q5 25 41 45q26 19 86 34q20 5 68 -12q15 -6 48 -48zM104 400q-3 -27 3 -197
l5 -117q10 -51 64 -43q44 5 51 8q18 7 30 39q1 19 1 328q-13 37 -77 33q-65 -5 -77 -51zM285 550l-24 -11q-77 53 -83 59q-46 -40 -68 -65q-7 0 -11 7q-5 8 -10 8q20 47 77 105l30 -5l65 -66q21 -20 24 -32zM197 -160q-22 -9 -47 -1q-7 46 3 58q46 10 49 2q10 -24 -5 -59z
" />
    <glyph glyph-name="uni1EDA" unicode="&#x1eda;" horiz-adv-x="352" 
d="M96 531q4 -61 -1 -155q-2 -43 2 -89q5 -68 5 -84q0 -97 4 -117q10 -51 64 -43q63 6 84 58q-11 251 4 515q-13 37 -80 34q-70 -5 -80 -51q-4 -21 -2 -68zM296 639q3 -38 1 -116q-3 -81 1 -129q1 -31 0 -82q0 -15 -0.5 -34.5t-1 -30t-0.5 -16.5l-1 -77q0 -8 3 -38
q1 -24 0 -37l-12 -24q-3 -9 -7 -19q-6 -2 -19 -15q-14 -12 -24 -15q-82 -26 -132 -3q-20 9 -51 60q-1 14 -1 94q-2 59 -3 99q-1 22 1 128q2 86 -1 125q0 101 6 119q5 24 39 43q26 19 86 34q20 5 68 -12q7 -3 17 -13q20 -3 28 4q20 27 4 67q14 11 31 -4q28 -39 10 -74
q-13 -28 -42 -34zM286 880l-103 -125q-13 2 -28 7q11 36 78 128l19 8q21 -5 34 -18z" />
    <glyph glyph-name="uni1EDB" unicode="&#x1edb;" horiz-adv-x="353" 
d="M111 203l5 -117q10 -51 64 -43q44 5 51 8q18 7 30 39q1 19 1 328q-13 37 -77 33q-65 -5 -77 -51q-3 -27 3 -197zM305 447q1 0 1 -1q2 -16 2 -52q2 -42 2 -82l-1 -81q0 -147 -1 -152l-12 -24q-3 -9 -7 -19q-6 -2 -19 -15q-14 -12 -24 -15q-82 -26 -132 -3q-20 9 -51 60
q-1 14 -1 94q-2 59 -3 99v54q-12 71 4 117q5 25 41 45q26 19 86 34q20 5 68 -12q1 -1 3 -1q32 -9 44 0q20 27 4 67q14 11 31 -4q28 -39 10 -74q-15 -31 -45 -35zM264 684l-103 -125q-13 2 -28 7q11 36 78 128l19 8q21 -5 34 -18z" />
    <glyph glyph-name="uni1EDC" unicode="&#x1edc;" horiz-adv-x="352" 
d="M96 531q4 -61 -1 -155q-2 -43 2 -89q5 -68 5 -84q0 -97 4 -117q10 -51 64 -43q63 6 84 58q-11 251 4 515q-13 37 -80 34q-70 -5 -80 -51q-4 -21 -2 -68zM296 639q3 -38 1 -116q-3 -81 1 -129q1 -31 0 -82q0 -15 -0.5 -34.5t-1 -30t-0.5 -16.5l-1 -77q0 -8 3 -38
q1 -24 0 -37l-12 -24q-3 -9 -7 -19q-6 -2 -19 -15q-14 -12 -24 -15q-82 -26 -132 -3q-20 9 -51 60q-1 14 -1 94q-2 59 -3 99q-1 22 1 128q2 86 -1 125q0 101 6 119q5 24 39 43q26 19 86 34q20 5 68 -12q7 -3 17 -13q20 -3 28 4q20 27 4 67q14 11 31 -4q28 -39 10 -74
q-13 -28 -42 -34zM112 880q13 13 34 18l19 -8q67 -92 78 -128q-15 -5 -28 -7z" />
    <glyph glyph-name="uni1EDD" unicode="&#x1edd;" horiz-adv-x="353" 
d="M111 203l5 -117q10 -51 64 -43q44 5 51 8q18 7 30 39q1 19 1 328q-13 37 -77 33q-65 -5 -77 -51q-3 -27 3 -197zM305 447q1 0 1 -1q2 -16 2 -52q2 -42 2 -82l-1 -81q0 -147 -1 -152l-12 -24q-3 -9 -7 -19q-6 -2 -19 -15q-14 -12 -24 -15q-82 -26 -132 -3q-20 9 -51 60
q-1 14 -1 94q-2 59 -3 99v54q-12 71 4 117q5 25 41 45q26 19 86 34q20 5 68 -12q1 -1 3 -1q32 -9 44 0q20 27 4 67q14 11 31 -4q28 -39 10 -74q-15 -31 -45 -35zM59 684q13 13 34 18l19 -8q67 -92 78 -128q-15 -5 -28 -7z" />
    <glyph glyph-name="uni1EDE" unicode="&#x1ede;" horiz-adv-x="352" 
d="M96 531q4 -61 -1 -155q-2 -43 2 -89q5 -68 5 -84q0 -97 4 -117q10 -51 64 -43q63 6 84 58q-11 251 4 515q-13 37 -80 34q-70 -5 -80 -51q-4 -21 -2 -68zM296 639q3 -38 1 -116q-3 -81 1 -129q1 -31 0 -82q0 -15 -0.5 -34.5t-1 -30t-0.5 -16.5l-1 -77q0 -8 3 -38
q1 -24 0 -37l-12 -24q-3 -9 -7 -19q-6 -2 -19 -15q-14 -12 -24 -15q-82 -26 -132 -3q-20 9 -51 60q-1 14 -1 94q-2 59 -3 99q-1 22 1 128q2 86 -1 125q0 101 6 119q5 24 39 43q26 19 86 34q20 5 68 -12q7 -3 17 -13q20 -3 28 4q20 27 4 67q14 11 31 -4q28 -39 10 -74
q-13 -28 -42 -34zM204 765l-48 4q48 26 56 43q10 22 -9 28q-11 -3 -43 -10q-19 4 -22 31q56 31 84 18q29 -14 36 -38q9 -46 -54 -76z" />
    <glyph glyph-name="uni1EDF" unicode="&#x1edf;" horiz-adv-x="353" 
d="M111 203l5 -117q10 -51 64 -43q44 5 51 8q18 7 30 39q1 19 1 328q-13 37 -77 33q-65 -5 -77 -51q-3 -27 3 -197zM305 447q1 0 1 -1q2 -16 2 -52q2 -42 2 -82l-1 -81q0 -147 -1 -152l-12 -24q-3 -9 -7 -19q-6 -2 -19 -15q-14 -12 -24 -15q-82 -26 -132 -3q-20 9 -51 60
q-1 14 -1 94q-2 59 -3 99v54q-12 71 4 117q5 25 41 45q26 19 86 34q20 5 68 -12q1 -1 3 -1q32 -9 44 0q20 27 4 67q14 11 31 -4q28 -39 10 -74q-15 -31 -45 -35zM186 569l-48 4q48 26 56 43q10 22 -9 28q-11 -3 -43 -10q-19 4 -22 31q56 31 84 18q29 -14 36 -38
q9 -46 -54 -76z" />
    <glyph glyph-name="uni1EE0" unicode="&#x1ee0;" horiz-adv-x="352" 
d="M96 531q4 -61 -1 -155q-2 -43 2 -89q5 -68 5 -84q0 -97 4 -117q10 -51 64 -43q63 6 84 58q-11 251 4 515q-13 37 -80 34q-70 -5 -80 -51q-4 -21 -2 -68zM296 639q3 -38 1 -116q-3 -81 1 -129q1 -31 0 -82q0 -15 -0.5 -34.5t-1 -30t-0.5 -16.5l-1 -77q0 -8 3 -38
q1 -24 0 -37l-12 -24q-3 -9 -7 -19q-6 -2 -19 -15q-14 -12 -24 -15q-82 -26 -132 -3q-20 9 -51 60q-1 14 -1 94q-2 59 -3 99q-1 22 1 128q2 86 -1 125q0 101 6 119q5 24 39 43q26 19 86 34q20 5 68 -12q7 -3 17 -13q20 -3 28 4q20 27 4 67q14 11 31 -4q28 -39 10 -74
q-13 -28 -42 -34zM159 807l-70 -21q-16 13 -9 38l67 32q26 -1 58 -15q38 -16 41 -16l60 24q22 -28 6 -40l-67 -31z" />
    <glyph glyph-name="uni1EE1" unicode="&#x1ee1;" horiz-adv-x="353" 
d="M111 203l5 -117q10 -51 64 -43q44 5 51 8q18 7 30 39q1 19 1 328q-13 37 -77 33q-65 -5 -77 -51q-3 -27 3 -197zM305 447q1 0 1 -1q2 -16 2 -52q2 -42 2 -82l-1 -81q0 -147 -1 -152l-12 -24q-3 -9 -7 -19q-6 -2 -19 -15q-14 -12 -24 -15q-82 -26 -132 -3q-20 9 -51 60
q-1 14 -1 94q-2 59 -3 99v54q-12 71 4 117q5 25 41 45q26 19 86 34q20 5 68 -12q1 -1 3 -1q32 -9 44 0q20 27 4 67q14 11 31 -4q28 -39 10 -74q-15 -31 -45 -35zM121 602l-70 -21q-16 13 -9 38l67 32q26 -1 58 -15q38 -16 41 -16l60 24q22 -28 6 -40l-67 -31z" />
    <glyph glyph-name="uni1EE2" unicode="&#x1ee2;" horiz-adv-x="352" 
d="M96 531q4 -61 -1 -155q-2 -43 2 -89q5 -68 5 -84q0 -97 4 -117q10 -51 64 -43q63 6 84 58q-11 251 4 515q-13 37 -80 34q-70 -5 -80 -51q-4 -21 -2 -68zM296 639q3 -38 1 -116q-3 -81 1 -129q1 -31 0 -82q0 -15 -0.5 -34.5t-1 -30t-0.5 -16.5l-1 -77q0 -8 3 -38
q1 -24 0 -37l-12 -24q-3 -9 -7 -19q-6 -2 -19 -15q-14 -12 -24 -15q-82 -26 -132 -3q-20 9 -51 60q-1 14 -1 94q-2 59 -3 99q-1 22 1 128q2 86 -1 125q0 101 6 119q5 24 39 43q26 19 86 34q20 5 68 -12q7 -3 17 -13q20 -3 28 4q20 27 4 67q14 11 31 -4q28 -39 10 -74
q-13 -28 -42 -34zM220 -160q-22 -9 -47 -1q-7 46 3 58q46 10 49 2q10 -24 -5 -59z" />
    <glyph glyph-name="uni1EE3" unicode="&#x1ee3;" horiz-adv-x="353" 
d="M111 203l5 -117q10 -51 64 -43q44 5 51 8q18 7 30 39q1 19 1 328q-13 37 -77 33q-65 -5 -77 -51q-3 -27 3 -197zM305 447q1 0 1 -1q2 -16 2 -52q2 -42 2 -82l-1 -81q0 -147 -1 -152l-12 -24q-3 -9 -7 -19q-6 -2 -19 -15q-14 -12 -24 -15q-82 -26 -132 -3q-20 9 -51 60
q-1 14 -1 94q-2 59 -3 99v54q-12 71 4 117q5 25 41 45q26 19 86 34q20 5 68 -12q1 -1 3 -1q32 -9 44 0q20 27 4 67q14 11 31 -4q28 -39 10 -74q-15 -31 -45 -35zM181 -160q-22 -9 -47 -1q-7 46 3 58q46 10 49 2q10 -24 -5 -59z" />
    <glyph glyph-name="uni1EE4" unicode="&#x1ee4;" horiz-adv-x="357" 
d="M303 666q-3 -39 -2 -105q1 -58 -1 -108q-3 -78 0 -87q-4 -39 0 -124q3 -90 0 -131q-4 -16 -4 -26v-21q1 -9 -1 -18q-9 -24 -50 -39q-39 -11 -82 -5q-41 4 -52 9q-6 1 -30 28q-20 26 -22 31q-10 25 -8 50q2 32 1 64q-1 46 0 67q1 28 -1 131q0 24 -0.5 56t-1 49t-0.5 27
l-1 127q0 45 6 52q24 5 48 -11q-5 -76 -2 -195q3 -168 2 -205q-3 -154 1 -173q11 -33 32 -44q26 -14 91 -15l20 18q6 126 6 306q0 223 -7 315q13 13 35 1q18 -11 23 -24zM200 -160q-22 -9 -47 -1q-7 46 3 58q46 10 49 2q10 -24 -5 -59z" />
    <glyph glyph-name="uni1EE5" unicode="&#x1ee5;" horiz-adv-x="360" 
d="M90 16l-35 42q0 365 -5 433q30 22 53 8q11 -41 5 -147q0 -17 -5 -142l3 -139q66 -46 155 19l3 60l-2 78v137q0 21 -4 60q-5 42 -3 62q7 7 26 9t26 -5q4 -64 3 -176q-2 -156 -1 -179v-121q-21 -25 -46 -12q-2 26 -2 41q-99 -72 -171 -28zM201 -160q-22 -9 -47 -1
q-7 46 3 58q46 10 49 2q10 -24 -5 -59z" />
    <glyph glyph-name="uni1EE6" unicode="&#x1ee6;" horiz-adv-x="357" 
d="M303 666q-3 -39 -2 -105q1 -58 -1 -108q-3 -78 0 -87q-4 -39 0 -124q3 -90 0 -131q-4 -16 -4 -26v-21q1 -9 -1 -18q-9 -24 -50 -39q-39 -11 -82 -5q-41 4 -52 9q-6 1 -30 28q-20 26 -22 31q-10 25 -8 50q2 32 1 64q-1 46 0 67q1 28 -1 131q0 24 -0.5 56t-1 49t-0.5 27
l-1 127q0 45 6 52q24 5 48 -11q-5 -76 -2 -195q3 -168 2 -205q-3 -154 1 -173q11 -33 32 -44q26 -14 91 -15l20 18q6 126 6 306q0 223 -7 315q13 13 35 1q18 -11 23 -24zM185 765l-48 4q48 26 56 43q10 22 -9 28q-11 -3 -43 -10q-19 4 -22 31q55 31 84 18q29 -14 36 -38
q9 -46 -54 -76z" />
    <glyph glyph-name="uni1EE7" unicode="&#x1ee7;" horiz-adv-x="360" 
d="M90 16l-35 42q0 365 -5 433q30 22 53 8q11 -41 5 -147q0 -17 -5 -142l3 -139q66 -46 155 19l3 60l-2 78v137q0 21 -4 60q-5 42 -3 62q7 7 26 9t26 -5q4 -64 3 -176q-2 -156 -1 -179v-121q-21 -25 -46 -12q-2 26 -2 41q-99 -72 -171 -28zM185 569l-48 4q48 26 56 43
q10 22 -9 28q-11 -3 -43 -10q-19 4 -22 31q55 31 84 18q29 -14 36 -38q9 -46 -54 -76z" />
    <glyph glyph-name="uni1EE8" unicode="&#x1ee8;" horiz-adv-x="357" 
d="M301 639q-1 -31 0 -78q1 -58 -1 -108q-3 -78 0 -87q-4 -39 0 -124q3 -90 0 -131q-4 -16 -4 -26v-21q1 -9 -1 -18q-9 -24 -50 -39q-39 -11 -82 -5q-41 4 -52 9q-6 1 -30 28q-20 26 -22 31q-10 25 -8 50q2 32 1 64q-1 46 0 67q1 28 -1 131q0 24 -0.5 56t-1 49t-0.5 27
l-1 127q0 45 6 52q24 5 48 -11q-5 -76 -2 -195q3 -168 2 -205q-3 -154 1 -173q11 -33 32 -44q26 -14 91 -15l20 18q6 126 6 306q0 223 -7 315q13 13 35 1q8 -4 13 -10q20 -3 28 4q20 27 4 67q14 11 31 -4q28 -39 10 -74q-15 -31 -45 -35q-11 -2 -20 1zM302 880l-103 -125
q-13 2 -28 7q11 36 78 128l19 8q21 -5 34 -18z" />
    <glyph glyph-name="uni1EE9" unicode="&#x1ee9;" horiz-adv-x="360" 
d="M309 449q2 -77 1 -134q-2 -156 -1 -179v-121q-21 -25 -46 -12q-2 26 -2 41q-99 -72 -171 -28l-35 42q0 365 -5 433q30 22 53 8q11 -41 5 -147q0 -17 -5 -142l3 -139q66 -46 155 19l3 60l-2 78v137q0 21 -4 60q-5 42 -3 62q7 7 26 9t26 -5v-1q12 -7 38 8q15 27 -16 61
q19 13 36 -2q28 -39 10 -74q-15 -31 -45 -35q-12 -2 -21 1zM302 684l-103 -125q-13 2 -28 7q11 36 78 128l19 8q21 -5 34 -18z" />
    <glyph glyph-name="uni1EEA" unicode="&#x1eea;" horiz-adv-x="357" 
d="M301 639q-1 -31 0 -78q1 -58 -1 -108q-3 -78 0 -87q-4 -39 0 -124q3 -90 0 -131q-4 -16 -4 -26v-21q1 -9 -1 -18q-9 -24 -50 -39q-39 -11 -82 -5q-41 4 -52 9q-6 1 -30 28q-20 26 -22 31q-10 25 -8 50q2 32 1 64q-1 46 0 67q1 28 -1 131q0 24 -0.5 56t-1 49t-0.5 27
l-1 127q0 45 6 52q24 5 48 -11q-5 -76 -2 -195q3 -168 2 -205q-3 -154 1 -173q11 -33 32 -44q26 -14 91 -15l20 18q6 126 6 306q0 223 -7 315q13 13 35 1q8 -4 13 -10q20 -3 28 4q20 27 4 67q14 11 31 -4q28 -39 10 -74q-15 -31 -45 -35q-11 -2 -20 1zM127 880q13 13 34 18
l19 -8q67 -92 78 -128q-15 -5 -28 -7z" />
    <glyph glyph-name="uni1EEB" unicode="&#x1eeb;" horiz-adv-x="360" 
d="M309 449q2 -77 1 -134q-2 -156 -1 -179v-121q-21 -25 -46 -12q-2 26 -2 41q-99 -72 -171 -28l-35 42q0 365 -5 433q30 22 53 8q11 -41 5 -147q0 -17 -5 -142l3 -139q66 -46 155 19l3 60l-2 78v137q0 21 -4 60q-5 42 -3 62q7 7 26 9t26 -5v-1q12 -7 38 8q15 27 -16 61
q19 13 36 -2q28 -39 10 -74q-15 -31 -45 -35q-12 -2 -21 1zM95 684q13 13 34 18l19 -8q67 -92 78 -128q-15 -5 -28 -7z" />
    <glyph glyph-name="uni1EEC" unicode="&#x1eec;" horiz-adv-x="357" 
d="M301 639q-1 -31 0 -78q1 -58 -1 -108q-3 -78 0 -87q-4 -39 0 -124q3 -90 0 -131q-4 -16 -4 -26v-21q1 -9 -1 -18q-9 -24 -50 -39q-39 -11 -82 -5q-41 4 -52 9q-6 1 -30 28q-20 26 -22 31q-10 25 -8 50q2 32 1 64q-1 46 0 67q1 28 -1 131q0 24 -0.5 56t-1 49t-0.5 27
l-1 127q0 45 6 52q24 5 48 -11q-5 -76 -2 -195q3 -168 2 -205q-3 -154 1 -173q11 -33 32 -44q26 -14 91 -15l20 18q6 126 6 306q0 223 -7 315q13 13 35 1q8 -4 13 -10q20 -3 28 4q20 27 4 67q14 11 31 -4q28 -39 10 -74q-15 -31 -45 -35q-11 -2 -20 1zM193 760l-48 4
q48 26 56 43q10 22 -9 28q-11 -3 -43 -10q-19 4 -22 31q55 32 84 18t36 -38q9 -46 -54 -76z" />
    <glyph glyph-name="uni1EED" unicode="&#x1eed;" horiz-adv-x="360" 
d="M309 449q2 -77 1 -134q-2 -156 -1 -179v-121q-21 -25 -46 -12q-2 26 -2 41q-99 -72 -171 -28l-35 42q0 365 -5 433q30 22 53 8q11 -41 5 -147q0 -17 -5 -142l3 -139q66 -46 155 19l3 60l-2 78v137q0 21 -4 60q-5 42 -3 62q7 7 26 9t26 -5v-1q12 -7 38 8q15 27 -16 61
q19 13 36 -2q28 -39 10 -74q-15 -31 -45 -35q-12 -2 -21 1zM217 569l-48 4q48 26 56 43q10 22 -9 28q-11 -3 -43 -10q-19 4 -22 31q55 31 84 18q29 -14 36 -38q9 -46 -54 -76z" />
    <glyph glyph-name="uni1EEE" unicode="&#x1eee;" horiz-adv-x="357" 
d="M301 639q-1 -31 0 -78q1 -58 -1 -108q-3 -78 0 -87q-4 -39 0 -124q3 -90 0 -131q-4 -16 -4 -26v-21q1 -9 -1 -18q-9 -24 -50 -39q-39 -11 -82 -5q-41 4 -52 9q-6 1 -30 28q-20 26 -22 31q-10 25 -8 50q2 32 1 64q-1 46 0 67q1 28 -1 131q0 24 -0.5 56t-1 49t-0.5 27
l-1 127q0 45 6 52q24 5 48 -11q-5 -76 -2 -195q3 -168 2 -205q-3 -154 1 -173q11 -33 32 -44q26 -14 91 -15l20 18q6 126 6 306q0 223 -7 315q13 13 35 1q8 -4 13 -10q20 -3 28 4q20 27 4 67q14 11 31 -4q28 -39 10 -74q-15 -31 -45 -35q-11 -2 -20 1zM144 798l-70 -21
q-16 13 -9 38l67 32q26 -1 58 -15q38 -16 41 -16l60 24q22 -28 6 -40l-67 -31z" />
    <glyph glyph-name="uni1EEF" unicode="&#x1eef;" horiz-adv-x="360" 
d="M309 449q2 -77 1 -134q-2 -156 -1 -179v-121q-21 -25 -46 -12q-2 26 -2 41q-99 -72 -171 -28l-35 42q0 365 -5 433q30 22 53 8q11 -41 5 -147q0 -17 -5 -142l3 -139q66 -46 155 19l3 60l-2 78v137q0 21 -4 60q-5 42 -3 62q7 7 26 9t26 -5v-1q12 -7 38 8q15 27 -16 61
q19 13 36 -2q28 -39 10 -74q-15 -31 -45 -35q-12 -2 -21 1zM147 596l-70 -21q-16 13 -9 38l67 32q26 -1 58 -15q38 -16 41 -16l60 24q22 -28 6 -40l-67 -31z" />
    <glyph glyph-name="uni1EF0" unicode="&#x1ef0;" horiz-adv-x="357" 
d="M301 639q-1 -31 0 -78q1 -58 -1 -108q-3 -78 0 -87q-4 -39 0 -124q3 -90 0 -131q-4 -16 -4 -26v-21q1 -9 -1 -18q-9 -24 -50 -39q-39 -11 -82 -5q-41 4 -52 9q-6 1 -30 28q-20 26 -22 31q-10 25 -8 50q2 32 1 64q-1 46 0 67q1 28 -1 131q0 24 -0.5 56t-1 49t-0.5 27
l-1 127q0 45 6 52q24 5 48 -11q-5 -76 -2 -195q3 -168 2 -205q-3 -154 1 -173q11 -33 32 -44q26 -14 91 -15l20 18q6 126 6 306q0 223 -7 315q13 13 35 1q8 -4 13 -10q20 -3 28 4q20 27 4 67q14 11 31 -4q28 -39 10 -74q-15 -31 -45 -35q-11 -2 -20 1zM189 -160
q-22 -9 -47 -1q-7 46 3 58q46 10 49 2q10 -24 -5 -59z" />
    <glyph glyph-name="uni1EF1" unicode="&#x1ef1;" horiz-adv-x="360" 
d="M309 449q2 -77 1 -134q-2 -156 -1 -179v-121q-21 -25 -46 -12q-2 26 -2 41q-99 -72 -171 -28l-35 42q0 365 -5 433q30 22 53 8q11 -41 5 -147q0 -17 -5 -142l3 -139q66 -46 155 19l3 60l-2 78v137q0 21 -4 60q-5 42 -3 62q7 7 26 9t26 -5v-1q12 -7 38 8q15 27 -16 61
q19 13 36 -2q28 -39 10 -74q-15 -31 -45 -35q-12 -2 -21 1zM220 -160q-22 -9 -47 -1q-7 46 3 58q46 10 49 2q10 -24 -5 -59z" />
    <glyph glyph-name="Ygrave" unicode="&#x1ef2;" horiz-adv-x="349" 
d="M296 689q3 -3 3 -12q0 -15 -6 -28q-18 -47 -43 -168t-43 -168l-9 -16q-1 -6 -1 -29q0 -10 2 -96t2 -92q0 -68 -2 -70q-29 -11 -40 -6q-10 4 -10 90l2 156q0 39 -6 57q-4 9 -84 316q-11 41 -11 55q0 10 33 17q21 0 28 -67l60 -257l11 8q25 82 49 221q16 97 33 97
q11 0 32 -8zM87 880q13 13 34 18l19 -8q67 -92 78 -128q-15 -5 -28 -7z" />
    <glyph glyph-name="ygrave" unicode="&#x1ef3;" horiz-adv-x="364" 
d="M310 138l2 -78q-4 -155 -51 -199q-37 -24 -131 -29q-16 17 -7 40q82 8 108 29q24 35 30 143q-97 -73 -171 -28l-35 42q0 365 -5 433q30 22 53 8q11 -41 5 -147q0 -17 -5 -142l3 -139q35 -26 86 -12q40 9 71 33l2 60v149q0 19 -6 101q-4 55 1 93q26 17 51 4q5 -109 1 -185
q-1 -18 0 -46l1 -46zM95 684q13 13 34 18l19 -8q67 -92 78 -128q-15 -5 -28 -7z" />
    <glyph glyph-name="uni1EF4" unicode="&#x1ef4;" horiz-adv-x="349" 
d="M296 689q3 -3 3 -12q0 -15 -6 -28q-18 -47 -43 -168t-43 -168l-9 -16q-1 -6 -1 -29q0 -10 2 -96t2 -92q0 -68 -2 -70q-29 -11 -40 -6q-10 4 -10 90l2 156q0 39 -6 57q-4 9 -84 316q-11 41 -11 55q0 10 33 17q21 0 28 -67l60 -257l11 8q25 82 49 221q16 97 33 97
q11 0 32 -8zM195 -160q-22 -9 -47 -1q-7 46 3 58q46 10 49 2q10 -24 -5 -59z" />
    <glyph glyph-name="uni1EF5" unicode="&#x1ef5;" horiz-adv-x="364" 
d="M310 138l2 -78q-4 -155 -51 -199q-37 -24 -131 -29q-16 17 -7 40q82 8 108 29q24 35 30 143q-97 -73 -171 -28l-35 42q0 365 -5 433q30 22 53 8q11 -41 5 -147q0 -17 -5 -142l3 -139q35 -26 86 -12q40 9 71 33l2 60v149q0 19 -6 101q-4 55 1 93q26 17 51 4q5 -109 1 -185
q-1 -18 0 -46l1 -46zM392 -86q-22 -9 -47 -1q-7 46 3 58q46 10 49 2q10 -24 -5 -59z" />
    <glyph glyph-name="uni1EF6" unicode="&#x1ef6;" horiz-adv-x="349" 
d="M296 689q3 -3 3 -12q0 -15 -6 -28q-18 -47 -43 -168t-43 -168l-9 -16q-1 -6 -1 -29q0 -10 2 -96t2 -92q0 -68 -2 -70q-29 -11 -40 -6q-10 4 -10 90l2 156q0 39 -6 57q-4 9 -84 316q-11 41 -11 55q0 10 33 17q21 0 28 -67l60 -257l11 8q25 82 49 221q16 97 33 97
q11 0 32 -8zM180 765l-48 4q48 26 56 43q10 22 -9 28q-11 -3 -43 -10q-19 4 -22 31q56 31 84 18q29 -14 36 -38q9 -46 -54 -76z" />
    <glyph glyph-name="uni1EF7" unicode="&#x1ef7;" horiz-adv-x="364" 
d="M310 138l2 -78q-4 -155 -51 -199q-37 -24 -131 -29q-16 17 -7 40q82 8 108 29q24 35 30 143q-97 -73 -171 -28l-35 42q0 365 -5 433q30 22 53 8q11 -41 5 -147q0 -17 -5 -142l3 -139q35 -26 86 -12q40 9 71 33l2 60v149q0 19 -6 101q-4 55 1 93q26 17 51 4q5 -109 1 -185
q-1 -18 0 -46l1 -46zM188 569l-48 4q48 26 56 43q10 22 -9 28q-11 -3 -43 -10q-19 4 -22 31q56 31 84 18q29 -14 36 -38q9 -46 -54 -76z" />
    <glyph glyph-name="uni1EF8" unicode="&#x1ef8;" horiz-adv-x="349" 
d="M296 689q3 -3 3 -12q0 -15 -6 -28q-18 -47 -43 -168t-43 -168l-9 -16q-1 -6 -1 -29q0 -10 2 -96t2 -92q0 -68 -2 -70q-29 -11 -40 -6q-10 4 -10 90l2 156q0 39 -6 57q-4 9 -84 316q-11 41 -11 55q0 10 33 17q21 0 28 -67l60 -257l11 8q25 82 49 221q16 97 33 97
q11 0 32 -8zM135 767l-70 -21q-16 13 -9 38l67 32q26 -1 58 -15q38 -16 41 -16l60 24q22 -28 6 -40l-67 -31z" />
    <glyph glyph-name="uni1EF9" unicode="&#x1ef9;" horiz-adv-x="364" 
d="M310 138l2 -78q-4 -155 -51 -199q-37 -24 -131 -29q-16 17 -7 40q82 8 108 29q24 35 30 143q-97 -73 -171 -28l-35 42q0 365 -5 433q30 22 53 8q11 -41 5 -147q0 -17 -5 -142l3 -139q35 -26 86 -12q40 9 71 33l2 60v149q0 19 -6 101q-4 55 1 93q26 17 51 4q5 -109 1 -185
q-1 -18 0 -46l1 -46zM143 570l-70 -21q-16 13 -9 38l67 32q26 -1 58 -15q38 -16 41 -16l60 24q22 -28 6 -40l-67 -31z" />
    <glyph glyph-name="endash" unicode="&#x2013;" horiz-adv-x="394" 
d="M50 343q0 -3 117 -3l164 2q4 1 6.5 -4.5t3.5 -16.5q2 -23 -5 -24l-40 3l-233 -4l-12 12q-1 0 -1 35z" />
    <glyph glyph-name="emdash" unicode="&#x2014;" horiz-adv-x="456" 
d="M50 343q0 -3 179 -3l164 2q4 1 6.5 -4.5t3.5 -17.5q2 -25 -5 -26l-40 3l-295 -4l-12 12q-1 0 -1 38z" />
    <glyph glyph-name="quoteleft" unicode="&#x2018;" horiz-adv-x="159" 
d="M57 620q9 42 37 79q14 -5 12 -13q-23 -58 -19 -65q11 -3 19 -8q7 -46 -3 -58q-46 -10 -49 -2q-11 26 3 67z" />
    <glyph glyph-name="quoteright" unicode="&#x2019;" horiz-adv-x="159" 
d="M102 630q-9 -42 -37 -79q-14 5 -12 13q23 58 19 65q-11 3 -19 8q-7 46 3 58q46 10 49 2q11 -26 -3 -67z" />
    <glyph glyph-name="quotesinglbase" unicode="&#x201a;" horiz-adv-x="159" 
d="M102 -7q-9 -42 -37 -79q-14 5 -12 13q23 58 19 65q-11 3 -19 8q-7 46 3 58q46 10 49 2q11 -26 -3 -67z" />
    <glyph glyph-name="quotedblleft" unicode="&#x201c;" horiz-adv-x="254" 
d="M152 622q9 42 37 79q14 -5 12 -13q-23 -58 -19 -65q11 -3 19 -8q7 -46 -3 -58q-46 -10 -49 -2q-11 26 3 67zM57 622q9 42 37 79q14 -5 12 -13q-23 -58 -19 -65q11 -3 19 -8q7 -46 -3 -58q-46 -10 -49 -2q-11 26 3 67z" />
    <glyph glyph-name="quotedblright" unicode="&#x201d;" horiz-adv-x="254" 
d="M102 630q-9 -42 -37 -79q-14 5 -12 13q23 58 19 65q-11 3 -19 8q-7 46 3 58q46 10 49 2q11 -26 -3 -67zM197 630q-9 -42 -37 -79q-14 5 -12 13q23 58 19 65q-11 3 -19 8q-7 46 3 58q46 10 49 2q11 -26 -3 -67z" />
    <glyph glyph-name="quotedblbase" unicode="&#x201e;" horiz-adv-x="254" 
d="M102 -6q-9 -42 -37 -79q-14 5 -12 13q23 58 19 65q-11 3 -19 8q-7 46 3 58q46 10 49 2q11 -26 -3 -67zM197 -6q-9 -42 -37 -79q-14 5 -12 13q23 58 19 65q-11 3 -19 8q-7 46 3 58q46 10 49 2q11 -26 -3 -67z" />
    <glyph glyph-name="dagger" unicode="&#x2020;" 
d="M50 489q0 -3 104 -3q-2 205 1 252q7 6 26 11t27 -3q1 -15 -4 -64q-4 -41 -4 -62v-56q0 -61 1 -78l92 2q4 1 6.5 -4.5t3.5 -18.5q2 -26 -5 -27l-40 3l-56 -1l-4 -104l1 -84q0 -55 3 -148q5 -80 0 -155q-36 -17 -50 -7l2 176l1 321l-92 -2l-12 12q-1 0 -1 40z" />
    <glyph glyph-name="daggerdbl" unicode="&#x2021;" horiz-adv-x="357" 
d="M50 489q0 -3 104 -3q-2 205 1 252q7 6 26 11t27 -3q1 -15 -4 -64q-4 -41 -4 -62v-56q0 -61 1 -78l92 2q4 1 6.5 -4.5t3.5 -18.5q2 -26 -5 -27l-40 3l-56 -1l-4 -104l1 -80q104 -2 104 -6q3 -25 -15 -43l-89 2l3 -105q5 -80 0 -155q-36 -17 -50 -7l2 176v92q-43 0 -61 1
l-40 7l5 40l96 -2l1 183l-92 -2l-12 12q-1 0 -1 40z" />
    <glyph glyph-name="bullet" unicode="&#x2022;" horiz-adv-x="215" 
d="M149 265q-46 -18 -92 -2q-17 91 6 114q90 22 96 4q20 -49 -10 -116z" />
    <glyph glyph-name="ellipsis" unicode="&#x2026;" horiz-adv-x="433" 
d="M100 1q-22 -9 -47 -1q-7 46 3 58q46 10 49 2q10 -24 -5 -59zM237 1q-22 -9 -47 -1q-7 46 3 58q46 10 49 2q10 -24 -5 -59zM374 1q-22 -9 -47 -1q-7 46 3 58q46 10 49 2q10 -24 -5 -59z" />
    <glyph glyph-name="perthousand" unicode="&#x2030;" horiz-adv-x="887" 
d="M381 712h7q26 9 46 0q-2 -19 -16 -73q-10 -48 -17 -71q-7 -22 -18 -69l-19 -69q-23 -76 -39 -136q-2 -8 -16 -72q-7 -33 -17 -73q-1 -7 -8 -29l-9 -30q-49 -176 -54 -183q-19 -9 -40 -1q0 6 23 104q9 33 14 48t14 48l24 104l26 101q3 11 6 27l6 25l1 3q1 3 2 6.5t3 9
t4 13t5 15.5q1 1 7 25l6 24l16 48q10 32 22 101q12 73 21 104zM248 657q2 -12 2 -39q2 -32 1 -61v-61q0 -108 -1 -113q0 3 -15 -32q-6 -3 -15 -11q-10 -8 -19 -12q-68 -17 -102 -2q-18 8 -40 45q-1 13 -1 70q0 36 -2 74v40q-12 59 3 87q3 20 32 34q20 14 67 25q18 3 53 -9
q12 -4 37 -35zM94 622q-2 -26 2 -147q1 -21 3 -53l1 -34q8 -38 50 -32q32 3 39 6q13 6 24 29q1 19 1 245q-10 28 -60 25q-51 -5 -60 -39zM590 335q2 -12 2 -39q2 -32 1 -61v-61q0 -108 -1 -113q0 3 -15 -32q-6 -3 -15 -11q-10 -8 -19 -12q-68 -17 -102 -2q-18 8 -40 45
q-1 13 -1 70q0 36 -2 74v40q-12 59 3 87q3 20 32 34q20 14 67 25q18 3 53 -9q12 -4 37 -35zM436 300q-2 -26 2 -147q1 -21 3 -53l1 -34q8 -38 50 -32q32 3 39 6q13 6 24 29q1 19 1 245q-10 28 -60 25q-51 -5 -60 -39zM837 335q2 -12 2 -39q2 -32 1 -61v-61q0 -108 -1 -113
q0 3 -15 -32q-6 -3 -15 -11q-10 -8 -19 -12q-68 -17 -102 -2q-18 8 -40 45q-1 13 -1 70q0 36 -2 74v40q-12 59 3 87q3 20 32 34q20 14 67 25q18 3 53 -9q12 -4 37 -35zM683 300q-2 -26 2 -147q1 -21 3 -53l1 -34q8 -38 50 -32q31 3 39 6q13 6 24 29q1 19 1 245
q-10 28 -60 25q-51 -5 -60 -39z" />
    <glyph glyph-name="guilsinglleft" unicode="&#x2039;" horiz-adv-x="219" 
d="M149 472q29 -23 16 -49l-56 -124l58 -139q-3 -16 -23 -33q-36 34 -94 173q13 18 52 89q30 56 47 83z" />
    <glyph glyph-name="guilsinglright" unicode="&#x203a;" horiz-adv-x="219" 
d="M70 472q17 -27 47 -83q39 -71 52 -89q-58 -139 -94 -173q-20 17 -23 33l58 139l-56 124q-13 26 16 49z" />
    <glyph glyph-name="fraction" unicode="&#x2044;" horiz-adv-x="354" 
d="M96 712h7q9 -31 21 -104q12 -69 22 -101l16 -48q1 -4 7 -24l6 -25l4 -13.5l3.5 -11l3 -9t2 -6.5t1.5 -5t1 -2l6 -25q3 -16 6 -27l26 -101l24 -104q9 -33 14 -48t14 -48q23 -98 23 -104q-21 -8 -40 1q-5 7 -54 183l-17 59l-33 145q-16 60 -39 136q-8 24 -18 69
q-14 53 -19 69q-7 23 -17 71q-14 54 -16 73q20 9 46 0z" />
    <glyph glyph-name="Euro" unicode="&#x20ac;" horiz-adv-x="367" 
d="M50 417q0 -1 42 -3q2 58 -1 95q0 94 6 112q8 38 38 55q28 21 60 29q20 5 68 -12q7 -3 48 -54q2 -22 2 -23q-20 -20 -37 -15l-3 15q-13 37 -66 34q-55 -4 -67 -51q-4 -21 -2 -68q3 -46 1 -117l154 2q4 1 6.5 -4.5t3.5 -17.5q2 -25 -5 -26l-40 3l-122 -3q-2 -29 3 -83
l137 2q4 1 6.5 -4.5t3.5 -18.5q2 -26 -5 -27l-40 3l-98 -2l1 -35q0 -97 4 -117q4 -25 21 -37q11 -10 24 -8q69 6 81 60l7 13q35 -5 33 -20q0 -12 -1 -15l-12 -24q-3 -9 -7 -19q-24 -24 -43 -30q-67 -20 -105 -3q-13 6 -51 68l-3 166q-10 -1 -26 -1l-12 12q-1 0 -1 40
q0 -2 37 -2l1 81h-28l-12 12q-1 0 -1 38z" />
    <glyph glyph-name="trademark" unicode="&#x2122;" horiz-adv-x="466" 
d="M51 700l151 2q5 -36 -5 -40q-11 1 -34 -1l-18 -2q-3 -48 -1 -154l3 -155q0 -28 -3 -29q-8 -2 -23 2q-16 3 -16 6l1 92q0 18 -2 122t-2 114q0 4 -22 3q-24 -2 -26 0q-3 4 -4 20q-1 13 1 20zM380 702l26 -15q9 -312 8 -353q-8 -11 -40 -6v64q-2 86 0 215l-36 -119
q-10 -11 -26 -7q-2 6 -4 10l-6 15q-12 35 -29 120q-3 -52 -2 -111q1 -51 -1 -105v-78q-3 -16 -37 -9q1 39 0 187q0 114 6 185q4 0 19 4q14 5 19 3l47 -164q44 159 56 164z" />
    <glyph glyph-name="minus" unicode="&#x2212;" 
d="M50 348q0 -3 117 -3l126 2q4 1 6.5 -4.5t3.5 -18.5q2 -26 -5 -27l-40 3l-195 -4l-12 12q-1 0 -1 40z" />
    <glyph glyph-name="uniFB01" unicode="&#xfb01;" horiz-adv-x="401" 
d="M52 499l54 -2l-1 51q0 74 37 108q47 46 163 44l1 1q4 0 4 -21q0 -18 -5 -23q-86 -3 -122 -33q-32 -26 -32 -81q0 -41 1 -46l54 -1l122 3l8 -1q8 0 13 -12l-4 -119l6 -359q-11 -8 -27 -8t-25 11l2 157l-4 281l-125 2q-11 0 -18 -1v-16q0 -5 -2 -43q-2 -32 -1 -41l2 -215
q0 -21 4 -60q3 -44 3 -62q-9 -9 -32 -9q-15 0 -20 5q-3 55 -3 114l2 180l-2 145q-14 -1 -40 -1l-12 12q-3 0 -3 13q0 7 2 27z" />
    <glyph glyph-name="uniFB02" unicode="&#xfb02;" horiz-adv-x="401" 
d="M343 350l2 -78v-137q0 -4 0.5 -12t1 -23t0.5 -27q2 -53 1 -65q-8 -8 -27 -9t-26 5q-5 63 0 179q4 130 3 181v149v118t-1 22q-88 -6 -119 -37q-24 -24 -29 -92q-1 -5 1 -27q42 0 55 1q4 1 6.5 -4.5t3.5 -18.5q2 -26 -5 -27l-40 3q-11 0 -18 -1l-3 -100l2 -78v-137
q0 -21 4 -60q5 -42 3 -62q-7 -7 -26 -9q-20 -2 -26 5q-4 52 -2 176q1 133 0 179q-1 19 -1 84q-14 -1 -40 -1l-12 12q-1 0 -1 40q0 -2 54 -2v16q-2 98 41 138q55 54 202 42q3 -56 -2 -167q-1 -18 0 -46l1 -46z" />
    <glyph glyph-name="uniFB06" unicode="&#xfb06;" horiz-adv-x="591" 
d="M370 502q0 -2 52 -2q-1 13 -1 57v22q1 58 -17 86q-64 51 -153 -8q-36 -32 -25 -115q2 -5 34 -42h2q17 -34 20 -104q5 -77 -18 -98q-32 0 -33 1q5 150 -3 162q-22 14 -63 7q-39 -7 -56 -24q-20 -96 16 -163l162 -92q38 -101 11 -142q-3 -8 -28 -24q-27 -18 -35 -19
q-92 -14 -145 5q-32 15 -34 71q-1 14 -1 77q0 7 2 10.5t6 2.5l29 -7q7 -4 7 -34q0 -47 4 -59q10 -37 123 -19q50 51 19 115q-23 19 -65 39q-46 22 -65 35q-45 31 -61 78q-4 9 -4 90q0 54 25 79q84 21 123 20q-1 1 -1 5q-16 61 -5 126q22 48 28 52q35 26 120 28q84 1 109 -27
q18 -23 23 -86h1l-1 -25l1 -80l53 1q9 0 9 -29q0 -19 -5 -21l-40 3q-11 0 -17 -1q0 -24 -2 -102l2 -107l-1 -14v-143q0 -41 25 -41q6 0 18 3q16 2 17 2q9 0 9 -35q0 -16 -50 -16q-68 0 -68 60l1 339q-1 20 -1 52q-15 -1 -40 -1l-12 12q-3 0 -3 13q0 7 2 27z" />
    <glyph glyph-name="CR" horiz-adv-x="340" 
 />
    <glyph glyph-name="T_h" horiz-adv-x="634" 
d="M541 484l35 -42q0 -365 5 -433q-30 -22 -53 -8q-11 41 -5 147q0 17 5 142l-3 139q-64 43 -156 -19q-2 -56 -2 -60l2 -78v-137q0 -21 4 -60q5 -42 3 -62q-7 -7 -26 -9q-20 -2 -26 5q-4 52 -2 176q1 133 0 179v149v117.5t-1 21.5l-106 2q-15 0 -18 -8q-2 -8 -2 -38l2 -249
q0 -52 6 -145q6 -91 6 -161q0 -53 -6 -54q-11 -5 -30 3q-18 6 -18 11q0 9 2 99l1 72q0 74 -4 195q-5 152 -5 212l1 52q0 7 -39 6q-43 -3 -49 -1q-19 22 -5 48l314 3q2 -17 1 -24q2 -47 -3 -149q-1 -14 1 -71q98 75 171 29z" />
    <glyph glyph-name="c_t" horiz-adv-x="638" 
d="M416 502q0 -2 52 -2q-1 13 -1 57q4 67 -17 99q-64 51 -153 -8q-36 -32 -25 -115q3 -18 27 -47q17 -9 12 -62q-3 -45 -13 -72q-24 0 -32 8l2 38q3 32 0 39t-21 14q-79 23 -119 -37q-14 -35 -24 -148q0 -175 32 -204q19 -16 55 -20q46 -6 70 17l16 65l25 6q5 1 7.5 -7
t2.5 -27q0 -58 -6 -63q-72 -44 -138 -34q-57 8 -84 43q-33 43 -34 123q-1 15 1 71q2 70 2 71q0 27 24 124q10 33 64 53q47 16 103 13q-16 67 -6 132q22 48 28 52q35 26 120 28q84 1 109 -27q23 -29 23 -102l1 -80l53 1q9 0 9 -29q0 -19 -5 -21l-40 3q-11 0 -17 -1
q0 -24 -2 -102l2 -107l-1 -14v-143q0 -41 25 -41q6 0 18 3q16 2 17 2q9 0 9 -35q0 -16 -50 -16q-68 0 -68 60l1 339q-1 20 -1 52q-15 -1 -40 -1l-12 12q-3 0 -3 13q0 7 2 27z" />
    <glyph glyph-name="c_k" horiz-adv-x="721" 
d="M622 9q-9 29 -52 133q-36 85 -49 132q-8 24 -10 29l-24 -37l-10 -12l-15 -18l1 -101q0 -21 4 -62q5 -45 3 -65q-7 -7 -26 -9q-20 -1 -26 5q-4 52 -2 179q1 135 0 181v157q-2 42 -2 45v44q-3 31 -17 55q-64 51 -153 -8q-40 -36 -25 -115q4 -30 63 -50q15 -4 30 -13
q-2 -94 -14 -127q-24 0 -32 8l2 38q3 32 0 39t-21 14q-79 23 -119 -37q-14 -35 -24 -148q0 -175 32 -204q19 -16 55 -20q46 -6 70 17l16 65l25 6q5 1 7.5 -7t2.5 -27q0 -58 -6 -63q-72 -44 -138 -34q-57 8 -84 43q-33 43 -34 123q-1 15 1 71q2 70 2 71q0 27 24 124
q18 59 133 66q-43 39 -25 141q22 48 28 52q35 26 118 28q82 1 107 -27q23 -29 23 -102v-27q2 -14 2 -36q-1 -18 0 -46l1 -46l-3 -84l1 -40q27 41 78 109q44 60 74 105q8 11 31 10q23 -2 24 -9q-27 -44 -124 -175q11 -20 25 -63q13 -45 50 -141q38 -96 50 -138q-3 -8 -23 -10
q-20 -1 -25 11z" />
    </font>
</defs>
</svg>
